<svg width="24" height="25" viewBox="0 0 24 25" fill="none" xmlns="http://www.w3.org/2000/svg">
<path d="M19.8333 5.83332H17.25C16.8513 3.89465 15.1459 2.5025 13.1666 2.5H11.5C9.5207 2.5025 7.81531 3.89465 7.41664 5.83332H4.83332C4.37309 5.83332 4 6.20641 4 6.66664C4 7.12687 4.37309 7.5 4.83332 7.5H5.66664V18.3333C5.66941 20.6334 7.53328 22.4973 9.83332 22.5H14.8333C17.1334 22.4973 18.9972 20.6334 19 18.3333V7.5H19.8333C20.2936 7.5 20.6666 7.12691 20.6666 6.66668C20.6666 6.20645 20.2936 5.83332 19.8333 5.83332ZM11.5 16.6667C11.5 17.1269 11.1269 17.5 10.6667 17.5C10.2064 17.5 9.83332 17.1269 9.83332 16.6667V11.6667C9.83332 11.2064 10.2064 10.8334 10.6666 10.8334C11.1269 10.8334 11.5 11.2064 11.5 11.6667V16.6667H11.5ZM14.8333 16.6667C14.8333 17.1269 14.4602 17.5 14 17.5C13.5398 17.5 13.1667 17.1269 13.1667 16.6667V11.6667C13.1667 11.2064 13.5398 10.8334 14 10.8334C14.4602 10.8334 14.8333 11.2064 14.8333 11.6667V16.6667ZM9.1425 5.83332C9.49695 4.83523 10.4409 4.16793 11.5 4.16664H13.1667C14.2258 4.16793 15.1697 4.83523 15.5242 5.83332H9.1425Z" fill="#F3F3F3"/>
</svg>
