<svg width="17" height="17" viewBox="0 0 17 17" fill="none" xmlns="http://www.w3.org/2000/svg">
<path d="M8.5 8.09668C7.4 8.09668 6.45833 7.70501 5.675 6.92168C4.89167 6.13835 4.5 5.19668 4.5 4.09668C4.5 2.99668 4.89167 2.05501 5.675 1.27168C6.45833 0.488347 7.4 0.0966797 8.5 0.0966797C9.6 0.0966797 10.5417 0.488347 11.325 1.27168C12.1083 2.05501 12.5 2.99668 12.5 4.09668C12.5 5.19668 12.1083 6.13835 11.325 6.92168C10.5417 7.70501 9.6 8.09668 8.5 8.09668ZM0.5 16.0967V13.2967C0.5 12.73 0.646 12.209 0.938 11.7337C1.22933 11.259 1.61667 10.8967 2.1 10.6467C3.13333 10.13 4.18333 9.74235 5.25 9.48368C6.31667 9.22568 7.4 9.09668 8.5 9.09668C9.6 9.09668 10.6833 9.22568 11.75 9.48368C12.8167 9.74235 13.8667 10.13 14.9 10.6467C15.3833 10.8967 15.7707 11.259 16.062 11.7337C16.354 12.209 16.5 12.73 16.5 13.2967V16.0967H0.5Z" fill="black"/>
</svg>
