<svg width="14" height="33" viewBox="0 0 14 33" fill="none" xmlns="http://www.w3.org/2000/svg">
<path d="M7.82022 13.8304L13.7528 7.97218C13.8427 7.88342 13.9065 7.78726 13.9443 7.68371C13.9814 7.58015 14 7.4692 14 7.35085C14 7.23251 13.9814 7.12155 13.9443 7.018C13.9065 6.91444 13.8427 6.81829 13.7528 6.72953L7.82022 0.871276C7.65543 0.708547 7.44959 0.623337 7.2027 0.615644C6.95521 0.608543 6.74157 0.693754 6.5618 0.871276C6.38202 1.03401 6.28824 1.23727 6.28045 1.48107C6.27326 1.72546 6.35955 1.93641 6.53933 2.11394L10.9438 6.46324H0.898876C0.644195 6.46324 0.430562 6.54816 0.257978 6.71799C0.0859928 6.88841 0 7.09936 0 7.35085C0 7.60234 0.0859928 7.813 0.257978 7.98283C0.430562 8.15326 0.644195 8.23847 0.898876 8.23847H10.9438L6.53933 12.5878C6.37453 12.7505 6.28824 12.9576 6.28045 13.2091C6.27326 13.4606 6.35955 13.6677 6.53933 13.8304C6.70412 14.008 6.91386 14.0967 7.16854 14.0967C7.42322 14.0967 7.64045 14.008 7.82022 13.8304Z" fill="black"/>
<path d="M6.17978 32.3119L0.247191 26.4536C0.157303 26.3649 0.093483 26.2687 0.0557302 26.1652C0.0185766 26.0616 0 25.9506 0 25.8323C0 25.714 0.0185766 25.603 0.0557302 25.4994C0.093483 25.3959 0.157303 25.2997 0.247191 25.211L6.17978 19.3527C6.34457 19.19 6.55041 19.1048 6.7973 19.0971C7.04479 19.09 7.25843 19.1752 7.4382 19.3527C7.61798 19.5155 7.71176 19.7187 7.71955 19.9625C7.72674 20.2069 7.64045 20.4179 7.46067 20.5954L3.05618 24.9447H13.1011C13.3558 24.9447 13.5694 25.0296 13.742 25.1994C13.914 25.3699 14 25.5808 14 25.8323C14 26.0838 13.914 26.2944 13.742 26.4643C13.5694 26.6347 13.3558 26.7199 13.1011 26.7199H3.05618L7.46067 31.0692C7.62547 31.2319 7.71176 31.4391 7.71955 31.6905C7.72674 31.942 7.64045 32.1491 7.46067 32.3119C7.29588 32.4894 7.08614 32.5782 6.83146 32.5782C6.57678 32.5782 6.35955 32.4894 6.17978 32.3119Z" fill="black"/>
</svg>
