<svg width="26" height="24" viewBox="0 0 26 24" fill="none" xmlns="http://www.w3.org/2000/svg">
<path d="M21.7385 3.14583C21.4806 2.44432 21.014 1.83865 20.4015 1.41032C19.7889 0.981984 19.0599 0.751543 18.3125 0.750001H7.6875C6.94701 0.749423 6.22397 0.974792 5.61495 1.39601C5.00593 1.81722 4.53992 2.41423 4.27917 3.10729L2.03021 8.77083C1.01631 11.5521 0.49838 14.4897 0.500004 17.45V18.9792C0.500004 19.8421 1.19956 20.5417 2.0625 20.5417C2.92545 20.5417 3.625 21.2412 3.625 22.1042C3.625 22.9671 4.32456 23.6667 5.1875 23.6667H6.22917C7.09211 23.6667 7.79167 22.9671 7.79167 22.1042C7.79167 21.2412 8.49122 20.5417 9.35417 20.5417H16.6458C17.5088 20.5417 18.2083 21.2412 18.2083 22.1042C18.2083 22.9671 18.9079 23.6667 19.7708 23.6667H20.8125C21.6754 23.6667 22.375 22.9671 22.375 22.1042C22.375 21.2412 23.0746 20.5417 23.9375 20.5417C24.8004 20.5417 25.5 19.8421 25.5 18.9792V17.45C25.5005 14.4738 24.9773 11.5208 23.9542 8.72604L21.7385 3.14583ZM18.2083 15.8542C18.2083 15.4398 18.373 15.0423 18.666 14.7493C18.959 14.4563 19.3564 14.2917 19.7708 14.2917C20.1852 14.2917 20.5827 14.4563 20.8757 14.7493C21.1687 15.0423 21.3333 15.4398 21.3333 15.8542C21.3333 16.2686 21.1687 16.666 20.8757 16.959C20.5827 17.252 20.1852 17.4167 19.7708 17.4167C19.3564 17.4167 18.959 17.252 18.666 16.959C18.373 16.666 18.2083 16.2686 18.2083 15.8542ZM4.94896 9.88021L7.2 4.21771C7.23645 4.11757 7.30272 4.03103 7.3899 3.96975C7.47707 3.90846 7.58095 3.87539 7.6875 3.875H18.3125C18.4266 3.87784 18.5368 3.91663 18.6276 3.98584C18.7183 4.05505 18.7848 4.15115 18.8177 4.26042L21.0344 9.8375C21.2735 10.4955 20.7623 11.1667 20.0621 11.1667H5.88983C5.21513 11.1667 4.71926 10.5146 4.94896 9.88021ZM6.22917 17.4167C5.81477 17.4167 5.41734 17.252 5.12432 16.959C4.83129 16.666 4.66667 16.2686 4.66667 15.8542C4.66667 15.4398 4.83129 15.0423 5.12432 14.7493C5.41734 14.4563 5.81477 14.2917 6.22917 14.2917C6.64357 14.2917 7.041 14.4563 7.33402 14.7493C7.62705 15.0423 7.79167 15.4398 7.79167 15.8542C7.79167 16.2686 7.62705 16.666 7.33402 16.959C7.041 17.252 6.64357 17.4167 6.22917 17.4167Z" fill="#638A9C"/>
</svg>
