<svg width="26" height="26" viewBox="0 0 26 26" fill="none" xmlns="http://www.w3.org/2000/svg">
<path d="M11.6111 0.5C12.5367 0.5 13.4633 0.5 14.3889 0.5C14.4967 0.523332 14.6033 0.55222 14.7133 0.568886C18.1244 1.07886 20.8889 2.69324 23.0022 5.41978C24.3944 7.21637 25.1378 9.27961 25.5 11.4995V14.4994C25.4678 14.6616 25.4333 14.8238 25.4044 14.9871C24.7144 18.7514 22.78 21.6768 19.5289 23.719C17.9856 24.6878 16.2778 25.19 14.5 25.5H11.5C11.3744 25.4722 11.25 25.4389 11.1233 25.4178C7.74667 24.8511 5.00444 23.2245 2.93222 20.4936C1.58333 18.7147 0.853333 16.6826 0.5 14.4994C0.5 13.4994 0.5 12.4995 0.5 11.4995C0.532222 11.3373 0.566667 11.1751 0.596667 11.0118C1.27 7.31081 3.15778 4.41205 6.32889 2.36881C7.94111 1.33107 9.72778 0.776654 11.6111 0.5ZM15.7711 5.96642C15.2178 5.93531 14.7156 6.30641 14.3233 6.86861C13.8067 7.60746 13.5989 8.45742 13.5622 9.33072C13.5044 10.684 13.7478 11.9595 14.8767 12.8839C15.0978 13.065 15.0978 13.2917 15.0989 13.5339C15.1011 14.9216 15.0978 16.3104 15.1111 17.6981C15.1167 18.2337 15.14 18.7725 15.2011 19.3047C15.25 19.7391 15.5144 20.0191 15.9789 20.0147C16.4611 20.0102 16.7244 19.7258 16.7911 19.2658C16.8222 19.0481 16.8122 18.8225 16.8067 18.6003C16.7622 16.9359 16.7256 15.2705 16.6611 13.6072C16.6467 13.2328 16.7056 12.9761 17.08 12.8095C17.4422 12.6472 17.6911 12.3384 17.89 11.995C18.7089 10.5818 18.5667 8.17744 17.5867 6.87083C17.1756 6.32307 16.6478 5.98976 15.7722 5.96642H15.7711ZM11.8144 8.74297C11.8144 8.74297 11.8189 8.74297 11.8211 8.74297C11.8211 8.003 11.8267 7.26192 11.8178 6.52195C11.8156 6.29863 11.7111 6.11975 11.4567 6.11086C11.2044 6.10197 11.0867 6.26752 11.0656 6.49307C11.0311 6.86083 11.0078 7.23081 10.9978 7.6008C10.9844 8.13744 10.99 8.67408 10.9811 9.21072C10.9767 9.49849 10.8711 9.73292 10.5433 9.74403C10.2444 9.75403 10.1233 9.54182 10.0944 9.2785C10.0744 9.09517 10.08 8.90963 10.0833 8.72519C10.0944 8.02189 10.1122 7.3197 10.1211 6.61639C10.1244 6.32863 10.1067 6.00309 9.72111 6.01975C9.36333 6.0342 9.39333 6.36641 9.38444 6.61862C9.35667 7.43191 9.33889 8.24632 9.31778 9.05962C9.31 9.34516 9.31333 9.66848 8.92 9.6607C8.51333 9.65293 8.56111 9.31294 8.56111 9.03851C8.56111 8.2241 8.56556 7.40969 8.56778 6.59528C8.56778 6.32307 8.54333 6.04086 8.20556 6.0042C7.84333 5.96531 7.74667 6.25197 7.68333 6.53418C7.65889 6.64084 7.65889 6.75417 7.65778 6.86527C7.63889 7.95634 7.59667 9.04851 7.56778 10.1385C7.54222 11.0762 7.67222 12.0217 8.78111 12.3928C9.04778 12.4817 9.06556 12.7095 9.05556 12.9394C9.01 14.0483 8.95667 15.1571 8.91556 16.266C8.88 17.227 8.84 18.1892 8.83222 19.1514C8.82778 19.748 9.12444 20.0314 9.66667 20.0269C10.2578 20.0214 10.5867 19.6558 10.5656 18.9458C10.5089 16.9859 10.4311 15.026 10.3611 13.0661C10.35 12.7639 10.3456 12.5006 10.7122 12.3473C11.4322 12.0462 11.7811 11.454 11.8067 10.6873C11.8289 10.0407 11.8111 9.39183 11.8111 8.74519L11.8144 8.74297Z" fill="#1A9DD0"/>
</svg>
