<svg width="23" height="27" viewBox="0 0 23 27" fill="none" xmlns="http://www.w3.org/2000/svg">
<path d="M11.762 0.304688C8.88584 0.307852 6.12838 1.45172 4.09453 3.48537C2.06069 5.51901 0.916538 8.27635 0.913086 11.1525C0.913086 13.946 3.07613 18.3177 7.34242 24.146C7.85031 24.8417 8.51531 25.4078 9.28329 25.798C10.0513 26.1883 10.9005 26.3916 11.762 26.3916C12.6234 26.3916 13.4727 26.1883 14.2407 25.798C15.0087 25.4078 15.6736 24.8417 16.1815 24.146C20.4478 18.3177 22.6109 13.946 22.6109 11.1525C22.6074 8.27635 21.4633 5.51901 19.4294 3.48537C17.3956 1.45172 14.6381 0.307852 11.762 0.304688ZM11.762 15.4764C10.9021 15.4764 10.0615 15.2214 9.34646 14.7437C8.63147 14.2659 8.0742 13.5869 7.74512 12.7924C7.41604 11.998 7.32994 11.1238 7.4977 10.2804C7.66547 9.43697 8.07956 8.66226 8.68761 8.05421C9.29566 7.44616 10.0704 7.03207 10.9138 6.86431C11.7572 6.69655 12.6314 6.78265 13.4258 7.11172C14.2203 7.4408 14.8993 7.99807 15.3771 8.71307C15.8548 9.42806 16.1098 10.2687 16.1098 11.1286C16.1098 12.2817 15.6517 13.3876 14.8364 14.203C14.021 15.0183 12.9151 15.4764 11.762 15.4764Z" fill="#1A9DD0"/>
</svg>
