<svg width="26" height="23" viewBox="0 0 26 23" fill="none" xmlns="http://www.w3.org/2000/svg">
<path d="M10.6035 9.45449C10.0984 8.73422 10.3614 8.07094 10.646 7.4135C10.7475 7.17881 10.8698 6.95121 11.003 6.73275C11.2951 6.2534 11.6026 5.7832 11.8997 5.30676C12.0682 5.03629 12.2164 4.75209 12.3957 4.48911C12.7332 3.99436 13.1921 3.71308 13.8096 3.80503C14.7866 3.95067 15.2947 4.93975 14.9002 5.90179C14.8231 6.08987 14.8765 6.22996 15.0604 6.32205C15.5132 6.54883 15.965 6.77644 16.4182 7.00155C16.682 7.13263 16.8347 7.10017 17.0111 6.86091C17.1052 6.73317 17.1871 6.59377 17.255 6.45063C17.7248 5.45656 18.507 4.79328 19.4799 4.326C20.1794 3.98979 20.9238 3.75261 21.6004 3.3648C21.9145 3.18462 22.2091 2.97948 22.4783 2.73731C22.5175 2.70236 22.5537 2.64036 22.6169 2.67032C22.6781 2.69944 22.6577 2.76727 22.6593 2.8197C22.6664 3.07602 22.6556 3.33359 22.6793 3.58824C22.7313 4.14791 23.0725 4.55486 23.4404 4.93767C23.9734 5.49234 24.5564 5.99916 25.0519 6.59003C25.1764 6.73816 25.2958 6.89378 25.394 7.05981C25.6349 7.46718 25.4502 7.90492 24.992 8.01394C24.4806 8.13544 23.9859 8.00728 23.4965 7.87912C23.0809 7.7701 22.6652 7.66275 22.2428 7.58285C21.5854 7.45802 21.4015 7.53126 21.0711 8.1163C20.7544 8.67638 20.4128 9.22772 20.31 9.88225C20.2497 10.2663 20.2201 10.6529 20.2097 11.0407C20.1918 11.7231 20.1294 12.3972 19.8652 13.0363C19.8094 13.1716 19.8506 13.2789 19.9314 13.3825C20.1128 13.6164 20.355 13.7803 20.593 13.9476C21.1098 14.3109 21.6532 14.635 22.2129 14.9246C23.0122 15.3378 23.383 16.0136 23.4932 16.8682C23.586 17.5877 23.5352 18.3071 23.4807 19.0262C23.4441 19.5097 23.405 19.9928 23.3721 20.4763C23.358 20.686 23.3418 20.6997 23.1578 20.5911C22.8774 20.4251 22.6019 20.2503 22.3181 20.091C22.1796 20.0132 22.1197 19.9158 22.1346 19.756C22.1887 19.1631 22.2337 18.5689 22.2878 17.9759C22.3181 17.6422 22.2982 17.3114 22.2462 16.9818C22.1866 16.6065 21.9299 16.3743 21.642 16.1717C21.0544 15.7581 20.3924 15.4834 19.7483 15.1759C19.5731 15.0923 19.3971 15.0103 19.224 14.9225C19.1337 14.8768 19.0675 14.8801 19.0218 14.9812C18.319 16.5341 17.4014 17.9851 16.8355 19.6029C16.5189 20.5092 16.3192 21.43 16.4615 22.3966C16.4818 22.5348 16.444 22.608 16.2917 22.6063C16.0978 22.6042 15.9035 22.6142 15.7096 22.6142C15.4574 22.6142 15.2943 22.4902 15.209 22.2531C15.0342 21.7662 15.0172 21.2848 15.1907 20.7888C15.8319 18.9567 16.4635 17.1216 17.0944 15.2862C17.1331 15.1739 17.25 15.0386 17.163 14.9421C17.0873 14.858 16.9412 14.9533 16.828 14.9737C15.6584 15.1863 14.4804 15.3182 13.2928 15.2038C12.563 15.1335 11.8385 15.0033 11.112 14.8971C10.7546 14.8451 10.7417 14.8493 10.5686 15.156C10.0713 16.0377 9.58615 16.9265 9.07101 17.7974C8.79722 18.2601 8.7839 18.7274 8.92788 19.218C9.12927 19.905 9.50501 20.5058 9.88159 21.105C10.1508 21.5336 10.4263 21.958 10.6934 22.3879C10.8012 22.561 10.7795 22.6022 10.5744 22.6092C10.2432 22.6209 9.91446 22.6991 9.58033 22.6309C9.40473 22.5951 9.27824 22.5152 9.19293 22.3525C8.69153 21.3942 8.17472 20.4442 7.68497 19.4797C7.28884 18.6995 7.23017 17.8598 7.34418 17.0051C7.40992 16.5108 7.49314 16.019 7.56596 15.5255C7.5747 15.4655 7.60508 15.3848 7.55431 15.3474C7.49314 15.302 7.44404 15.3794 7.39536 15.4119C6.72585 15.8575 6.02471 16.2549 5.37767 16.7343C5.16628 16.8907 4.96697 17.0634 4.76225 17.2294C4.21965 17.6684 4.1668 18.258 4.24711 18.8913C4.37402 19.8925 4.67819 20.8529 4.91329 21.829C4.94242 21.9501 4.96447 22.0733 4.99277 22.1948C5.02065 22.3155 4.9703 22.3567 4.86128 22.3159C4.53713 22.194 4.20799 22.082 3.92463 21.8727C3.62878 21.6543 3.5131 21.3389 3.46109 20.9956C3.32294 20.0847 3.18438 19.1739 3.06162 18.2609C2.98132 17.6638 3.13777 17.1067 3.40117 16.5736C3.62004 16.1305 3.89508 15.7231 4.18719 15.3262C4.3761 15.0694 4.55835 14.8077 4.6965 14.5177C4.76807 14.3674 4.78596 14.2256 4.73229 14.0587C4.55336 13.5015 4.5284 12.929 4.61703 12.3527C4.67403 11.9827 4.8671 11.6653 5.02647 11.3349C5.13508 11.1102 5.23869 10.8834 5.33855 10.655C5.4251 10.4561 5.39722 10.2896 5.21747 10.1394C4.97155 9.93343 4.72605 9.7337 4.41646 9.62967C4.03781 9.50276 3.70534 9.57849 3.42197 9.85728C3.01752 10.2547 2.82278 10.7677 2.65467 11.2912C2.48698 11.813 2.37214 12.3493 2.28226 12.8894C2.25272 13.0675 2.19238 13.0929 2.03717 13.0201C1.65519 12.8408 1.24782 12.7143 0.892468 12.4775C0.507155 12.2208 0.433504 12.0398 0.551262 11.6008C0.722281 10.9645 0.897877 10.3291 1.21537 9.74535C1.63605 8.97181 2.27019 8.49537 3.14568 8.34724C3.55055 8.27858 3.9317 8.35889 4.3012 8.51618C4.74352 8.70467 5.13424 8.98471 5.54577 9.22813C5.69474 9.31593 5.84786 9.39957 6.00723 9.46615C6.24192 9.56435 6.48492 9.61594 6.7325 9.50151C7.6134 9.09415 8.53174 9.09831 9.4634 9.25518C9.82957 9.31676 10.1953 9.38209 10.6048 9.45366L10.6035 9.45449ZM15.1848 9.43078C15.281 9.43078 15.3334 9.37377 15.3817 9.31468C15.6288 9.01301 15.8078 8.66764 16.0046 8.33392C16.0766 8.21242 15.9904 8.17747 15.9064 8.13544C15.3921 7.8787 14.8761 7.62488 14.366 7.36107C14.2095 7.28034 14.1105 7.31238 14.0181 7.4522C13.8229 7.74763 13.6702 8.06637 13.5017 8.37637C13.4268 8.5141 13.4518 8.57818 13.5912 8.64559C14.0838 8.88318 14.5711 9.13243 15.0604 9.37668C15.1033 9.39832 15.1486 9.41496 15.1853 9.43078H15.1848Z" fill="#638A9C"/>
<path d="M13.3544 2.15145C13.3552 1.32298 13.949 0.748339 14.8033 0.750004C15.643 0.751668 16.2538 1.34753 16.2513 2.16268C16.2484 2.97991 15.6409 3.56287 14.7933 3.56121C13.9407 3.55955 13.354 2.98449 13.3548 2.15145H13.3544Z" fill="#638A9C"/>
</svg>
