<svg width="40" height="40" viewBox="0 0 40 40" fill="none" xmlns="http://www.w3.org/2000/svg">
<path d="M22.9995 14.7117C23.0923 14.8042 23.1658 14.9141 23.216 15.0351C23.2662 15.1561 23.292 15.2858 23.292 15.4167C23.292 15.5477 23.2662 15.6774 23.216 15.7984C23.1658 15.9193 23.0923 16.0292 22.9995 16.1217L19.1195 20.0017L22.9995 23.8817C23.1865 24.0687 23.2916 24.3223 23.2916 24.5867C23.2916 24.8512 23.1865 25.1048 22.9995 25.2917C22.8126 25.4787 22.559 25.5838 22.2945 25.5838C22.0301 25.5838 21.7765 25.4787 21.5895 25.2917L16.9995 20.7017C16.9068 20.6092 16.8333 20.4993 16.7831 20.3784C16.7329 20.2574 16.7071 20.1277 16.7071 19.9967C16.7071 19.8658 16.7329 19.7361 16.7831 19.6151C16.8333 19.4941 16.9068 19.3842 16.9995 19.2917L21.5895 14.7017C21.9695 14.3217 22.6095 14.3217 22.9995 14.7117Z" fill="#F4F7F8"/>
<rect x="-1" y="1" width="38" height="38" rx="19" transform="matrix(-1 0 0 1 38 0)" stroke="#F4F7F8" stroke-width="2"/>
</svg>
