<svg width="40" height="41" viewBox="0 0 40 41" fill="none" xmlns="http://www.w3.org/2000/svg">
<path d="M23 14.9608C23.0927 15.0533 23.1663 15.1632 23.2165 15.2841C23.2667 15.4051 23.2925 15.5348 23.2925 15.6658C23.2925 15.7967 23.2667 15.9264 23.2165 16.0474C23.1663 16.1684 23.0927 16.2782 23 16.3708L19.12 20.2508L23 24.1308C23.187 24.3177 23.2921 24.5713 23.2921 24.8358C23.2921 25.1002 23.187 25.3538 23 25.5408C22.8131 25.7277 22.5595 25.8328 22.295 25.8328C22.0306 25.8328 21.777 25.7277 21.59 25.5408L17 20.9508C16.9073 20.8582 16.8338 20.7484 16.7836 20.6274C16.7334 20.5064 16.7076 20.3767 16.7076 20.2458C16.7076 20.1148 16.7334 19.9851 16.7836 19.8641C16.8338 19.7432 16.9073 19.6333 17 19.5408L21.59 14.9508C21.97 14.5708 22.61 14.5708 23 14.9608Z" fill="#8FACB8"/>
<rect x="-1" y="1" width="38" height="38" rx="19" transform="matrix(-1 0 0 1 38 0.25)" stroke="#8FACB8" stroke-width="2"/>
</svg>
