<svg width="16" height="17" viewBox="0 0 16 17" fill="none" xmlns="http://www.w3.org/2000/svg">
<path d="M8 8.09668C6.9 8.09668 5.95833 7.70501 5.175 6.92168C4.39167 6.13835 4 5.19668 4 4.09668C4 2.99668 4.39167 2.05501 5.175 1.27168C5.95833 0.488347 6.9 0.0966797 8 0.0966797C9.1 0.0966797 10.0417 0.488347 10.825 1.27168C11.6083 2.05501 12 2.99668 12 4.09668C12 5.19668 11.6083 6.13835 10.825 6.92168C10.0417 7.70501 9.1 8.09668 8 8.09668ZM0 16.0967V13.2967C0 12.73 0.146 12.209 0.438 11.7337C0.729334 11.259 1.11667 10.8967 1.6 10.6467C2.63333 10.13 3.68333 9.74235 4.75 9.48368C5.81667 9.22568 6.9 9.09668 8 9.09668C9.1 9.09668 10.1833 9.22568 11.25 9.48368C12.3167 9.74235 13.3667 10.13 14.4 10.6467C14.8833 10.8967 15.2707 11.259 15.562 11.7337C15.854 12.209 16 12.73 16 13.2967V16.0967H0Z" fill="#F3F3F3"/>
</svg>
