<svg width="14" height="23" viewBox="0 0 14 23" fill="none" xmlns="http://www.w3.org/2000/svg">
<path d="M3.00417 0.882878L12.8333 10.6829C12.95 10.7995 13.0325 10.9259 13.0807 11.062C13.1297 11.1982 13.1542 11.344 13.1542 11.4995C13.1542 11.6551 13.1297 11.8009 13.0807 11.937C13.0325 12.0732 12.95 12.1995 12.8333 12.3162L3.00418 22.1454C2.73195 22.4176 2.39167 22.5537 1.98334 22.5537C1.57501 22.5537 1.22501 22.4079 0.933343 22.1162C0.641676 21.8245 0.495843 21.4843 0.495843 21.0954C0.495843 20.7065 0.641676 20.3662 0.933343 20.0745L9.50834 11.4995L0.933341 2.92454C0.661119 2.65232 0.525007 2.3171 0.525007 1.91888C0.525007 1.51988 0.67084 1.17454 0.962507 0.882878C1.25417 0.591212 1.59445 0.445378 1.98334 0.445378C2.37223 0.445378 2.71251 0.591212 3.00417 0.882878Z" fill="#3C3C3C"/>
</svg>
