<svg width="297" height="86" viewBox="0 0 297 86" fill="none" xmlns="http://www.w3.org/2000/svg">
<g clip-path="url(#clip0_2301_18240)">
<path d="M80.9623 32.4977C78.5959 26.4882 74.7875 21.8836 68.9853 19.0855C68.1554 18.6855 67.1836 18.7177 66.3826 19.1706C63.7774 20.6449 61.4559 22.5596 59.5229 24.8132C59.015 24.1901 55.2787 19.6722 52.4317 18.1153C52.0568 17.9095 51.6226 17.6616 51.1507 17.3873C48.4767 15.8279 44.5843 13.3636 43.0966 12.4165C42.7153 12.1736 42.2323 12.1653 41.8389 12.3884C41.319 12.6835 40.8071 12.9917 40.3049 13.3107C36.128 15.9667 32.5416 19.4607 29.785 23.5537C27.0165 20.7969 23.5141 18.7673 19.5936 17.7814C18.7517 17.5699 17.8545 17.793 17.2184 18.3814C10.8258 24.2892 5.49855 31.7003 0.342773 38.8774C0.342773 31.3482 3.22507 23.9083 7.31461 18.1913C14.848 7.65077 27.2264 0.774414 41.2221 0.774414C41.3319 0.774414 41.4424 0.774414 41.5522 0.776893C50.2119 0.84383 58.2395 3.54033 64.8677 8.10694C68.2267 10.4192 71.2243 13.2115 73.7654 16.384C77.5561 21.1176 80.3503 26.4428 80.9623 32.4977Z" fill="url(#paint0_linear_2301_18240)"/>
<path d="M23.5205 25.9715C23.7985 25.5566 23.6222 25.0277 21.2302 24.8484C21.2013 24.8459 21.1709 24.8459 21.1421 24.8484C17.9946 25.0674 18.307 27.4044 18.6563 28.5523C18.8165 29.0787 19.2331 29.4944 19.7642 29.6481C20.8417 29.9604 23.0006 29.9142 26.6912 27.2664C26.8955 27.1201 27.1758 27.1358 27.3633 27.3028C27.6212 27.5325 27.9561 27.6598 28.3022 27.6598H29.5943C29.8434 27.6598 30.0822 27.5639 30.2616 27.3929L41.7836 16.3895C42.2595 15.935 42.982 15.8565 43.5476 16.1961C44.5033 16.7697 45.9869 17.758 47.223 19.0108C47.5538 19.3463 47.6283 19.8521 47.4032 20.2653C46.7856 21.3983 46.1824 23.037 45.342 24.1228C44.6907 24.9649 43.4843 25.1517 42.6135 24.5352C42.4309 24.4055 42.2458 24.2699 42.0504 24.1485C41.6739 23.9138 41.3903 23.5435 41.3054 23.1105C41.2317 22.7329 41.2941 22.3031 41.7932 22.0247C42.104 21.8511 42.4757 21.8147 42.825 21.8866C44.0274 22.1329 44.7556 22.1222 45.1786 22.0552C45.5551 21.9957 45.8307 21.6734 45.8139 21.295C45.789 20.7396 45.3612 19.9703 43.2528 19.8273C40.4146 19.6347 39.8338 21.6338 39.7216 22.2643C39.6976 22.4015 39.6639 22.5345 39.6271 22.6692C39.5422 22.9816 39.414 23.6179 39.4669 24.5046C39.543 25.7979 43.5212 26.6342 43.5212 26.6342C43.5212 26.6342 45.2042 27.0904 46.1984 25.7599C46.9466 24.7583 48.5392 22.6808 49.2818 21.7131C49.4924 21.4379 49.8978 21.409 50.1469 21.6503L54.6098 25.9773C55.978 27.3036 57.5025 28.4655 59.1687 29.396C61.6529 30.7843 65.2097 32.2107 68.793 31.7281C70.134 31.5479 71.3404 30.7546 71.9468 29.5522C72.2617 28.9283 72.3746 28.3044 72.3898 27.7606C72.4203 26.6483 71.7346 25.6302 70.6923 25.2252C69.735 24.8542 68.3323 24.6104 66.5836 25.1509C64.5512 25.7797 64.3718 27.0053 64.5664 27.9036C64.7611 28.8035 65.5718 29.4712 66.4923 29.3754C67.0698 29.315 67.7187 28.9737 68.245 27.9771C68.4092 27.6656 68.6119 27.3714 68.8619 27.1218C70.0971 25.8864 70.9439 26.9383 70.9439 26.9383C70.9439 26.9383 72.2729 28.1697 69.075 30.0662C66.9096 31.3504 64.3838 30.3728 62.9771 29.6076C62.3058 29.2423 61.9998 28.4515 62.2529 27.7333C62.7432 26.3425 63.7782 24.0105 65.6375 22.2593C66.1077 21.8164 66.7927 21.685 67.4047 21.8957C70.6923 23.0246 81.1353 27.6846 81.7153 41.467C81.7457 42.1976 81.4012 42.895 80.806 43.3231C79.7654 44.0718 77.7379 45.2403 74.1578 46.3419C73.8294 46.4427 73.4689 46.3229 73.2798 46.0369C73.134 45.8171 72.965 45.5122 72.8072 45.1073C72.6422 44.6833 72.4435 44.2726 72.1928 43.8917C71.6176 43.0173 71.3316 42.2009 71.2074 41.7678C71.1882 41.7017 71.2779 41.6612 71.3172 41.7174L73.2678 44.4957C73.3591 44.6263 73.5506 44.6346 73.6531 44.5123L73.9479 44.1627C74.1939 43.871 74.2484 43.4661 74.0881 43.1215C73.3175 41.4629 70.7893 36.8674 66.8231 37.8524C63.4593 38.5986 61.5656 37.5169 61.0553 37.1607C60.9023 37.0541 60.7461 36.9525 60.5811 36.8649C59.5781 36.3335 56.5708 35.0105 55.1489 37.3673L54.4319 37.2533C54.4319 37.2533 54.4111 37.4624 54.5673 37.8632C54.6202 37.9979 54.6498 38.1433 54.6394 38.2879C54.5689 39.2474 55.0087 39.8713 55.3868 40.2242C55.7874 40.5985 56.0229 41.1183 56.0685 41.6629C56.0733 41.724 56.0774 41.7852 56.0806 41.8472C56.0942 42.143 56.3361 42.3785 56.6341 42.3934C57.0627 42.4141 57.5762 42.4256 57.5594 42.3587C57.5305 42.2447 57.2149 40.4481 57.7885 39.649C58.173 39.1135 58.2739 40.7853 58.2988 41.9439C58.3124 42.5876 58.1474 43.2231 57.8181 43.7776L55.6039 47.5129C55.5102 47.6715 55.4541 47.8492 55.4421 48.0327C55.4245 48.2938 55.4117 48.6425 55.4653 48.6607C55.551 48.6896 56.2969 48.6896 56.6702 48.3467C57.005 48.0393 57.8726 44.8784 59.6878 43.8454C60.1188 43.5999 60.6588 43.5842 61.0865 43.8346C61.862 44.2883 62.043 45.194 62.0671 45.8279C62.0847 46.2973 62.3186 46.7311 62.6975 47.0104L64.3189 48.2062C64.4166 48.2781 64.3774 48.431 64.2572 48.4467C62.6503 48.6492 55.4781 49.4623 49.7568 48.6715L41.8397 46.8195C41.2341 46.6782 40.8055 46.1419 40.8015 45.5238L40.7806 41.6216C40.779 41.372 40.7326 41.1257 40.6405 40.8935C40.429 40.3613 39.9611 39.4895 39.1504 39.4093C38.8164 39.3763 38.4911 39.5746 38.3942 39.8944C38.3317 40.1018 38.3141 40.387 38.4287 40.7621C38.4775 40.9241 38.6329 41.0307 38.8036 41.0307H38.8116C38.9782 41.0307 39.12 40.9092 39.144 40.7456L39.1785 40.5142C39.2025 40.3531 39.4004 40.282 39.5181 40.396C39.8434 40.7109 40.2255 41.2861 39.3675 41.7588C39.2249 41.8373 39.0623 41.8728 38.9005 41.8728H38.6426C38.3365 41.8728 38.0473 41.7356 37.8591 41.4968C37.4417 40.9687 36.8561 39.9564 37.4249 38.9242C37.6244 38.5623 37.9472 38.283 38.3189 38.0995C38.3309 38.0937 38.3429 38.0879 38.355 38.0813C38.842 37.8458 39.3812 37.7367 39.9219 37.7392L43.4531 37.7566C44.561 37.7615 45.4766 38.6144 45.5559 39.7126C45.6761 41.3728 45.8091 43.7231 45.7322 45.2329C45.7145 45.5833 46.0678 45.8345 46.3979 45.708L48.6569 44.842C49.0839 44.6784 49.4067 44.3214 49.5253 43.8817L51.0249 38.3177C51.2188 37.5996 51.0489 36.8343 50.5715 36.2625C48.5047 33.785 42.5166 27.3044 36.7536 27.7358C31.3463 28.1407 25.9606 33.3354 23.6887 35.8038C22.9741 36.5798 22.6681 37.6433 22.8612 38.678L23.6174 42.7281C23.6807 43.0653 23.3851 43.3595 23.0462 43.2975C20.5052 42.8314 11.4802 41.6059 2.37185 45.57C-0.222058 46.3138 -0.202832 44.6007 0.20492 43.1553C0.458864 42.2538 0.883439 41.4092 1.42417 40.6431C3.53743 37.6508 11.4938 26.8202 19.6681 21.2883C20.0814 21.009 20.5941 20.9066 21.0788 21.0297C22.0529 21.2776 23.7672 21.9635 25.4199 23.8584C25.8116 24.3071 25.7627 24.9881 25.3237 25.3905L23.0671 27.4598C22.6096 27.8788 21.9992 28.1151 21.38 28.0597C20.9834 28.0242 20.5653 27.8705 20.2424 27.4697C19.7041 26.8003 20.3562 26.3714 20.9194 26.1442C21.3968 25.9516 21.9383 25.9607 22.395 26.1971L22.4398 26.2202C22.8131 26.4152 23.2898 26.321 23.5237 25.9723L23.5205 25.9715Z" fill="#69B9DC"/>
<path d="M63.0587 43.0902C63.5537 43.0819 64.8451 42.9398 66.678 41.8638C66.8029 41.7903 66.9648 41.8184 67.0513 41.9349C67.3044 42.2778 67.7522 43.1414 67.8059 45.0024C67.8115 45.1884 67.7434 45.3693 67.6152 45.5049C67.2387 45.9032 66.4264 46.8626 66.1453 47.9873C66.1292 48.0526 66.0427 48.0667 66.0091 48.008L65.82 47.675C65.6446 47.3659 65.3482 47.1419 65.0013 47.0568L64.1145 46.8378C63.8509 46.7725 63.6226 46.6114 63.4776 46.3833C63.1572 45.88 62.6862 44.8578 62.8111 43.3199C62.8216 43.1918 62.9289 43.0926 63.0587 43.0902Z" fill="#69B9DC"/>
<path d="M67.8445 47.5331C67.9134 47.1885 68.1024 46.5224 68.6448 45.963C68.9948 45.6018 69.1727 45.1077 69.1727 44.6061V43.5045C69.1727 43.4103 69.2688 43.3466 69.3561 43.3838C69.9273 43.6268 71.6728 44.5185 72.2945 46.5431C72.3393 46.6902 72.2512 46.8447 72.0998 46.8761L68.0287 47.7149C67.919 47.7372 67.8212 47.6422 67.8429 47.5331H67.8445Z" fill="#69B9DC"/>
<path d="M0 47.1668C0 47.1668 6.84446 42.6795 29.5616 46.6346C29.5616 46.6346 40.4227 48.5361 46.8482 49.8286C53.2737 51.1219 74.8181 54.5439 81.7146 45.2653C81.7146 45.2653 78.3621 60.7798 65.298 62.9094C65.298 62.9094 55.568 64.3548 38.8926 56.8256C19.8477 47.718 0 47.1668 0 47.1668Z" fill="#0092CB"/>
<path d="M0.342773 48.0449C0.342773 48.0449 18.2558 49.715 41.2045 60.8944C66.5628 73.1009 80.3887 57.1872 80.3887 57.1872C80.3887 57.1872 77.0618 69.5078 64.5553 78.0064C64.5553 78.0064 51.5905 78.0444 41.5706 69.5268C23.7481 53.0983 0.342773 48.0449 0.342773 48.0449Z" fill="#69B9DC"/>
<path d="M61.0733 79.6678C55.1012 83.1865 48.2167 85.1922 40.8875 85.1922C20.4319 85.1922 3.43925 69.5718 0.043457 49.0254C1.00075 49.3716 17.753 55.4481 21.9123 57.738C26.1973 60.0948 31.7808 65.0391 31.7808 65.0391C31.7808 65.0391 45.5675 80.1545 61.0733 79.6678Z" fill="#0092CB"/>
<path d="M117.319 38.8705C116.83 39.2208 116.286 39.5043 115.691 39.7189C115.094 39.9336 114.523 40.0834 113.975 40.1705C113.427 40.2576 112.863 40.3122 112.282 40.3345C111.703 40.3568 111.145 40.373 110.613 40.3831C109.912 40.3831 109.119 40.3041 108.237 40.1442C107.356 39.9842 106.362 39.6339 105.255 39.0912C104.149 38.5485 103.113 37.7548 102.146 36.7139L102.865 36.1388C104.173 37.6413 105.567 38.6781 107.046 39.2491C106.429 38.7996 105.779 38.1881 105.1 37.4146C104.418 36.641 103.951 35.9688 103.696 35.3998L104.699 34.7902C105.051 35.8209 105.528 36.6532 106.134 37.2829C106.741 37.9147 107.381 38.3804 108.055 38.6822C108.73 38.9839 109.341 39.1742 109.889 39.2491C110.437 39.3261 110.762 39.3706 110.869 39.3808C112.09 39.3808 113.138 39.3018 114.014 39.1418C114.89 38.9839 115.72 38.6234 116.508 38.0646C117.912 37.0987 118.615 35.7501 118.615 34.0167C118.593 33.1278 118.383 32.2854 117.984 31.4916C117.586 30.6958 116.973 29.9365 116.147 29.2136C115.322 28.4886 114.26 27.7981 112.96 27.14C112.801 27.053 112.161 26.7371 111.043 26.1944C109.924 25.6517 109.009 25.1394 108.294 24.6554C107.582 24.1735 106.994 23.6187 106.537 22.993C106.079 22.3673 105.812 21.6606 105.738 20.8709C105.738 20.0366 105.924 19.2975 106.297 18.6495C106.67 18.0015 107.173 17.5034 107.807 17.1511C108.442 16.8007 109.158 16.6246 109.957 16.6246C110.405 16.6246 110.894 16.6954 111.428 16.8392C109.718 17.0154 108.534 17.4345 107.876 18.0987C107.218 18.7629 106.888 19.6437 106.888 20.7392C106.92 21.4419 107.095 22.0453 107.415 22.5495C107.733 23.0537 108.145 23.483 108.65 23.8333C109.154 24.1836 109.918 24.6008 110.943 25.0847C111.968 25.5667 112.649 25.8967 112.991 26.0729C114.994 27.0611 116.639 28.2376 117.929 29.6024C119.217 30.9672 119.864 32.3867 119.864 33.8568C119.864 34.527 119.82 35.0859 119.736 35.5354C119.651 35.9849 119.422 36.4932 119.049 37.0582C118.676 37.6231 118.1 38.2286 117.323 38.8766L117.319 38.8705ZM117.513 33.6543C117.513 34.4116 117.401 35.0069 117.175 35.4402C116.95 35.8736 116.425 36.5236 115.599 37.3903C115.991 36.7868 116.243 36.2927 116.349 35.91C116.455 35.5253 116.508 35.1102 116.508 34.6586V33.9175C116.508 33.0285 116.26 32.253 115.768 31.5888C115.273 30.9246 114.599 30.3253 113.743 29.7866C112.889 29.25 111.546 28.4927 109.72 27.5167C109.115 27.1988 108.418 26.8221 107.633 26.3888C106.847 25.9555 106.18 25.508 105.632 25.0483C105.084 24.5866 104.615 24.0054 104.222 23.3048C103.829 22.6022 103.564 21.7578 103.425 20.7716C103.425 19.751 103.688 18.7892 104.214 17.8841C104.74 16.9789 105.555 16.2499 106.661 15.6951C107.766 15.1403 109.095 14.8588 110.647 14.8467C112.361 14.8467 113.981 15.0856 115.508 15.5615C117.036 16.0393 118.14 16.4646 118.823 16.8372C118.972 16.3654 119.088 16.0576 119.174 15.9158L119.86 16.1953C119.816 16.3046 119.779 16.3897 119.748 16.4504C119.716 16.5112 119.679 16.5962 119.636 16.7056C119.626 16.7278 119.596 16.7987 119.547 16.9202C119.5 17.0417 119.455 17.1673 119.412 17.2989C119.337 17.4852 119.257 17.7322 119.172 18.04C118.756 17.7666 118.177 17.4608 117.435 17.1267C116.692 16.7926 116.027 16.5476 115.44 16.3937C116.135 16.8655 116.759 17.3697 117.315 17.9084C117.411 18.0177 117.539 18.1554 117.7 18.3194C117.861 18.4834 118.047 18.6758 118.261 18.8945C118.348 18.9816 118.444 19.0727 118.55 19.1659C118.656 19.259 118.748 19.3441 118.823 19.421C118.577 20.3869 118.434 21.1989 118.393 21.857L117.802 21.5776V20.7392C117.812 20.6177 117.819 20.5124 117.825 20.4193C117.831 20.3261 117.833 20.1966 117.833 20.0325C117.833 19.9232 117.855 19.8239 117.898 19.7369C117.164 18.7285 116.376 17.9266 115.536 17.3353C114.695 16.742 113.883 16.3431 113.095 16.1345C112.308 15.926 111.505 15.8227 110.686 15.8227C109.547 15.8227 108.526 15.9928 107.623 16.333C106.718 16.6732 105.995 17.2057 105.453 17.9286C104.911 18.6535 104.64 19.5465 104.64 20.6117C104.725 21.5107 104.943 22.2802 105.294 22.916C105.646 23.5519 106.062 24.0743 106.547 24.4793C107.03 24.8843 107.574 25.2548 108.175 25.591C108.775 25.9251 109.406 26.2693 110.065 26.6196C111.491 27.3871 112.61 28.0027 113.425 28.4623C114.24 28.922 114.959 29.3999 115.587 29.8939C116.215 30.388 116.692 30.9388 117.022 31.5483C117.352 32.1578 117.517 32.8625 117.517 33.6623L117.513 33.6543Z" fill="#F3F3F3"/>
<path d="M135.737 39.3464C137.003 39.314 138.16 39.0832 139.206 38.6559C140.255 38.2287 141.178 37.5888 141.975 36.7383C142.772 35.8878 143.393 34.8247 143.834 33.545C144.276 32.2673 144.496 30.7951 144.496 29.1266C144.496 28.6325 144.486 28.2538 144.465 27.9906C144.412 26.8708 144.225 25.6558 143.907 24.3457C143.587 23.0356 142.945 21.6606 141.977 20.2229C141.009 18.7852 139.626 17.6331 137.828 16.7664C139.434 17.0519 140.836 17.7485 142.032 18.8561C143.228 19.9637 144.139 21.3164 144.761 22.9121C145.384 24.5077 145.721 26.2228 145.774 28.0554C145.774 30.1188 145.509 31.923 144.977 33.4701C144.445 35.0171 143.703 36.2928 142.75 37.2952C141.798 38.2995 140.712 39.0427 139.495 39.5246C138.278 40.0066 136.991 40.2597 135.642 40.2819C133.408 40.2819 131.389 39.7089 129.587 38.5628C127.784 37.4167 126.367 35.8251 125.334 33.79C124.301 31.7549 123.787 29.5032 123.787 27.0348C123.851 25.5202 124.071 24.2019 124.448 23.0781C124.825 21.9543 125.253 21.043 125.732 20.3465C126.212 19.6499 126.673 19.093 127.121 18.6759C126.653 19.6094 126.261 20.4801 125.948 21.2921C125.634 22.1041 125.403 22.9627 125.255 23.8678C125.106 24.773 125.032 25.7854 125.032 26.9032C125.053 29.2298 125.513 31.3398 126.412 33.2392C127.311 35.1366 128.568 36.629 130.186 37.7143C131.802 38.7997 133.653 39.3444 135.739 39.3444L135.737 39.3464ZM136.55 14.8447C138.847 14.9217 140.864 15.5514 142.597 16.738C144.331 17.9226 145.668 19.5183 146.611 21.527C147.551 23.5337 148.023 25.7551 148.023 28.191C147.97 29.9568 147.699 31.4735 147.21 32.7411C146.721 34.0087 146.198 34.9645 145.647 35.6124C145.093 36.2604 144.567 36.7545 144.068 37.0927C145.556 35.1629 146.43 32.7654 146.685 29.9021C146.729 29.244 146.75 28.7499 146.75 28.4219C146.75 26.7007 146.493 25.0848 145.977 23.5762C145.46 22.0677 144.74 20.7454 143.815 19.6114C142.89 18.4754 141.788 17.5703 140.512 16.896C139.236 16.2217 137.906 15.8612 136.522 15.8187C134.533 15.8187 132.905 16.1974 131.639 16.9547C130.372 17.712 129.424 18.6597 128.79 19.8018C128.157 20.9418 127.737 22.0778 127.529 23.2077C127.321 24.3376 127.219 25.423 127.219 26.4658C127.347 31.8076 129.457 35.7299 133.553 38.2307C132.318 37.9229 131.226 37.3883 130.274 36.6269C129.322 35.8635 128.529 34.9422 127.896 33.8629C127.264 32.7816 126.779 31.6031 126.443 30.3253C126.108 29.0476 125.941 27.7273 125.941 26.3686C125.984 24.6029 126.316 22.8574 126.938 21.1362C127.561 19.415 128.662 17.9348 130.241 16.7016C131.819 15.4684 133.924 14.8508 136.552 14.8508L136.55 14.8447Z" fill="#F3F3F3"/>
<path d="M172.372 38.2291C172.585 38.5025 172.995 38.6645 173.602 38.7151C174.208 38.7637 174.526 38.7941 174.56 38.8062C174.678 38.8386 174.846 38.8892 175.07 38.954C175.294 39.0209 175.463 39.0593 175.581 39.0695C175.602 39.0695 175.693 39.11 175.852 39.193C176.011 39.276 176.129 39.3165 176.203 39.3165L175.995 40.0576C175.93 40.0576 175.824 40.0212 175.677 39.9503C175.528 39.8794 175.406 39.843 175.31 39.843C175.192 39.8329 174.917 39.8045 174.479 39.76C174.043 39.7154 173.757 39.6891 173.617 39.677C173.393 39.677 173.213 39.679 173.075 39.685C172.936 39.6911 172.789 39.6992 172.628 39.7093C172.245 39.7093 171.974 39.6 171.815 39.3813L156.432 19.2555V31.3828C156.432 32.2394 156.485 33.1708 156.591 34.1793C156.613 34.4526 156.656 34.8373 156.719 35.3314C156.784 35.8255 156.825 36.1981 156.847 36.4512C156.89 36.7813 156.915 37.0182 156.927 37.1681C156.937 37.3159 156.98 37.5832 157.055 37.9659C157.098 38.2737 157.151 38.5207 157.214 38.707C157.373 38.7738 157.559 38.8062 157.772 38.8062C157.899 38.8163 158.019 38.8265 158.131 38.8305C158.243 38.8366 158.372 38.8508 158.522 38.871C158.82 38.9034 159.069 38.948 159.272 39.0026L159.24 39.841C159.038 39.7741 158.83 39.7417 158.618 39.7417C158.213 39.6972 157.905 39.6749 157.693 39.6749C157.544 39.6526 157.114 39.6425 156.401 39.6425L155.747 34.2623L154.95 39.5777C154.832 39.6101 154.734 39.6344 154.655 39.6527C154.575 39.6689 154.455 39.6992 154.296 39.7438C154.159 39.7539 154.009 39.7843 153.848 39.8349C153.689 39.8835 153.534 39.926 153.385 39.9584C153.31 39.9908 153.21 40.0333 153.083 40.0819C152.955 40.1305 152.853 40.169 152.78 40.1973C152.706 40.2237 152.625 40.254 152.541 40.2885C152.476 40.3107 152.421 40.327 152.374 40.3371C152.327 40.3472 152.26 40.3634 152.174 40.3857L152.142 39.5474C152.207 39.5372 152.28 39.519 152.366 39.4988C152.45 39.4765 152.521 39.4603 152.574 39.4502C152.733 39.3732 152.902 39.3023 153.077 39.2355C153.251 39.1687 153.387 39.114 153.483 39.0715C153.589 39.0269 153.687 38.9885 153.778 38.9561C153.868 38.9237 153.988 38.8852 154.137 38.8407C154.159 38.7313 154.176 38.6483 154.192 38.5936C154.208 38.5389 154.231 38.4519 154.265 38.3304C154.382 37.8039 154.473 37.3098 154.536 36.8501C154.579 36.5099 154.612 36.2548 154.64 36.0847C154.665 35.9146 154.706 35.6433 154.759 35.2707C154.897 34.5032 155.03 33.7317 155.158 32.9582C155.286 32.1847 155.351 31.4861 155.351 30.8604V17.7449C155.042 17.1415 154.585 16.7365 153.978 16.5279C153.766 16.4631 153.43 16.4064 152.973 16.3639C152.855 16.3416 152.712 16.3315 152.543 16.3315L152.574 15.4932C152.723 15.4932 152.839 15.4952 152.926 15.5013C153.01 15.5073 153.1 15.5154 153.197 15.5256C153.43 15.5478 153.619 15.5701 153.762 15.5924C153.905 15.6147 154.062 15.6369 154.233 15.6592C154.648 15.7037 155.154 15.8738 155.749 16.1695L172.376 38.2372L172.372 38.2291ZM160.581 19.5694C160.646 19.6564 160.733 19.7759 160.844 19.9237C160.956 20.0715 161.086 20.2437 161.235 20.4421L161.714 21.0172L171.846 34.1165L171.974 23.4694C171.974 23.0846 171.846 22.3071 171.591 21.1326C171.336 19.9581 171.202 19.3 171.192 19.1583C171.149 18.8728 171.065 18.3787 170.937 17.6781C170.906 17.5566 170.882 17.4695 170.864 17.4148C170.849 17.3602 170.829 17.2771 170.809 17.1678C170.692 17.1232 170.593 17.0888 170.515 17.0605C170.434 17.0341 170.315 16.9916 170.156 16.9369C169.985 16.86 169.826 16.7952 169.677 16.7385C169.527 16.6838 169.378 16.6231 169.229 16.5583C169.176 16.5482 169.107 16.532 169.021 16.5097C168.936 16.4874 168.866 16.4712 168.813 16.4611L168.844 15.6228C168.928 15.645 168.995 15.6612 169.044 15.6714C169.091 15.6815 169.142 15.6997 169.195 15.72C169.494 15.8293 169.781 15.9447 170.057 16.0662C170.281 16.1209 170.464 16.1654 170.607 16.1978C170.751 16.2302 170.87 16.2525 170.967 16.2626C171.084 16.295 171.184 16.3193 171.269 16.3376C171.353 16.3538 171.471 16.3841 171.62 16.4287L172.402 21.7603L173.056 16.3639C173.778 16.3639 174.214 16.3538 174.363 16.3315C174.587 16.3315 174.89 16.3092 175.273 16.2647C175.496 16.2647 175.703 16.2323 175.895 16.1654L175.926 17.0038C175.724 17.0584 175.475 17.103 175.176 17.1354C175.123 17.1455 175.049 17.1556 174.953 17.1597C174.856 17.1658 174.758 17.1698 174.658 17.1759C174.556 17.182 174.479 17.1901 174.426 17.2002C174.214 17.2002 174.028 17.2326 173.869 17.2994C173.804 17.4857 173.751 17.7327 173.71 18.0405C173.56 18.8201 173.476 19.3021 173.454 19.4884C173.411 20.027 173.372 20.4867 173.335 20.8714C173.297 21.2561 173.268 21.574 173.246 21.8251C173.14 22.8356 173.087 23.767 173.087 24.6216L172.928 37.2268L159.715 19.867C159.205 19.1988 158.738 18.5124 158.312 17.8097C158.119 17.5141 157.964 17.2731 157.84 17.0848C157.719 16.8985 157.636 16.7223 157.593 16.5583C157.508 16.3173 157.444 16.0379 157.4 15.72C157.518 15.7098 157.626 15.7017 157.728 15.6957C157.829 15.6896 157.96 15.6875 158.119 15.6875C158.651 15.643 159.056 15.6228 159.333 15.6228C159.439 15.6005 159.556 15.5843 159.684 15.5742C159.812 15.564 159.924 15.5559 160.02 15.5499C160.116 15.5438 160.222 15.5357 160.34 15.5256H160.803L160.772 16.1999C160.613 16.2647 160.469 16.2991 160.342 16.2991C160.236 16.3214 160.142 16.3436 160.063 16.3659C159.983 16.3882 159.88 16.4105 159.753 16.4327C159.529 16.4975 159.384 16.5583 159.315 16.613C159.246 16.6676 159.211 16.7992 159.211 17.0078C159.211 17.1172 159.25 17.263 159.331 17.4432C159.411 17.6234 159.503 17.8077 159.609 17.994C159.715 18.1802 159.802 18.3341 159.865 18.4556C159.983 18.6966 160.22 19.0712 160.583 19.5754L160.581 19.5694Z" fill="#F3F3F3"/>
<path d="M202.02 39.7432C202.03 39.5792 202.065 39.2066 202.124 38.6234C202.183 38.0423 202.212 37.5867 202.212 37.2566C200.202 39.2754 197.618 40.2839 194.458 40.2839C192.426 40.2171 190.557 39.6521 188.851 38.589C187.142 37.5259 185.772 36.074 184.733 34.2374C183.696 32.4008 183.141 30.3617 183.066 28.1241C183.066 26.4131 183.268 24.8964 183.673 23.5741C184.077 22.2518 184.535 21.207 185.045 20.4395C185.556 19.6721 186.041 19.0626 186.498 18.613C185.063 21.0045 184.344 23.649 184.344 26.5447C184.344 27.0934 184.376 27.6422 184.44 28.191C184.568 29.6611 184.89 31.0684 185.406 32.4109C185.923 33.7555 186.616 34.9543 187.488 36.0072C188.36 37.0602 189.392 37.8864 190.584 38.4837C191.776 39.0811 193.078 39.3807 194.494 39.3807C196.377 39.3807 197.895 39.0426 199.049 38.3683C200.204 37.694 201.26 36.7139 202.216 35.4301C202.226 35.0352 202.234 34.6728 202.24 34.3447C202.246 34.0167 202.248 33.5935 202.248 33.0771V31.3175C202.152 31.3175 201.378 31.1939 199.927 30.9469C198.474 30.6999 197.594 30.5338 197.286 30.4447L197.51 29.4404C197.681 29.4728 198.224 29.5619 199.145 29.7036C200.066 29.8454 200.895 29.9608 201.635 30.0499C202.375 30.1369 202.947 30.1815 203.351 30.1815C203.361 30.6634 203.373 31.1939 203.383 31.769C203.392 32.3441 203.398 32.7916 203.398 33.1095C203.398 33.4943 203.385 33.877 203.359 34.2617C203.332 34.6465 203.32 34.9806 203.32 35.2661C203.32 35.6063 203.318 35.8412 203.312 35.9728C203.306 36.1044 203.298 36.2381 203.288 36.3757C203.279 36.5134 203.267 36.6633 203.257 36.8273C203.247 36.9913 203.235 37.1675 203.226 37.3538C203.226 37.617 203.216 38.0564 203.194 38.67C203.173 39.2835 203.163 39.6399 203.163 39.7392H202.03L202.02 39.7432ZM202.801 22.0534L202.02 21.6909C202.073 21.3953 202.161 21.047 202.283 20.6461C202.405 20.2451 202.468 19.9859 202.468 19.8644C202.191 19.3481 201.816 18.8601 201.343 18.4004C200.869 17.9387 200.331 17.5196 199.73 17.1409C199.13 16.7623 198.495 16.4605 197.832 16.2358C197.166 16.011 196.516 15.8814 195.876 15.849C195.748 15.8389 195.631 15.8308 195.525 15.8247C195.419 15.8186 195.279 15.8166 195.11 15.8166C193.526 15.8166 192.171 16.1284 191.05 16.7541C189.927 17.3798 189.033 18.2263 188.369 19.2975C187.704 20.3666 187.231 21.5553 186.95 22.8593C186.667 24.1654 186.528 25.5039 186.528 26.8748C186.624 29.497 187.195 31.7427 188.244 33.6137C189.292 35.4848 190.779 37.0237 192.703 38.2286C191.405 37.9107 190.28 37.3518 189.328 36.5499C188.375 35.75 187.604 34.8145 187.015 33.7433C186.426 32.6721 185.988 31.5402 185.707 30.3455C185.424 29.1508 185.285 27.9925 185.285 26.8727C185.285 25.8744 185.381 24.7547 185.571 23.5154C185.764 22.2761 186.196 20.9903 186.871 19.6559C187.547 18.3235 188.627 17.1935 190.111 16.2661C191.596 15.3387 193.518 14.875 195.88 14.875C197.06 14.875 198.179 14.9803 199.24 15.1868C200.298 15.3954 201.657 15.7842 203.316 16.3552C203.316 16.3006 203.351 16.2317 203.42 16.1487C203.489 16.0657 203.524 15.9988 203.524 15.9421C203.524 15.9097 203.55 15.8429 203.605 15.7437C203.658 15.6445 203.685 15.5574 203.685 15.4805C203.716 15.4359 203.752 15.3812 203.789 15.3164C203.826 15.2516 203.846 15.1787 203.846 15.1018L204.628 15.4805C204.618 15.5129 204.598 15.5736 204.571 15.6607C204.545 15.7477 204.531 15.7984 204.531 15.8085C204.531 15.8855 204.494 15.9948 204.419 16.1366C204.345 16.2803 204.308 16.3735 204.308 16.416C204.074 17.0741 203.919 17.469 203.844 17.6006C203.131 17.2381 202.501 16.9566 201.953 16.7521C201.405 16.5496 200.838 16.3937 200.253 16.2823C201.168 16.9627 202.291 18.0643 203.62 19.5891C203.269 20.3565 202.998 21.1746 202.807 22.0412L202.801 22.0534ZM205.833 39.644H204.684C204.514 38.4817 204.376 37.2039 204.27 35.8108C204.26 35.5577 204.253 35.1466 204.247 34.5756C204.241 34.0046 204.239 33.5408 204.239 33.1845V32.0566C204.239 31.8926 204.249 31.5908 204.27 31.1514C204.292 30.712 204.302 30.4002 204.302 30.2139C204.971 30.1369 205.535 30.0519 205.992 29.9587C206.45 29.8656 206.895 29.7259 207.333 29.5396V30.3131C207.216 30.3678 207.051 30.4427 206.839 30.5359C206.626 30.629 206.403 30.7363 206.169 30.8558C206.116 30.8558 206.047 30.8882 205.961 30.955C205.874 31.0218 205.802 31.0542 205.737 31.0542L205.482 31.1858C205.407 31.3499 205.348 31.6516 205.307 32.091C205.285 32.9253 205.276 33.8851 205.276 34.9705C205.382 36.7909 205.568 38.3501 205.833 39.644Z" fill="#F3F3F3"/>
<path d="M228.954 39.5125C229.113 39.4355 229.486 39.2553 230.071 38.9698C230.146 38.9374 230.226 38.9009 230.31 38.8625C230.395 38.824 230.46 38.7936 230.501 38.7713C230.544 38.7713 230.585 38.7491 230.629 38.7045C230.65 38.4737 230.66 38.1456 230.66 37.7163C230.703 36.9813 230.725 35.8514 230.725 34.3266V30.8214C230.725 29.2967 230.682 27.2717 230.597 24.7487C230.566 23.3454 230.497 22.0069 230.389 20.7332C230.293 18.7913 230.208 17.5359 230.134 16.9648C230.081 16.5598 230.038 16.2905 230.006 16.1589C229.592 16.0273 229.299 15.9442 229.128 15.9118C229.022 15.8896 228.932 15.8774 228.857 15.8714C228.783 15.8653 228.708 15.8572 228.634 15.8471C228.581 15.8369 228.531 15.8288 228.49 15.8228C228.447 15.8167 228.384 15.8147 228.3 15.8147V15.0411C228.801 15.0857 229.293 15.1059 229.784 15.1059H231.316C231.496 16.9932 231.634 19.5385 231.73 22.742C231.826 25.9454 231.873 28.7155 231.873 31.0523V39.5104C230.778 39.642 229.804 39.8992 228.954 40.284V39.5104V39.5125ZM235.926 14.8791V15.7175C235.628 15.8045 235.07 15.8815 234.251 15.9483C234.177 17.0559 234.13 18.1454 234.108 19.2145C234.086 20.2837 234.073 21.5047 234.069 22.8756C234.063 24.2465 234.061 25.7065 234.061 27.2535L235.496 25.7551L239.963 32.3381C240.016 32.3705 240.067 32.4211 240.114 32.4859C240.162 32.5528 240.222 32.6338 240.297 32.733C240.34 32.7877 240.401 32.8808 240.48 33.0124C240.56 33.144 240.631 33.2534 240.696 33.3405C240.792 33.4498 240.89 33.5774 240.99 33.7191C241.09 33.8609 241.222 34.0269 241.381 34.2132C241.817 34.8612 242.339 35.5679 242.944 36.3353C243.604 37.1696 244.112 37.7832 244.468 38.178C244.823 38.5729 245.165 38.905 245.489 39.1743C245.813 39.4436 246.184 39.6825 246.598 39.8911C246.215 39.8587 245.742 39.7109 245.178 39.4477C244.615 39.1844 243.82 38.5506 242.793 37.5463C241.766 36.5419 240.529 35.0313 239.084 33.0124L235.27 27.5815L234.057 28.7337C234.057 29.1387 234.055 29.4749 234.049 29.7381C234.043 30.0013 234.035 30.2929 234.025 30.6109V34.116C234.004 34.7093 233.994 35.5861 233.994 36.7484C233.994 37.5159 234.004 38.1031 234.025 38.5101C234.962 38.6519 235.669 38.7956 236.148 38.9374L236.117 39.7757C234.968 39.5773 234.169 39.48 233.723 39.48C233.383 39.48 233.122 39.4902 232.942 39.5125C232.942 38.8867 232.94 38.3805 232.934 37.9897C232.928 37.6009 232.92 37.1757 232.91 36.714V34.2132C232.9 33.6422 232.891 33.1157 232.887 32.6338C232.881 32.1518 232.867 31.5363 232.847 30.7911V23.7402C232.847 23.3839 232.849 22.9323 232.855 22.3835C232.861 21.8348 232.869 21.4237 232.879 21.1504C232.879 19.3522 232.9 18.0137 232.944 17.1349C232.975 16.3229 233.018 15.6486 233.071 15.11C234.294 15.0654 235.247 14.9885 235.928 14.8791H235.926ZM236.15 24.9491C236.564 24.4449 236.91 24.0177 237.187 23.6653C237.56 23.2482 238.063 22.6448 238.695 21.855C239.327 21.0653 239.908 20.2148 240.434 19.3036C240.961 18.3924 241.457 17.2848 241.927 15.9787C241.842 15.9564 241.764 15.9422 241.695 15.9382C241.626 15.9321 241.554 15.924 241.479 15.9139C241.34 15.9139 241.122 15.8916 240.825 15.8491C240.719 15.8268 240.625 15.8045 240.546 15.7823C240.466 15.76 240.352 15.7377 240.203 15.7154C240.14 15.7154 240.075 15.7053 240.012 15.6831V14.8447C241.139 15.0209 242.247 15.108 243.331 15.108C242.767 16.7319 242.08 18.2405 241.273 19.6337L245.263 15.108C246.038 15.0756 246.716 14.9865 247.289 14.8447V15.6506C246.896 15.8268 246.427 15.9139 245.885 15.9139L245.072 16.8352L237.493 24.9471L242.327 31.8906C242.742 32.494 243.25 33.223 243.851 34.0796C244.452 34.9361 245.143 35.7846 245.925 36.631C246.706 37.4754 247.537 38.1719 248.414 38.7207C249.292 39.2695 250.193 39.5428 251.118 39.5428V40.2495C250.278 40.2495 249.508 40.128 248.813 39.8871C248.116 39.6461 247.476 39.314 246.891 38.8908C246.305 38.4696 245.728 37.9553 245.159 37.3518C244.589 36.7484 243.99 36.0518 243.364 35.2621C243.14 34.9341 242.885 34.5777 242.598 34.193C242.312 33.8082 242.088 33.5126 241.929 33.304C241.801 33.14 241.672 32.9618 241.538 32.7694C241.404 32.577 241.296 32.4313 241.21 32.3341L236.152 24.9451L236.15 24.9491Z" fill="#F3F3F3"/>
<path d="M264.904 39.3464C266.171 39.314 267.327 39.0832 268.374 38.6559C269.422 38.2287 270.345 37.5888 271.142 36.7383C271.94 35.8878 272.56 34.8247 273.002 33.545C273.444 32.2673 273.664 30.7951 273.664 29.1266C273.664 28.6325 273.654 28.2538 273.632 27.9906C273.579 26.8708 273.393 25.6558 273.075 24.3457C272.756 23.0356 272.112 21.6606 271.144 20.2229C270.176 18.7852 268.794 17.6331 266.995 16.7664C268.602 17.0519 270.004 17.7485 271.199 18.8561C272.395 19.9637 273.306 21.3164 273.929 22.9121C274.551 24.5077 274.889 26.2228 274.942 28.0554C274.942 30.1188 274.677 31.923 274.145 33.4701C273.613 35.0171 272.87 36.2928 271.918 37.2952C270.966 38.2995 269.88 39.0427 268.662 39.5246C267.445 40.0066 266.159 40.2597 264.81 40.2819C262.575 40.2819 260.557 39.7089 258.754 38.5628C256.952 37.4167 255.534 35.8251 254.501 33.79C253.471 31.7549 252.954 29.5032 252.954 27.0348C253.017 25.5202 253.239 24.2019 253.616 23.0781C253.993 21.9543 254.421 21.043 254.9 20.3465C255.379 19.6499 255.841 19.093 256.288 18.6759C255.821 19.6094 255.428 20.4801 255.116 21.2921C254.802 22.1041 254.57 22.9627 254.421 23.8678C254.272 24.773 254.197 25.7854 254.197 26.9032C254.219 29.2298 254.678 31.3398 255.577 33.2392C256.477 35.1366 257.733 36.629 259.351 37.7143C260.967 38.7997 262.819 39.3444 264.904 39.3444V39.3464ZM265.717 14.8447C268.014 14.9217 270.031 15.5514 271.765 16.738C273.499 17.9226 274.836 19.5183 275.778 21.527C276.719 23.5337 277.19 25.7551 277.19 28.191C277.137 29.9568 276.866 31.4735 276.377 32.7411C275.888 34.0087 275.366 34.9645 274.814 35.6124C274.26 36.2604 273.734 36.7545 273.236 37.0927C274.724 35.1629 275.598 32.7654 275.853 29.9021C275.896 29.244 275.918 28.7499 275.918 28.4219C275.918 26.7007 275.66 25.0848 275.144 23.5762C274.628 22.0677 273.907 20.7454 272.982 19.6114C272.057 18.4754 270.956 17.5703 269.68 16.896C268.403 16.2217 267.074 15.8612 265.69 15.8187C263.701 15.8187 262.073 16.1974 260.806 16.9547C259.54 17.712 258.591 18.6597 257.957 19.8018C257.325 20.9418 256.905 22.0778 256.697 23.2077C256.488 24.3376 256.386 25.423 256.386 26.4658C256.514 31.8076 258.625 35.7299 262.721 38.2307C261.486 37.9229 260.394 37.3883 259.442 36.6269C258.489 35.8635 257.696 34.9422 257.064 33.8629C256.432 32.7816 255.947 31.6031 255.613 30.3253C255.277 29.0476 255.11 27.7273 255.11 26.3686C255.153 24.6029 255.485 22.8574 256.108 21.1362C256.73 19.415 257.832 17.9348 259.41 16.7016C260.989 15.4684 263.094 14.8508 265.721 14.8508L265.717 14.8447Z" fill="#F3F3F3"/>
<path d="M282.584 16.2273C282.02 15.9864 281.626 15.8061 281.404 15.6846V14.9111C281.893 15.1197 282.378 15.2837 282.857 15.4052C283.336 15.5267 283.868 15.6198 284.453 15.6846C284.475 16.0471 284.485 16.5959 284.485 17.3309V24.1104C284.485 26.8643 284.434 29.6972 284.333 32.6091C284.231 35.5209 284.096 37.8232 283.927 39.512H282.331C281.808 39.512 281.282 39.5444 280.752 39.6113V38.8378C280.817 38.8276 280.872 38.8195 280.919 38.8135C280.966 38.8074 281.023 38.8053 281.086 38.8053C281.213 38.7831 281.315 38.7689 281.388 38.7649C281.463 38.7588 281.537 38.7507 281.612 38.7406C281.804 38.6859 281.928 38.6555 281.987 38.6494C282.046 38.6433 282.122 38.6312 282.219 38.6089C282.315 38.5867 282.427 38.5644 282.554 38.5441C282.692 37.4912 282.818 36.1162 282.93 34.4214C283.041 32.7265 283.122 31.0175 283.169 29.2963C283.216 27.5751 283.242 25.9227 283.242 24.3433C283.252 23.9585 283.257 23.3754 283.257 22.5917C283.257 21.8081 283.263 21.2229 283.273 20.8401C283.273 19.3376 283.263 18.2077 283.242 17.4504C283.242 17.2317 283.24 17.0535 283.234 16.9158C283.228 16.7781 283.22 16.6283 283.21 16.4643C283.179 16.4541 283.149 16.446 283.122 16.44C283.094 16.4339 283.071 16.4319 283.049 16.4319C282.975 16.3873 282.898 16.3468 282.818 16.3083C282.737 16.2699 282.661 16.2456 282.586 16.2334L282.584 16.2273ZM287.546 16.4906H286.827V32.7326C286.837 33.0404 286.845 33.3259 286.851 33.5891C286.857 33.8524 286.859 34.1986 286.859 34.6259V37.2259C286.89 37.4669 286.906 37.8577 286.906 38.3943C287.426 38.4166 288.188 38.4267 289.187 38.4267C290.464 38.4166 291.569 38.3254 292.506 38.1553C293.442 37.9853 294.139 37.801 294.597 37.6045C295.054 37.4061 295.416 37.2198 295.683 37.0457C295.683 36.8371 295.681 36.6731 295.675 36.5516C295.669 36.4301 295.661 36.2944 295.651 36.1405C295.661 35.9421 295.669 35.7659 295.675 35.6059C295.681 35.448 295.683 35.2475 295.683 35.0045H296.368C296.368 36.256 296.458 37.1611 296.639 37.72C296.533 37.7747 296.452 37.8253 296.399 37.8678C296.07 37.967 295.867 38.0217 295.793 38.0318C295.653 38.0764 295.447 38.131 295.17 38.1958C294.893 38.2606 294.685 38.3173 294.548 38.3599C294.09 38.4368 293.751 38.5077 293.527 38.5745C293.271 38.6292 293.077 38.6737 292.944 38.7061C292.81 38.7385 292.659 38.7729 292.488 38.8053H296.637C296.68 39.101 296.733 39.3703 296.796 39.6113C296.818 39.7206 296.831 39.8198 296.835 39.9069C296.841 39.994 296.849 40.0871 296.859 40.1863C296.869 40.2086 296.877 40.2329 296.882 40.2613C296.888 40.2876 296.89 40.318 296.89 40.3524H296.362C296.266 40.2208 296.181 39.996 296.107 39.6781H295.755C295.616 39.668 295.488 39.6578 295.372 39.6538C295.255 39.6477 295.105 39.6457 294.925 39.6457C294.53 39.6457 294.238 39.6356 294.047 39.6133C293.886 39.6133 293.652 39.6032 293.344 39.5809C293.036 39.5586 292.8 39.5485 292.641 39.5485C292.449 39.5262 292.109 39.5161 291.618 39.5161H285.578C285.557 39.0443 285.547 38.3477 285.547 37.4264C285.547 36.9545 285.545 36.5739 285.539 36.2823C285.533 35.9907 285.525 35.6768 285.516 35.3366C285.525 34.9863 285.533 34.6644 285.539 34.3748C285.545 34.0852 285.547 33.7086 285.547 33.2469C285.547 32.8622 285.545 32.5564 285.539 32.3256C285.533 32.0947 285.525 31.8436 285.516 31.5682L285.58 15.6887C286.456 15.6887 287.106 15.6664 287.534 15.6239C287.695 15.6016 287.854 15.5854 288.015 15.5753C288.176 15.5652 288.337 15.551 288.504 15.5348C288.669 15.5186 288.832 15.5044 288.993 15.4943C289.282 15.4295 289.586 15.3951 289.906 15.3951V16.1362C289.747 16.1909 289.57 16.2354 289.38 16.2678C289.178 16.3225 288.82 16.3772 288.31 16.4319C288.117 16.4319 287.862 16.4541 287.544 16.4966L287.546 16.4906Z" fill="#F3F3F3"/>
<path d="M117.319 38.8705C116.83 39.2208 116.286 39.5043 115.691 39.7189C115.094 39.9336 114.523 40.0834 113.975 40.1705C113.427 40.2576 112.863 40.3122 112.282 40.3345C111.703 40.3568 111.145 40.373 110.613 40.3831C109.912 40.3831 109.119 40.3041 108.237 40.1442C107.356 39.9842 106.362 39.6339 105.255 39.0912C104.149 38.5485 103.113 37.7548 102.146 36.7139L102.865 36.1388C104.173 37.6413 105.567 38.6781 107.046 39.2491C106.429 38.7996 105.779 38.1881 105.1 37.4146C104.418 36.641 103.951 35.9688 103.696 35.3998L104.699 34.7902C105.051 35.8209 105.528 36.6532 106.134 37.2829C106.741 37.9147 107.381 38.3804 108.055 38.6822C108.73 38.9839 109.341 39.1742 109.889 39.2491C110.437 39.3261 110.762 39.3706 110.869 39.3808C112.09 39.3808 113.138 39.3018 114.014 39.1418C114.89 38.9839 115.72 38.6234 116.508 38.0646C117.912 37.0987 118.615 35.7501 118.615 34.0167C118.593 33.1278 118.383 32.2854 117.984 31.4916C117.586 30.6958 116.973 29.9365 116.147 29.2136C115.322 28.4886 114.26 27.7981 112.96 27.14C112.801 27.053 112.161 26.7371 111.043 26.1944C109.924 25.6517 109.009 25.1394 108.294 24.6554C107.582 24.1735 106.994 23.6187 106.537 22.993C106.079 22.3673 105.812 21.6606 105.738 20.8709C105.738 20.0366 105.924 19.2975 106.297 18.6495C106.67 18.0015 107.173 17.5034 107.807 17.1511C108.442 16.8007 109.158 16.6246 109.957 16.6246C110.405 16.6246 110.894 16.6954 111.428 16.8392C109.718 17.0154 108.534 17.4345 107.876 18.0987C107.218 18.7629 106.888 19.6437 106.888 20.7392C106.92 21.4419 107.095 22.0453 107.415 22.5495C107.733 23.0537 108.145 23.483 108.65 23.8333C109.154 24.1836 109.918 24.6008 110.943 25.0847C111.968 25.5667 112.649 25.8967 112.991 26.0729C114.994 27.0611 116.639 28.2376 117.929 29.6024C119.217 30.9672 119.864 32.3867 119.864 33.8568C119.864 34.527 119.82 35.0859 119.736 35.5354C119.651 35.9849 119.422 36.4932 119.049 37.0582C118.676 37.6231 118.1 38.2286 117.323 38.8766L117.319 38.8705ZM117.513 33.6543C117.513 34.4116 117.401 35.0069 117.175 35.4402C116.95 35.8736 116.425 36.5236 115.599 37.3903C115.991 36.7868 116.243 36.2927 116.349 35.91C116.455 35.5253 116.508 35.1102 116.508 34.6586V33.9175C116.508 33.0285 116.26 32.253 115.768 31.5888C115.273 30.9246 114.599 30.3253 113.743 29.7866C112.889 29.25 111.546 28.4927 109.72 27.5167C109.115 27.1988 108.418 26.8221 107.633 26.3888C106.847 25.9555 106.18 25.508 105.632 25.0483C105.084 24.5866 104.615 24.0054 104.222 23.3048C103.829 22.6022 103.564 21.7578 103.425 20.7716C103.425 19.751 103.688 18.7892 104.214 17.8841C104.74 16.9789 105.555 16.2499 106.661 15.6951C107.766 15.1403 109.095 14.8588 110.647 14.8467C112.361 14.8467 113.981 15.0856 115.508 15.5615C117.036 16.0393 118.14 16.4646 118.823 16.8372C118.972 16.3654 119.088 16.0576 119.174 15.9158L119.86 16.1953C119.816 16.3046 119.779 16.3897 119.748 16.4504C119.716 16.5112 119.679 16.5962 119.636 16.7056C119.626 16.7278 119.596 16.7987 119.547 16.9202C119.5 17.0417 119.455 17.1673 119.412 17.2989C119.337 17.4852 119.257 17.7322 119.172 18.04C118.756 17.7666 118.177 17.4608 117.435 17.1267C116.692 16.7926 116.027 16.5476 115.44 16.3937C116.135 16.8655 116.759 17.3697 117.315 17.9084C117.411 18.0177 117.539 18.1554 117.7 18.3194C117.861 18.4834 118.047 18.6758 118.261 18.8945C118.348 18.9816 118.444 19.0727 118.55 19.1659C118.656 19.259 118.748 19.3441 118.823 19.421C118.577 20.3869 118.434 21.1989 118.393 21.857L117.802 21.5776V20.7392C117.812 20.6177 117.819 20.5124 117.825 20.4193C117.831 20.3261 117.833 20.1966 117.833 20.0325C117.833 19.9232 117.855 19.8239 117.898 19.7369C117.164 18.7285 116.376 17.9266 115.536 17.3353C114.695 16.742 113.883 16.3431 113.095 16.1345C112.308 15.926 111.505 15.8227 110.686 15.8227C109.547 15.8227 108.526 15.9928 107.623 16.333C106.718 16.6732 105.995 17.2057 105.453 17.9286C104.911 18.6535 104.64 19.5465 104.64 20.6117C104.725 21.5107 104.943 22.2802 105.294 22.916C105.646 23.5519 106.062 24.0743 106.547 24.4793C107.03 24.8843 107.574 25.2548 108.175 25.591C108.775 25.9251 109.406 26.2693 110.065 26.6196C111.491 27.3871 112.61 28.0027 113.425 28.4623C114.24 28.922 114.959 29.3999 115.587 29.8939C116.215 30.388 116.692 30.9388 117.022 31.5483C117.352 32.1578 117.517 32.8625 117.517 33.6623L117.513 33.6543Z" fill="#F3F3F3"/>
<path d="M135.737 39.3464C137.003 39.314 138.16 39.0832 139.206 38.6559C140.255 38.2287 141.178 37.5888 141.975 36.7383C142.772 35.8878 143.393 34.8247 143.834 33.545C144.276 32.2673 144.496 30.7951 144.496 29.1266C144.496 28.6325 144.486 28.2538 144.465 27.9906C144.412 26.8708 144.225 25.6558 143.907 24.3457C143.587 23.0356 142.945 21.6606 141.977 20.2229C141.009 18.7852 139.626 17.6331 137.828 16.7664C139.434 17.0519 140.836 17.7485 142.032 18.8561C143.228 19.9637 144.139 21.3164 144.761 22.9121C145.384 24.5077 145.721 26.2228 145.774 28.0554C145.774 30.1188 145.509 31.923 144.977 33.4701C144.445 35.0171 143.703 36.2928 142.75 37.2952C141.798 38.2995 140.712 39.0427 139.495 39.5246C138.278 40.0066 136.991 40.2597 135.642 40.2819C133.408 40.2819 131.389 39.7089 129.587 38.5628C127.784 37.4167 126.367 35.8251 125.334 33.79C124.301 31.7549 123.787 29.5032 123.787 27.0348C123.851 25.5202 124.071 24.2019 124.448 23.0781C124.825 21.9543 125.253 21.043 125.732 20.3465C126.212 19.6499 126.673 19.093 127.121 18.6759C126.653 19.6094 126.261 20.4801 125.948 21.2921C125.634 22.1041 125.403 22.9627 125.255 23.8678C125.106 24.773 125.032 25.7854 125.032 26.9032C125.053 29.2298 125.513 31.3398 126.412 33.2392C127.311 35.1366 128.568 36.629 130.186 37.7143C131.802 38.7997 133.653 39.3444 135.739 39.3444L135.737 39.3464ZM136.55 14.8447C138.847 14.9217 140.864 15.5514 142.597 16.738C144.331 17.9226 145.668 19.5183 146.611 21.527C147.551 23.5337 148.023 25.7551 148.023 28.191C147.97 29.9568 147.699 31.4735 147.21 32.7411C146.721 34.0087 146.198 34.9645 145.647 35.6124C145.093 36.2604 144.567 36.7545 144.068 37.0927C145.556 35.1629 146.43 32.7654 146.685 29.9021C146.729 29.244 146.75 28.7499 146.75 28.4219C146.75 26.7007 146.493 25.0848 145.977 23.5762C145.46 22.0677 144.74 20.7454 143.815 19.6114C142.89 18.4754 141.788 17.5703 140.512 16.896C139.236 16.2217 137.906 15.8612 136.522 15.8187C134.533 15.8187 132.905 16.1974 131.639 16.9547C130.372 17.712 129.424 18.6597 128.79 19.8018C128.157 20.9418 127.737 22.0778 127.529 23.2077C127.321 24.3376 127.219 25.423 127.219 26.4658C127.347 31.8076 129.457 35.7299 133.553 38.2307C132.318 37.9229 131.226 37.3883 130.274 36.6269C129.322 35.8635 128.529 34.9422 127.896 33.8629C127.264 32.7816 126.779 31.6031 126.443 30.3253C126.108 29.0476 125.941 27.7273 125.941 26.3686C125.984 24.6029 126.316 22.8574 126.938 21.1362C127.561 19.415 128.662 17.9348 130.241 16.7016C131.819 15.4684 133.924 14.8508 136.552 14.8508L136.55 14.8447Z" fill="#F3F3F3"/>
<path d="M172.372 38.2291C172.585 38.5025 172.995 38.6645 173.602 38.7151C174.208 38.7637 174.526 38.7941 174.56 38.8062C174.678 38.8386 174.846 38.8892 175.07 38.954C175.294 39.0209 175.463 39.0593 175.581 39.0695C175.602 39.0695 175.693 39.11 175.852 39.193C176.011 39.276 176.129 39.3165 176.203 39.3165L175.995 40.0576C175.93 40.0576 175.824 40.0212 175.677 39.9503C175.528 39.8794 175.406 39.843 175.31 39.843C175.192 39.8329 174.917 39.8045 174.479 39.76C174.043 39.7154 173.757 39.6891 173.617 39.677C173.393 39.677 173.213 39.679 173.075 39.685C172.936 39.6911 172.789 39.6992 172.628 39.7093C172.245 39.7093 171.974 39.6 171.815 39.3813L156.432 19.2555V31.3828C156.432 32.2394 156.485 33.1708 156.591 34.1793C156.613 34.4526 156.656 34.8373 156.719 35.3314C156.784 35.8255 156.825 36.1981 156.847 36.4512C156.89 36.7813 156.915 37.0182 156.927 37.1681C156.937 37.3159 156.98 37.5832 157.055 37.9659C157.098 38.2737 157.151 38.5207 157.214 38.707C157.373 38.7738 157.559 38.8062 157.772 38.8062C157.899 38.8163 158.019 38.8265 158.131 38.8305C158.243 38.8366 158.372 38.8508 158.522 38.871C158.82 38.9034 159.069 38.948 159.272 39.0026L159.24 39.841C159.038 39.7741 158.83 39.7417 158.618 39.7417C158.213 39.6972 157.905 39.6749 157.693 39.6749C157.544 39.6526 157.114 39.6425 156.401 39.6425L155.747 34.2623L154.95 39.5777C154.832 39.6101 154.734 39.6344 154.655 39.6527C154.575 39.6689 154.455 39.6992 154.296 39.7438C154.159 39.7539 154.009 39.7843 153.848 39.8349C153.689 39.8835 153.534 39.926 153.385 39.9584C153.31 39.9908 153.21 40.0333 153.083 40.0819C152.955 40.1305 152.853 40.169 152.78 40.1973C152.706 40.2237 152.625 40.254 152.541 40.2885C152.476 40.3107 152.421 40.327 152.374 40.3371C152.327 40.3472 152.26 40.3634 152.174 40.3857L152.142 39.5474C152.207 39.5372 152.28 39.519 152.366 39.4988C152.45 39.4765 152.521 39.4603 152.574 39.4502C152.733 39.3732 152.902 39.3023 153.077 39.2355C153.251 39.1687 153.387 39.114 153.483 39.0715C153.589 39.0269 153.687 38.9885 153.778 38.9561C153.868 38.9237 153.988 38.8852 154.137 38.8407C154.159 38.7313 154.176 38.6483 154.192 38.5936C154.208 38.5389 154.231 38.4519 154.265 38.3304C154.382 37.8039 154.473 37.3098 154.536 36.8501C154.579 36.5099 154.612 36.2548 154.64 36.0847C154.665 35.9146 154.706 35.6433 154.759 35.2707C154.897 34.5032 155.03 33.7317 155.158 32.9582C155.286 32.1847 155.351 31.4861 155.351 30.8604V17.7449C155.042 17.1415 154.585 16.7365 153.978 16.5279C153.766 16.4631 153.43 16.4064 152.973 16.3639C152.855 16.3416 152.712 16.3315 152.543 16.3315L152.574 15.4932C152.723 15.4932 152.839 15.4952 152.926 15.5013C153.01 15.5073 153.1 15.5154 153.197 15.5256C153.43 15.5478 153.619 15.5701 153.762 15.5924C153.905 15.6147 154.062 15.6369 154.233 15.6592C154.648 15.7037 155.154 15.8738 155.749 16.1695L172.376 38.2372L172.372 38.2291ZM160.581 19.5694C160.646 19.6564 160.733 19.7759 160.844 19.9237C160.956 20.0715 161.086 20.2437 161.235 20.4421L161.714 21.0172L171.846 34.1165L171.974 23.4694C171.974 23.0846 171.846 22.3071 171.591 21.1326C171.336 19.9581 171.202 19.3 171.192 19.1583C171.149 18.8728 171.065 18.3787 170.937 17.6781C170.906 17.5566 170.882 17.4695 170.864 17.4148C170.849 17.3602 170.829 17.2771 170.809 17.1678C170.692 17.1232 170.593 17.0888 170.515 17.0605C170.434 17.0341 170.315 16.9916 170.156 16.9369C169.985 16.86 169.826 16.7952 169.677 16.7385C169.527 16.6838 169.378 16.6231 169.229 16.5583C169.176 16.5482 169.107 16.532 169.021 16.5097C168.936 16.4874 168.866 16.4712 168.813 16.4611L168.844 15.6228C168.928 15.645 168.995 15.6612 169.044 15.6714C169.091 15.6815 169.142 15.6997 169.195 15.72C169.494 15.8293 169.781 15.9447 170.057 16.0662C170.281 16.1209 170.464 16.1654 170.607 16.1978C170.751 16.2302 170.87 16.2525 170.967 16.2626C171.084 16.295 171.184 16.3193 171.269 16.3376C171.353 16.3538 171.471 16.3841 171.62 16.4287L172.402 21.7603L173.056 16.3639C173.778 16.3639 174.214 16.3538 174.363 16.3315C174.587 16.3315 174.89 16.3092 175.273 16.2647C175.496 16.2647 175.703 16.2323 175.895 16.1654L175.926 17.0038C175.724 17.0584 175.475 17.103 175.176 17.1354C175.123 17.1455 175.049 17.1556 174.953 17.1597C174.856 17.1658 174.758 17.1698 174.658 17.1759C174.556 17.182 174.479 17.1901 174.426 17.2002C174.214 17.2002 174.028 17.2326 173.869 17.2994C173.804 17.4857 173.751 17.7327 173.71 18.0405C173.56 18.8201 173.476 19.3021 173.454 19.4884C173.411 20.027 173.372 20.4867 173.335 20.8714C173.297 21.2561 173.268 21.574 173.246 21.8251C173.14 22.8356 173.087 23.767 173.087 24.6216L172.928 37.2268L159.715 19.867C159.205 19.1988 158.738 18.5124 158.312 17.8097C158.119 17.5141 157.964 17.2731 157.84 17.0848C157.719 16.8985 157.636 16.7223 157.593 16.5583C157.508 16.3173 157.444 16.0379 157.4 15.72C157.518 15.7098 157.626 15.7017 157.728 15.6957C157.829 15.6896 157.96 15.6875 158.119 15.6875C158.651 15.643 159.056 15.6228 159.333 15.6228C159.439 15.6005 159.556 15.5843 159.684 15.5742C159.812 15.564 159.924 15.5559 160.02 15.5499C160.116 15.5438 160.222 15.5357 160.34 15.5256H160.803L160.772 16.1999C160.613 16.2647 160.469 16.2991 160.342 16.2991C160.236 16.3214 160.142 16.3436 160.063 16.3659C159.983 16.3882 159.88 16.4105 159.753 16.4327C159.529 16.4975 159.384 16.5583 159.315 16.613C159.246 16.6676 159.211 16.7992 159.211 17.0078C159.211 17.1172 159.25 17.263 159.331 17.4432C159.411 17.6234 159.503 17.8077 159.609 17.994C159.715 18.1802 159.802 18.3341 159.865 18.4556C159.983 18.6966 160.22 19.0712 160.583 19.5754L160.581 19.5694Z" fill="#F3F3F3"/>
<path d="M202.02 39.7432C202.03 39.5792 202.065 39.2066 202.124 38.6234C202.183 38.0423 202.212 37.5867 202.212 37.2566C200.202 39.2754 197.618 40.2839 194.458 40.2839C192.426 40.2171 190.557 39.6521 188.851 38.589C187.142 37.5259 185.772 36.074 184.733 34.2374C183.696 32.4008 183.141 30.3617 183.066 28.1241C183.066 26.4131 183.268 24.8964 183.673 23.5741C184.077 22.2518 184.535 21.207 185.045 20.4395C185.556 19.6721 186.041 19.0626 186.498 18.613C185.063 21.0045 184.344 23.649 184.344 26.5447C184.344 27.0934 184.376 27.6422 184.44 28.191C184.568 29.6611 184.89 31.0684 185.406 32.4109C185.923 33.7555 186.616 34.9543 187.488 36.0072C188.36 37.0602 189.392 37.8864 190.584 38.4837C191.776 39.0811 193.078 39.3807 194.494 39.3807C196.377 39.3807 197.895 39.0426 199.049 38.3683C200.204 37.694 201.26 36.7139 202.216 35.4301C202.226 35.0352 202.234 34.6728 202.24 34.3447C202.246 34.0167 202.248 33.5935 202.248 33.0771V31.3175C202.152 31.3175 201.378 31.1939 199.927 30.9469C198.474 30.6999 197.594 30.5338 197.286 30.4447L197.51 29.4404C197.681 29.4728 198.224 29.5619 199.145 29.7036C200.066 29.8454 200.895 29.9608 201.635 30.0499C202.375 30.1369 202.947 30.1815 203.351 30.1815C203.361 30.6634 203.373 31.1939 203.383 31.769C203.392 32.3441 203.398 32.7916 203.398 33.1095C203.398 33.4943 203.385 33.877 203.359 34.2617C203.332 34.6465 203.32 34.9806 203.32 35.2661C203.32 35.6063 203.318 35.8412 203.312 35.9728C203.306 36.1044 203.298 36.2381 203.288 36.3757C203.279 36.5134 203.267 36.6633 203.257 36.8273C203.247 36.9913 203.235 37.1675 203.226 37.3538C203.226 37.617 203.216 38.0564 203.194 38.67C203.173 39.2835 203.163 39.6399 203.163 39.7392H202.03L202.02 39.7432ZM202.801 22.0534L202.02 21.6909C202.073 21.3953 202.161 21.047 202.283 20.6461C202.405 20.2451 202.468 19.9859 202.468 19.8644C202.191 19.3481 201.816 18.8601 201.343 18.4004C200.869 17.9387 200.331 17.5196 199.73 17.1409C199.13 16.7623 198.495 16.4605 197.832 16.2358C197.166 16.011 196.516 15.8814 195.876 15.849C195.748 15.8389 195.631 15.8308 195.525 15.8247C195.419 15.8186 195.279 15.8166 195.11 15.8166C193.526 15.8166 192.171 16.1284 191.05 16.7541C189.927 17.3798 189.033 18.2263 188.369 19.2975C187.704 20.3666 187.231 21.5553 186.95 22.8593C186.667 24.1654 186.528 25.5039 186.528 26.8748C186.624 29.497 187.195 31.7427 188.244 33.6137C189.292 35.4848 190.779 37.0237 192.703 38.2286C191.405 37.9107 190.28 37.3518 189.328 36.5499C188.375 35.75 187.604 34.8145 187.015 33.7433C186.426 32.6721 185.988 31.5402 185.707 30.3455C185.424 29.1508 185.285 27.9925 185.285 26.8727C185.285 25.8744 185.381 24.7547 185.571 23.5154C185.764 22.2761 186.196 20.9903 186.871 19.6559C187.547 18.3235 188.627 17.1935 190.111 16.2661C191.596 15.3387 193.518 14.875 195.88 14.875C197.06 14.875 198.179 14.9803 199.24 15.1868C200.298 15.3954 201.657 15.7842 203.316 16.3552C203.316 16.3006 203.351 16.2317 203.42 16.1487C203.489 16.0657 203.524 15.9988 203.524 15.9421C203.524 15.9097 203.55 15.8429 203.605 15.7437C203.658 15.6445 203.685 15.5574 203.685 15.4805C203.716 15.4359 203.752 15.3812 203.789 15.3164C203.826 15.2516 203.846 15.1787 203.846 15.1018L204.628 15.4805C204.618 15.5129 204.598 15.5736 204.571 15.6607C204.545 15.7477 204.531 15.7984 204.531 15.8085C204.531 15.8855 204.494 15.9948 204.419 16.1366C204.345 16.2803 204.308 16.3735 204.308 16.416C204.074 17.0741 203.919 17.469 203.844 17.6006C203.131 17.2381 202.501 16.9566 201.953 16.7521C201.405 16.5496 200.838 16.3937 200.253 16.2823C201.168 16.9627 202.291 18.0643 203.62 19.5891C203.269 20.3565 202.998 21.1746 202.807 22.0412L202.801 22.0534ZM205.833 39.644H204.684C204.514 38.4817 204.376 37.2039 204.27 35.8108C204.26 35.5577 204.253 35.1466 204.247 34.5756C204.241 34.0046 204.239 33.5408 204.239 33.1845V32.0566C204.239 31.8926 204.249 31.5908 204.27 31.1514C204.292 30.712 204.302 30.4002 204.302 30.2139C204.971 30.1369 205.535 30.0519 205.992 29.9587C206.45 29.8656 206.895 29.7259 207.333 29.5396V30.3131C207.216 30.3678 207.051 30.4427 206.839 30.5359C206.626 30.629 206.403 30.7363 206.169 30.8558C206.116 30.8558 206.047 30.8882 205.961 30.955C205.874 31.0218 205.802 31.0542 205.737 31.0542L205.482 31.1858C205.407 31.3499 205.348 31.6516 205.307 32.091C205.285 32.9253 205.276 33.8851 205.276 34.9705C205.382 36.7909 205.568 38.3501 205.833 39.644Z" fill="#F3F3F3"/>
<path d="M228.954 39.5125C229.113 39.4355 229.486 39.2553 230.071 38.9698C230.146 38.9374 230.226 38.9009 230.31 38.8625C230.395 38.824 230.46 38.7936 230.501 38.7713C230.544 38.7713 230.585 38.7491 230.629 38.7045C230.65 38.4737 230.66 38.1456 230.66 37.7163C230.703 36.9813 230.725 35.8514 230.725 34.3266V30.8214C230.725 29.2967 230.682 27.2717 230.597 24.7487C230.566 23.3454 230.497 22.0069 230.389 20.7332C230.293 18.7913 230.208 17.5359 230.134 16.9648C230.081 16.5598 230.038 16.2905 230.006 16.1589C229.592 16.0273 229.299 15.9442 229.128 15.9118C229.022 15.8896 228.932 15.8774 228.857 15.8714C228.783 15.8653 228.708 15.8572 228.634 15.8471C228.581 15.8369 228.531 15.8288 228.49 15.8228C228.447 15.8167 228.384 15.8147 228.3 15.8147V15.0411C228.801 15.0857 229.293 15.1059 229.784 15.1059H231.316C231.496 16.9932 231.634 19.5385 231.73 22.742C231.826 25.9454 231.873 28.7155 231.873 31.0523V39.5104C230.778 39.642 229.804 39.8992 228.954 40.284V39.5104V39.5125ZM235.926 14.8791V15.7175C235.628 15.8045 235.07 15.8815 234.251 15.9483C234.177 17.0559 234.13 18.1454 234.108 19.2145C234.086 20.2837 234.073 21.5047 234.069 22.8756C234.063 24.2465 234.061 25.7065 234.061 27.2535L235.496 25.7551L239.963 32.3381C240.016 32.3705 240.067 32.4211 240.114 32.4859C240.162 32.5528 240.222 32.6338 240.297 32.733C240.34 32.7877 240.401 32.8808 240.48 33.0124C240.56 33.144 240.631 33.2534 240.696 33.3405C240.792 33.4498 240.89 33.5774 240.99 33.7191C241.09 33.8609 241.222 34.0269 241.381 34.2132C241.817 34.8612 242.339 35.5679 242.944 36.3353C243.604 37.1696 244.112 37.7832 244.468 38.178C244.823 38.5729 245.165 38.905 245.489 39.1743C245.813 39.4436 246.184 39.6825 246.598 39.8911C246.215 39.8587 245.742 39.7109 245.178 39.4477C244.615 39.1844 243.82 38.5506 242.793 37.5463C241.766 36.5419 240.529 35.0313 239.084 33.0124L235.27 27.5815L234.057 28.7337C234.057 29.1387 234.055 29.4749 234.049 29.7381C234.043 30.0013 234.035 30.2929 234.025 30.6109V34.116C234.004 34.7093 233.994 35.5861 233.994 36.7484C233.994 37.5159 234.004 38.1031 234.025 38.5101C234.962 38.6519 235.669 38.7956 236.148 38.9374L236.117 39.7757C234.968 39.5773 234.169 39.48 233.723 39.48C233.383 39.48 233.122 39.4902 232.942 39.5125C232.942 38.8867 232.94 38.3805 232.934 37.9897C232.928 37.6009 232.92 37.1757 232.91 36.714V34.2132C232.9 33.6422 232.891 33.1157 232.887 32.6338C232.881 32.1518 232.867 31.5363 232.847 30.7911V23.7402C232.847 23.3839 232.849 22.9323 232.855 22.3835C232.861 21.8348 232.869 21.4237 232.879 21.1504C232.879 19.3522 232.9 18.0137 232.944 17.1349C232.975 16.3229 233.018 15.6486 233.071 15.11C234.294 15.0654 235.247 14.9885 235.928 14.8791H235.926ZM236.15 24.9491C236.564 24.4449 236.91 24.0177 237.187 23.6653C237.56 23.2482 238.063 22.6448 238.695 21.855C239.327 21.0653 239.908 20.2148 240.434 19.3036C240.961 18.3924 241.457 17.2848 241.927 15.9787C241.842 15.9564 241.764 15.9422 241.695 15.9382C241.626 15.9321 241.554 15.924 241.479 15.9139C241.34 15.9139 241.122 15.8916 240.825 15.8491C240.719 15.8268 240.625 15.8045 240.546 15.7823C240.466 15.76 240.352 15.7377 240.203 15.7154C240.14 15.7154 240.075 15.7053 240.012 15.6831V14.8447C241.139 15.0209 242.247 15.108 243.331 15.108C242.767 16.7319 242.08 18.2405 241.273 19.6337L245.263 15.108C246.038 15.0756 246.716 14.9865 247.289 14.8447V15.6506C246.896 15.8268 246.427 15.9139 245.885 15.9139L245.072 16.8352L237.493 24.9471L242.327 31.8906C242.742 32.494 243.25 33.223 243.851 34.0796C244.452 34.9361 245.143 35.7846 245.925 36.631C246.706 37.4754 247.537 38.1719 248.414 38.7207C249.292 39.2695 250.193 39.5428 251.118 39.5428V40.2495C250.278 40.2495 249.508 40.128 248.813 39.8871C248.116 39.6461 247.476 39.314 246.891 38.8908C246.305 38.4696 245.728 37.9553 245.159 37.3518C244.589 36.7484 243.99 36.0518 243.364 35.2621C243.14 34.9341 242.885 34.5777 242.598 34.193C242.312 33.8082 242.088 33.5126 241.929 33.304C241.801 33.14 241.672 32.9618 241.538 32.7694C241.404 32.577 241.296 32.4313 241.21 32.3341L236.152 24.9451L236.15 24.9491Z" fill="#F3F3F3"/>
<path d="M264.904 39.3464C266.171 39.314 267.327 39.0832 268.374 38.6559C269.422 38.2287 270.345 37.5888 271.142 36.7383C271.94 35.8878 272.56 34.8247 273.002 33.545C273.444 32.2673 273.664 30.7951 273.664 29.1266C273.664 28.6325 273.654 28.2538 273.632 27.9906C273.579 26.8708 273.393 25.6558 273.075 24.3457C272.756 23.0356 272.112 21.6606 271.144 20.2229C270.176 18.7852 268.794 17.6331 266.995 16.7664C268.602 17.0519 270.004 17.7485 271.199 18.8561C272.395 19.9637 273.306 21.3164 273.929 22.9121C274.551 24.5077 274.889 26.2228 274.942 28.0554C274.942 30.1188 274.677 31.923 274.145 33.4701C273.613 35.0171 272.87 36.2928 271.918 37.2952C270.966 38.2995 269.88 39.0427 268.662 39.5246C267.445 40.0066 266.159 40.2597 264.81 40.2819C262.575 40.2819 260.557 39.7089 258.754 38.5628C256.952 37.4167 255.534 35.8251 254.501 33.79C253.471 31.7549 252.954 29.5032 252.954 27.0348C253.017 25.5202 253.239 24.2019 253.616 23.0781C253.993 21.9543 254.421 21.043 254.9 20.3465C255.379 19.6499 255.841 19.093 256.288 18.6759C255.821 19.6094 255.428 20.4801 255.116 21.2921C254.802 22.1041 254.57 22.9627 254.421 23.8678C254.272 24.773 254.197 25.7854 254.197 26.9032C254.219 29.2298 254.678 31.3398 255.577 33.2392C256.477 35.1366 257.733 36.629 259.351 37.7143C260.967 38.7997 262.819 39.3444 264.904 39.3444V39.3464ZM265.717 14.8447C268.014 14.9217 270.031 15.5514 271.765 16.738C273.499 17.9226 274.836 19.5183 275.778 21.527C276.719 23.5337 277.19 25.7551 277.19 28.191C277.137 29.9568 276.866 31.4735 276.377 32.7411C275.888 34.0087 275.366 34.9645 274.814 35.6124C274.26 36.2604 273.734 36.7545 273.236 37.0927C274.724 35.1629 275.598 32.7654 275.853 29.9021C275.896 29.244 275.918 28.7499 275.918 28.4219C275.918 26.7007 275.66 25.0848 275.144 23.5762C274.628 22.0677 273.907 20.7454 272.982 19.6114C272.057 18.4754 270.956 17.5703 269.68 16.896C268.403 16.2217 267.074 15.8612 265.69 15.8187C263.701 15.8187 262.073 16.1974 260.806 16.9547C259.54 17.712 258.591 18.6597 257.957 19.8018C257.325 20.9418 256.905 22.0778 256.697 23.2077C256.488 24.3376 256.386 25.423 256.386 26.4658C256.514 31.8076 258.625 35.7299 262.721 38.2307C261.486 37.9229 260.394 37.3883 259.442 36.6269C258.489 35.8635 257.696 34.9422 257.064 33.8629C256.432 32.7816 255.947 31.6031 255.613 30.3253C255.277 29.0476 255.11 27.7273 255.11 26.3686C255.153 24.6029 255.485 22.8574 256.108 21.1362C256.73 19.415 257.832 17.9348 259.41 16.7016C260.989 15.4684 263.094 14.8508 265.721 14.8508L265.717 14.8447Z" fill="#F3F3F3"/>
<path d="M282.584 16.2273C282.02 15.9864 281.626 15.8061 281.404 15.6846V14.9111C281.893 15.1197 282.378 15.2837 282.857 15.4052C283.336 15.5267 283.868 15.6198 284.453 15.6846C284.475 16.0471 284.485 16.5959 284.485 17.3309V24.1104C284.485 26.8643 284.434 29.6972 284.333 32.6091C284.231 35.5209 284.096 37.8232 283.927 39.512H282.331C281.808 39.512 281.282 39.5444 280.752 39.6113V38.8378C280.817 38.8276 280.872 38.8195 280.919 38.8135C280.966 38.8074 281.023 38.8053 281.086 38.8053C281.213 38.7831 281.315 38.7689 281.388 38.7649C281.463 38.7588 281.537 38.7507 281.612 38.7406C281.804 38.6859 281.928 38.6555 281.987 38.6494C282.046 38.6433 282.122 38.6312 282.219 38.6089C282.315 38.5867 282.427 38.5644 282.554 38.5441C282.692 37.4912 282.818 36.1162 282.93 34.4214C283.041 32.7265 283.122 31.0175 283.169 29.2963C283.216 27.5751 283.242 25.9227 283.242 24.3433C283.252 23.9585 283.257 23.3754 283.257 22.5917C283.257 21.8081 283.263 21.2229 283.273 20.8401C283.273 19.3376 283.263 18.2077 283.242 17.4504C283.242 17.2317 283.24 17.0535 283.234 16.9158C283.228 16.7781 283.22 16.6283 283.21 16.4643C283.179 16.4541 283.149 16.446 283.122 16.44C283.094 16.4339 283.071 16.4319 283.049 16.4319C282.975 16.3873 282.898 16.3468 282.818 16.3083C282.737 16.2699 282.661 16.2456 282.586 16.2334L282.584 16.2273ZM287.546 16.4906H286.827V32.7326C286.837 33.0404 286.845 33.3259 286.851 33.5891C286.857 33.8524 286.859 34.1986 286.859 34.6259V37.2259C286.89 37.4669 286.906 37.8577 286.906 38.3943C287.426 38.4166 288.188 38.4267 289.187 38.4267C290.464 38.4166 291.569 38.3254 292.506 38.1553C293.442 37.9853 294.139 37.801 294.597 37.6045C295.054 37.4061 295.416 37.2198 295.683 37.0457C295.683 36.8371 295.681 36.6731 295.675 36.5516C295.669 36.4301 295.661 36.2944 295.651 36.1405C295.661 35.9421 295.669 35.7659 295.675 35.6059C295.681 35.448 295.683 35.2475 295.683 35.0045H296.368C296.368 36.256 296.458 37.1611 296.639 37.72C296.533 37.7747 296.452 37.8253 296.399 37.8678C296.07 37.967 295.867 38.0217 295.793 38.0318C295.653 38.0764 295.447 38.131 295.17 38.1958C294.893 38.2606 294.685 38.3173 294.548 38.3599C294.09 38.4368 293.751 38.5077 293.527 38.5745C293.271 38.6292 293.077 38.6737 292.944 38.7061C292.81 38.7385 292.659 38.7729 292.488 38.8053H296.637C296.68 39.101 296.733 39.3703 296.796 39.6113C296.818 39.7206 296.831 39.8198 296.835 39.9069C296.841 39.994 296.849 40.0871 296.859 40.1863C296.869 40.2086 296.877 40.2329 296.882 40.2613C296.888 40.2876 296.89 40.318 296.89 40.3524H296.362C296.266 40.2208 296.181 39.996 296.107 39.6781H295.755C295.616 39.668 295.488 39.6578 295.372 39.6538C295.255 39.6477 295.105 39.6457 294.925 39.6457C294.53 39.6457 294.238 39.6356 294.047 39.6133C293.886 39.6133 293.652 39.6032 293.344 39.5809C293.036 39.5586 292.8 39.5485 292.641 39.5485C292.449 39.5262 292.109 39.5161 291.618 39.5161H285.578C285.557 39.0443 285.547 38.3477 285.547 37.4264C285.547 36.9545 285.545 36.5739 285.539 36.2823C285.533 35.9907 285.525 35.6768 285.516 35.3366C285.525 34.9863 285.533 34.6644 285.539 34.3748C285.545 34.0852 285.547 33.7086 285.547 33.2469C285.547 32.8622 285.545 32.5564 285.539 32.3256C285.533 32.0947 285.525 31.8436 285.516 31.5682L285.58 15.6887C286.456 15.6887 287.106 15.6664 287.534 15.6239C287.695 15.6016 287.854 15.5854 288.015 15.5753C288.176 15.5652 288.337 15.551 288.504 15.5348C288.669 15.5186 288.832 15.5044 288.993 15.4943C289.282 15.4295 289.586 15.3951 289.906 15.3951V16.1362C289.747 16.1909 289.57 16.2354 289.38 16.2678C289.178 16.3225 288.82 16.3772 288.31 16.4319C288.117 16.4319 287.862 16.4541 287.544 16.4966L287.546 16.4906Z" fill="#F3F3F3"/>
<path d="M207.659 26.589C210.074 21.2999 215.068 18.9975 219.723 23.1203C221.237 24.6471 223.536 25.4388 225.439 24.1408C223.931 25.6859 221.39 25.3558 219.81 24.0862C215.06 19.9594 210.985 21.796 207.659 26.589Z" fill="#F3F3F3"/>
<path d="M229.317 21.9756C226.902 27.2647 221.909 29.5671 217.253 25.4443C215.739 23.9175 213.44 23.1257 211.537 24.4237C213.045 22.8787 215.586 23.2088 217.167 24.4784C221.916 28.6052 225.991 26.7686 229.317 21.9756Z" fill="#F3F3F3"/>
<path d="M107.305 53.9971C105.524 53.9971 104.069 54.3089 102.938 54.9346C102.985 55.3113 103.007 55.9329 103.007 56.7976H102.484C102.484 56.4372 102.469 56.0463 102.437 55.6251C102.406 55.204 102.349 54.7888 102.262 54.3818C102.696 54.2927 103.036 54.2138 103.283 54.1409C103.36 54.1247 103.503 54.0923 103.713 54.0437C103.923 53.9951 104.073 53.9627 104.167 53.9465C104.291 53.9141 104.381 53.8898 104.44 53.8695C104.499 53.8493 104.589 53.825 104.713 53.7926H102.262C102.262 53.4747 102.223 53.1041 102.146 52.6748H102.692C102.692 52.8348 102.716 52.9988 102.761 53.1648C103.621 53.2296 104.422 53.26 105.164 53.26L108.253 53.3066C108.408 54.7605 108.497 55.9532 108.52 56.8867C108.536 57.2066 108.55 57.646 108.561 58.2049C108.573 58.7638 108.583 59.2822 108.591 59.7621C108.607 60.2015 108.622 60.6753 108.638 61.1816C108.654 61.6878 108.662 62.0968 108.662 62.4087V70.5044C108.243 70.561 107.851 70.6339 107.483 70.7251C107.116 70.8162 106.796 70.9296 106.525 71.0673V70.5044C106.665 70.4254 106.773 70.3667 106.851 70.3302C106.928 70.2938 107.012 70.2553 107.1 70.2168C107.189 70.1763 107.265 70.1419 107.326 70.1095C107.366 70.1014 107.413 70.0811 107.472 70.0487C107.531 70.0163 107.585 69.988 107.64 69.9657C107.664 69.9576 107.684 69.9515 107.699 69.9475C107.715 69.9434 107.735 69.9414 107.758 69.9414C107.766 69.8219 107.772 69.7146 107.776 69.6174C107.78 69.5223 107.782 69.4008 107.782 69.257C107.798 68.6819 107.805 67.8476 107.805 66.7521V64.1987C107.805 63.7269 107.805 63.2105 107.8 62.6476C107.796 62.0847 107.774 61.2221 107.735 60.0598C107.695 58.8974 107.64 57.7695 107.566 56.674C107.491 55.5786 107.405 54.6856 107.305 53.989V53.9971ZM109.584 53.3127L112.701 53.2661C112.777 53.258 113.099 53.2459 113.667 53.2297C114.232 53.2135 114.705 53.1851 115.086 53.1466C115.118 52.9401 115.149 52.7842 115.178 52.6789H115.703C115.626 53.0352 115.587 53.4078 115.587 53.7966H113.113C113.237 53.8209 113.341 53.8452 113.427 53.8736C113.511 53.9019 113.598 53.9262 113.682 53.9505C113.759 53.9586 113.902 53.989 114.112 54.0416C114.32 54.0943 114.472 54.1287 114.566 54.1429C114.813 54.2158 115.147 54.2948 115.565 54.3839C115.442 55.2404 115.379 56.0463 115.379 56.7996H114.833C114.833 55.8459 114.864 55.2242 114.925 54.9346C113.81 54.3251 112.32 54.0214 110.454 54.0214C110.362 54.7564 110.303 55.7466 110.279 56.994V59.6183C110.279 60.1306 110.278 60.5457 110.274 60.8657C110.27 61.1856 110.264 61.5359 110.256 61.9207V66.6064C110.256 67.0377 110.254 67.386 110.25 67.6492C110.246 67.9124 110.24 68.204 110.232 68.524C110.248 68.8034 110.256 69.2226 110.256 69.7815C110.782 69.8382 111.304 69.9414 111.825 70.0933L111.801 70.7048C110.977 70.561 110.382 70.4902 110.016 70.4902C109.775 70.4902 109.592 70.4983 109.469 70.5145C109.461 70.1783 109.455 69.8442 109.451 69.5081C109.447 69.1719 109.445 68.8378 109.445 68.5017C109.429 68.2931 109.421 67.9914 109.421 67.5905C109.421 67.1895 109.414 66.9 109.398 66.7157C109.398 66.1487 109.396 65.6911 109.392 65.3448C109.388 64.9986 109.382 64.6199 109.374 64.2129V59.1343C109.374 58.8792 109.374 58.5451 109.38 58.134C109.384 57.723 109.39 57.4172 109.398 57.2188C109.398 56.1253 109.421 55.2991 109.469 54.7403C109.5 54.0943 109.539 53.6184 109.586 53.3147L109.584 53.3127Z" fill="#F3F3F3"/>
<path d="M117.652 53.756V53.1445C117.699 53.1445 118.418 53.2012 119.812 53.3125C119.828 53.4644 119.84 53.6203 119.847 53.7803C119.855 53.9403 119.867 54.1043 119.883 54.2703C119.899 54.4384 119.91 54.6024 119.918 54.7604C119.934 55.1512 119.95 55.5784 119.965 56.0421C119.981 56.5058 119.989 56.8724 119.989 57.1437C120.005 57.735 120.012 58.6482 120.012 59.8855V61.9205C120.005 62.1676 120.001 62.5422 120.001 63.0403C120.001 63.5384 119.997 63.9131 119.989 64.1601C119.989 64.4314 119.981 64.8466 119.965 65.4054C119.95 65.9643 119.942 66.3794 119.942 66.6508V68.4712C119.942 68.9268 119.94 69.2933 119.936 69.5728C119.932 69.8522 119.926 70.164 119.918 70.5062C119.787 70.49 119.592 70.4819 119.337 70.4819C118.942 70.4819 118.334 70.5528 117.513 70.6966L117.489 70.0851C117.907 69.9656 118.446 69.8623 119.103 69.7732V66.5758C119.088 66.0251 119.08 65.1746 119.08 64.0244V59.5453C119.08 58.3647 119.072 57.4778 119.056 56.8865C119.056 56.5747 119.046 56.2264 119.027 55.8396C119.007 55.4529 118.989 55.135 118.974 54.8879C118.958 54.6409 118.944 54.4262 118.932 54.248C118.921 54.0678 118.915 53.9625 118.915 53.9301C118.434 53.8653 118.014 53.8066 117.648 53.7499L117.652 53.756ZM123.733 63.7916C123.262 63.7754 122.575 63.7085 121.67 63.587C121.623 64.075 121.601 64.557 121.601 65.0369C121.609 65.3163 121.615 65.5755 121.619 65.8145C121.623 66.0534 121.624 66.3612 121.624 66.7358V69.2022C121.64 69.3136 121.652 69.4087 121.66 69.4836C121.668 69.5606 121.674 69.6315 121.677 69.6983C121.681 69.7671 121.687 69.84 121.695 69.919C121.727 69.9514 121.756 69.9676 121.787 69.9676C121.872 70 121.978 70.0486 122.102 70.1114C122.241 70.1823 122.528 70.3159 122.962 70.5062V71.0692C122.32 70.7897 121.587 70.6014 120.766 70.5062C120.751 70.2268 120.743 69.8198 120.743 69.2852V64.3504C120.743 63.9029 120.743 63.4109 120.749 62.8723C120.753 62.3336 120.77 61.4183 120.802 60.1305C120.833 58.8406 120.878 57.5102 120.941 56.1373C121.002 54.7644 121.049 53.7823 121.081 53.191L121.789 53.1667C121.89 53.1505 122.025 53.1424 122.196 53.1424C123.217 53.023 123.841 52.9582 124.073 52.9501C124.157 52.942 124.236 52.9359 124.305 52.9318C124.373 52.9278 124.464 52.9258 124.572 52.9258C125.966 52.9258 127.13 53.2093 128.063 53.7762C128.996 54.3432 129.683 55.0742 130.119 55.9672C130.557 56.8622 130.775 57.7755 130.775 58.709C130.759 59.8267 130.413 60.8534 129.738 61.7869C129.062 62.7204 128.145 63.2489 126.989 63.3684C127.655 63.1051 128.31 62.6292 128.956 61.9428C129.602 61.2563 129.93 60.1933 129.938 58.7576C129.938 56.7367 129.365 55.3739 128.216 54.6672C127.067 53.9605 125.813 53.6082 124.452 53.6082C124.057 53.6082 123.81 53.6163 123.71 53.6325C123.138 53.673 122.616 53.7965 122.145 54.003C121.998 54.9446 121.882 56.3459 121.797 58.2068C121.713 60.0677 121.67 61.6168 121.67 62.854C122.435 63.0383 123.319 63.1537 124.324 63.2023C124.385 63.2894 124.497 63.4554 124.654 63.6984C124.813 63.9414 124.957 64.1601 125.088 64.3504C125.188 64.4861 125.389 64.7919 125.691 65.2657C125.991 65.7416 126.258 66.1628 126.49 66.5293C126.808 66.9687 127.105 67.3635 127.38 67.7139C127.655 68.0662 127.957 68.4185 128.287 68.7729C128.617 69.1272 128.964 69.4715 129.327 69.8036C129.693 70.1357 130.119 70.484 130.608 70.8525C129.973 70.6763 129.39 70.4192 128.86 70.081C128.33 69.7408 127.812 69.3014 127.303 68.7567C126.796 68.214 126.274 67.56 125.734 66.7925C125.196 66.0251 124.529 65.0247 123.731 63.7875L123.733 63.7916ZM127.751 66.9525L125.114 62.9755C125.724 62.8075 126.274 62.524 126.765 62.125C127.256 61.7261 127.641 61.23 127.918 60.6408C128.196 60.0495 128.346 59.4157 128.369 58.7373C128.369 57.5568 128.039 56.6091 127.378 55.8984C126.716 55.1876 125.931 54.7057 125.019 54.4485C125.569 54.4485 126.101 54.5397 126.612 54.7239C127.124 54.9082 127.566 55.1714 127.937 55.5136C128.31 55.8579 128.613 56.2912 128.844 56.8197C129.078 57.3462 129.198 57.9294 129.206 58.5672C129.206 59.3185 129.078 60.0009 128.821 60.6144C128.564 61.23 128.208 61.7525 127.755 62.1838C127.299 62.6151 126.781 62.9553 126.198 63.2023L129.058 67.3696C129.345 67.7928 129.726 68.2525 130.197 68.7466C130.671 69.2427 131.224 69.672 131.86 70.0405C132.497 70.407 133.174 70.5953 133.897 70.6034V71.0712C133.021 71.0712 132.177 70.8404 131.364 70.3766C130.551 69.9129 129.842 69.3723 129.237 68.7547C128.632 68.1371 128.138 67.5357 127.751 66.9525Z" fill="#F3F3F3"/>
<path d="M146.383 64.2587H139.322C138.888 65.5284 138.609 66.5813 138.486 67.4197C138.362 68.258 138.299 69.0518 138.299 69.803C138.586 69.8597 139.171 69.9306 140.053 70.0176V70.6292C139.024 70.5502 138.191 70.5097 137.555 70.5097L138.193 66.2695L136.671 70.4611C135.919 70.6292 135.305 70.8317 134.826 71.0726V70.4611C135.042 70.4125 135.476 70.2647 136.126 70.0176C136.173 69.9225 136.206 69.8455 136.23 69.7908C136.253 69.7341 136.29 69.6633 136.345 69.5762C136.414 69.4081 136.581 69.0254 136.844 68.426C136.944 68.1628 137.056 67.8874 137.182 67.5999C137.306 67.3123 137.398 67.0896 137.461 66.9296C137.537 66.7615 137.751 66.2472 138.099 65.3846C138.146 65.2732 138.181 65.1821 138.209 65.1153C138.236 65.0485 138.266 64.9735 138.295 64.8946L142.185 53.2897C142.03 53.2735 141.794 53.2654 141.476 53.2654C141.268 53.2654 141.109 53.2492 141.001 53.2168C140.846 53.2168 140.657 53.2087 140.432 53.1925C140.208 53.1763 140.08 53.1682 140.049 53.1682V52.5566H142.546C142.864 53.2269 143.122 53.8101 143.318 54.3042C143.516 54.7982 143.711 55.3227 143.905 55.8735C144.098 56.4243 144.272 56.9042 144.427 57.3112L149.537 70.5077C148.947 70.5077 148.015 70.696 146.738 71.0706V70.4591C147.204 70.3882 147.703 70.2404 148.237 70.0156C148.197 69.8961 148.158 69.7666 148.115 69.6268C148.072 69.4871 148.04 69.3818 148.017 69.3089C147.948 68.9586 147.818 68.4747 147.634 67.8591C147.494 67.3731 147.3 66.7798 147.053 66.0812C146.805 65.3826 146.579 64.7731 146.379 64.2547L146.383 64.2587ZM139.601 63.3961H146.092L142.55 54.618L139.601 63.3961ZM144.431 52.5587C144.547 52.8786 144.834 53.6521 145.291 54.8813C145.902 56.6227 146.418 58.03 146.837 59.1093C146.96 59.4536 147.139 59.9193 147.371 60.5106C147.602 61.1019 147.834 61.6952 148.062 62.2885C148.29 62.8838 148.466 63.3516 148.59 63.6958C148.629 63.791 148.836 64.3357 149.211 65.3299C149.586 66.3242 149.902 67.1686 150.157 67.8631C150.381 68.3572 150.652 69.0052 150.97 69.803C151.141 69.8354 151.261 69.8678 151.329 69.8982C151.516 69.9306 151.649 69.9468 151.736 69.9468C151.922 69.9792 152.066 69.9954 152.166 69.9954C152.205 69.9954 152.236 69.9954 152.258 70.0014C152.282 70.0055 152.305 70.0116 152.329 70.0197V70.6312C152.305 70.6231 152.272 70.617 152.23 70.613C152.187 70.6089 152.144 70.6049 152.097 70.6008C152.05 70.5968 152.016 70.5907 151.993 70.5826C151.854 70.5664 151.74 70.5522 151.651 70.5401C151.561 70.5279 151.463 70.5178 151.355 70.5097H150.355C150.153 69.9994 149.984 69.5479 149.845 69.157C149.705 68.7662 149.582 68.4382 149.474 68.175C149.366 67.8712 149.236 67.5371 149.085 67.1686C148.934 66.8021 148.79 66.4457 148.655 66.1034C148.519 65.7612 148.396 65.4453 148.284 65.1578C148.172 64.8703 148.023 64.4957 147.836 64.0319C147.526 63.2341 147.304 62.657 147.168 62.3006C147.033 61.9463 146.898 61.5919 146.762 61.2416C146.627 60.8913 146.405 60.3162 146.094 59.5163C145.39 57.6959 144.859 56.2663 144.504 55.2296C144.365 54.8307 144.253 54.5067 144.166 54.2596C144.082 54.0126 143.995 53.7676 143.911 53.5225C143.827 53.2795 143.713 52.9576 143.573 52.5587H144.433H144.431Z" fill="#F3F3F3"/>
<path d="M160.794 71.0723C160.731 70.8881 160.46 70.1469 159.981 68.8449C159.229 66.7612 158.722 65.3964 158.459 64.7484C158.335 64.4204 158.159 63.9729 157.931 63.4019C157.703 62.8308 157.473 62.2578 157.245 61.6827C157.018 61.1076 156.841 60.6561 156.717 60.33C156.546 59.8744 156.366 59.3905 156.171 58.8741C155.977 58.3598 155.814 57.9163 155.679 57.5458C155.543 57.1752 155.374 56.7459 155.174 56.2579C155.003 55.8671 154.85 55.5127 154.714 55.1989C154.579 54.883 154.465 54.6258 154.371 54.4274C154.308 54.4031 154.251 54.3788 154.196 54.3565C154.141 54.3322 154.088 54.32 154.033 54.32C153.994 54.3119 153.858 54.2876 153.627 54.2492C153.479 54.2492 153.336 54.2249 153.197 54.1783H153.034V53.5911C153.11 53.5911 153.175 53.5931 153.226 53.5971C153.277 53.6012 153.332 53.6073 153.395 53.6154C153.534 53.6316 153.654 53.6478 153.754 53.664C153.854 53.6802 153.947 53.6882 154.033 53.6882C154.304 53.7044 154.622 53.7125 154.985 53.7125C155.264 54.4233 155.559 55.1847 155.869 56.0007C156.048 56.4644 156.236 56.9383 156.438 57.4263C156.641 57.9143 156.806 58.3152 156.937 58.6291C157.069 58.945 157.251 59.3966 157.483 59.9878C157.746 60.6115 158.023 61.3121 158.314 62.0897C158.604 62.8673 158.889 63.6246 159.168 64.3597C159.996 66.4838 160.527 67.8729 160.758 68.527C161.106 69.4524 161.408 70.3028 161.663 71.0784H160.792L160.794 71.0723ZM162.686 69.1081L166.066 59.0361C166.592 57.5437 166.855 56.0068 166.855 54.4253C166.669 54.3686 166.089 54.2856 165.113 54.1742V53.587C166.142 53.666 166.959 53.7065 167.564 53.7065L166.949 57.8272L168.447 53.7551C169.176 53.587 169.779 53.3845 170.26 53.1436V53.7551C170.02 53.8199 169.785 53.8907 169.551 53.9697C169.319 54.0487 169.133 54.1175 168.993 54.1742C168.946 54.2694 168.911 54.3504 168.883 54.4132C168.856 54.478 168.823 54.5448 168.785 54.6177C168.73 54.7453 168.656 54.9154 168.559 55.126C168.463 55.3366 168.371 55.535 168.286 55.7193C167.915 56.5414 167.69 57.0335 167.613 57.1914C167.489 57.5113 167.356 57.8454 167.212 58.1978C167.069 58.5501 166.951 58.8599 166.859 59.1313L162.934 71.0723H162.62C162.52 70.7929 162.441 70.5884 162.388 70.4608C162.296 70.2218 162.205 69.989 162.121 69.7662C162.037 69.5435 161.942 69.3066 161.842 69.0595C161.742 68.8287 161.648 68.614 161.563 68.4196C161.479 68.2232 161.369 67.9782 161.237 67.6826C161.067 67.1885 160.919 66.7876 160.796 66.4858L155.767 53.7085C156.224 53.7004 156.753 53.6194 157.352 53.4635C157.95 53.3076 158.351 53.2023 158.553 53.1456V53.7571C158.096 53.8057 157.605 53.9454 157.079 54.1763C157.102 54.2552 157.128 54.3585 157.153 54.482C157.181 54.6056 157.218 54.7392 157.263 54.883C157.348 55.2495 157.475 55.7091 157.646 56.2599C157.878 57.0193 158.068 57.5741 158.215 57.9244L162.686 69.1102V69.1081Z" fill="#F3F3F3"/>
<path d="M172.848 70.5106C173.095 70.4074 173.382 70.2757 173.708 70.1158C173.784 70.0834 173.847 70.057 173.894 70.0388C173.941 70.0186 173.991 69.9963 174.045 69.972C174.093 69.972 174.13 69.9558 174.161 69.9234C174.177 69.7472 174.187 69.6136 174.191 69.5225C174.195 69.4313 174.201 69.324 174.208 69.2045V64.1868C174.208 63.7555 174.197 62.9293 174.173 61.7083C174.15 60.4872 174.124 59.5456 174.099 58.8814C174.071 58.2193 174.024 57.3972 173.959 56.4151C173.894 55.433 173.81 54.5987 173.71 53.9123C173.641 53.8799 173.403 53.813 173.001 53.7077C172.938 53.6915 172.877 53.6814 172.814 53.6774C172.752 53.6733 172.687 53.6673 172.616 53.6592C172.585 53.6511 172.551 53.645 172.518 53.6409C172.483 53.6369 172.435 53.6349 172.373 53.6349V53.0719C172.457 53.0719 172.651 53.0841 172.954 53.1084C173.256 53.1326 173.445 53.1448 173.523 53.1448H174.684C174.699 53.2015 174.743 53.7685 174.817 54.8458C174.89 55.923 174.959 57.3 175.019 58.9705C175.082 60.6431 175.112 62.4372 175.112 64.3528V69.2876C175.112 69.5508 175.112 69.7695 175.106 69.9396C175.102 70.1117 175.096 70.3 175.088 70.5086C174.26 70.6038 173.513 70.7921 172.846 71.0715V70.5086L172.848 70.5106ZM176.702 60.4022H178.42C179.078 60.4022 179.842 60.3718 180.708 60.3131C181.576 60.2523 182.261 60.1794 182.764 60.0923C182.764 60.0599 182.771 60.0093 182.787 59.9364C182.803 59.8656 182.811 59.817 182.811 59.7927C182.834 59.6084 182.868 59.4383 182.915 59.2783C182.931 59.2378 182.942 59.2014 182.95 59.1649C182.958 59.1285 182.968 59.086 182.98 59.0333C182.991 58.9807 183.001 58.9321 183.009 58.8835H183.602C183.547 59.0515 183.502 59.3715 183.463 59.8413C183.447 59.9769 183.439 60.1733 183.439 60.4285C183.439 60.4771 183.431 60.5439 183.416 60.633C183.4 60.7201 183.392 60.793 183.392 60.8477H180.129C181.444 61.0785 182.532 61.3498 183.392 61.6617C183.392 62.3157 183.461 62.9718 183.6 63.6259H182.915C182.815 63.1784 182.764 62.6883 182.764 62.1537C182.106 61.8419 181.348 61.6171 180.494 61.4774C179.638 61.3377 178.946 61.2668 178.42 61.2668H176.702V69.806H178.723C179.288 69.806 179.807 69.7816 180.28 69.7351C180.753 69.6865 181.344 69.5731 182.057 69.3929C182.77 69.2127 183.539 68.9555 184.368 68.6214C184.368 68.429 184.376 68.2812 184.391 68.1779C184.391 67.9552 184.399 67.783 184.415 67.6636C184.431 67.4165 184.478 67.133 184.554 66.8131H185.032V69.16C184.924 69.2167 184.819 69.2572 184.723 69.2855C184.627 69.3139 184.515 69.3483 184.391 69.3868C183.989 69.5144 183.655 69.5954 183.392 69.6257C183.237 69.6581 183.064 69.6966 182.876 69.7452C182.685 69.7938 182.491 69.8282 182.288 69.8525C182.072 69.9011 181.739 69.9396 181.289 69.972H185.028C185.028 70.0996 185.02 70.1988 185.004 70.2717V70.8589C185.02 70.9075 185.028 70.9784 185.028 71.0736H184.435C184.419 71.025 184.411 70.9298 184.411 70.786V70.5106H175.934V53.1448H180.213C180.415 53.1367 180.596 53.1306 180.759 53.1266C180.922 53.1225 181.132 53.1205 181.387 53.1205H182.573C182.689 53.1205 182.872 53.1124 183.119 53.0962C183.366 53.08 183.549 53.0719 183.665 53.0719H184.118C184.126 53.0395 184.144 52.995 184.171 52.9342C184.199 52.8735 184.228 52.8046 184.258 52.7236H184.711C184.635 52.9626 184.572 53.3311 184.525 53.8252L181.099 53.5376C182.732 53.8657 183.836 54.1836 184.409 54.4954C184.401 54.5521 184.395 54.6007 184.391 54.6453C184.387 54.6898 184.378 54.7425 184.362 54.8073C184.331 54.9105 184.295 55.0908 184.258 55.3459C184.234 55.6416 184.203 55.8886 184.166 56.0891H183.596C183.565 55.9534 183.549 55.7408 183.549 55.4553C183.549 55.2406 183.565 55.0685 183.596 54.9409C182.791 54.4853 181.962 54.1897 181.11 54.054C180.258 53.9183 179.333 53.8434 178.336 53.8272H176.989C176.95 54.2909 176.926 54.5623 176.92 54.6412C176.881 55.0402 176.846 55.6031 176.816 56.33C176.785 56.9841 176.769 57.4761 176.769 57.8022C176.738 57.954 176.722 58.2011 176.722 58.5453C176.706 58.6101 176.698 58.7215 176.698 58.8814V60.4022H176.702Z" fill="#F3F3F3"/>
<path d="M188.281 53.5652C187.871 53.389 187.584 53.2574 187.421 53.1704V52.6074C187.776 52.7593 188.13 52.8788 188.477 52.9658C188.825 53.0529 189.214 53.1218 189.638 53.1704C189.654 53.4336 189.661 53.8325 189.661 54.3671V59.3019C189.661 61.3065 189.624 63.3679 189.551 65.488C189.477 67.6081 189.379 69.2828 189.255 70.5119H188.094C187.716 70.5119 187.333 70.5362 186.946 70.5828V70.0198C186.993 70.0117 187.032 70.0057 187.068 70.0016C187.103 69.9976 187.142 69.9955 187.189 69.9955C187.282 69.9793 187.356 69.9692 187.409 69.9651C187.464 69.9611 187.517 69.955 187.572 69.9469C187.712 69.9064 187.802 69.8862 187.845 69.8801C187.888 69.8761 187.943 69.8659 188.014 69.8497C188.085 69.8335 188.165 69.8173 188.257 69.8011C188.358 69.0337 188.45 68.0354 188.53 66.8002C188.611 65.565 188.67 64.3237 188.705 63.0703C188.74 61.8168 188.758 60.616 188.758 59.4659C188.766 59.1864 188.77 58.7612 188.77 58.1902C188.77 57.6191 188.774 57.1939 188.782 56.9145C188.782 55.821 188.774 54.9989 188.758 54.4481C188.758 54.2881 188.758 54.1585 188.752 54.0593C188.748 53.9601 188.742 53.8487 188.735 53.7292C188.711 53.7211 188.689 53.7151 188.67 53.711C188.65 53.707 188.632 53.7049 188.617 53.7049C188.562 53.6725 188.507 53.6442 188.448 53.6158C188.391 53.5875 188.334 53.5693 188.279 53.5612L188.281 53.5652ZM191.892 53.7576H191.37V65.5771C191.378 65.7999 191.383 66.0084 191.387 66.2008C191.391 66.3932 191.393 66.6443 191.393 66.9561V68.8474C191.417 69.0236 191.429 69.3071 191.429 69.6979C191.808 69.7141 192.361 69.7222 193.09 69.7222C194.018 69.7141 194.824 69.6493 195.505 69.5237C196.186 69.4002 196.693 69.2666 197.027 69.1228C197.36 68.979 197.624 68.8433 197.816 68.7158C197.816 68.5639 197.816 68.4444 197.81 68.3574C197.806 68.2703 197.8 68.169 197.792 68.0577C197.8 67.9139 197.806 67.7843 197.81 67.6689C197.814 67.5535 197.816 67.4077 197.816 67.2315H198.315C198.315 68.1427 198.379 68.8008 198.511 69.2078C198.434 69.2483 198.376 69.2848 198.336 69.3151C198.097 69.386 197.949 69.4265 197.894 69.4346C197.794 69.467 197.643 69.5055 197.441 69.5541C197.239 69.6027 197.089 69.6412 196.987 69.6736C196.654 69.7303 196.406 69.7809 196.243 69.8295C196.057 69.87 195.915 69.9004 195.819 69.9247C195.723 69.949 195.611 69.9732 195.487 69.9955H198.507C198.539 70.2102 198.578 70.4066 198.623 70.5828C198.639 70.6617 198.648 70.7346 198.652 70.7974C198.656 70.8602 198.662 70.929 198.67 71.0019C198.678 71.0181 198.684 71.0363 198.688 71.0566C198.692 71.0768 198.694 71.0991 198.694 71.1234H198.311C198.24 71.0283 198.179 70.8642 198.124 70.6334H197.869C197.769 70.6253 197.675 70.6192 197.59 70.6152C197.506 70.6111 197.396 70.6091 197.264 70.6091C196.978 70.6091 196.763 70.601 196.624 70.5848C196.508 70.5848 196.337 70.5767 196.112 70.5605C195.886 70.5443 195.717 70.5362 195.599 70.5362C195.46 70.52 195.212 70.5119 194.855 70.5119H190.459C190.443 70.1697 190.435 69.6614 190.435 68.9912C190.435 68.649 190.433 68.3715 190.429 68.1589C190.425 67.9483 190.419 67.7175 190.411 67.4704C190.419 67.2153 190.425 66.9804 190.429 66.7698C190.433 66.5592 190.435 66.2838 190.435 65.9497C190.435 65.6703 190.433 65.4475 190.429 65.2794C190.425 65.1114 190.419 64.9291 190.411 64.7287L190.459 53.1724C191.095 53.1724 191.57 53.1562 191.88 53.1238C191.996 53.1076 192.114 53.0954 192.23 53.0873C192.346 53.0792 192.465 53.0691 192.585 53.057C192.705 53.0448 192.825 53.0347 192.94 53.0266C193.151 52.978 193.372 52.9557 193.604 52.9557V53.4943C193.488 53.5348 193.361 53.5652 193.221 53.5895C193.074 53.63 192.815 53.6685 192.444 53.709C192.304 53.709 192.118 53.7252 191.886 53.7576H191.892Z" fill="#F3F3F3"/>
</g>
<defs>
<linearGradient id="paint0_linear_2301_18240" x1="40.6525" y1="38.8774" x2="40.6525" y2="0.774414" gradientUnits="userSpaceOnUse">
<stop stop-color="#EFDC24"/>
<stop offset="1" stop-color="#F4B330"/>
</linearGradient>
<clipPath id="clip0_2301_18240">
<rect width="297" height="85" fill="white" transform="translate(0 0.25)"/>
</clipPath>
</defs>
</svg>
