<svg width="18" height="17" viewBox="0 0 18 17" fill="none" xmlns="http://www.w3.org/2000/svg">
<path d="M14.5556 0.166992H3.44446C1.90974 0.166992 0.666687 1.41005 0.666687 2.94477V11.2781C0.666687 12.8128 1.90974 14.0559 3.44446 14.0559H5.47224L8.07641 16.2503C8.3403 16.4864 8.67363 16.6045 9.00697 16.6045C9.3403 16.6045 9.6528 16.4934 9.9028 16.2642L12.5764 14.0559H14.5556C16.0903 14.0559 17.3334 12.8128 17.3334 11.2781V2.94477C17.3334 1.41005 16.0903 0.166992 14.5556 0.166992ZM12.5903 6.84755L11.0834 8.07672L11.7084 9.97255C11.7917 10.2295 11.7084 10.5142 11.4931 10.6739C11.2778 10.8406 10.9861 10.8475 10.757 10.7017L9.00697 9.56283L7.28474 10.7156C7.18058 10.785 7.05558 10.8198 6.93058 10.8198C6.79863 10.8198 6.65974 10.7781 6.54863 10.6948C6.33335 10.535 6.24308 10.2503 6.32641 9.99338L6.92363 8.07672L5.40974 6.84755C5.20835 6.67394 5.13197 6.39616 5.22224 6.14616C5.31252 5.89616 5.55558 5.72949 5.81947 5.72949H7.72919L8.4028 3.91699C8.49308 3.66699 8.73613 3.50033 9.00002 3.50033C9.26391 3.50033 9.50696 3.66699 9.59724 3.91699L10.2709 5.72949H12.1806C12.4445 5.72949 12.6875 5.89616 12.7778 6.14616C12.8681 6.39616 12.7917 6.68088 12.5903 6.85449V6.84755Z" fill="#0092CB"/>
</svg>
