<svg width="24" height="25" viewBox="0 0 24 25" fill="none" xmlns="http://www.w3.org/2000/svg">
<path d="M21.635 19.9677L17.7637 16.0951C20.6604 12.2245 19.8706 6.73863 15.9996 3.8422C12.1286 0.945759 6.64234 1.73552 3.74566 5.60617C0.848983 9.47682 1.63881 14.9627 5.50979 17.8591C8.61927 20.1858 12.8901 20.1858 15.9996 17.8591L19.8725 21.7317C20.3592 22.2183 21.1483 22.2183 21.635 21.7317C22.1217 21.245 22.1217 20.456 21.635 19.9694L21.635 19.9677ZM10.787 17.1116C7.34663 17.1116 4.55772 14.323 4.55772 10.8829C4.55772 7.44287 7.34663 4.65419 10.787 4.65419C14.2273 4.65419 17.0162 7.44287 17.0162 10.8829C17.0126 14.3214 14.2258 17.108 10.787 17.1116Z" fill="#799BAA"/>
</svg>
