<svg width="20" height="20" viewBox="0 0 20 20" fill="none" xmlns="http://www.w3.org/2000/svg">
<path d="M10 0C7.34844 0 4.80312 1.05422 2.92969 2.92891C1.05432 4.80434 0.000519484 7.34778 0 10C0 12.6511 1.05469 15.1964 2.92969 17.0711C4.80312 18.9458 7.34844 20 10 20C12.6516 20 15.1969 18.9458 17.0703 17.0711C18.9453 15.1964 20 12.6511 20 10C20 7.34891 18.9453 4.80359 17.0703 2.92891C15.1969 1.05422 12.6516 0 10 0Z" fill="url(#paint0_linear_1352_29652)"/>
<path d="M4.52768 9.89404C7.4433 8.62404 9.38705 7.7867 10.3589 7.38217C13.1371 6.22701 13.7136 6.02639 14.0902 6.01959C14.173 6.01826 14.3574 6.03873 14.4777 6.136C14.5777 6.21803 14.6058 6.32897 14.6199 6.40686C14.6324 6.48467 14.6496 6.66201 14.6355 6.80045C14.4855 8.3817 13.8339 12.2189 13.5027 13.99C13.3636 14.7394 13.0871 14.9906 12.8199 15.0151C12.2386 15.0686 11.798 14.6314 11.2355 14.2628C10.3558 13.6858 9.85893 13.3267 9.00424 12.7637C8.01674 12.1131 8.65736 11.7554 9.21986 11.1711C9.36674 11.0181 11.9261 8.69076 11.9746 8.47967C11.9808 8.45326 11.9871 8.35482 11.9277 8.30295C11.8699 8.25092 11.7839 8.26873 11.7214 8.28279C11.6324 8.30279 10.2277 9.23217 7.50268 11.0708C7.10424 11.3448 6.7433 11.4784 6.4183 11.4714C6.06205 11.4637 5.37455 11.2695 4.86361 11.1036C4.23861 10.9 3.74018 10.7923 3.78393 10.4465C3.8058 10.2665 4.05424 10.0823 4.52768 9.89404Z" fill="white"/>
<defs>
<linearGradient id="paint0_linear_1352_29652" x1="1000" y1="0" x2="1000" y2="2000" gradientUnits="userSpaceOnUse">
<stop stop-color="#2AABEE"/>
<stop offset="1" stop-color="#229ED9"/>
</linearGradient>
</defs>
</svg>
