<svg width="24" height="24" viewBox="0 0 24 24" fill="none" xmlns="http://www.w3.org/2000/svg">
<circle cx="12" cy="12" r="10" fill="black"/>
<path d="M8.31053 10.2793C7.81565 10.2793 7.33191 10.4262 6.92057 10.7013C6.50923 10.9765 6.18881 11.3675 5.99989 11.8249C5.81097 12.2823 5.76205 12.7855 5.85932 13.2707C5.9566 13.7559 6.19569 14.2014 6.54633 14.5506C6.89696 14.8998 7.34335 15.1371 7.82896 15.2325C8.31457 15.3278 8.81755 15.2769 9.27419 15.0861C9.73082 14.8954 10.1206 14.5734 10.3941 14.1609C10.6676 13.7485 10.8125 13.2642 10.8105 12.7693C10.8079 12.108 10.5433 11.4747 10.0748 11.008C9.60621 10.5413 8.97184 10.2793 8.31053 10.2793ZM8.31053 14.0793C8.12955 14.0952 7.94725 14.0732 7.77522 14.0148C7.60318 13.9564 7.44517 13.8629 7.31122 13.7402C7.17727 13.6175 7.07031 13.4682 6.99714 13.3019C6.92397 13.1357 6.88618 12.956 6.88618 12.7743C6.88618 12.5926 6.92397 12.4129 6.99714 12.2467C7.07031 12.0804 7.17727 11.9311 7.31122 11.8084C7.44517 11.6857 7.60318 11.5922 7.77522 11.5338C7.94725 11.4754 8.12955 11.4534 8.31053 11.4693C8.49151 11.4534 8.6738 11.4754 8.84584 11.5338C9.01787 11.5922 9.17588 11.6857 9.30983 11.8084C9.44378 11.9311 9.55074 12.0804 9.62391 12.2467C9.69709 12.4129 9.73487 12.5926 9.73487 12.7743C9.73487 12.956 9.69709 13.1357 9.62391 13.3019C9.55074 13.4682 9.44378 13.6175 9.30983 13.7402C9.17588 13.8629 9.01787 13.9564 8.84584 14.0148C8.6738 14.0732 8.49151 14.0952 8.31053 14.0793ZM15.6905 10.2793C15.1956 10.2793 14.7119 10.4262 14.3006 10.7013C13.8892 10.9765 13.5688 11.3675 13.3799 11.8249C13.191 12.2823 13.142 12.7855 13.2393 13.2707C13.3366 13.7559 13.5757 14.2014 13.9263 14.5506C14.277 14.8998 14.7234 15.1371 15.209 15.2325C15.6946 15.3278 16.1975 15.2769 16.6542 15.0861C17.1108 14.8954 17.5006 14.5734 17.7741 14.1609C18.0476 13.7485 18.1925 13.2642 18.1905 12.7693C18.1879 12.108 17.9233 11.4747 17.4548 11.008C16.9862 10.5413 16.3518 10.2793 15.6905 10.2793ZM17.0005 12.7693C17.0025 13.0288 16.9274 13.2831 16.7846 13.4998C16.6419 13.7165 16.438 13.886 16.1988 13.9867C15.9596 14.0874 15.6959 14.1147 15.4411 14.0653C15.1864 14.0159 14.952 13.892 14.7678 13.7091C14.5836 13.5263 14.4578 13.2929 14.4065 13.0386C14.3551 12.7842 14.3805 12.5203 14.4793 12.2803C14.5782 12.0404 14.7461 11.8352 14.9617 11.6908C15.1773 11.5464 15.431 11.4693 15.6905 11.4693C16.0362 11.4693 16.3679 11.6059 16.6133 11.8494C16.8587 12.093 16.9979 12.4236 17.0005 12.7693Z" fill="#30D599"/>
<path d="M12 2C10.0222 2 8.08879 2.58649 6.4443 3.6853C4.79981 4.78412 3.51809 6.3459 2.76121 8.17317C2.00433 10.0004 1.8063 12.0111 2.19215 13.9509C2.578 15.8907 3.53041 17.6725 4.92894 19.0711C6.32746 20.4696 8.10929 21.422 10.0491 21.8079C11.9889 22.1937 13.9996 21.9957 15.8268 21.2388C17.6541 20.4819 19.2159 19.2002 20.3147 17.5557C21.4135 15.9112 22 13.9778 22 12C22 10.6868 21.7413 9.38642 21.2388 8.17317C20.7363 6.95991 19.9997 5.85752 19.0711 4.92893C18.1425 4.00035 17.0401 3.26375 15.8268 2.7612C14.6136 2.25866 13.3132 2 12 2ZM19.38 12.77C19.381 13.4885 19.1722 14.1917 18.7793 14.7933C18.3863 15.3948 17.8263 15.8685 17.1679 16.1563C16.5095 16.4441 15.7814 16.5334 15.073 16.4132C14.3646 16.2931 13.7067 15.9688 13.18 15.48L12 16.77L10.82 15.48C10.4628 15.8083 10.0444 16.063 9.5888 16.2297C9.13316 16.3963 8.64916 16.4715 8.16444 16.4511C7.67972 16.4307 7.20377 16.315 6.76376 16.1106C6.32375 15.9062 5.92831 15.6172 5.6 15.26C5.2717 14.9028 5.01696 14.4844 4.85034 14.0288C4.68372 13.5732 4.60848 13.0892 4.62891 12.6044C4.64934 12.1197 4.76504 11.6438 4.96941 11.2038C5.17378 10.7637 5.46281 10.3683 5.82 10.04L4.62 8.74H7.3C8.68573 7.79152 10.3258 7.284 12.005 7.284C13.6842 7.284 15.3243 7.79152 16.71 8.74H19.38L18.18 10.05C18.5568 10.3961 18.8579 10.8165 19.0644 11.2845C19.2709 11.7526 19.3783 12.2584 19.38 12.77Z" fill="#30D599"/>
<path d="M14.7705 9.04914C13.8929 8.68278 12.9514 8.49414 12.0005 8.49414C11.0495 8.49414 10.108 8.68278 9.23047 9.04914C10.006 9.3079 10.6853 9.79478 11.1796 10.446C11.6738 11.0973 11.9599 11.8826 12.0005 12.6991C12.0437 11.8834 12.3308 11.0993 12.8247 10.4486C13.3186 9.79781 13.9964 9.3103 14.7705 9.04914Z" fill="#30D599"/>
</svg>
