<svg width="34" height="28" viewBox="0 0 34 28" fill="none" xmlns="http://www.w3.org/2000/svg">
<path fill-rule="evenodd" clip-rule="evenodd" d="M34 2C34 0.89543 33.1046 0 32 0H10C8.89543 0 8 0.89543 8 2C8 3.10457 8.89543 4 10 4H32C33.1046 4 34 3.10457 34 2Z" fill="#F3F3F3"/>
<path fill-rule="evenodd" clip-rule="evenodd" d="M34 14C34 12.8954 33.1046 12 32 12H2C0.895432 12 0 12.8954 0 14C0 15.1046 0.895432 16 2 16H32C33.1046 16 34 15.1046 34 14Z" fill="#F3F3F3"/>
<path fill-rule="evenodd" clip-rule="evenodd" d="M34 26C34 24.8954 33.1046 24 32 24H16C14.8954 24 14 24.8954 14 26C14 27.1046 14.8954 28 16 28H32C33.1046 28 34 27.1046 34 26Z" fill="#F3F3F3"/>
</svg>
