<svg width="17" height="20" viewBox="0 0 17 20" fill="none" xmlns="http://www.w3.org/2000/svg">
<path d="M5.47853 16.52L4.97686 19C4.91923 19.2823 4.76581 19.5361 4.54259 19.7183C4.31936 19.9005 4.04002 20.0001 3.75186 20C3.66789 20.0003 3.58411 19.9919 3.50186 19.975C3.34098 19.9422 3.18813 19.878 3.05205 19.7861C2.91598 19.6942 2.79933 19.5765 2.70879 19.4395C2.61825 19.3025 2.55558 19.149 2.52436 18.9878C2.49315 18.8266 2.494 18.6609 2.52686 18.5L3.02686 16.0217C3.05744 15.8587 3.12014 15.7034 3.21132 15.5649C3.30249 15.4264 3.42032 15.3074 3.55793 15.2149C3.69554 15.1223 3.85018 15.0581 4.01285 15.0259C4.17553 14.9938 4.34298 14.9943 4.50545 15.0274C4.66793 15.0606 4.82218 15.1258 4.95922 15.2191C5.09627 15.3125 5.21336 15.4322 5.30369 15.5713C5.39402 15.7103 5.45578 15.866 5.48536 16.0291C5.51495 16.1923 5.51178 16.3597 5.47603 16.5217L5.47853 16.52ZM8.75186 4.16667C9.1639 4.16667 9.56669 4.04448 9.9093 3.81556C10.2519 3.58664 10.5189 3.26127 10.6766 2.88059C10.8343 2.49991 10.8755 2.08102 10.7952 1.6769C10.7148 1.27277 10.5164 0.901554 10.225 0.610195C9.93364 0.318836 9.56242 0.120417 9.1583 0.0400316C8.75417 -0.0403543 8.33528 0.000902675 7.9546 0.158585C7.57392 0.316268 7.24855 0.583294 7.01963 0.925896C6.79071 1.2685 6.66853 1.67129 6.66853 2.08333C6.66853 2.63587 6.88802 3.16577 7.27872 3.55647C7.66942 3.94717 8.19932 4.16667 8.75186 4.16667ZM16.6685 7.91666V18.75C16.6685 19.0815 16.5368 19.3995 16.3024 19.6339C16.068 19.8683 15.75 20 15.4185 20C15.087 20 14.7691 19.8683 14.5346 19.6339C14.3002 19.3995 14.1685 19.0815 14.1685 18.75V10.8333H12.0085C11.5844 10.8337 11.1653 10.7415 10.7805 10.563C10.3958 10.3845 10.0546 10.1241 9.78102 9.8L8.90769 8.76666L7.91853 12.75L8.89436 13.5242C9.2397 13.7958 9.51883 14.1423 9.71068 14.5375C9.90253 14.9328 10.0021 15.3665 10.0019 15.8058V18.75C10.0019 19.0815 9.87016 19.3995 9.63574 19.6339C9.40132 19.8683 9.08338 20 8.75186 20C8.42034 20 8.1024 19.8683 7.86797 19.6339C7.63355 19.3995 7.50186 19.0815 7.50186 18.75V15.8058C7.50192 15.743 7.48779 15.681 7.46051 15.6245C7.43324 15.5679 7.39353 15.5182 7.34436 15.4792L5.10019 13.7C4.88466 13.5291 4.69419 13.3288 4.53436 13.105C4.14405 13.2576 3.72843 13.3351 3.30936 13.3333C2.87077 13.3477 2.43389 13.2719 2.02581 13.1105C1.61773 12.9491 1.24716 12.7056 0.937053 12.3952C0.626949 12.0847 0.383929 11.7138 0.22306 11.3055C0.0621916 10.8972 -0.0130969 10.4602 0.00186239 10.0217C0.00186239 7.29916 2.83519 5 6.17936 5H7.70519C8.18486 5.02846 8.65205 5.16406 9.07242 5.39681C9.49279 5.62957 9.85566 5.95357 10.1344 6.345L11.6902 8.18583C11.7293 8.23208 11.7781 8.26924 11.8331 8.29472C11.8881 8.32019 11.9479 8.33337 12.0085 8.33333H14.1685V7.91666C14.1685 7.58514 14.3002 7.2672 14.5346 7.03278C14.7691 6.79836 15.087 6.66666 15.4185 6.66666C15.75 6.66666 16.068 6.79836 16.3024 7.03278C16.5368 7.2672 16.6685 7.58514 16.6685 7.91666ZM3.30936 10.8333C3.48676 10.8194 3.65844 10.7641 3.81066 10.6719C3.96288 10.5797 4.09143 10.4532 4.18603 10.3025L4.83519 7.69666C3.50769 8.09 2.50186 9.0225 2.50186 10.0217C2.48628 10.1315 2.49639 10.2435 2.53139 10.3488C2.56639 10.4541 2.62534 10.5498 2.7036 10.6285C2.78185 10.7071 2.87729 10.7666 2.98239 10.8021C3.0875 10.8377 3.19942 10.8483 3.30936 10.8333Z" fill="black"/>
</svg>
