<svg width="20" height="21" viewBox="0 0 20 21" fill="none" xmlns="http://www.w3.org/2000/svg">
<path d="M0 6.76335V5.93001C0 3.63251 1.86917 1.76335 4.16667 1.76335H5V0.930013C5 0.470013 5.3725 0.0966797 5.83333 0.0966797C6.29417 0.0966797 6.66667 0.470013 6.66667 0.930013V1.76335H13.3333V0.930013C13.3333 0.470013 13.7058 0.0966797 14.1667 0.0966797C14.6275 0.0966797 15 0.470013 15 0.930013V1.76335H15.8333C18.1308 1.76335 20 3.63251 20 5.93001V6.76335H0ZM20 8.43001V15.93C20 18.2275 18.1308 20.0967 15.8333 20.0967H4.16667C1.86917 20.0967 0 18.2275 0 15.93V8.43001H20ZM14.86 11.0567C14.54 10.7258 14.0133 10.7158 13.6817 11.035L9.72 14.8533C9.40667 15.1667 8.88083 15.19 8.52083 14.8317L6.6225 13.0675C6.28667 12.755 5.76 12.7725 5.445 13.1108C5.13167 13.4475 5.15083 13.975 5.48833 14.2883L7.365 16.0317C7.83667 16.5042 8.465 16.7642 9.1325 16.7642C9.8 16.7642 10.4292 16.5042 10.8892 16.0425L14.8392 12.2358C15.17 11.9167 15.18 11.3875 14.86 11.0567Z" fill="#F3F3F3"/>
</svg>
