<svg width="25" height="26" viewBox="0 0 25 26" fill="none" xmlns="http://www.w3.org/2000/svg">
<path d="M14.7093 13L24.5422 3.16809C25.1526 2.55772 25.1526 1.56811 24.5422 0.957782C23.9318 0.347406 22.9422 0.347406 22.3319 0.957782L12.5 10.7907L2.66809 0.957782C2.05772 0.347406 1.06811 0.347406 0.457782 0.957782C-0.152545 1.56816 -0.152594 2.55777 0.457782 3.16809L10.2907 13L0.457782 22.8319C-0.152594 23.4423 -0.152594 24.4319 0.457782 25.0422C1.06816 25.6525 2.05777 25.6526 2.66809 25.0422L12.5 15.2093L22.3319 25.0422C22.9422 25.6526 23.9318 25.6526 24.5422 25.0422C25.1525 24.4318 25.1525 23.4422 24.5422 22.8319L14.7093 13Z" fill="#CB1800"/>
</svg>
