<svg width="40" height="41" viewBox="0 0 40 41" fill="none" xmlns="http://www.w3.org/2000/svg">
<path d="M24.3416 20.5486C24.3416 18.1514 22.3982 16.2083 20.0012 16.2083C17.6041 16.2083 15.661 18.1514 15.661 20.5486C15.661 22.9456 17.6041 24.889 20.0012 24.889C22.3982 24.889 24.3416 22.9456 24.3416 20.5486Z" fill="#A6BCC6"/>
<path fill-rule="evenodd" clip-rule="evenodd" d="M19.5673 9.87403C19.304 9.87392 19.06 9.87381 18.8331 9.87415V9.8709C16.4064 9.87363 15.9409 9.88991 14.7398 9.94421C13.4702 10.0025 12.7809 10.2141 12.3219 10.3932C11.7142 10.6296 11.2802 10.9118 10.8245 11.3675C10.3687 11.8232 10.0861 12.2572 9.85004 12.8649C9.67179 13.3239 9.45968 14.013 9.4016 15.2825C9.33923 16.6551 9.32673 17.0653 9.32673 20.5424C9.32673 24.0196 9.33923 24.4318 9.4016 25.8045C9.45942 27.074 9.67179 27.7631 9.85004 28.2216C10.0866 28.8295 10.3687 29.2624 10.8244 29.7182C11.2801 30.1739 11.7142 30.4559 12.3218 30.692C12.7812 30.8702 13.4702 31.0824 14.7398 31.141C16.1123 31.2033 16.5244 31.2169 20.0012 31.2169C23.4779 31.2169 23.8901 31.2033 25.2628 31.141C26.5323 31.0829 27.2219 30.8713 27.6804 30.6923C28.2883 30.4562 28.721 30.1742 29.1767 29.7184C29.6325 29.263 29.9151 28.8303 30.1511 28.2226C30.3293 27.7641 30.5414 27.0751 30.5995 25.8055C30.6619 24.433 30.6754 24.0206 30.6754 20.5456C30.6754 17.0706 30.6619 16.6584 30.5995 15.2857C30.5417 14.0162 30.3293 13.3271 30.1511 12.8688C29.9145 12.2611 29.6325 11.8271 29.1767 11.3714C28.7213 10.9156 28.2881 10.6334 27.6804 10.3975C27.2214 10.2192 26.5323 10.0071 25.2628 9.94902C23.8899 9.88665 23.4779 9.87415 20.0012 9.87415C19.851 9.87415 19.7064 9.87409 19.5673 9.87403ZM25.3892 13.5981C25.3892 12.7354 26.0891 12.0361 26.9517 12.0361C27.8144 12.0361 28.5142 12.7355 28.5142 13.5981C28.5142 14.4607 27.8144 15.1606 26.9517 15.1606C26.0891 15.1606 25.3892 14.4607 25.3892 13.5981ZM13.3145 20.5486C13.3145 16.8559 16.3084 13.8619 20.001 13.8618C23.6938 13.8618 26.687 16.8559 26.687 20.5486C26.687 24.2415 23.6941 27.2341 20.0012 27.2341C16.3085 27.2341 13.3145 24.2415 13.3145 20.5486Z" fill="#A6BCC6"/>
<path fill-rule="evenodd" clip-rule="evenodd" d="M11.1459 3.88184H28.8542C33.1689 3.88184 36.6667 7.37961 36.6667 11.6943V29.4027C36.6667 33.7174 33.1689 37.2152 28.8542 37.2152H11.1459C6.83115 37.2152 3.33337 33.7174 3.33337 29.4027V11.6943C3.33337 7.37961 6.83115 3.88184 11.1459 3.88184ZM14.6323 7.60632C16.0211 7.54316 16.465 7.52767 20.0012 7.52767H19.9972C23.5345 7.52767 23.9767 7.54316 25.3657 7.60632C26.7519 7.66973 27.6986 7.88926 28.5287 8.21139C29.3858 8.54355 30.1102 8.98848 30.8344 9.7127C31.5588 10.4365 32.0036 11.163 32.3373 12.0195C32.6573 12.8473 32.8771 13.7934 32.9422 15.1796C33.0046 16.5686 33.0209 17.0123 33.0209 20.5486C33.0209 24.085 33.0046 24.5277 32.9422 25.9165C32.8771 27.3021 32.6573 28.2486 32.3373 29.0769C32.0036 29.933 31.5588 30.6594 30.8344 31.3831C30.111 32.1075 29.3856 32.5535 28.5295 32.886C27.701 33.208 26.7537 33.4274 25.3675 33.491C23.9787 33.5541 23.5362 33.5696 19.9997 33.5696C16.4636 33.5696 16.0201 33.5541 14.6312 33.491C13.2452 33.4274 12.2989 33.208 11.4704 32.886C10.6145 32.5535 9.88806 32.1075 9.16449 31.3831C8.44054 30.6594 7.99561 29.933 7.6628 29.0765C7.34106 28.2486 7.12166 27.3024 7.05785 25.9162C6.99483 24.5274 6.97921 24.085 6.97921 20.5486C6.97921 17.0123 6.99548 16.5683 7.05759 15.1794C7.11996 13.7938 7.33962 12.8472 7.66254 12.0191C7.99613 11.163 8.44106 10.4365 9.16541 9.7127C9.8891 8.98874 10.6155 8.54382 11.472 8.21126C12.2999 7.88926 13.2461 7.66986 14.6323 7.60632Z" fill="#A6BCC6"/>
</svg>
