<svg width="150" height="44" viewBox="0 0 150 44" fill="none" xmlns="http://www.w3.org/2000/svg">
<g clip-path="url(#clip0_2236_22589)">
<path d="M40.8901 16.3501C39.6949 13.3031 37.7715 10.9685 34.8411 9.54977C34.4219 9.34697 33.9312 9.36331 33.5266 9.59292C32.2109 10.3404 31.0384 11.3112 30.0621 12.4538C29.8056 12.1379 27.9186 9.84725 26.4807 9.05786C26.2913 8.95353 26.0721 8.82784 25.8337 8.68873C24.4832 7.89808 22.5173 6.64863 21.766 6.16846C21.5734 6.04527 21.3295 6.04108 21.1308 6.15421C20.8682 6.30379 20.6097 6.46008 20.356 6.62181C18.2465 7.96847 16.4352 9.73999 15.043 11.8153C13.6447 10.4175 11.8759 9.38845 9.89581 8.88859C9.47059 8.78133 9.01745 8.89445 8.69621 9.19278C5.4676 12.1882 2.77709 15.9458 0.173157 19.5848C0.173157 15.7673 1.62886 11.995 3.69429 9.09641C7.49903 3.7521 13.7507 0.265625 20.8193 0.265625C20.8747 0.265625 20.9305 0.265625 20.986 0.266882C25.3596 0.300821 29.4139 1.66801 32.7615 3.98339C34.4579 5.15574 35.9719 6.57153 37.2553 8.18006C39.1698 10.5801 40.581 13.2801 40.8901 16.3501Z" fill="url(#paint0_linear_2236_22589)"/>
<path d="M11.8791 13.0412C12.0195 12.8309 11.9305 12.5627 10.7224 12.4718C10.7078 12.4705 10.6925 12.4705 10.6779 12.4718C9.08827 12.5828 9.24606 13.7678 9.42246 14.3497C9.50338 14.6166 9.71376 14.8274 9.98201 14.9053C10.5262 15.0637 11.6165 15.0403 13.4805 13.6978C13.5836 13.6236 13.7253 13.6316 13.8199 13.7162C13.9502 13.8327 14.1193 13.8972 14.2941 13.8972H14.9467C15.0725 13.8972 15.1931 13.8486 15.2837 13.7619L21.1029 8.18295C21.3432 7.9525 21.7082 7.91269 21.9938 8.0849C22.4765 8.37568 23.2258 8.8768 23.8501 9.512C24.0172 9.68212 24.0548 9.93854 23.9411 10.148C23.6292 10.7225 23.3245 11.5534 22.9001 12.1039C22.5712 12.5309 21.9619 12.6256 21.5221 12.313C21.4298 12.2472 21.3364 12.1785 21.2376 12.1169C21.0475 11.9979 20.9043 11.8102 20.8614 11.5907C20.8242 11.3992 20.8557 11.1813 21.1078 11.0401C21.2648 10.9521 21.4525 10.9337 21.6289 10.9701C22.2362 11.095 22.6039 11.0895 22.8176 11.0556C23.0077 11.0254 23.1469 10.862 23.1384 10.6701C23.1259 10.3885 22.9098 9.99846 21.8449 9.92597C20.4115 9.82835 20.1182 10.8419 20.0615 11.1616C20.0494 11.2312 20.0324 11.2986 20.0138 11.3669C19.9709 11.5253 19.9061 11.8479 19.9328 12.2975C19.9713 12.9532 21.9805 13.3773 21.9805 13.3773C21.9805 13.3773 22.8305 13.6085 23.3326 12.934C23.7105 12.4261 24.5148 11.3728 24.8899 10.8821C24.9963 10.7426 25.201 10.7279 25.3268 10.8503L27.5808 13.0442C28.2718 13.7166 29.0417 14.3058 29.8833 14.7775C31.1379 15.4815 32.9343 16.2046 34.744 15.96C35.4213 15.8686 36.0306 15.4664 36.3369 14.8567C36.4959 14.5404 36.5529 14.224 36.5606 13.9483C36.576 13.3844 36.2297 12.8682 35.7033 12.6629C35.2198 12.4747 34.5114 12.3511 33.6282 12.6252C32.6017 12.944 32.5111 13.5654 32.6094 14.0208C32.7077 14.4771 33.1172 14.8157 33.582 14.7671C33.8737 14.7365 34.2015 14.5634 34.4673 14.0581C34.5502 13.9002 34.6526 13.751 34.7788 13.6245C35.4027 12.9981 35.8303 13.5314 35.8303 13.5314C35.8303 13.5314 36.5015 14.1558 34.8864 15.1174C33.7928 15.7685 32.5172 15.2728 31.8067 14.8848C31.4677 14.6996 31.3131 14.2986 31.441 13.9345C31.6886 13.2293 32.2113 12.0469 33.1503 11.1591C33.3878 10.9345 33.7338 10.8679 34.0429 10.9747C35.7033 11.5471 40.9775 13.9098 41.2704 20.8978C41.2858 21.2682 41.1118 21.6219 40.8112 21.8389C40.2857 22.2185 39.2616 22.811 37.4535 23.3695C37.2877 23.4206 37.1056 23.3599 37.0101 23.2149C36.9365 23.1034 36.8511 22.9488 36.7714 22.7435C36.6881 22.5286 36.5877 22.3203 36.4611 22.1272C36.1706 21.6839 36.0261 21.2699 35.9634 21.0504C35.9537 21.0168 35.999 20.9963 36.0189 21.0248L37.004 22.4335C37.0502 22.4997 37.1469 22.5039 37.1986 22.4418L37.3475 22.2646C37.4717 22.1167 37.4993 21.9114 37.4183 21.7367C37.0291 20.8957 35.7522 18.5657 33.7491 19.0651C32.0503 19.4435 31.0938 18.895 30.8361 18.7144C30.7588 18.6604 30.6799 18.6089 30.5966 18.5644C30.09 18.295 28.5712 17.6242 27.8531 18.8192L27.491 18.7614C27.491 18.7614 27.4804 18.8674 27.5593 19.0706C27.586 19.1389 27.601 19.2126 27.5957 19.286C27.5601 19.7724 27.7823 20.0888 27.9732 20.2677C28.1755 20.4575 28.2945 20.721 28.3175 20.9971C28.32 21.0281 28.322 21.0592 28.3236 21.0906C28.3305 21.2406 28.4527 21.36 28.6032 21.3675C28.8196 21.378 29.079 21.3839 29.0705 21.3499C29.0559 21.2921 28.8965 20.3812 29.1862 19.976C29.3804 19.7045 29.4314 20.5522 29.4439 21.1396C29.4508 21.466 29.3674 21.7882 29.2012 22.0694L28.0829 23.9632C28.0355 24.0437 28.0072 24.1338 28.0011 24.2268C27.9922 24.3592 27.9858 24.536 28.0129 24.5452C28.0562 24.5599 28.4328 24.5599 28.6214 24.386C28.7905 24.2301 29.2287 22.6275 30.1455 22.1037C30.3631 21.9793 30.6358 21.9713 30.8519 22.0983C31.2435 22.3283 31.335 22.7875 31.3471 23.1089C31.356 23.3469 31.4741 23.5669 31.6655 23.7085L32.4844 24.3148C32.5337 24.3512 32.5139 24.4287 32.4532 24.4367C31.6416 24.5393 28.0194 24.9516 25.1298 24.5507L21.1312 23.6117C20.8254 23.54 20.6089 23.2681 20.6069 22.9547L20.5964 20.9762C20.5956 20.8497 20.5721 20.7248 20.5256 20.6071C20.4188 20.3372 20.1825 19.8952 19.773 19.8545C19.6043 19.8378 19.4401 19.9383 19.3911 20.1005C19.3595 20.2057 19.3506 20.3502 19.4085 20.5404C19.4332 20.6226 19.5117 20.6766 19.5979 20.6766H19.6019C19.6861 20.6766 19.7577 20.615 19.7698 20.5321L19.7872 20.4147C19.7993 20.333 19.8993 20.297 19.9587 20.3548C20.123 20.5145 20.316 20.8061 19.8827 21.0457C19.8107 21.0855 19.7285 21.1036 19.6468 21.1036H19.5165C19.362 21.1036 19.2159 21.034 19.1208 20.9129C18.9101 20.6452 18.6143 20.1319 18.9016 19.6086C19.0023 19.4251 19.1653 19.2834 19.3531 19.1904C19.3591 19.1875 19.3652 19.1846 19.3713 19.1812C19.6173 19.0618 19.8896 19.0065 20.1627 19.0077L21.9461 19.0165C22.5056 19.0191 22.9681 19.4515 23.0081 20.0083C23.0688 20.8501 23.136 22.0417 23.0971 22.8072C23.0882 22.9849 23.2667 23.1122 23.4333 23.0481L24.5743 22.609C24.7899 22.5261 24.953 22.3451 25.0129 22.1221L25.7702 19.301C25.8682 18.9369 25.7824 18.5489 25.5413 18.259C24.4974 17.0028 21.4731 13.7171 18.5625 13.9358C15.8315 14.1411 13.1115 16.7749 11.9641 18.0264C11.6032 18.4199 11.4486 18.9591 11.5461 19.4837L11.9281 21.5372C11.96 21.7082 11.8107 21.8573 11.6396 21.8259C10.3562 21.5896 5.79816 20.9682 1.19799 22.9782C-0.112063 23.3553 -0.102353 22.4867 0.103582 21.7538C0.231836 21.2967 0.446268 20.8685 0.719365 20.4801C1.78667 18.9629 5.80504 13.4715 9.93345 10.6668C10.1422 10.5251 10.4012 10.4732 10.6459 10.5356C11.1379 10.6613 12.0037 11.0091 12.8384 11.9698C13.0362 12.1974 13.0116 12.5426 12.7898 12.7467L11.6501 13.7958C11.4191 14.0083 11.1108 14.1281 10.7981 14.1C10.5978 14.082 10.3866 14.0041 10.2235 13.8009C9.95166 13.4615 10.281 13.244 10.5654 13.1288C10.8066 13.0312 11.0801 13.0358 11.3107 13.1556L11.3333 13.1673C11.5219 13.2662 11.7626 13.2185 11.8807 13.0416L11.8791 13.0412Z" fill="#69B9DC"/>
<path d="M31.848 21.7205C32.098 21.7163 32.7502 21.6442 33.6759 21.0987C33.739 21.0614 33.8208 21.0756 33.8644 21.1347C33.9923 21.3086 34.2185 21.7465 34.2456 22.69C34.2484 22.7843 34.214 22.8761 34.1493 22.9448C33.9591 23.1468 33.5489 23.6332 33.4069 24.2035C33.3988 24.2366 33.3551 24.2437 33.3381 24.2139L33.2426 24.0451C33.154 23.8884 33.0043 23.7748 32.8291 23.7317L32.3812 23.6206C32.2481 23.5875 32.1328 23.5058 32.0596 23.3902C31.8977 23.135 31.6598 22.6167 31.723 21.837C31.7282 21.772 31.7824 21.7217 31.848 21.7205Z" fill="#69B9DC"/>
<path d="M34.2649 23.9735C34.2997 23.7988 34.3952 23.4611 34.6691 23.1774C34.8459 22.9943 34.9357 22.7438 34.9357 22.4894V21.9309C34.9357 21.8831 34.9843 21.8509 35.0284 21.8697C35.3169 21.9929 36.1985 22.445 36.5124 23.4715C36.5351 23.5461 36.4906 23.6245 36.4141 23.6404L34.358 24.0657C34.3026 24.077 34.2532 24.0288 34.2641 23.9735H34.2649Z" fill="#69B9DC"/>
<path d="M0 23.7875C0 23.7875 3.4568 21.5124 14.9301 23.5177C14.9301 23.5177 20.4155 24.4818 23.6607 25.1371C26.9059 25.7929 37.7869 27.5279 41.27 22.8234C41.27 22.8234 39.5768 30.6897 32.9788 31.7694C32.9788 31.7694 28.0647 32.5023 19.6427 28.6848C10.0241 24.067 0 23.7875 0 23.7875Z" fill="#0092CB"/>
<path d="M0.173172 24.2334C0.173172 24.2334 9.22017 25.0802 20.8104 30.7484C33.6176 36.9374 40.6004 28.8688 40.6004 28.8688C40.6004 28.8688 38.9202 35.1156 32.6037 39.4246C32.6037 39.4246 26.0559 39.4438 20.9953 35.1252C11.994 26.7956 0.173172 24.2334 0.173172 24.2334Z" fill="#69B9DC"/>
<path d="M30.845 40.2669C27.8288 42.051 24.3518 43.0679 20.6502 43.0679C10.319 43.0679 1.73691 35.148 0.0218582 24.7305C0.505341 24.906 8.96609 27.9869 11.0667 29.148C13.2309 30.3429 16.0508 32.8498 16.0508 32.8498C16.0508 32.8498 23.0138 40.5137 30.845 40.2669Z" fill="#0092CB"/>
<path d="M59.252 19.581C59.005 19.7586 58.7303 19.9024 58.4298 20.0112C58.1284 20.12 57.8398 20.196 57.5631 20.2402C57.2864 20.2843 57.0018 20.312 56.7083 20.3233C56.4157 20.3346 56.1341 20.3428 55.8653 20.348C55.5113 20.348 55.1107 20.3079 54.6654 20.2268C54.2201 20.1457 53.7183 19.9681 53.159 19.6929C52.6007 19.4178 52.0771 19.0153 51.5892 18.4876L51.9521 18.196C52.6126 18.9578 53.3167 19.4835 54.0634 19.773C53.7521 19.5451 53.4238 19.235 53.0807 18.8428C52.7366 18.4506 52.5005 18.1098 52.3716 17.8213L52.8784 17.5123C53.0559 18.0348 53.2969 18.4568 53.6033 18.7761C53.9097 19.0964 54.233 19.3326 54.5732 19.4855C54.9143 19.6385 55.2227 19.735 55.4994 19.773C55.7761 19.812 55.9407 19.8346 55.9943 19.8397C56.6111 19.8397 57.1407 19.7997 57.5829 19.7186C58.0252 19.6385 58.4447 19.4558 58.8424 19.1724C59.5514 18.6827 59.9065 17.9989 59.9065 17.12C59.8956 16.6693 59.7894 16.2422 59.5881 15.8398C59.3868 15.4363 59.0774 15.0513 58.6599 14.6847C58.2434 14.3172 57.7069 13.9671 57.0504 13.6334C56.9701 13.5893 56.6468 13.4291 56.0825 13.1539C55.5173 12.8788 55.0551 12.619 54.6942 12.3737C54.3342 12.1293 54.0377 11.848 53.8066 11.5308C53.5755 11.2135 53.4407 10.8552 53.403 10.4548C53.403 10.0318 53.4972 9.65704 53.6856 9.3285C53.874 8.99996 54.1279 8.74741 54.4482 8.56876C54.7685 8.39115 55.1305 8.30181 55.5341 8.30181C55.7602 8.30181 56.0072 8.33775 56.2769 8.41065C55.4131 8.49997 54.8151 8.71249 54.4829 9.04925C54.1507 9.386 53.9841 9.83261 53.9841 10.3881C54 10.7443 54.0882 11.0503 54.2499 11.3059C54.4105 11.5616 54.6188 11.7792 54.8737 11.9568C55.1285 12.1345 55.5143 12.3459 56.0319 12.5913C56.5496 12.8357 56.8937 13.003 57.0663 13.0923C58.0778 13.5934 58.9088 14.1899 59.5604 14.8819C60.2109 15.5739 60.5372 16.2936 60.5372 17.0389C60.5372 17.3788 60.5154 17.6621 60.4727 17.8901C60.4301 18.118 60.314 18.3757 60.1256 18.6621C59.9372 18.9486 59.6466 19.2556 59.2539 19.5841L59.252 19.581ZM59.3501 16.9363C59.3501 17.3203 59.2936 17.6221 59.1796 17.8418C59.0655 18.0615 58.8007 18.3911 58.3832 18.8305C58.5816 18.5246 58.7085 18.274 58.7621 18.08C58.8156 17.8849 58.8424 17.6745 58.8424 17.4455V17.0697C58.8424 16.619 58.7174 16.2258 58.4685 15.889C58.2186 15.5523 57.8785 15.2484 57.4461 14.9753C57.0147 14.7032 56.3364 14.3192 55.4141 13.8244C55.1087 13.6632 54.7566 13.4722 54.36 13.2525C53.9633 13.0328 53.6261 12.8059 53.3494 12.5729C53.0728 12.3388 52.8357 12.0441 52.6374 11.6889C52.4391 11.3326 52.3052 10.9045 52.2348 10.4045C52.2348 9.88702 52.3677 9.39935 52.6334 8.94042C52.8992 8.48149 53.3108 8.11188 53.8691 7.83057C54.4274 7.54925 55.0988 7.40655 55.8822 7.40039C56.7479 7.40039 57.5661 7.52153 58.3376 7.7628C59.1091 8.0051 59.6665 8.22071 60.0116 8.40962C60.087 8.1704 60.1455 8.01434 60.1891 7.94247L60.5352 8.08416C60.5134 8.1396 60.4945 8.18272 60.4787 8.21352C60.4628 8.24432 60.444 8.28744 60.4221 8.34288C60.4172 8.35418 60.4023 8.39012 60.3775 8.45172C60.3537 8.51332 60.3309 8.57697 60.3091 8.64371C60.2714 8.73817 60.2307 8.86341 60.1881 9.01947C59.9779 8.88087 59.6853 8.72583 59.3105 8.55643C58.9356 8.38703 58.5994 8.2628 58.3029 8.18477C58.654 8.42399 58.9693 8.67964 59.25 8.95274C59.2986 9.00819 59.363 9.07799 59.4443 9.16115C59.5257 9.24431 59.6199 9.34186 59.728 9.45274C59.7716 9.49689 59.8202 9.54309 59.8737 9.59031C59.9273 9.63754 59.9739 9.68066 60.0116 9.71968C59.8876 10.2094 59.8152 10.6211 59.7944 10.9548L59.4959 10.8131V10.3881C59.5009 10.3265 59.5048 10.2731 59.5078 10.2258C59.5108 10.1786 59.5118 10.1129 59.5118 10.0297C59.5118 9.9743 59.5227 9.92398 59.5445 9.87983C59.1736 9.36854 58.7759 8.96198 58.3515 8.66218C57.9271 8.36136 57.5165 8.15911 57.1188 8.05336C56.7212 7.94761 56.3156 7.89525 55.902 7.89525C55.3269 7.89525 54.8112 7.98149 54.355 8.15398C53.8978 8.32646 53.5329 8.59648 53.2592 8.96301C52.9855 9.33056 52.8486 9.78333 52.8486 10.3234C52.8913 10.7792 53.0013 11.1694 53.1789 11.4917C53.3564 11.8141 53.5666 12.079 53.8116 12.2843C54.0555 12.4897 54.3302 12.6776 54.6337 12.848C54.9371 13.0174 55.2555 13.1919 55.5887 13.3696C56.3086 13.7587 56.8739 14.0708 57.2854 14.3038C57.697 14.5369 58.0599 14.7792 58.3773 15.0297C58.6946 15.2802 58.9356 15.5595 59.1022 15.8685C59.2688 16.1776 59.3521 16.5348 59.3521 16.9404L59.3501 16.9363Z" fill="#4A80A2"/>
<path d="M68.5539 19.8224C69.1936 19.8059 69.7777 19.6889 70.3062 19.4722C70.8358 19.2556 71.3019 18.9312 71.7045 18.5C72.1071 18.0688 72.4205 17.5298 72.6436 16.8809C72.8668 16.233 72.9778 15.4866 72.9778 14.6406C72.9778 14.3901 72.9729 14.1981 72.962 14.0647C72.9352 13.4969 72.841 12.8809 72.6803 12.2166C72.5187 11.5524 72.1944 10.8552 71.7055 10.1263C71.2166 9.39734 70.5185 8.81316 69.6101 8.37374C70.4213 8.5185 71.1293 8.87168 71.7333 9.43328C72.3372 9.99488 72.7974 10.6807 73.1117 11.4897C73.4261 12.2988 73.5967 13.1684 73.6234 14.0975C73.6234 15.1437 73.4896 16.0585 73.2208 16.8429C72.9521 17.6273 72.5772 18.2741 72.0962 18.7823C71.6153 19.2916 71.0669 19.6684 70.452 19.9127C69.8372 20.1571 69.1876 20.2854 68.5063 20.2967C67.3778 20.2967 66.3583 20.0061 65.448 19.425C64.5376 18.8439 63.8216 18.0369 63.3 17.0051C62.7783 15.9733 62.5185 14.8316 62.5185 13.5801C62.5512 12.8121 62.6623 12.1437 62.8527 11.5739C63.0431 11.0041 63.2593 10.5421 63.5013 10.1889C63.7433 9.83574 63.9763 9.5534 64.2024 9.3419C63.9664 9.81521 63.768 10.2567 63.6104 10.6684C63.4517 11.0801 63.3347 11.5154 63.2603 11.9743C63.1849 12.4333 63.1473 12.9466 63.1473 13.5133C63.1582 14.693 63.3902 15.7628 63.8444 16.7259C64.2986 17.6879 64.9333 18.4445 65.7504 18.9948C66.5666 19.5451 67.5018 19.8213 68.5549 19.8213L68.5539 19.8224ZM68.9645 7.39941C70.1248 7.43843 71.1432 7.75773 72.0189 8.35937C72.8945 8.95998 73.5699 9.76901 74.0459 10.7875C74.5209 11.8049 74.7589 12.9312 74.7589 14.1663C74.7321 15.0616 74.5953 15.8306 74.3484 16.4733C74.1014 17.116 73.8376 17.6006 73.559 17.9291C73.2793 18.2577 73.0135 18.5082 72.7617 18.6796C73.5134 17.7012 73.9547 16.4856 74.0836 15.0339C74.1054 14.7002 74.1163 14.4497 74.1163 14.2834C74.1163 13.4107 73.9864 12.5914 73.7256 11.8265C73.4648 11.0616 73.1008 10.3912 72.6337 9.81623C72.1666 9.24026 71.6103 8.78134 70.9657 8.43945C70.3211 8.09756 69.6497 7.91481 68.9506 7.89325C67.946 7.89325 67.1239 8.08523 66.4843 8.46922C65.8446 8.8532 65.3657 9.33369 65.0453 9.91275C64.726 10.4908 64.5138 11.0667 64.4087 11.6396C64.3036 12.2125 64.252 12.7628 64.252 13.2916C64.3165 16 65.3825 17.9887 67.4512 19.2566C66.8274 19.1006 66.276 18.8295 65.7951 18.4435C65.3141 18.0564 64.9134 17.5893 64.5941 17.0421C64.2748 16.4938 64.0299 15.8963 63.8603 15.2484C63.6907 14.6006 63.6064 13.9312 63.6064 13.2423C63.6282 12.347 63.7958 11.462 64.1102 10.5893C64.4245 9.71665 64.9809 8.96613 65.7782 8.34088C66.5755 7.71563 67.6386 7.40248 68.9655 7.40248L68.9645 7.39941Z" fill="#4A80A2"/>
<path d="M87.0569 19.2562C87.164 19.3948 87.3712 19.4769 87.6777 19.5026C87.9841 19.5272 88.1447 19.5426 88.1616 19.5488C88.2211 19.5652 88.3064 19.5909 88.4194 19.6237C88.5325 19.6576 88.6178 19.6771 88.6773 19.6823C88.6882 19.6823 88.7338 19.7028 88.8141 19.7449C88.8945 19.787 88.954 19.8075 88.9916 19.8075L88.8865 20.1833C88.8538 20.1833 88.8002 20.1648 88.7259 20.1289C88.6505 20.0929 88.589 20.0745 88.5404 20.0745C88.4809 20.0693 88.3421 20.0549 88.1209 20.0324C87.9008 20.0098 87.756 19.9964 87.6856 19.9903C87.5725 19.9903 87.4813 19.9913 87.4119 19.9944C87.3415 19.9974 87.2671 20.0016 87.1858 20.0067C86.9924 20.0067 86.8555 19.9512 86.7752 19.8404L79.0063 9.6361V15.7849C79.0063 16.2192 79.0331 16.6915 79.0867 17.2028C79.0976 17.3414 79.1194 17.5365 79.1511 17.787C79.1839 18.0375 79.2047 18.2264 79.2156 18.3547C79.2374 18.5221 79.2503 18.6422 79.2562 18.7182C79.2612 18.7931 79.283 18.9287 79.3207 19.1227C79.3425 19.2788 79.3693 19.404 79.401 19.4985C79.4814 19.5324 79.5756 19.5488 79.6827 19.5488C79.7471 19.5539 79.8076 19.5591 79.8642 19.5611C79.9207 19.5642 79.9861 19.5714 80.0615 19.5816C80.2122 19.5981 80.3382 19.6207 80.4403 19.6484L80.4245 20.0734C80.3223 20.0395 80.2172 20.0231 80.1101 20.0231C79.9058 20.0005 79.7501 19.9892 79.643 19.9892C79.5676 19.9779 79.3505 19.9728 78.9905 19.9728L78.6602 17.2449L78.2576 19.94C78.1981 19.9564 78.1485 19.9687 78.1089 19.978C78.0682 19.9862 78.0077 20.0016 77.9274 20.0241C77.858 20.0293 77.7826 20.0447 77.7013 20.0703C77.621 20.095 77.5426 20.1165 77.4672 20.133C77.4296 20.1494 77.379 20.171 77.3145 20.1956C77.2501 20.2202 77.1985 20.2397 77.1618 20.2541C77.1241 20.2675 77.0835 20.2829 77.0408 20.3003C77.0081 20.3116 76.9803 20.3198 76.9565 20.325C76.9327 20.3301 76.899 20.3383 76.8554 20.3496L76.8395 19.9246C76.8722 19.9194 76.9089 19.9102 76.9526 19.8999C76.9952 19.8886 77.0309 19.8804 77.0577 19.8753C77.138 19.8363 77.2233 19.8003 77.3116 19.7664C77.3998 19.7326 77.4682 19.7049 77.5168 19.6833C77.5704 19.6607 77.62 19.6412 77.6656 19.6248C77.7112 19.6083 77.7717 19.5888 77.8471 19.5662C77.858 19.5108 77.8669 19.4687 77.8748 19.441C77.8828 19.4133 77.8947 19.3691 77.9115 19.3075C77.971 19.0406 78.0166 18.7901 78.0484 18.557C78.0702 18.3845 78.0871 18.2552 78.1009 18.1689C78.1138 18.0827 78.1347 17.9451 78.1614 17.7562C78.2308 17.3671 78.2983 16.9759 78.3627 16.5837C78.4272 16.1915 78.4599 15.8373 78.4599 15.5201V8.87019C78.3042 8.56424 78.0732 8.3589 77.7667 8.25315C77.6596 8.2203 77.4901 8.19156 77.259 8.17C77.1995 8.1587 77.1271 8.15357 77.0418 8.15357L77.0577 7.72852C77.133 7.72852 77.1916 7.72955 77.2352 7.73263C77.2778 7.73571 77.3235 7.73981 77.372 7.74495C77.4901 7.75624 77.5853 7.76753 77.6576 7.77882C77.73 7.79012 77.8094 7.80141 77.8957 7.8127C78.1049 7.83529 78.3608 7.92153 78.6612 8.07143L87.0588 19.2603L87.0569 19.2562ZM81.1018 9.79524C81.1345 9.83939 81.1781 9.89996 81.2347 9.97491C81.2912 10.0499 81.3566 10.1371 81.432 10.2378L81.674 10.5293L86.7911 17.171L86.8555 11.7726C86.8555 11.5776 86.7911 11.1833 86.6622 10.5878C86.5332 9.99236 86.4658 9.65869 86.4609 9.58682C86.439 9.44206 86.3964 9.19155 86.3319 8.83632C86.3161 8.77472 86.3042 8.73056 86.2952 8.70284C86.2873 8.67512 86.2774 8.63303 86.2675 8.57759C86.208 8.555 86.1584 8.53755 86.1187 8.52317C86.0781 8.50983 86.0176 8.48827 85.9372 8.46055C85.851 8.42153 85.7706 8.38868 85.6953 8.35993C85.6199 8.33221 85.5445 8.30141 85.4692 8.26856C85.4424 8.26342 85.4077 8.25521 85.364 8.24392C85.3214 8.23262 85.2857 8.22441 85.2589 8.21928L85.2748 7.79423C85.3174 7.80552 85.3512 7.81373 85.3759 7.81886C85.3997 7.824 85.4255 7.83324 85.4523 7.8435C85.603 7.89895 85.7478 7.95746 85.8877 8.01906C86.0007 8.04678 86.0929 8.06937 86.1653 8.0858C86.2377 8.10223 86.2982 8.11353 86.3468 8.11866C86.4063 8.13509 86.4569 8.14741 86.4995 8.15665C86.5422 8.16486 86.6017 8.18026 86.677 8.20285L87.0717 10.9061L87.402 8.17C87.7669 8.17 87.9871 8.16486 88.0624 8.15357C88.1755 8.15357 88.3282 8.14228 88.5216 8.11969C88.6346 8.11969 88.7388 8.10325 88.8359 8.06937L88.8518 8.49442C88.7497 8.52214 88.6237 8.54473 88.473 8.56116C88.4462 8.56629 88.4085 8.57143 88.3599 8.57348C88.3113 8.57656 88.2618 8.57862 88.2112 8.5817C88.1596 8.58478 88.1209 8.58889 88.0942 8.59402C87.9871 8.59402 87.8928 8.61045 87.8125 8.64433C87.7798 8.73878 87.753 8.86403 87.7322 9.02009C87.6568 9.41536 87.6142 9.65972 87.6033 9.75417C87.5815 10.0273 87.5616 10.2603 87.5428 10.4554C87.5239 10.6505 87.5091 10.8117 87.4982 10.939C87.4446 11.4513 87.4178 11.9236 87.4178 12.3568L87.3375 18.748L80.6644 9.94616C80.4066 9.60735 80.1706 9.25932 79.9554 8.90305C79.8582 8.75316 79.7799 8.63097 79.7174 8.53549C79.6559 8.44104 79.6142 8.35172 79.5924 8.26856C79.5498 8.14638 79.5171 8.00469 79.4952 7.8435C79.5547 7.83837 79.6093 7.83426 79.6609 7.83118C79.7114 7.8281 79.7779 7.82707 79.8582 7.82707C80.1269 7.80449 80.3312 7.79423 80.4711 7.79423C80.5246 7.78293 80.5841 7.77472 80.6486 7.76959C80.713 7.76445 80.7696 7.76035 80.8182 7.75727C80.8667 7.75419 80.9203 7.75008 80.9798 7.74495H81.2138L81.198 8.08683C81.1176 8.11968 81.0453 8.13714 80.9808 8.13714C80.9272 8.14843 80.8796 8.15973 80.84 8.17102C80.7993 8.18232 80.7477 8.19361 80.6833 8.2049C80.5702 8.23775 80.4968 8.26856 80.4621 8.29628C80.4274 8.324 80.4096 8.39073 80.4096 8.49648C80.4096 8.55192 80.4294 8.62584 80.4701 8.71722C80.5107 8.80859 80.5573 8.90202 80.6109 8.99647C80.6644 9.09093 80.7081 9.16896 80.7398 9.23056C80.7993 9.35274 80.9193 9.54268 81.1028 9.79832L81.1018 9.79524Z" fill="#4A80A2"/>
<path d="M102.03 20.0238C102.035 19.9406 102.053 19.7517 102.083 19.456C102.113 19.1614 102.127 18.9304 102.127 18.763C101.112 19.7866 99.8069 20.2979 98.2113 20.2979C97.1849 20.2641 96.2408 19.9776 95.3791 19.4386C94.5163 18.8996 93.8241 18.1634 93.2995 17.2322C92.7759 16.301 92.4952 15.2672 92.4576 14.1327C92.4576 13.2651 92.5597 12.4961 92.764 11.8257C92.9683 11.1553 93.1993 10.6255 93.4572 10.2364C93.715 9.84728 93.96 9.53824 94.191 9.31032C93.4661 10.5228 93.1031 11.8637 93.1031 13.3318C93.1031 13.6101 93.119 13.8883 93.1517 14.1665C93.2162 14.9119 93.3788 15.6255 93.6396 16.3062C93.9005 16.9879 94.2505 17.5957 94.6908 18.1296C95.1311 18.6635 95.6528 19.0823 96.2547 19.3852C96.8567 19.6881 97.5142 19.84 98.2292 19.84C99.1802 19.84 99.9468 19.6686 100.53 19.3267C101.113 18.9848 101.647 18.4879 102.129 17.837C102.134 17.6368 102.138 17.453 102.141 17.2867C102.144 17.1203 102.145 16.9058 102.145 16.6439V15.7518C102.097 15.7518 101.706 15.6891 100.973 15.5639C100.239 15.4386 99.795 15.3544 99.6394 15.3093L99.7524 14.8C99.8387 14.8164 100.113 14.8616 100.578 14.9335C101.044 15.0054 101.462 15.0639 101.836 15.1091C102.21 15.1532 102.498 15.1758 102.703 15.1758C102.708 15.4201 102.714 15.6891 102.719 15.9807C102.723 16.2723 102.726 16.4992 102.726 16.6604C102.726 16.8554 102.72 17.0495 102.707 17.2446C102.693 17.4396 102.687 17.609 102.687 17.7538C102.687 17.9263 102.686 18.0454 102.683 18.1121C102.68 18.1789 102.676 18.2466 102.671 18.3164C102.666 18.3862 102.66 18.4622 102.655 18.5454C102.65 18.6285 102.644 18.7179 102.639 18.8123C102.639 18.9458 102.634 19.1686 102.623 19.4797C102.612 19.7907 102.607 19.9714 102.607 20.0218H102.035L102.03 20.0238ZM102.425 11.0547L102.03 10.8709C102.057 10.721 102.102 10.5444 102.163 10.3411C102.225 10.1378 102.256 10.0064 102.256 9.9448C102.117 9.683 101.927 9.43557 101.688 9.20251C101.449 8.96842 101.177 8.7559 100.874 8.56391C100.571 8.37192 100.25 8.21895 99.915 8.10498C99.5789 7.99102 99.2506 7.92531 98.9273 7.90888C98.8629 7.90375 98.8034 7.89964 98.7498 7.89656C98.6963 7.89348 98.6258 7.89245 98.5406 7.89245C97.7403 7.89245 97.056 8.05056 96.4898 8.36781C95.9225 8.68506 95.4713 9.11422 95.1361 9.65734C94.7999 10.1994 94.5609 10.8021 94.4191 11.4633C94.2763 12.1255 94.2059 12.8041 94.2059 13.4992C94.2545 14.8288 94.5431 15.9674 95.0726 16.916C95.6022 17.8647 96.3529 18.645 97.3248 19.2559C96.6692 19.0947 96.101 18.8113 95.62 18.4047C95.1391 17.9992 94.7493 17.5249 94.4518 16.9817C94.1543 16.4386 93.9332 15.8647 93.7914 15.2589C93.6486 14.6532 93.5782 14.0659 93.5782 13.4982C93.5782 12.992 93.6268 12.4243 93.7229 11.7959C93.8201 11.1676 94.0383 10.5157 94.3794 9.83906C94.7206 9.1635 95.266 8.5906 96.0157 8.12037C96.7654 7.65015 97.7363 7.41504 98.9293 7.41504C99.5253 7.41504 100.091 7.46843 100.626 7.57315C101.161 7.6789 101.847 7.87603 102.685 8.16555C102.685 8.13783 102.703 8.10292 102.737 8.06083C102.772 8.01874 102.79 7.98485 102.79 7.95611C102.79 7.93968 102.803 7.9058 102.831 7.85549C102.857 7.80518 102.871 7.76104 102.871 7.72203C102.887 7.69944 102.905 7.67172 102.924 7.63886C102.943 7.60601 102.953 7.56904 102.953 7.53003L103.347 7.72203C103.342 7.73846 103.332 7.76925 103.319 7.81339C103.306 7.85754 103.299 7.88322 103.299 7.88835C103.299 7.92737 103.28 7.98281 103.242 8.05468C103.204 8.12757 103.186 8.1748 103.186 8.19636C103.068 8.53003 102.989 8.73024 102.952 8.79697C102.592 8.61319 102.273 8.47048 101.997 8.36678C101.72 8.26411 101.433 8.18506 101.138 8.1286C101.6 8.47356 102.167 9.03208 102.839 9.80517C102.661 10.1943 102.524 10.6091 102.428 11.0485L102.425 11.0547ZM103.956 19.9735H103.376C103.29 19.3842 103.22 18.7363 103.167 18.03C103.162 17.9016 103.158 17.6932 103.155 17.4037C103.152 17.1142 103.151 16.8791 103.151 16.6984V16.1265C103.151 16.0433 103.156 15.8904 103.167 15.6676C103.178 15.4448 103.183 15.2867 103.183 15.1922C103.521 15.1532 103.805 15.1101 104.036 15.0629C104.268 15.0156 104.493 14.9448 104.714 14.8503V15.2425C104.654 15.2702 104.571 15.3082 104.464 15.3555C104.357 15.4027 104.244 15.4571 104.126 15.5177C104.099 15.5177 104.064 15.5341 104.021 15.568C103.977 15.6019 103.94 15.6183 103.908 15.6183L103.779 15.685C103.741 15.7682 103.711 15.9212 103.69 16.144C103.679 16.5669 103.675 17.0536 103.675 17.6039C103.728 18.5269 103.822 19.3175 103.956 19.9735Z" fill="#4A80A2"/>
<path d="M115.633 19.9065C115.714 19.8675 115.902 19.7762 116.198 19.6314C116.235 19.615 116.276 19.5965 116.319 19.577C116.361 19.5575 116.394 19.5421 116.415 19.5308C116.437 19.5308 116.457 19.5195 116.479 19.4969C116.49 19.3798 116.495 19.2135 116.495 18.9959C116.517 18.6232 116.528 18.0503 116.528 17.2772V15.5C116.528 14.7269 116.506 13.7002 116.463 12.4209C116.447 11.7094 116.413 11.0308 116.358 10.385C116.31 9.40043 116.267 8.76388 116.229 8.47435C116.203 8.26902 116.181 8.13247 116.165 8.06573C115.956 7.999 115.808 7.9569 115.722 7.94047C115.668 7.92918 115.622 7.92302 115.585 7.91994C115.547 7.91686 115.509 7.91275 115.472 7.90762C115.445 7.90249 115.42 7.89838 115.399 7.8953C115.377 7.89222 115.346 7.89119 115.303 7.89119V7.499C115.556 7.52159 115.805 7.53185 116.053 7.53185H116.826C116.918 8.48872 116.987 9.77928 117.036 11.4035C117.084 13.0277 117.108 14.4322 117.108 15.617V19.9055C116.555 19.9722 116.063 20.1026 115.633 20.2977V19.9055V19.9065ZM119.155 7.41686V7.84191C119.004 7.88606 118.722 7.92507 118.309 7.95895C118.271 8.52055 118.247 9.07291 118.236 9.61501C118.226 10.1571 118.219 10.7762 118.217 11.4713C118.214 12.1663 118.213 12.9066 118.213 13.691L118.938 12.9312L121.194 16.269C121.22 16.2854 121.246 16.3111 121.27 16.3439C121.294 16.3778 121.325 16.4189 121.362 16.4692C121.384 16.4969 121.415 16.5441 121.454 16.6109C121.495 16.6776 121.531 16.733 121.564 16.7772C121.612 16.8326 121.662 16.8973 121.712 16.9692C121.763 17.041 121.829 17.1252 121.91 17.2197C122.13 17.5482 122.394 17.9066 122.699 18.2957C123.032 18.7187 123.289 19.0297 123.469 19.23C123.648 19.4302 123.821 19.5985 123.984 19.7351C124.148 19.8716 124.335 19.9928 124.545 20.0985C124.351 20.0821 124.112 20.0072 123.828 19.8737C123.543 19.7402 123.141 19.4189 122.623 18.9096C122.104 18.4004 121.479 17.6345 120.749 16.6109L118.824 13.8573L118.211 14.4415C118.211 14.6468 118.21 14.8172 118.207 14.9507C118.204 15.0842 118.2 15.232 118.195 15.3932V17.1704C118.184 17.4712 118.179 17.9158 118.179 18.5051C118.179 18.8942 118.184 19.192 118.195 19.3983C118.668 19.4702 119.025 19.5431 119.267 19.615L119.251 20.04C118.671 19.9394 118.267 19.8901 118.042 19.8901C117.871 19.8901 117.739 19.8952 117.647 19.9065C117.647 19.5893 117.646 19.3326 117.643 19.1345C117.64 18.9373 117.636 18.7217 117.632 18.4877V17.2197C117.627 16.9302 117.622 16.6632 117.62 16.4189C117.617 16.1745 117.61 15.8624 117.6 15.4846V11.9097C117.6 11.729 117.601 11.5 117.604 11.2218C117.607 10.9435 117.611 10.7351 117.616 10.5965C117.616 9.68483 117.627 9.00618 117.648 8.56059C117.664 8.14889 117.686 7.807 117.713 7.5339C118.331 7.51132 118.812 7.4723 119.156 7.41686H119.155ZM119.268 12.5226C119.477 12.2669 119.652 12.0503 119.791 11.8717C119.98 11.6602 120.234 11.3542 120.553 10.9538C120.872 10.5534 121.166 10.1222 121.432 9.66017C121.697 9.19816 121.948 8.63657 122.185 7.97436C122.143 7.96306 122.103 7.95587 122.068 7.95382C122.034 7.95074 121.997 7.94663 121.959 7.9415C121.889 7.9415 121.779 7.93021 121.629 7.90865C121.575 7.89735 121.528 7.88607 121.488 7.87477C121.448 7.86348 121.39 7.85218 121.315 7.84088C121.283 7.84088 121.25 7.83576 121.218 7.82446V7.39941C121.788 7.48874 122.347 7.53288 122.894 7.53288C122.61 8.35628 122.263 9.12116 121.855 9.82752L123.87 7.53288C124.262 7.51645 124.604 7.47128 124.894 7.39941V7.80803C124.695 7.89736 124.458 7.9415 124.185 7.9415L123.774 8.40865L119.946 12.5216L122.388 16.0421C122.597 16.348 122.854 16.7176 123.157 17.1519C123.461 17.5862 123.81 18.0164 124.204 18.4456C124.599 18.8737 125.019 19.2269 125.462 19.5051C125.905 19.7833 126.36 19.9219 126.827 19.9219V20.2803C126.403 20.2803 126.014 20.2186 125.663 20.0965C125.311 19.9743 124.988 19.8059 124.692 19.5913C124.397 19.3778 124.105 19.117 123.818 18.8111C123.53 18.5051 123.228 18.1519 122.911 17.7515C122.798 17.5852 122.669 17.4045 122.525 17.2094C122.38 17.0144 122.267 16.8645 122.186 16.7587C122.122 16.6755 122.056 16.5852 121.989 16.4877C121.922 16.3901 121.867 16.3162 121.823 16.2669L119.269 12.5205L119.268 12.5226Z" fill="#4A80A2"/>
<path d="M133.79 19.8224C134.43 19.8059 135.014 19.6889 135.542 19.4722C136.072 19.2556 136.538 18.9312 136.941 18.5C137.343 18.0688 137.657 17.5298 137.88 16.8809C138.103 16.233 138.214 15.4866 138.214 14.6406C138.214 14.3901 138.209 14.1981 138.198 14.0647C138.171 13.4969 138.077 12.8809 137.917 12.2166C137.756 11.5524 137.431 10.8552 136.942 10.1263C136.453 9.39734 135.755 8.81316 134.846 8.37374C135.657 8.5185 136.366 8.87168 136.969 9.43328C137.573 9.99488 138.034 10.6807 138.348 11.4897C138.662 12.2988 138.833 13.1684 138.86 14.0975C138.86 15.1437 138.726 16.0585 138.457 16.8429C138.188 17.6273 137.813 18.2741 137.332 18.7823C136.851 19.2916 136.303 19.6684 135.688 19.9127C135.073 20.1571 134.424 20.2854 133.743 20.2967C132.614 20.2967 131.595 20.0061 130.684 19.425C129.774 18.8439 129.058 18.0369 128.536 17.0051C128.016 15.9733 127.755 14.8316 127.755 13.5801C127.786 12.8121 127.898 12.1437 128.089 11.5739C128.279 11.0041 128.495 10.5421 128.737 10.1889C128.979 9.83574 129.212 9.5534 129.439 9.3419C129.203 9.81521 129.004 10.2567 128.847 10.6684C128.688 11.0801 128.571 11.5154 128.495 11.9743C128.42 12.4333 128.382 12.9466 128.382 13.5133C128.393 14.693 128.625 15.7628 129.08 16.7259C129.534 17.6879 130.168 18.4445 130.986 18.9948C131.802 19.5451 132.737 19.8213 133.79 19.8213V19.8224ZM134.201 7.39941C135.361 7.43843 136.379 7.75773 137.255 8.35937C138.131 8.95998 138.806 9.76901 139.282 10.7875C139.757 11.8049 139.995 12.9312 139.995 14.1663C139.968 15.0616 139.831 15.8306 139.585 16.4733C139.338 17.116 139.074 17.6006 138.795 17.9291C138.516 18.2577 138.25 18.5082 137.998 18.6796C138.75 17.7012 139.191 16.4856 139.32 15.0339C139.342 14.7002 139.352 14.4497 139.352 14.2834C139.352 13.4107 139.223 12.5914 138.962 11.8265C138.701 11.0616 138.337 10.3912 137.87 9.81623C137.403 9.24026 136.846 8.78134 136.202 8.43945C135.557 8.09756 134.886 7.91481 134.187 7.89325C133.182 7.89325 132.36 8.08523 131.72 8.46922C131.081 8.8532 130.602 9.33369 130.282 9.91275C129.962 10.4908 129.75 11.0667 129.645 11.6396C129.54 12.2125 129.488 12.7628 129.488 13.2916C129.553 16 130.619 17.9887 132.687 19.2566C132.064 19.1006 131.512 18.8295 131.031 18.4435C130.55 18.0564 130.15 17.5893 129.83 17.0421C129.511 16.4938 129.266 15.8963 129.097 15.2484C128.928 14.6006 128.844 13.9312 128.844 13.2423C128.865 12.347 129.033 11.462 129.347 10.5893C129.662 9.71665 130.218 8.96613 131.015 8.34088C131.813 7.71563 132.876 7.40248 134.203 7.40248L134.201 7.39941Z" fill="#4A80A2"/>
<path d="M142.719 8.10094C142.435 7.97877 142.235 7.88738 142.123 7.82578V7.43359C142.37 7.53934 142.615 7.6225 142.857 7.6841C143.099 7.7457 143.368 7.79293 143.663 7.82578C143.674 8.00956 143.679 8.28779 143.679 8.66048V12.0978C143.679 13.4941 143.653 14.9305 143.603 16.4069C143.551 17.8832 143.483 19.0506 143.398 19.9068H142.591C142.328 19.9068 142.062 19.9233 141.794 19.9571V19.565C141.827 19.5598 141.855 19.5557 141.878 19.5526C141.902 19.5496 141.931 19.5485 141.963 19.5485C142.027 19.5372 142.079 19.5301 142.115 19.528C142.153 19.5249 142.191 19.5208 142.228 19.5157C142.326 19.488 142.388 19.4725 142.418 19.4695C142.448 19.4664 142.486 19.4602 142.535 19.4489C142.583 19.4376 142.64 19.4263 142.704 19.4161C142.774 18.8822 142.837 18.1851 142.894 17.3257C142.95 16.4664 142.991 15.5999 143.015 14.7272C143.039 13.8545 143.051 13.0167 143.051 12.2159C143.056 12.0208 143.059 11.7252 143.059 11.3278C143.059 10.9305 143.062 10.6338 143.067 10.4397C143.067 9.67794 143.062 9.10505 143.051 8.72107C143.051 8.61018 143.05 8.51983 143.048 8.45002C143.045 8.3802 143.041 8.30423 143.036 8.22107C143.02 8.21594 143.005 8.21183 142.991 8.20875C142.977 8.20567 142.965 8.20464 142.954 8.20464C142.917 8.18205 142.878 8.16152 142.837 8.14201C142.797 8.1225 142.758 8.11018 142.72 8.10402L142.719 8.10094ZM145.225 8.23442H144.862V16.4695C144.867 16.6255 144.871 16.7703 144.874 16.9038C144.877 17.0372 144.878 17.2128 144.878 17.4294V18.7477C144.894 18.8699 144.902 19.068 144.902 19.3401C145.165 19.3514 145.55 19.3565 146.054 19.3565C146.699 19.3514 147.257 19.3052 147.73 19.219C148.203 19.1327 148.555 19.0393 148.786 18.9397C149.017 18.8391 149.2 18.7446 149.335 18.6563C149.335 18.5506 149.334 18.4674 149.331 18.4058C149.328 18.3442 149.324 18.2754 149.319 18.1974C149.324 18.0968 149.328 18.0075 149.331 17.9264C149.334 17.8463 149.335 17.7446 149.335 17.6214H149.681C149.681 18.2559 149.727 18.7149 149.818 18.9982C149.764 19.0259 149.724 19.0516 149.697 19.0732C149.53 19.1235 149.428 19.1512 149.39 19.1563C149.32 19.1789 149.216 19.2066 149.076 19.2395C148.936 19.2723 148.831 19.3011 148.762 19.3227C148.531 19.3617 148.359 19.3976 148.246 19.4315C148.117 19.4592 148.019 19.4818 147.951 19.4982C147.884 19.5146 147.808 19.5321 147.721 19.5485H149.817C149.839 19.6984 149.865 19.835 149.897 19.9571C149.908 20.0126 149.915 20.0629 149.917 20.107C149.92 20.1512 149.924 20.1984 149.929 20.2487C149.934 20.26 149.938 20.2723 149.941 20.2867C149.944 20.3001 149.945 20.3155 149.945 20.3329H149.678C149.629 20.2662 149.587 20.1522 149.549 19.991H149.371C149.301 19.9859 149.237 19.9808 149.178 19.9787C149.119 19.9756 149.043 19.9746 148.952 19.9746C148.753 19.9746 148.605 19.9695 148.509 19.9582C148.427 19.9582 148.309 19.953 148.154 19.9417C147.998 19.9305 147.879 19.9253 147.799 19.9253C147.701 19.914 147.53 19.9089 147.282 19.9089H144.232C144.221 19.6697 144.216 19.3165 144.216 18.8493C144.216 18.6101 144.215 18.4171 144.212 18.2693C144.209 18.1214 144.205 17.9623 144.2 17.7898C144.205 17.6122 144.209 17.4489 144.212 17.3021C144.215 17.1553 144.216 16.9644 144.216 16.7303C144.216 16.5352 144.215 16.3802 144.212 16.2631C144.209 16.1461 144.205 16.0188 144.2 15.8791L144.233 7.82784C144.675 7.82784 145.003 7.81655 145.219 7.79499C145.301 7.7837 145.381 7.77548 145.462 7.77035C145.544 7.76522 145.625 7.75802 145.709 7.74981C145.792 7.7416 145.875 7.73441 145.956 7.72928C146.102 7.69643 146.256 7.67897 146.417 7.67897V8.05475C146.337 8.08247 146.248 8.10504 146.151 8.12147C146.049 8.14919 145.869 8.17692 145.611 8.20464C145.514 8.20464 145.385 8.21593 145.224 8.23749L145.225 8.23442Z" fill="#4A80A2"/>
<path d="M59.252 19.581C59.005 19.7586 58.7303 19.9024 58.4298 20.0112C58.1284 20.12 57.8398 20.196 57.5631 20.2402C57.2864 20.2843 57.0018 20.312 56.7083 20.3233C56.4157 20.3346 56.1341 20.3428 55.8653 20.348C55.5113 20.348 55.1107 20.3079 54.6654 20.2268C54.2201 20.1457 53.7183 19.9681 53.159 19.6929C52.6007 19.4178 52.0771 19.0153 51.5892 18.4876L51.9521 18.196C52.6126 18.9578 53.3167 19.4835 54.0634 19.773C53.7521 19.5451 53.4238 19.235 53.0807 18.8428C52.7366 18.4506 52.5005 18.1098 52.3716 17.8213L52.8784 17.5123C53.0559 18.0348 53.2969 18.4568 53.6033 18.7761C53.9097 19.0964 54.233 19.3326 54.5732 19.4855C54.9143 19.6385 55.2227 19.735 55.4994 19.773C55.7761 19.812 55.9407 19.8346 55.9943 19.8397C56.6111 19.8397 57.1407 19.7997 57.5829 19.7186C58.0252 19.6385 58.4447 19.4558 58.8424 19.1724C59.5514 18.6827 59.9065 17.9989 59.9065 17.12C59.8956 16.6693 59.7894 16.2422 59.5881 15.8398C59.3868 15.4363 59.0774 15.0513 58.6599 14.6847C58.2434 14.3172 57.7069 13.9671 57.0504 13.6334C56.9701 13.5893 56.6468 13.4291 56.0825 13.1539C55.5173 12.8788 55.0551 12.619 54.6942 12.3737C54.3342 12.1293 54.0377 11.848 53.8066 11.5308C53.5755 11.2135 53.4407 10.8552 53.403 10.4548C53.403 10.0318 53.4972 9.65704 53.6856 9.3285C53.874 8.99996 54.1279 8.74741 54.4482 8.56876C54.7685 8.39115 55.1305 8.30181 55.5341 8.30181C55.7602 8.30181 56.0072 8.33775 56.2769 8.41065C55.4131 8.49997 54.8151 8.71249 54.4829 9.04925C54.1507 9.386 53.9841 9.83261 53.9841 10.3881C54 10.7443 54.0882 11.0503 54.2499 11.3059C54.4105 11.5616 54.6188 11.7792 54.8737 11.9568C55.1285 12.1345 55.5143 12.3459 56.0319 12.5913C56.5496 12.8357 56.8937 13.003 57.0663 13.0923C58.0778 13.5934 58.9088 14.1899 59.5604 14.8819C60.2109 15.5739 60.5372 16.2936 60.5372 17.0389C60.5372 17.3788 60.5154 17.6621 60.4727 17.8901C60.4301 18.118 60.314 18.3757 60.1256 18.6621C59.9372 18.9486 59.6466 19.2556 59.2539 19.5841L59.252 19.581ZM59.3501 16.9363C59.3501 17.3203 59.2936 17.6221 59.1796 17.8418C59.0655 18.0615 58.8007 18.3911 58.3832 18.8305C58.5816 18.5246 58.7085 18.274 58.7621 18.08C58.8156 17.8849 58.8424 17.6745 58.8424 17.4455V17.0697C58.8424 16.619 58.7174 16.2258 58.4685 15.889C58.2186 15.5523 57.8785 15.2484 57.4461 14.9753C57.0147 14.7032 56.3364 14.3192 55.4141 13.8244C55.1087 13.6632 54.7566 13.4722 54.36 13.2525C53.9633 13.0328 53.6261 12.8059 53.3494 12.5729C53.0728 12.3388 52.8357 12.0441 52.6374 11.6889C52.4391 11.3326 52.3052 10.9045 52.2348 10.4045C52.2348 9.88702 52.3677 9.39935 52.6334 8.94042C52.8992 8.48149 53.3108 8.11188 53.8691 7.83057C54.4274 7.54925 55.0988 7.40655 55.8822 7.40039C56.7479 7.40039 57.5661 7.52153 58.3376 7.7628C59.1091 8.0051 59.6665 8.22071 60.0116 8.40962C60.087 8.1704 60.1455 8.01434 60.1891 7.94247L60.5352 8.08416C60.5134 8.1396 60.4945 8.18272 60.4787 8.21352C60.4628 8.24432 60.444 8.28744 60.4221 8.34288C60.4172 8.35418 60.4023 8.39012 60.3775 8.45172C60.3537 8.51332 60.3309 8.57697 60.3091 8.64371C60.2714 8.73817 60.2307 8.86341 60.1881 9.01947C59.9779 8.88087 59.6853 8.72583 59.3105 8.55643C58.9356 8.38703 58.5994 8.2628 58.3029 8.18477C58.654 8.42399 58.9693 8.67964 59.25 8.95274C59.2986 9.00819 59.363 9.07799 59.4443 9.16115C59.5257 9.24431 59.6199 9.34186 59.728 9.45274C59.7716 9.49689 59.8202 9.54309 59.8737 9.59031C59.9273 9.63754 59.9739 9.68066 60.0116 9.71968C59.8876 10.2094 59.8152 10.6211 59.7944 10.9548L59.4959 10.8131V10.3881C59.5009 10.3265 59.5048 10.2731 59.5078 10.2258C59.5108 10.1786 59.5118 10.1129 59.5118 10.0297C59.5118 9.9743 59.5227 9.92398 59.5445 9.87983C59.1736 9.36854 58.7759 8.96198 58.3515 8.66218C57.9271 8.36136 57.5165 8.15911 57.1188 8.05336C56.7212 7.94761 56.3156 7.89525 55.902 7.89525C55.3269 7.89525 54.8112 7.98149 54.355 8.15398C53.8978 8.32646 53.5329 8.59648 53.2592 8.96301C52.9855 9.33056 52.8486 9.78333 52.8486 10.3234C52.8913 10.7792 53.0013 11.1694 53.1789 11.4917C53.3564 11.8141 53.5666 12.079 53.8116 12.2843C54.0555 12.4897 54.3302 12.6776 54.6337 12.848C54.9371 13.0174 55.2555 13.1919 55.5887 13.3696C56.3086 13.7587 56.8739 14.0708 57.2854 14.3038C57.697 14.5369 58.0599 14.7792 58.3773 15.0297C58.6946 15.2802 58.9356 15.5595 59.1022 15.8685C59.2688 16.1776 59.3521 16.5348 59.3521 16.9404L59.3501 16.9363Z" fill="#4A80A2"/>
<path d="M68.5539 19.8224C69.1936 19.8059 69.7777 19.6889 70.3062 19.4722C70.8358 19.2556 71.3019 18.9312 71.7045 18.5C72.1071 18.0688 72.4205 17.5298 72.6436 16.8809C72.8668 16.233 72.9778 15.4866 72.9778 14.6406C72.9778 14.3901 72.9729 14.1981 72.962 14.0647C72.9352 13.4969 72.841 12.8809 72.6803 12.2166C72.5187 11.5524 72.1944 10.8552 71.7055 10.1263C71.2166 9.39734 70.5185 8.81316 69.6101 8.37374C70.4213 8.5185 71.1293 8.87168 71.7333 9.43328C72.3372 9.99488 72.7974 10.6807 73.1117 11.4897C73.4261 12.2988 73.5967 13.1684 73.6234 14.0975C73.6234 15.1437 73.4896 16.0585 73.2208 16.8429C72.9521 17.6273 72.5772 18.2741 72.0962 18.7823C71.6153 19.2916 71.0669 19.6684 70.452 19.9127C69.8372 20.1571 69.1876 20.2854 68.5063 20.2967C67.3778 20.2967 66.3583 20.0061 65.448 19.425C64.5376 18.8439 63.8216 18.0369 63.3 17.0051C62.7783 15.9733 62.5185 14.8316 62.5185 13.5801C62.5512 12.8121 62.6623 12.1437 62.8527 11.5739C63.0431 11.0041 63.2593 10.5421 63.5013 10.1889C63.7433 9.83574 63.9763 9.5534 64.2024 9.3419C63.9664 9.81521 63.768 10.2567 63.6104 10.6684C63.4517 11.0801 63.3347 11.5154 63.2603 11.9743C63.1849 12.4333 63.1473 12.9466 63.1473 13.5133C63.1582 14.693 63.3902 15.7628 63.8444 16.7259C64.2986 17.6879 64.9333 18.4445 65.7504 18.9948C66.5666 19.5451 67.5018 19.8213 68.5549 19.8213L68.5539 19.8224ZM68.9645 7.39941C70.1248 7.43843 71.1432 7.75773 72.0189 8.35937C72.8945 8.95998 73.5699 9.76901 74.0459 10.7875C74.5209 11.8049 74.7589 12.9312 74.7589 14.1663C74.7321 15.0616 74.5953 15.8306 74.3484 16.4733C74.1014 17.116 73.8376 17.6006 73.559 17.9291C73.2793 18.2577 73.0135 18.5082 72.7617 18.6796C73.5134 17.7012 73.9547 16.4856 74.0836 15.0339C74.1054 14.7002 74.1163 14.4497 74.1163 14.2834C74.1163 13.4107 73.9864 12.5914 73.7256 11.8265C73.4648 11.0616 73.1008 10.3912 72.6337 9.81623C72.1666 9.24026 71.6103 8.78134 70.9657 8.43945C70.3211 8.09756 69.6497 7.91481 68.9506 7.89325C67.946 7.89325 67.1239 8.08523 66.4843 8.46922C65.8446 8.8532 65.3657 9.33369 65.0453 9.91275C64.726 10.4908 64.5138 11.0667 64.4087 11.6396C64.3036 12.2125 64.252 12.7628 64.252 13.2916C64.3165 16 65.3825 17.9887 67.4512 19.2566C66.8274 19.1006 66.276 18.8295 65.7951 18.4435C65.3141 18.0564 64.9134 17.5893 64.5941 17.0421C64.2748 16.4938 64.0299 15.8963 63.8603 15.2484C63.6907 14.6006 63.6064 13.9312 63.6064 13.2423C63.6282 12.347 63.7958 11.462 64.1102 10.5893C64.4245 9.71665 64.9809 8.96613 65.7782 8.34088C66.5755 7.71563 67.6386 7.40248 68.9655 7.40248L68.9645 7.39941Z" fill="#4A80A2"/>
<path d="M87.0569 19.2562C87.164 19.3948 87.3712 19.4769 87.6777 19.5026C87.9841 19.5272 88.1447 19.5426 88.1616 19.5488C88.2211 19.5652 88.3064 19.5909 88.4194 19.6237C88.5325 19.6576 88.6178 19.6771 88.6773 19.6823C88.6882 19.6823 88.7338 19.7028 88.8141 19.7449C88.8945 19.787 88.954 19.8075 88.9916 19.8075L88.8865 20.1833C88.8538 20.1833 88.8002 20.1648 88.7259 20.1289C88.6505 20.0929 88.589 20.0745 88.5404 20.0745C88.4809 20.0693 88.3421 20.0549 88.1209 20.0324C87.9008 20.0098 87.756 19.9964 87.6856 19.9903C87.5725 19.9903 87.4813 19.9913 87.4119 19.9944C87.3415 19.9974 87.2671 20.0016 87.1858 20.0067C86.9924 20.0067 86.8555 19.9512 86.7752 19.8404L79.0063 9.6361V15.7849C79.0063 16.2192 79.0331 16.6915 79.0867 17.2028C79.0976 17.3414 79.1194 17.5365 79.1511 17.787C79.1839 18.0375 79.2047 18.2264 79.2156 18.3547C79.2374 18.5221 79.2503 18.6422 79.2562 18.7182C79.2612 18.7931 79.283 18.9287 79.3207 19.1227C79.3425 19.2788 79.3693 19.404 79.401 19.4985C79.4814 19.5324 79.5756 19.5488 79.6827 19.5488C79.7471 19.5539 79.8076 19.5591 79.8642 19.5611C79.9207 19.5642 79.9861 19.5714 80.0615 19.5816C80.2122 19.5981 80.3382 19.6207 80.4403 19.6484L80.4245 20.0734C80.3223 20.0395 80.2172 20.0231 80.1101 20.0231C79.9058 20.0005 79.7501 19.9892 79.643 19.9892C79.5676 19.9779 79.3505 19.9728 78.9905 19.9728L78.6602 17.2449L78.2576 19.94C78.1981 19.9564 78.1485 19.9687 78.1089 19.978C78.0682 19.9862 78.0077 20.0016 77.9274 20.0241C77.858 20.0293 77.7826 20.0447 77.7013 20.0703C77.621 20.095 77.5426 20.1165 77.4672 20.133C77.4296 20.1494 77.379 20.171 77.3145 20.1956C77.2501 20.2202 77.1985 20.2397 77.1618 20.2541C77.1241 20.2675 77.0835 20.2829 77.0408 20.3003C77.0081 20.3116 76.9803 20.3198 76.9565 20.325C76.9327 20.3301 76.899 20.3383 76.8554 20.3496L76.8395 19.9246C76.8722 19.9194 76.9089 19.9102 76.9526 19.8999C76.9952 19.8886 77.0309 19.8804 77.0577 19.8753C77.138 19.8363 77.2233 19.8003 77.3116 19.7664C77.3998 19.7326 77.4682 19.7049 77.5168 19.6833C77.5704 19.6607 77.62 19.6412 77.6656 19.6248C77.7112 19.6083 77.7717 19.5888 77.8471 19.5662C77.858 19.5108 77.8669 19.4687 77.8748 19.441C77.8828 19.4133 77.8947 19.3691 77.9115 19.3075C77.971 19.0406 78.0166 18.7901 78.0484 18.557C78.0702 18.3845 78.0871 18.2552 78.1009 18.1689C78.1138 18.0827 78.1347 17.9451 78.1614 17.7562C78.2308 17.3671 78.2983 16.9759 78.3627 16.5837C78.4272 16.1915 78.4599 15.8373 78.4599 15.5201V8.87019C78.3042 8.56424 78.0732 8.3589 77.7667 8.25315C77.6596 8.2203 77.4901 8.19156 77.259 8.17C77.1995 8.1587 77.1271 8.15357 77.0418 8.15357L77.0577 7.72852C77.133 7.72852 77.1916 7.72955 77.2352 7.73263C77.2778 7.73571 77.3235 7.73981 77.372 7.74495C77.4901 7.75624 77.5853 7.76753 77.6576 7.77882C77.73 7.79012 77.8094 7.80141 77.8957 7.8127C78.1049 7.83529 78.3608 7.92153 78.6612 8.07143L87.0588 19.2603L87.0569 19.2562ZM81.1018 9.79524C81.1345 9.83939 81.1781 9.89996 81.2347 9.97491C81.2912 10.0499 81.3566 10.1371 81.432 10.2378L81.674 10.5293L86.7911 17.171L86.8555 11.7726C86.8555 11.5776 86.7911 11.1833 86.6622 10.5878C86.5332 9.99236 86.4658 9.65869 86.4609 9.58682C86.439 9.44206 86.3964 9.19155 86.3319 8.83632C86.3161 8.77472 86.3042 8.73056 86.2952 8.70284C86.2873 8.67512 86.2774 8.63303 86.2675 8.57759C86.208 8.555 86.1584 8.53755 86.1187 8.52317C86.0781 8.50983 86.0176 8.48827 85.9372 8.46055C85.851 8.42153 85.7706 8.38868 85.6953 8.35993C85.6199 8.33221 85.5445 8.30141 85.4692 8.26856C85.4424 8.26342 85.4077 8.25521 85.364 8.24392C85.3214 8.23262 85.2857 8.22441 85.2589 8.21928L85.2748 7.79423C85.3174 7.80552 85.3512 7.81373 85.3759 7.81886C85.3997 7.824 85.4255 7.83324 85.4523 7.8435C85.603 7.89895 85.7478 7.95746 85.8877 8.01906C86.0007 8.04678 86.0929 8.06937 86.1653 8.0858C86.2377 8.10223 86.2982 8.11353 86.3468 8.11866C86.4063 8.13509 86.4569 8.14741 86.4995 8.15665C86.5422 8.16486 86.6017 8.18026 86.677 8.20285L87.0717 10.9061L87.402 8.17C87.7669 8.17 87.9871 8.16486 88.0624 8.15357C88.1755 8.15357 88.3282 8.14228 88.5216 8.11969C88.6346 8.11969 88.7388 8.10325 88.8359 8.06937L88.8518 8.49442C88.7497 8.52214 88.6237 8.54473 88.473 8.56116C88.4462 8.56629 88.4085 8.57143 88.3599 8.57348C88.3113 8.57656 88.2618 8.57862 88.2112 8.5817C88.1596 8.58478 88.1209 8.58889 88.0942 8.59402C87.9871 8.59402 87.8928 8.61045 87.8125 8.64433C87.7798 8.73878 87.753 8.86403 87.7322 9.02009C87.6568 9.41536 87.6142 9.65972 87.6033 9.75417C87.5815 10.0273 87.5616 10.2603 87.5428 10.4554C87.5239 10.6505 87.5091 10.8117 87.4982 10.939C87.4446 11.4513 87.4178 11.9236 87.4178 12.3568L87.3375 18.748L80.6644 9.94616C80.4066 9.60735 80.1706 9.25932 79.9554 8.90305C79.8582 8.75316 79.7799 8.63097 79.7174 8.53549C79.6559 8.44104 79.6142 8.35172 79.5924 8.26856C79.5498 8.14638 79.5171 8.00469 79.4952 7.8435C79.5547 7.83837 79.6093 7.83426 79.6609 7.83118C79.7114 7.8281 79.7779 7.82707 79.8582 7.82707C80.1269 7.80449 80.3312 7.79423 80.4711 7.79423C80.5246 7.78293 80.5841 7.77472 80.6486 7.76959C80.713 7.76445 80.7696 7.76035 80.8182 7.75727C80.8667 7.75419 80.9203 7.75008 80.9798 7.74495H81.2138L81.198 8.08683C81.1176 8.11968 81.0453 8.13714 80.9808 8.13714C80.9272 8.14843 80.8796 8.15973 80.84 8.17102C80.7993 8.18232 80.7477 8.19361 80.6833 8.2049C80.5702 8.23775 80.4968 8.26856 80.4621 8.29628C80.4274 8.324 80.4096 8.39073 80.4096 8.49648C80.4096 8.55192 80.4294 8.62584 80.4701 8.71722C80.5107 8.80859 80.5573 8.90202 80.6109 8.99647C80.6644 9.09093 80.7081 9.16896 80.7398 9.23056C80.7993 9.35274 80.9193 9.54268 81.1028 9.79832L81.1018 9.79524Z" fill="#4A80A2"/>
<path d="M102.03 20.0238C102.035 19.9406 102.053 19.7517 102.083 19.456C102.113 19.1614 102.127 18.9304 102.127 18.763C101.112 19.7866 99.8069 20.2979 98.2113 20.2979C97.1849 20.2641 96.2408 19.9776 95.3791 19.4386C94.5163 18.8996 93.8241 18.1634 93.2995 17.2322C92.7759 16.301 92.4952 15.2672 92.4576 14.1327C92.4576 13.2651 92.5597 12.4961 92.764 11.8257C92.9683 11.1553 93.1993 10.6255 93.4572 10.2364C93.715 9.84728 93.96 9.53824 94.191 9.31032C93.4661 10.5228 93.1031 11.8637 93.1031 13.3318C93.1031 13.6101 93.119 13.8883 93.1517 14.1665C93.2162 14.9119 93.3788 15.6255 93.6396 16.3062C93.9005 16.9879 94.2505 17.5957 94.6908 18.1296C95.1311 18.6635 95.6528 19.0823 96.2547 19.3852C96.8567 19.6881 97.5142 19.84 98.2292 19.84C99.1802 19.84 99.9468 19.6686 100.53 19.3267C101.113 18.9848 101.647 18.4879 102.129 17.837C102.134 17.6368 102.138 17.453 102.141 17.2867C102.144 17.1203 102.145 16.9058 102.145 16.6439V15.7518C102.097 15.7518 101.706 15.6891 100.973 15.5639C100.239 15.4386 99.795 15.3544 99.6394 15.3093L99.7524 14.8C99.8387 14.8164 100.113 14.8616 100.578 14.9335C101.044 15.0054 101.462 15.0639 101.836 15.1091C102.21 15.1532 102.498 15.1758 102.703 15.1758C102.708 15.4201 102.714 15.6891 102.719 15.9807C102.723 16.2723 102.726 16.4992 102.726 16.6604C102.726 16.8554 102.72 17.0495 102.707 17.2446C102.693 17.4396 102.687 17.609 102.687 17.7538C102.687 17.9263 102.686 18.0454 102.683 18.1121C102.68 18.1789 102.676 18.2466 102.671 18.3164C102.666 18.3862 102.66 18.4622 102.655 18.5454C102.65 18.6285 102.644 18.7179 102.639 18.8123C102.639 18.9458 102.634 19.1686 102.623 19.4797C102.612 19.7907 102.607 19.9714 102.607 20.0218H102.035L102.03 20.0238ZM102.425 11.0547L102.03 10.8709C102.057 10.721 102.102 10.5444 102.163 10.3411C102.225 10.1378 102.256 10.0064 102.256 9.9448C102.117 9.683 101.927 9.43557 101.688 9.20251C101.449 8.96842 101.177 8.7559 100.874 8.56391C100.571 8.37192 100.25 8.21895 99.915 8.10498C99.5789 7.99102 99.2506 7.92531 98.9273 7.90888C98.8629 7.90375 98.8034 7.89964 98.7498 7.89656C98.6963 7.89348 98.6258 7.89245 98.5406 7.89245C97.7403 7.89245 97.056 8.05056 96.4898 8.36781C95.9225 8.68506 95.4713 9.11422 95.1361 9.65734C94.7999 10.1994 94.5609 10.8021 94.4191 11.4633C94.2763 12.1255 94.2059 12.8041 94.2059 13.4992C94.2545 14.8288 94.5431 15.9674 95.0726 16.916C95.6022 17.8647 96.3529 18.645 97.3248 19.2559C96.6692 19.0947 96.101 18.8113 95.62 18.4047C95.1391 17.9992 94.7493 17.5249 94.4518 16.9817C94.1543 16.4386 93.9332 15.8647 93.7914 15.2589C93.6486 14.6532 93.5782 14.0659 93.5782 13.4982C93.5782 12.992 93.6268 12.4243 93.7229 11.7959C93.8201 11.1676 94.0383 10.5157 94.3794 9.83906C94.7206 9.1635 95.266 8.5906 96.0157 8.12037C96.7654 7.65015 97.7363 7.41504 98.9293 7.41504C99.5253 7.41504 100.091 7.46843 100.626 7.57315C101.161 7.6789 101.847 7.87603 102.685 8.16555C102.685 8.13783 102.703 8.10292 102.737 8.06083C102.772 8.01874 102.79 7.98485 102.79 7.95611C102.79 7.93968 102.803 7.9058 102.831 7.85549C102.857 7.80518 102.871 7.76104 102.871 7.72203C102.887 7.69944 102.905 7.67172 102.924 7.63886C102.943 7.60601 102.953 7.56904 102.953 7.53003L103.347 7.72203C103.342 7.73846 103.332 7.76925 103.319 7.81339C103.306 7.85754 103.299 7.88322 103.299 7.88835C103.299 7.92737 103.28 7.98281 103.242 8.05468C103.204 8.12757 103.186 8.1748 103.186 8.19636C103.068 8.53003 102.989 8.73024 102.952 8.79697C102.592 8.61319 102.273 8.47048 101.997 8.36678C101.72 8.26411 101.433 8.18506 101.138 8.1286C101.6 8.47356 102.167 9.03208 102.839 9.80517C102.661 10.1943 102.524 10.6091 102.428 11.0485L102.425 11.0547ZM103.956 19.9735H103.376C103.29 19.3842 103.22 18.7363 103.167 18.03C103.162 17.9016 103.158 17.6932 103.155 17.4037C103.152 17.1142 103.151 16.8791 103.151 16.6984V16.1265C103.151 16.0433 103.156 15.8904 103.167 15.6676C103.178 15.4448 103.183 15.2867 103.183 15.1922C103.521 15.1532 103.805 15.1101 104.036 15.0629C104.268 15.0156 104.493 14.9448 104.714 14.8503V15.2425C104.654 15.2702 104.571 15.3082 104.464 15.3555C104.357 15.4027 104.244 15.4571 104.126 15.5177C104.099 15.5177 104.064 15.5341 104.021 15.568C103.977 15.6019 103.94 15.6183 103.908 15.6183L103.779 15.685C103.741 15.7682 103.711 15.9212 103.69 16.144C103.679 16.5669 103.675 17.0536 103.675 17.6039C103.728 18.5269 103.822 19.3175 103.956 19.9735Z" fill="#4A80A2"/>
<path d="M115.633 19.9065C115.714 19.8675 115.902 19.7762 116.198 19.6314C116.235 19.615 116.276 19.5965 116.319 19.577C116.361 19.5575 116.394 19.5421 116.415 19.5308C116.437 19.5308 116.457 19.5195 116.479 19.4969C116.49 19.3798 116.495 19.2135 116.495 18.9959C116.517 18.6232 116.528 18.0503 116.528 17.2772V15.5C116.528 14.7269 116.506 13.7002 116.463 12.4209C116.447 11.7094 116.413 11.0308 116.358 10.385C116.31 9.40043 116.267 8.76388 116.229 8.47435C116.203 8.26902 116.181 8.13247 116.165 8.06573C115.956 7.999 115.808 7.9569 115.722 7.94047C115.668 7.92918 115.622 7.92302 115.585 7.91994C115.547 7.91686 115.509 7.91275 115.472 7.90762C115.445 7.90249 115.42 7.89838 115.399 7.8953C115.377 7.89222 115.346 7.89119 115.303 7.89119V7.499C115.556 7.52159 115.805 7.53185 116.053 7.53185H116.826C116.918 8.48872 116.987 9.77928 117.036 11.4035C117.084 13.0277 117.108 14.4322 117.108 15.617V19.9055C116.555 19.9722 116.063 20.1026 115.633 20.2977V19.9055V19.9065ZM119.155 7.41686V7.84191C119.004 7.88606 118.722 7.92507 118.309 7.95895C118.271 8.52055 118.247 9.07291 118.236 9.61501C118.226 10.1571 118.219 10.7762 118.217 11.4713C118.214 12.1663 118.213 12.9066 118.213 13.691L118.938 12.9312L121.194 16.269C121.22 16.2854 121.246 16.3111 121.27 16.3439C121.294 16.3778 121.325 16.4189 121.362 16.4692C121.384 16.4969 121.415 16.5441 121.454 16.6109C121.495 16.6776 121.531 16.733 121.564 16.7772C121.612 16.8326 121.662 16.8973 121.712 16.9692C121.763 17.041 121.829 17.1252 121.91 17.2197C122.13 17.5482 122.394 17.9066 122.699 18.2957C123.032 18.7187 123.289 19.0297 123.469 19.23C123.648 19.4302 123.821 19.5985 123.984 19.7351C124.148 19.8716 124.335 19.9928 124.545 20.0985C124.351 20.0821 124.112 20.0072 123.828 19.8737C123.543 19.7402 123.141 19.4189 122.623 18.9096C122.104 18.4004 121.479 17.6345 120.749 16.6109L118.824 13.8573L118.211 14.4415C118.211 14.6468 118.21 14.8172 118.207 14.9507C118.204 15.0842 118.2 15.232 118.195 15.3932V17.1704C118.184 17.4712 118.179 17.9158 118.179 18.5051C118.179 18.8942 118.184 19.192 118.195 19.3983C118.668 19.4702 119.025 19.5431 119.267 19.615L119.251 20.04C118.671 19.9394 118.267 19.8901 118.042 19.8901C117.871 19.8901 117.739 19.8952 117.647 19.9065C117.647 19.5893 117.646 19.3326 117.643 19.1345C117.64 18.9373 117.636 18.7217 117.632 18.4877V17.2197C117.627 16.9302 117.622 16.6632 117.62 16.4189C117.617 16.1745 117.61 15.8624 117.6 15.4846V11.9097C117.6 11.729 117.601 11.5 117.604 11.2218C117.607 10.9435 117.611 10.7351 117.616 10.5965C117.616 9.68483 117.627 9.00618 117.648 8.56059C117.664 8.14889 117.686 7.807 117.713 7.5339C118.331 7.51132 118.812 7.4723 119.156 7.41686H119.155ZM119.268 12.5226C119.477 12.2669 119.652 12.0503 119.791 11.8717C119.98 11.6602 120.234 11.3542 120.553 10.9538C120.872 10.5534 121.166 10.1222 121.432 9.66017C121.697 9.19816 121.948 8.63657 122.185 7.97436C122.143 7.96306 122.103 7.95587 122.068 7.95382C122.034 7.95074 121.997 7.94663 121.959 7.9415C121.889 7.9415 121.779 7.93021 121.629 7.90865C121.575 7.89735 121.528 7.88607 121.488 7.87477C121.448 7.86348 121.39 7.85218 121.315 7.84088C121.283 7.84088 121.25 7.83576 121.218 7.82446V7.39941C121.788 7.48874 122.347 7.53288 122.894 7.53288C122.61 8.35628 122.263 9.12116 121.855 9.82752L123.87 7.53288C124.262 7.51645 124.604 7.47128 124.894 7.39941V7.80803C124.695 7.89736 124.458 7.9415 124.185 7.9415L123.774 8.40865L119.946 12.5216L122.388 16.0421C122.597 16.348 122.854 16.7176 123.157 17.1519C123.461 17.5862 123.81 18.0164 124.204 18.4456C124.599 18.8737 125.019 19.2269 125.462 19.5051C125.905 19.7833 126.36 19.9219 126.827 19.9219V20.2803C126.403 20.2803 126.014 20.2186 125.663 20.0965C125.311 19.9743 124.988 19.8059 124.692 19.5913C124.397 19.3778 124.105 19.117 123.818 18.8111C123.53 18.5051 123.228 18.1519 122.911 17.7515C122.798 17.5852 122.669 17.4045 122.525 17.2094C122.38 17.0144 122.267 16.8645 122.186 16.7587C122.122 16.6755 122.056 16.5852 121.989 16.4877C121.922 16.3901 121.867 16.3162 121.823 16.2669L119.269 12.5205L119.268 12.5226Z" fill="#4A80A2"/>
<path d="M133.79 19.8224C134.43 19.8059 135.014 19.6889 135.542 19.4722C136.072 19.2556 136.538 18.9312 136.941 18.5C137.343 18.0688 137.657 17.5298 137.88 16.8809C138.103 16.233 138.214 15.4866 138.214 14.6406C138.214 14.3901 138.209 14.1981 138.198 14.0647C138.171 13.4969 138.077 12.8809 137.917 12.2166C137.756 11.5524 137.431 10.8552 136.942 10.1263C136.453 9.39734 135.755 8.81316 134.846 8.37374C135.657 8.5185 136.366 8.87168 136.969 9.43328C137.573 9.99488 138.034 10.6807 138.348 11.4897C138.662 12.2988 138.833 13.1684 138.86 14.0975C138.86 15.1437 138.726 16.0585 138.457 16.8429C138.188 17.6273 137.813 18.2741 137.332 18.7823C136.851 19.2916 136.303 19.6684 135.688 19.9127C135.073 20.1571 134.424 20.2854 133.743 20.2967C132.614 20.2967 131.595 20.0061 130.684 19.425C129.774 18.8439 129.058 18.0369 128.536 17.0051C128.016 15.9733 127.755 14.8316 127.755 13.5801C127.786 12.8121 127.898 12.1437 128.089 11.5739C128.279 11.0041 128.495 10.5421 128.737 10.1889C128.979 9.83574 129.212 9.5534 129.439 9.3419C129.203 9.81521 129.004 10.2567 128.847 10.6684C128.688 11.0801 128.571 11.5154 128.495 11.9743C128.42 12.4333 128.382 12.9466 128.382 13.5133C128.393 14.693 128.625 15.7628 129.08 16.7259C129.534 17.6879 130.168 18.4445 130.986 18.9948C131.802 19.5451 132.737 19.8213 133.79 19.8213V19.8224ZM134.201 7.39941C135.361 7.43843 136.379 7.75773 137.255 8.35937C138.131 8.95998 138.806 9.76901 139.282 10.7875C139.757 11.8049 139.995 12.9312 139.995 14.1663C139.968 15.0616 139.831 15.8306 139.585 16.4733C139.338 17.116 139.074 17.6006 138.795 17.9291C138.516 18.2577 138.25 18.5082 137.998 18.6796C138.75 17.7012 139.191 16.4856 139.32 15.0339C139.342 14.7002 139.352 14.4497 139.352 14.2834C139.352 13.4107 139.223 12.5914 138.962 11.8265C138.701 11.0616 138.337 10.3912 137.87 9.81623C137.403 9.24026 136.846 8.78134 136.202 8.43945C135.557 8.09756 134.886 7.91481 134.187 7.89325C133.182 7.89325 132.36 8.08523 131.72 8.46922C131.081 8.8532 130.602 9.33369 130.282 9.91275C129.962 10.4908 129.75 11.0667 129.645 11.6396C129.54 12.2125 129.488 12.7628 129.488 13.2916C129.553 16 130.619 17.9887 132.687 19.2566C132.064 19.1006 131.512 18.8295 131.031 18.4435C130.55 18.0564 130.15 17.5893 129.83 17.0421C129.511 16.4938 129.266 15.8963 129.097 15.2484C128.928 14.6006 128.844 13.9312 128.844 13.2423C128.865 12.347 129.033 11.462 129.347 10.5893C129.662 9.71665 130.218 8.96613 131.015 8.34088C131.813 7.71563 132.876 7.40248 134.203 7.40248L134.201 7.39941Z" fill="#4A80A2"/>
<path d="M142.719 8.10094C142.435 7.97877 142.235 7.88738 142.123 7.82578V7.43359C142.37 7.53934 142.615 7.6225 142.857 7.6841C143.099 7.7457 143.368 7.79293 143.663 7.82578C143.674 8.00956 143.679 8.28779 143.679 8.66048V12.0978C143.679 13.4941 143.653 14.9305 143.603 16.4069C143.551 17.8832 143.483 19.0506 143.398 19.9068H142.591C142.328 19.9068 142.062 19.9233 141.794 19.9571V19.565C141.827 19.5598 141.855 19.5557 141.878 19.5526C141.902 19.5496 141.931 19.5485 141.963 19.5485C142.027 19.5372 142.079 19.5301 142.115 19.528C142.153 19.5249 142.191 19.5208 142.228 19.5157C142.326 19.488 142.388 19.4725 142.418 19.4695C142.448 19.4664 142.486 19.4602 142.535 19.4489C142.583 19.4376 142.64 19.4263 142.704 19.4161C142.774 18.8822 142.837 18.1851 142.894 17.3257C142.95 16.4664 142.991 15.5999 143.015 14.7272C143.039 13.8545 143.051 13.0167 143.051 12.2159C143.056 12.0208 143.059 11.7252 143.059 11.3278C143.059 10.9305 143.062 10.6338 143.067 10.4397C143.067 9.67794 143.062 9.10505 143.051 8.72107C143.051 8.61018 143.05 8.51983 143.048 8.45002C143.045 8.3802 143.041 8.30423 143.036 8.22107C143.02 8.21594 143.005 8.21183 142.991 8.20875C142.977 8.20567 142.965 8.20464 142.954 8.20464C142.917 8.18205 142.878 8.16152 142.837 8.14201C142.797 8.1225 142.758 8.11018 142.72 8.10402L142.719 8.10094ZM145.225 8.23442H144.862V16.4695C144.867 16.6255 144.871 16.7703 144.874 16.9038C144.877 17.0372 144.878 17.2128 144.878 17.4294V18.7477C144.894 18.8699 144.902 19.068 144.902 19.3401C145.165 19.3514 145.55 19.3565 146.054 19.3565C146.699 19.3514 147.257 19.3052 147.73 19.219C148.203 19.1327 148.555 19.0393 148.786 18.9397C149.017 18.8391 149.2 18.7446 149.335 18.6563C149.335 18.5506 149.334 18.4674 149.331 18.4058C149.328 18.3442 149.324 18.2754 149.319 18.1974C149.324 18.0968 149.328 18.0075 149.331 17.9264C149.334 17.8463 149.335 17.7446 149.335 17.6214H149.681C149.681 18.2559 149.727 18.7149 149.818 18.9982C149.764 19.0259 149.724 19.0516 149.697 19.0732C149.53 19.1235 149.428 19.1512 149.39 19.1563C149.32 19.1789 149.216 19.2066 149.076 19.2395C148.936 19.2723 148.831 19.3011 148.762 19.3227C148.531 19.3617 148.359 19.3976 148.246 19.4315C148.117 19.4592 148.019 19.4818 147.951 19.4982C147.884 19.5146 147.808 19.5321 147.721 19.5485H149.817C149.839 19.6984 149.865 19.835 149.897 19.9571C149.908 20.0126 149.915 20.0629 149.917 20.107C149.92 20.1512 149.924 20.1984 149.929 20.2487C149.934 20.26 149.938 20.2723 149.941 20.2867C149.944 20.3001 149.945 20.3155 149.945 20.3329H149.678C149.629 20.2662 149.587 20.1522 149.549 19.991H149.371C149.301 19.9859 149.237 19.9808 149.178 19.9787C149.119 19.9756 149.043 19.9746 148.952 19.9746C148.753 19.9746 148.605 19.9695 148.509 19.9582C148.427 19.9582 148.309 19.953 148.154 19.9417C147.998 19.9305 147.879 19.9253 147.799 19.9253C147.701 19.914 147.53 19.9089 147.282 19.9089H144.232C144.221 19.6697 144.216 19.3165 144.216 18.8493C144.216 18.6101 144.215 18.4171 144.212 18.2693C144.209 18.1214 144.205 17.9623 144.2 17.7898C144.205 17.6122 144.209 17.4489 144.212 17.3021C144.215 17.1553 144.216 16.9644 144.216 16.7303C144.216 16.5352 144.215 16.3802 144.212 16.2631C144.209 16.1461 144.205 16.0188 144.2 15.8791L144.233 7.82784C144.675 7.82784 145.003 7.81655 145.219 7.79499C145.301 7.7837 145.381 7.77548 145.462 7.77035C145.544 7.76522 145.625 7.75802 145.709 7.74981C145.792 7.7416 145.875 7.73441 145.956 7.72928C146.102 7.69643 146.256 7.67897 146.417 7.67897V8.05475C146.337 8.08247 146.248 8.10504 146.151 8.12147C146.049 8.14919 145.869 8.17692 145.611 8.20464C145.514 8.20464 145.385 8.21593 145.224 8.23749L145.225 8.23442Z" fill="#4A80A2"/>
<path d="M104.878 13.3537C106.098 10.672 108.62 9.50468 110.971 11.595C111.736 12.3691 112.897 12.7706 113.858 12.1125C113.097 12.8958 111.813 12.7285 111.015 12.0848C108.616 9.99236 106.558 10.9236 104.878 13.3537Z" fill="#4A80A2"/>
<path d="M115.817 11.0146C114.597 13.6964 112.075 14.8637 109.724 12.7734C108.959 11.9992 107.798 11.5978 106.837 12.2559C107.599 11.4725 108.882 11.6399 109.68 12.2836C112.079 14.376 114.137 13.4448 115.817 11.0146Z" fill="#4A80A2"/>
<path d="M54.1943 27.2505C53.2949 27.2505 52.56 27.4086 51.9888 27.7259C52.0126 27.9168 52.0235 28.232 52.0235 28.6704H51.7598C51.7598 28.4877 51.7518 28.2895 51.736 28.076C51.7201 27.8624 51.6913 27.6519 51.6477 27.4456C51.8669 27.4004 52.0384 27.3604 52.1634 27.3234C52.2021 27.3152 52.2744 27.2988 52.3806 27.2741C52.4867 27.2495 52.562 27.2331 52.6096 27.2248C52.6721 27.2084 52.7177 27.1961 52.7475 27.1858C52.7772 27.1756 52.8228 27.1632 52.8853 27.1468H51.6477C51.6477 26.9856 51.6279 26.7977 51.5892 26.5801H51.8649C51.8649 26.6612 51.8768 26.7444 51.8996 26.8285C52.3339 26.8614 52.7386 26.8768 53.1134 26.8768L54.6733 26.9004C54.7517 27.6376 54.7963 28.2423 54.8082 28.7156C54.8161 28.8778 54.8231 29.1006 54.829 29.384C54.835 29.6673 54.8399 29.9302 54.8439 30.1735C54.8518 30.3963 54.8598 30.6365 54.8677 30.8932C54.8756 31.1499 54.8796 31.3573 54.8796 31.5154V35.6201C54.6684 35.6488 54.47 35.6858 54.2846 35.732C54.0991 35.7782 53.9375 35.8357 53.8006 35.9055V35.6201C53.8711 35.58 53.9256 35.5503 53.9653 35.5318C54.0039 35.5133 54.0466 35.4938 54.0912 35.4743C54.1358 35.4538 54.1745 35.4363 54.2053 35.4199C54.2251 35.4158 54.2489 35.4055 54.2786 35.3891C54.3084 35.3726 54.3362 35.3583 54.3639 35.347C54.3758 35.3429 54.3857 35.3398 54.3937 35.3377C54.4016 35.3357 54.4115 35.3347 54.4234 35.3347C54.4274 35.2741 54.4304 35.2197 54.4324 35.1704C54.4343 35.1221 54.4353 35.0605 54.4353 34.9876C54.4433 34.6961 54.4472 34.2731 54.4472 33.7176V32.423C54.4472 32.1838 54.4472 31.9219 54.4443 31.6365C54.4423 31.3511 54.4314 30.9137 54.4115 30.3244C54.3917 29.7351 54.3639 29.1632 54.3262 28.6078C54.2886 28.0524 54.2449 27.5996 54.1943 27.2464V27.2505ZM55.3457 26.9035L56.9195 26.8799C56.9582 26.8758 57.1208 26.8696 57.4074 26.8614C57.693 26.8532 57.932 26.8388 58.1244 26.8193C58.1403 26.7146 58.1561 26.6355 58.171 26.5821H58.4358C58.3971 26.7628 58.3773 26.9517 58.3773 27.1489H57.1278C57.1902 27.1612 57.2428 27.1735 57.2864 27.1879C57.3291 27.2023 57.3727 27.2146 57.4153 27.2269C57.454 27.231 57.5264 27.2464 57.6325 27.2731C57.7376 27.2998 57.814 27.3172 57.8616 27.3244C57.9866 27.3614 58.1551 27.4014 58.3664 27.4466C58.3039 27.8809 58.2722 28.2895 58.2722 28.6715H57.9965C57.9965 28.1879 58.0123 27.8727 58.0431 27.7259C57.4798 27.4168 56.7271 27.2628 55.785 27.2628C55.7384 27.6355 55.7087 28.1376 55.6968 28.77V30.1006C55.6968 30.3604 55.6958 30.5708 55.6938 30.733C55.6918 30.8953 55.6888 31.0729 55.6849 31.2679V33.6437C55.6849 33.8624 55.6839 34.039 55.6819 34.1725C55.6799 34.3059 55.6769 34.4538 55.673 34.616C55.6809 34.7577 55.6849 34.9702 55.6849 35.2536C55.9506 35.2823 56.2144 35.3347 56.4772 35.4117L56.4653 35.7217C56.0488 35.6488 55.7483 35.6129 55.5639 35.6129C55.4419 35.6129 55.3497 35.617 55.2872 35.6252C55.2832 35.4548 55.2802 35.2854 55.2783 35.1149C55.2763 34.9445 55.2753 34.7751 55.2753 34.6047C55.2674 34.4989 55.2634 34.346 55.2634 34.1427C55.2634 33.9394 55.2594 33.7926 55.2515 33.6991C55.2515 33.4117 55.2505 33.1796 55.2485 33.0041C55.2465 32.8285 55.2436 32.6365 55.2396 32.4302V29.8552C55.2396 29.7259 55.2396 29.5565 55.2426 29.348C55.2445 29.1396 55.2475 28.9846 55.2515 28.884C55.2515 28.3296 55.2634 27.9107 55.2872 27.6273C55.3031 27.2998 55.3229 27.0585 55.3467 26.9045L55.3457 26.9035Z" fill="#4A80A2"/>
<path d="M59.4205 27.128V26.8179C59.4443 26.8179 59.8072 26.8467 60.5113 26.9031C60.5193 26.9801 60.5252 27.0592 60.5292 27.1403C60.5331 27.2214 60.5391 27.3046 60.547 27.3887C60.555 27.474 60.5609 27.5571 60.5649 27.6372C60.5728 27.8354 60.5808 28.052 60.5887 28.2871C60.5966 28.5222 60.6006 28.708 60.6006 28.8456C60.6085 29.1454 60.6125 29.6085 60.6125 30.2358V31.2676C60.6085 31.3928 60.6065 31.5828 60.6065 31.8353C60.6065 32.0879 60.6046 32.2778 60.6006 32.4031C60.6006 32.5407 60.5966 32.7512 60.5887 33.0345C60.5808 33.3179 60.5768 33.5283 60.5768 33.6659V34.5889C60.5768 34.8199 60.5758 35.0058 60.5738 35.1474C60.5718 35.2891 60.5689 35.4472 60.5649 35.6207C60.4984 35.6125 60.4003 35.6084 60.2713 35.6084C60.072 35.6084 59.7646 35.6443 59.3501 35.7172L59.3382 35.4072C59.5494 35.3466 59.8211 35.2943 60.1533 35.2491V33.6279C60.1454 33.3487 60.1414 32.9175 60.1414 32.3343V30.0633C60.1414 29.4647 60.1375 29.015 60.1295 28.7152C60.1295 28.5571 60.1246 28.3805 60.1147 28.1844C60.1047 27.9883 60.0958 27.8271 60.0879 27.7019C60.0799 27.5766 60.073 27.4678 60.0671 27.3774C60.0611 27.2861 60.0581 27.2327 60.0581 27.2163C59.8152 27.1834 59.6029 27.1536 59.4185 27.1249L59.4205 27.128ZM62.4917 32.2162C62.2537 32.208 61.9066 32.1741 61.4495 32.1125C61.4257 32.36 61.4148 32.6043 61.4148 32.8477C61.4187 32.9893 61.4217 33.1207 61.4237 33.2419C61.4257 33.363 61.4267 33.5191 61.4267 33.709V34.9596C61.4346 35.016 61.4405 35.0643 61.4445 35.1023C61.4485 35.1413 61.4515 35.1772 61.4534 35.2111C61.4554 35.246 61.4584 35.283 61.4624 35.323C61.4782 35.3394 61.4931 35.3476 61.509 35.3476C61.5516 35.3641 61.6052 35.3887 61.6676 35.4205C61.7381 35.4565 61.8828 35.5242 62.102 35.6207V35.9062C61.7777 35.7645 61.4078 35.669 60.9933 35.6207C60.9854 35.4791 60.9814 35.2727 60.9814 35.0016V32.4996C60.9814 32.2727 60.9814 32.0232 60.9844 31.7501C60.9863 31.477 60.9953 31.013 61.0111 30.36C61.027 29.706 61.0498 29.0315 61.0816 28.3354C61.1123 27.6393 61.1361 27.1413 61.152 26.8415L61.51 26.8292C61.5605 26.821 61.629 26.8169 61.7152 26.8169C62.2309 26.7563 62.5463 26.7235 62.6633 26.7194C62.7059 26.7152 62.7456 26.7122 62.7803 26.7101C62.815 26.708 62.8606 26.707 62.9152 26.707C63.6193 26.707 64.2073 26.8508 64.6784 27.1382C65.1495 27.4257 65.4965 27.7963 65.7167 28.2491C65.9378 28.7029 66.0479 29.1659 66.0479 29.6392C66.04 30.206 65.8655 30.7265 65.5243 31.1998C65.1832 31.6731 64.7201 31.9411 64.1359 32.0017C64.4721 31.8682 64.8034 31.6269 65.1296 31.2789C65.4559 30.9308 65.6215 30.3918 65.6255 29.6639C65.6255 28.6393 65.3359 27.9483 64.7558 27.59C64.1756 27.2317 63.5419 27.053 62.8547 27.053C62.6554 27.053 62.5304 27.0571 62.4798 27.0653C62.1913 27.0859 61.9275 27.1485 61.6895 27.2532C61.6151 27.7306 61.5566 28.4411 61.5139 29.3846C61.4713 30.3282 61.4495 31.1136 61.4495 31.7409C61.8362 31.8343 62.2825 31.8928 62.7902 31.9175C62.821 31.9616 62.8775 32.0458 62.9568 32.169C63.0372 32.2922 63.1096 32.4031 63.176 32.4996C63.2266 32.5684 63.3277 32.7234 63.4804 32.9637C63.6322 33.2049 63.767 33.4185 63.8841 33.6043C64.0447 33.8271 64.1945 34.0273 64.3333 34.2049C64.4721 34.3836 64.6249 34.5622 64.7915 34.7419C64.9581 34.9216 65.1336 35.0961 65.317 35.2645C65.5015 35.4329 65.7167 35.6094 65.9636 35.7963C65.6433 35.707 65.3488 35.5766 65.081 35.4051C64.8133 35.2327 64.5515 35.0099 64.2946 34.7337C64.0388 34.4585 63.775 34.1269 63.5023 33.7378C63.2305 33.3487 62.8934 32.8415 62.4907 32.2142L62.4917 32.2162ZM64.5207 33.8189L63.1889 31.8025C63.4973 31.7173 63.775 31.5735 64.0229 31.3713C64.2708 31.169 64.4652 30.9175 64.605 30.6187C64.7458 30.3189 64.8212 29.9976 64.8331 29.6536C64.8331 29.0551 64.6665 28.5746 64.3323 28.2142C63.9981 27.8538 63.6014 27.6095 63.1413 27.4791C63.419 27.4791 63.6877 27.5253 63.9455 27.6187C64.2044 27.7122 64.4275 27.8456 64.6149 28.0191C64.8034 28.1937 64.9561 28.4134 65.0731 28.6814C65.1911 28.9483 65.2516 29.244 65.2556 29.5674C65.2556 29.9483 65.1911 30.2943 65.0612 30.6054C64.9313 30.9175 64.7518 31.1824 64.5227 31.4011C64.2926 31.6197 64.0308 31.7922 63.7363 31.9175L65.1812 34.0304C65.326 34.245 65.5184 34.478 65.7564 34.7286C65.9954 34.9801 66.275 35.1977 66.5963 35.3846C66.9176 35.5704 67.2598 35.6659 67.6247 35.67V35.9072C67.1824 35.9072 66.756 35.7901 66.3454 35.555C65.9349 35.3199 65.5769 35.0458 65.2714 34.7327C64.966 34.4195 64.7161 34.1146 64.5207 33.8189Z" fill="#4A80A2"/>
<path d="M73.9309 32.4537H70.3648C70.1456 33.0975 70.0048 33.6314 69.9423 34.0564C69.8798 34.4815 69.8481 34.8839 69.8481 35.2648C69.9929 35.2936 70.2884 35.3295 70.7337 35.3736V35.6837C70.214 35.6437 69.7936 35.6231 69.4723 35.6231L69.7946 33.4732L69.026 35.5985C68.6462 35.6837 68.3358 35.7864 68.0938 35.9086V35.5985C68.2029 35.5739 68.4221 35.4989 68.7503 35.3736C68.7741 35.3254 68.791 35.2864 68.8029 35.2587C68.8148 35.2299 68.8336 35.194 68.8614 35.1498C68.8961 35.0646 68.9804 34.8706 69.1133 34.5667C69.1638 34.4332 69.2204 34.2936 69.2838 34.1478C69.3463 34.002 69.3929 33.8891 69.4247 33.8079C69.4633 33.7227 69.5714 33.462 69.747 33.0246C69.7708 32.9681 69.7886 32.9219 69.8025 32.888C69.8164 32.8542 69.8312 32.8162 69.8461 32.7761L71.8107 26.8922C71.7323 26.884 71.6133 26.8798 71.4527 26.8798C71.3475 26.8798 71.2672 26.8716 71.2127 26.8552C71.1343 26.8552 71.0391 26.8511 70.9251 26.8429C70.812 26.8347 70.7476 26.8306 70.7317 26.8306V26.5205H71.9931C72.1538 26.8603 72.2837 27.156 72.3829 27.4065C72.483 27.6571 72.5812 27.923 72.6794 28.2022C72.7766 28.4815 72.8648 28.7248 72.9432 28.9312L75.5235 35.6221C75.226 35.6221 74.755 35.7176 74.1104 35.9075V35.5975C74.3454 35.5615 74.5973 35.4866 74.867 35.3726C74.8472 35.312 74.8274 35.2463 74.8055 35.1755C74.7837 35.1047 74.7679 35.0513 74.756 35.0143C74.7212 34.8367 74.6558 34.5913 74.5626 34.2792C74.4922 34.0328 74.394 33.732 74.269 33.3778C74.1441 33.0236 74.03 32.7145 73.9289 32.4517L73.9309 32.4537ZM70.5056 32.0164H73.7841L71.9951 27.5657L70.5056 32.0164ZM72.9451 26.5215C73.0037 26.6838 73.1484 27.0759 73.3795 27.6991C73.6879 28.5821 73.9487 29.2956 74.16 29.8429C74.2224 30.0174 74.3127 30.2536 74.4297 30.5533C74.5467 30.8531 74.6637 31.154 74.7788 31.4548C74.8938 31.7566 74.9831 31.9938 75.0455 32.1683C75.0654 32.2166 75.1695 32.4928 75.3589 32.9969C75.5483 33.501 75.708 33.9291 75.8369 34.2812C75.95 34.5318 76.0868 34.8603 76.2475 35.2648C76.3337 35.2813 76.3942 35.2977 76.4289 35.3131C76.5231 35.3295 76.5906 35.3377 76.6342 35.3377C76.7284 35.3541 76.8008 35.3624 76.8514 35.3624C76.8712 35.3624 76.8871 35.3624 76.898 35.3654C76.9099 35.3675 76.9218 35.3706 76.9337 35.3747V35.6847C76.9218 35.6806 76.9049 35.6776 76.8841 35.6755C76.8623 35.6734 76.8405 35.6714 76.8167 35.6693C76.7929 35.6673 76.776 35.6642 76.7641 35.6601C76.6937 35.6519 76.6362 35.6447 76.5916 35.6385C76.546 35.6324 76.4964 35.6272 76.4418 35.6231H75.9371C75.8349 35.3644 75.7496 35.1355 75.6792 34.9373C75.6088 34.7392 75.5463 34.5728 75.4918 34.4394C75.4372 34.2854 75.3718 34.116 75.2954 33.9291C75.2191 33.7433 75.1467 33.5626 75.0783 33.3891C75.0098 33.2156 74.9474 33.0554 74.8908 32.9096C74.8343 32.7638 74.7589 32.5739 74.6647 32.3388C74.508 31.9342 74.396 31.6416 74.3276 31.4609C74.2591 31.2813 74.1907 31.1016 74.1223 30.924C74.0538 30.7464 73.9418 30.4548 73.7851 30.0492C73.4291 29.1262 73.1613 28.4014 72.9818 27.8757C72.9114 27.6735 72.8549 27.5092 72.8113 27.384C72.7686 27.2587 72.725 27.1345 72.6823 27.0102C72.6397 26.887 72.5822 26.7238 72.5118 26.5215H72.9461H72.9451Z" fill="#4A80A2"/>
<path d="M81.2089 35.9087C81.1772 35.8152 81.0403 35.4395 80.7984 34.7793C80.4185 33.7228 80.1627 33.0308 80.0298 32.7023C79.9673 32.536 79.8781 32.3091 79.763 32.0196C79.648 31.73 79.532 31.4395 79.4169 31.1479C79.3019 30.8563 79.2126 30.6274 79.1502 30.4621C79.0639 30.2311 78.9727 29.9857 78.8745 29.7239C78.7763 29.4631 78.694 29.2383 78.6256 29.0504C78.5571 28.8625 78.4719 28.6448 78.3707 28.3974C78.2844 28.1993 78.2071 28.0196 78.1386 27.8605C78.0702 27.7003 78.0127 27.5699 77.9651 27.4693C77.9334 27.457 77.9046 27.4446 77.8768 27.4333C77.8491 27.421 77.8223 27.4149 77.7945 27.4149C77.7747 27.4108 77.7063 27.3984 77.5893 27.3789C77.5149 27.3789 77.4425 27.3666 77.3721 27.343H77.2898V27.0453C77.3284 27.0453 77.3612 27.0463 77.3869 27.0483C77.4127 27.0504 77.4405 27.0535 77.4722 27.0576C77.5426 27.0658 77.6031 27.074 77.6537 27.0822C77.7043 27.0904 77.7509 27.0945 77.7945 27.0945C77.9314 27.1027 78.092 27.1069 78.2755 27.1069C78.4163 27.4672 78.5651 27.8533 78.7218 28.267C78.812 28.5021 78.9072 28.7424 79.0093 28.9898C79.1115 29.2372 79.1948 29.4405 79.2612 29.5997C79.3277 29.7598 79.4199 29.9888 79.5369 30.2886C79.6698 30.6048 79.8096 30.96 79.9564 31.3543C80.1032 31.7485 80.247 32.1325 80.3878 32.5052C80.8063 33.5822 81.074 34.2865 81.1911 34.6181C81.3666 35.0873 81.5193 35.5185 81.6482 35.9117H81.2079L81.2089 35.9087ZM82.1649 34.9128L83.8716 29.806C84.1374 29.0494 84.2702 28.2701 84.2702 27.4682C84.176 27.4395 83.8835 27.3974 83.3906 27.3409V27.0432C83.9103 27.0832 84.3228 27.1038 84.6282 27.1038L84.3178 29.1931L85.0745 27.1284C85.4424 27.0432 85.7469 26.9405 85.9898 26.8184V27.1284C85.8688 27.1613 85.7498 27.1972 85.6318 27.2372C85.5148 27.2773 85.4206 27.3122 85.3502 27.3409C85.3264 27.3892 85.3085 27.4303 85.2947 27.4621C85.2808 27.4949 85.2639 27.5288 85.2451 27.5658C85.2173 27.6305 85.1796 27.7167 85.131 27.8235C85.0824 27.9303 85.0358 28.0309 84.9932 28.1243C84.8058 28.5411 84.6917 28.7906 84.653 28.8707C84.5906 29.0329 84.5231 29.2023 84.4507 29.381C84.3783 29.5596 84.3188 29.7167 84.2722 29.8543L82.2898 35.9087H82.1312C82.0806 35.767 82.0409 35.6633 82.0142 35.5986C81.9676 35.4775 81.9219 35.3594 81.8793 35.2464C81.8366 35.1335 81.789 35.0134 81.7385 34.8881C81.6879 34.7711 81.6403 34.6623 81.5977 34.5637C81.555 34.4641 81.4995 34.3399 81.433 34.19C81.3468 33.9395 81.2724 33.7362 81.2099 33.5832L78.6702 27.1048C78.9013 27.1007 79.168 27.0596 79.4705 26.9806C79.7729 26.9015 79.9753 26.8481 80.0774 26.8194V27.1294C79.8463 27.1541 79.5984 27.2249 79.3326 27.342C79.3445 27.382 79.3574 27.4344 79.3703 27.497C79.3842 27.5596 79.403 27.6274 79.4259 27.7003C79.4685 27.8861 79.533 28.1192 79.6192 28.3984C79.7363 28.7834 79.8325 29.0648 79.9068 29.2424L82.1649 34.9138V34.9128Z" fill="#4A80A2"/>
<path d="M87.2968 35.6229C87.4218 35.5706 87.5665 35.5038 87.7312 35.4227C87.7698 35.4063 87.8016 35.3929 87.8254 35.3837C87.8492 35.3734 87.874 35.3621 87.9017 35.3498C87.9255 35.3498 87.9444 35.3416 87.9602 35.3252C87.9682 35.2359 87.9731 35.1681 87.9751 35.1219C87.9771 35.0757 87.9801 35.0213 87.984 34.9607V32.4166C87.984 32.1979 87.9781 31.779 87.9662 31.1599C87.9543 30.5408 87.9414 30.0634 87.9285 29.7266C87.9146 29.3909 87.8908 28.9741 87.8581 28.4761C87.8254 27.9782 87.7827 27.5552 87.7322 27.2072C87.6975 27.1907 87.5775 27.1568 87.3742 27.1035C87.3424 27.0952 87.3117 27.0901 87.28 27.0881C87.2482 27.086 87.2155 27.0829 87.1798 27.0788C87.1639 27.0747 87.1471 27.0716 87.1302 27.0696C87.1124 27.0675 87.0886 27.0665 87.0568 27.0665V26.7811C87.0995 26.7811 87.1976 26.7872 87.3504 26.7996C87.5031 26.8119 87.5983 26.818 87.638 26.818H88.224C88.232 26.8468 88.2538 27.1343 88.2915 27.6805C88.3282 28.2267 88.3629 28.9248 88.3936 29.7718C88.4253 30.6199 88.4402 31.5295 88.4402 32.5008V35.0028C88.4402 35.1363 88.4402 35.2472 88.4373 35.3334C88.4353 35.4207 88.4323 35.5161 88.4283 35.6219C88.0098 35.6702 87.633 35.7656 87.2958 35.9073V35.6219L87.2968 35.6229ZM89.2435 30.4977H90.1112C90.4434 30.4977 90.8292 30.4823 91.2665 30.4525C91.7049 30.4217 92.051 30.3848 92.3048 30.3406C92.3048 30.3242 92.3088 30.2985 92.3167 30.2616C92.3247 30.2256 92.3286 30.201 92.3286 30.1887C92.3405 30.0952 92.3574 30.009 92.3812 29.9279C92.3891 29.9074 92.3951 29.8889 92.399 29.8704C92.403 29.8519 92.408 29.8303 92.4139 29.8036C92.4199 29.777 92.4248 29.7523 92.4288 29.7277H92.7283C92.7005 29.8129 92.6777 29.9751 92.6579 30.2133C92.6499 30.2821 92.646 30.3817 92.646 30.511C92.646 30.5357 92.642 30.5696 92.6341 30.6147C92.6261 30.6589 92.6222 30.6958 92.6222 30.7236H90.974C91.6384 30.8406 92.1878 30.9782 92.6222 31.1363C92.6222 31.4679 92.6569 31.8006 92.7273 32.1322H92.3812C92.3306 31.9053 92.3048 31.6568 92.3048 31.3858C91.9726 31.2277 91.5898 31.1137 91.1584 31.0429C90.7261 30.972 90.377 30.9361 90.1112 30.9361H89.2435V35.2656H90.2639C90.5495 35.2656 90.8114 35.2533 91.0503 35.2297C91.2893 35.2051 91.5878 35.1476 91.9478 35.0562C92.3078 34.9648 92.6966 34.8344 93.115 34.665C93.115 34.5675 93.119 34.4925 93.1269 34.4402C93.1269 34.3272 93.1309 34.24 93.1388 34.1794C93.1468 34.0541 93.1706 33.9104 93.2092 33.7482H93.4502V34.9381C93.3957 34.9669 93.3431 34.9874 93.2945 35.0018C93.2459 35.0161 93.1894 35.0336 93.1269 35.0531C92.9236 35.1178 92.7551 35.1589 92.6222 35.1743C92.5438 35.1907 92.4566 35.2102 92.3614 35.2348C92.2652 35.2595 92.167 35.2769 92.0648 35.2893C91.9558 35.3139 91.7872 35.3334 91.5601 35.3498H93.4482C93.4482 35.4145 93.4443 35.4648 93.4363 35.5018V35.7995C93.4443 35.8242 93.4482 35.8601 93.4482 35.9083H93.1488C93.1408 35.8837 93.1369 35.8354 93.1369 35.7626V35.6229H88.8557V26.818H91.0166C91.1188 26.8139 91.21 26.8109 91.2923 26.8088C91.3746 26.8067 91.4807 26.8057 91.6097 26.8057H92.2086C92.2671 26.8057 92.3594 26.8016 92.4843 26.7934C92.6093 26.7852 92.7015 26.7811 92.76 26.7811H92.9891C92.9931 26.7647 93.002 26.7421 93.0159 26.7113C93.0298 26.6805 93.0446 26.6456 93.0595 26.6045H93.2886C93.2499 26.7256 93.2182 26.9125 93.1944 27.163L91.4639 27.0172C92.289 27.1835 92.8463 27.3447 93.1359 27.5028C93.1319 27.5316 93.1289 27.5562 93.1269 27.5788C93.125 27.6014 93.12 27.6281 93.1121 27.6609C93.0962 27.7133 93.0784 27.8047 93.0595 27.934C93.0476 28.0839 93.0317 28.2092 93.0129 28.3108H92.7253C92.7094 28.2421 92.7015 28.1343 92.7015 27.9895C92.7015 27.8807 92.7094 27.7934 92.7253 27.7287C92.3187 27.4977 91.9002 27.3478 91.4698 27.279C91.0394 27.2102 90.5724 27.1722 90.0686 27.164H89.3883C89.3684 27.3991 89.3565 27.5367 89.3536 27.5768C89.3337 27.779 89.3159 28.0644 89.301 28.433C89.2851 28.7646 89.2772 29.0141 89.2772 29.1794C89.2613 29.2564 89.2534 29.3817 89.2534 29.5562C89.2455 29.5891 89.2415 29.6455 89.2415 29.7266V30.4977H89.2435Z" fill="#4A80A2"/>
<path d="M95.0915 27.0315C94.8842 26.9422 94.7395 26.8755 94.6571 26.8313V26.5459C94.8366 26.6229 95.0151 26.6835 95.1907 26.7276C95.3662 26.7718 95.5626 26.8067 95.7768 26.8313C95.7847 26.9648 95.7887 27.1671 95.7887 27.4381V29.9401C95.7887 30.9566 95.7698 32.0017 95.7331 33.0767C95.6954 34.1516 95.6459 35.0007 95.5834 35.6239H94.9973C94.8059 35.6239 94.6125 35.6362 94.4172 35.6598V35.3744C94.441 35.3703 94.4608 35.3672 94.4786 35.3652C94.4965 35.3631 94.5163 35.3621 94.5401 35.3621C94.5867 35.3539 94.6244 35.3487 94.6512 35.3467C94.679 35.3446 94.7057 35.3415 94.7335 35.3374C94.8039 35.3169 94.8495 35.3066 94.8713 35.3036C94.8932 35.3015 94.9209 35.2964 94.9566 35.2882C94.9923 35.2799 95.033 35.2717 95.0796 35.2635C95.1302 34.8744 95.1768 34.3682 95.2174 33.742C95.2581 33.1157 95.2879 32.4863 95.3057 31.8508C95.3236 31.2153 95.3325 30.6065 95.3325 30.0233C95.3365 29.8816 95.3384 29.666 95.3384 29.3765C95.3384 29.087 95.3404 28.8714 95.3444 28.7297C95.3444 28.1753 95.3404 27.7584 95.3325 27.4792C95.3325 27.398 95.3325 27.3323 95.3295 27.282C95.3275 27.2317 95.3246 27.1753 95.3206 27.1147C95.3087 27.1106 95.2978 27.1075 95.2879 27.1055C95.2779 27.1034 95.269 27.1024 95.2611 27.1024C95.2333 27.0859 95.2055 27.0716 95.1758 27.0572C95.147 27.0428 95.1183 27.0336 95.0905 27.0295L95.0915 27.0315ZM96.9152 27.1291H96.6514V33.1218C96.6554 33.2348 96.6584 33.3405 96.6604 33.4381C96.6623 33.5356 96.6633 33.6629 96.6633 33.821V34.78C96.6752 34.8693 96.6812 35.013 96.6812 35.2112C96.8726 35.2194 97.1522 35.2235 97.5201 35.2235C97.9892 35.2194 98.3958 35.1865 98.7399 35.1229C99.084 35.0602 99.3399 34.9925 99.5085 34.9196C99.6771 34.8467 99.81 34.7779 99.9071 34.7132C99.9071 34.6362 99.9071 34.5756 99.9042 34.5315C99.9022 34.4873 99.8992 34.436 99.8952 34.3795C99.8992 34.3066 99.9022 34.2409 99.9042 34.1824C99.9061 34.1239 99.9071 34.05 99.9071 33.9606H100.159C100.159 34.4227 100.192 34.7563 100.258 34.9627C100.22 34.9832 100.19 35.0017 100.17 35.0171C100.049 35.053 99.9746 35.0736 99.9468 35.0777C99.8962 35.0941 99.8199 35.1136 99.7177 35.1383C99.6156 35.1629 99.5402 35.1824 99.4886 35.1988C99.3201 35.2276 99.1951 35.2533 99.1128 35.2779C99.0186 35.2984 98.9472 35.3138 98.8986 35.3261C98.85 35.3385 98.7935 35.3508 98.731 35.3621H100.256C100.272 35.4709 100.292 35.5705 100.315 35.6598C100.323 35.6999 100.328 35.7368 100.33 35.7686C100.332 35.8005 100.335 35.8354 100.339 35.8723C100.342 35.8806 100.345 35.8898 100.347 35.9001C100.349 35.9103 100.35 35.9216 100.35 35.934H100.157C100.121 35.8857 100.091 35.8025 100.063 35.6855H99.9339C99.8833 35.6814 99.8357 35.6783 99.7931 35.6763C99.7504 35.6742 99.6949 35.6732 99.6285 35.6732C99.4837 35.6732 99.3756 35.6691 99.3052 35.6608C99.2467 35.6608 99.1604 35.6567 99.0464 35.6485C98.9323 35.6403 98.847 35.6362 98.7875 35.6362C98.7171 35.628 98.5922 35.6239 98.4117 35.6239H96.1913C96.1833 35.4504 96.1794 35.1927 96.1794 34.8528C96.1794 34.6793 96.1784 34.5387 96.1764 34.4309C96.1744 34.3241 96.1715 34.2071 96.1675 34.0818C96.1715 33.9524 96.1744 33.8333 96.1764 33.7266C96.1784 33.6198 96.1794 33.4802 96.1794 33.3108C96.1794 33.1691 96.1784 33.0561 96.1764 32.9709C96.1744 32.8857 96.1715 32.7933 96.1675 32.6917L96.1913 26.8323C96.5126 26.8323 96.7526 26.8241 96.9093 26.8077C96.9678 26.7995 97.0273 26.7933 97.0858 26.7892C97.1443 26.7851 97.2048 26.78 97.2653 26.7738C97.3258 26.7677 97.3863 26.7625 97.4448 26.7584C97.5509 26.7338 97.6629 26.7225 97.78 26.7225V26.9956C97.7215 27.0161 97.657 27.0315 97.5866 27.0438C97.5122 27.0644 97.3813 27.0839 97.1939 27.1044C97.1235 27.1044 97.0293 27.1126 96.9122 27.1291H96.9152Z" fill="#4A80A2"/>
</g>
<defs>
<linearGradient id="paint0_linear_2236_22589" x1="20.5316" y1="19.5848" x2="20.5316" y2="0.265625" gradientUnits="userSpaceOnUse">
<stop stop-color="#EFDC24"/>
<stop offset="1" stop-color="#F4B330"/>
</linearGradient>
<clipPath id="clip0_2236_22589">
<rect width="150" height="43.097" fill="white"/>
</clipPath>
</defs>
</svg>
