<svg width="150" height="44" viewBox="0 0 150 44" fill="none" xmlns="http://www.w3.org/2000/svg">
<g clip-path="url(#clip0_2346_28843)">
<path d="M40.89 16.3501C39.6949 13.3031 37.7715 10.9685 34.841 9.54977C34.4219 9.34697 33.9311 9.36331 33.5265 9.59292C32.2108 10.3404 31.0383 11.3112 30.062 12.4538C29.8055 12.1379 27.9185 9.84725 26.4806 9.05786C26.2913 8.95353 26.072 8.82784 25.8337 8.68873C24.4832 7.89808 22.5173 6.64863 21.766 6.16846C21.5734 6.04527 21.3294 6.04108 21.1308 6.15421C20.8682 6.30379 20.6096 6.46008 20.356 6.62181C18.2464 7.96847 16.4351 9.73999 15.0429 11.8153C13.6447 10.4175 11.8758 9.38845 9.89575 8.88859C9.47053 8.78133 9.01739 8.89445 8.69615 9.19278C5.46753 12.1882 2.77702 15.9458 0.173096 19.5848C0.173096 15.7673 1.6288 11.995 3.69423 9.09641C7.49897 3.7521 13.7507 0.265625 20.8192 0.265625C20.8747 0.265625 20.9305 0.265625 20.9859 0.266882C25.3595 0.300821 29.4139 1.66801 32.7614 3.98339C34.4579 5.15574 35.9719 6.57153 37.2552 8.18006C39.1697 10.5801 40.5809 13.2801 40.89 16.3501Z" fill="url(#paint0_linear_2346_28843)"/>
<path d="M11.8791 13.0412C12.0195 12.8309 11.9305 12.5627 10.7224 12.4718C10.7079 12.4705 10.6925 12.4705 10.6779 12.4718C9.08829 12.5828 9.24608 13.7678 9.42248 14.3497C9.5034 14.6166 9.71379 14.8274 9.98203 14.9053C10.5262 15.0637 11.6166 15.0403 13.4805 13.6978C13.5837 13.6236 13.7253 13.6316 13.82 13.7162C13.9502 13.8327 14.1193 13.8972 14.2941 13.8972H14.9467C15.0726 13.8972 15.1931 13.8486 15.2838 13.7619L21.1029 8.18295C21.3433 7.9525 21.7082 7.91269 21.9938 8.0849C22.4765 8.37568 23.2258 8.8768 23.8501 9.512C24.0172 9.68212 24.0548 9.93854 23.9411 10.148C23.6292 10.7225 23.3245 11.5534 22.9001 12.1039C22.5712 12.5309 21.9619 12.6256 21.5221 12.313C21.4298 12.2472 21.3364 12.1785 21.2377 12.1169C21.0475 11.9979 20.9043 11.8102 20.8614 11.5907C20.8242 11.3992 20.8557 11.1813 21.1078 11.0401C21.2648 10.9521 21.4525 10.9337 21.6289 10.9701C22.2362 11.095 22.604 11.0895 22.8176 11.0556C23.0077 11.0254 23.1469 10.862 23.1384 10.6701C23.1259 10.3885 22.9098 9.99846 21.845 9.92597C20.4115 9.82835 20.1182 10.8419 20.0615 11.1616C20.0494 11.2312 20.0324 11.2986 20.0138 11.3669C19.9709 11.5253 19.9062 11.8479 19.9329 12.2975C19.9713 12.9532 21.9805 13.3773 21.9805 13.3773C21.9805 13.3773 22.8305 13.6085 23.3326 12.934C23.7105 12.4261 24.5148 11.3728 24.8899 10.8821C24.9963 10.7426 25.201 10.7279 25.3268 10.8503L27.5808 13.0442C28.2718 13.7166 29.0418 14.3058 29.8833 14.7775C31.1379 15.4815 32.9343 16.2046 34.744 15.96C35.4213 15.8686 36.0306 15.4664 36.3369 14.8567C36.4959 14.5404 36.5529 14.224 36.5606 13.9483C36.576 13.3844 36.2297 12.8682 35.7033 12.6629C35.2198 12.4747 34.5114 12.3511 33.6282 12.6252C32.6017 12.944 32.5111 13.5654 32.6094 14.0208C32.7077 14.4771 33.1172 14.8157 33.5821 14.7671C33.8738 14.7365 34.2015 14.5634 34.4673 14.0581C34.5502 13.9002 34.6526 13.751 34.7788 13.6245C35.4027 12.9981 35.8304 13.5314 35.8304 13.5314C35.8304 13.5314 36.5016 14.1558 34.8865 15.1174C33.7928 15.7685 32.5172 15.2728 31.8067 14.8848C31.4677 14.6996 31.3131 14.2986 31.441 13.9345C31.6886 13.2293 32.2113 12.0469 33.1504 11.1591C33.3879 10.9345 33.7338 10.8679 34.0429 10.9747C35.7033 11.5471 40.9775 13.9098 41.2704 20.8978C41.2858 21.2682 41.1118 21.6219 40.8112 21.8389C40.2857 22.2185 39.2617 22.811 37.4536 23.3695C37.2877 23.4206 37.1056 23.3599 37.0101 23.2149C36.9365 23.1034 36.8511 22.9488 36.7714 22.7435C36.6881 22.5286 36.5877 22.3203 36.4611 22.1272C36.1706 21.6839 36.0262 21.2699 35.9635 21.0504C35.9538 21.0168 35.9991 20.9963 36.0189 21.0248L37.0041 22.4335C37.0502 22.4997 37.1469 22.5039 37.1987 22.4418L37.3476 22.2646C37.4718 22.1167 37.4993 21.9114 37.4184 21.7367C37.0291 20.8957 35.7523 18.5657 33.7491 19.0651C32.0503 19.4435 31.0938 18.895 30.8361 18.7144C30.7588 18.6604 30.6799 18.6089 30.5966 18.5644C30.0901 18.295 28.5712 17.6242 27.8531 18.8192L27.491 18.7614C27.491 18.7614 27.4805 18.8674 27.5594 19.0706C27.5861 19.1389 27.601 19.2126 27.5958 19.286C27.5602 19.7724 27.7823 20.0888 27.9733 20.2677C28.1755 20.4575 28.2945 20.721 28.3176 20.9971C28.32 21.0281 28.322 21.0592 28.3236 21.0906C28.3305 21.2406 28.4527 21.36 28.6032 21.3675C28.8196 21.378 29.079 21.3839 29.0705 21.3499C29.0559 21.2921 28.8965 20.3812 29.1862 19.976C29.3804 19.7045 29.4314 20.5522 29.4439 21.1396C29.4508 21.466 29.3675 21.7882 29.2012 22.0694L28.0829 23.9632C28.0356 24.0437 28.0072 24.1338 28.0012 24.2268C27.9923 24.3592 27.9858 24.536 28.0129 24.5452C28.0562 24.5599 28.4329 24.5599 28.6214 24.386C28.7905 24.2301 29.2287 22.6275 30.1455 22.1037C30.3632 21.9793 30.6358 21.9713 30.8519 22.0983C31.2435 22.3283 31.335 22.7875 31.3471 23.1089C31.356 23.3469 31.4742 23.5669 31.6655 23.7085L32.4844 24.3148C32.5338 24.3512 32.5139 24.4287 32.4533 24.4367C31.6417 24.5393 28.0194 24.9516 25.1298 24.5507L21.1313 23.6117C20.8254 23.54 20.6089 23.2681 20.6069 22.9547L20.5964 20.9762C20.5956 20.8497 20.5721 20.7248 20.5256 20.6071C20.4188 20.3372 20.1825 19.8952 19.7731 19.8545C19.6043 19.8378 19.4401 19.9383 19.3911 20.1005C19.3596 20.2057 19.3507 20.3502 19.4085 20.5404C19.4332 20.6226 19.5117 20.6766 19.5979 20.6766H19.6019C19.6861 20.6766 19.7577 20.615 19.7698 20.5321L19.7872 20.4147C19.7994 20.333 19.8993 20.297 19.9588 20.3548C20.123 20.5145 20.316 20.8061 19.8827 21.0457C19.8107 21.0855 19.7286 21.1036 19.6468 21.1036H19.5166C19.362 21.1036 19.2159 21.034 19.1209 20.9129C18.9101 20.6452 18.6143 20.1319 18.9016 19.6086C19.0023 19.4251 19.1654 19.2834 19.3531 19.1904C19.3592 19.1875 19.3652 19.1846 19.3713 19.1812C19.6173 19.0618 19.8896 19.0065 20.1627 19.0077L21.9461 19.0165C22.5056 19.0191 22.9681 19.4515 23.0081 20.0083C23.0688 20.8501 23.136 22.0417 23.0972 22.8072C23.0883 22.9849 23.2667 23.1122 23.4334 23.0481L24.5743 22.609C24.79 22.5261 24.953 22.3451 25.0129 22.1221L25.7703 19.301C25.8682 18.9369 25.7824 18.5489 25.5413 18.259C24.4974 17.0028 21.4731 13.7171 18.5625 13.9358C15.8316 14.1411 13.1115 16.7749 11.9641 18.0264C11.6032 18.4199 11.4487 18.9591 11.5462 19.4837L11.9281 21.5372C11.9601 21.7082 11.8108 21.8573 11.6396 21.8259C10.3563 21.5896 5.79818 20.9682 1.19802 22.9782C-0.112041 23.3553 -0.10233 22.4867 0.103605 21.7538C0.231859 21.2967 0.446291 20.8685 0.719388 20.4801C1.78669 18.9629 5.80506 13.4715 9.93348 10.6668C10.1422 10.5251 10.4012 10.4732 10.646 10.5356C11.1379 10.6613 12.0038 11.0091 12.8384 11.9698C13.0363 12.1974 13.0116 12.5426 12.7899 12.7467L11.6501 13.7958C11.4191 14.0083 11.1108 14.1281 10.7981 14.1C10.5978 14.082 10.3866 14.0041 10.2236 13.8009C9.95168 13.4615 10.281 13.244 10.5654 13.1288C10.8066 13.0312 11.0801 13.0358 11.3107 13.1556L11.3334 13.1673C11.5219 13.2662 11.7626 13.2185 11.8808 13.0416L11.8791 13.0412Z" fill="#69B9DC"/>
<path d="M31.848 21.7205C32.098 21.7163 32.7502 21.6442 33.6759 21.0987C33.739 21.0614 33.8207 21.0756 33.8644 21.1347C33.9923 21.3086 34.2184 21.7465 34.2455 22.69C34.2484 22.7843 34.214 22.8761 34.1492 22.9448C33.9591 23.1468 33.5488 23.6332 33.4068 24.2035C33.3987 24.2366 33.355 24.2437 33.338 24.2139L33.2426 24.0451C33.154 23.8884 33.0043 23.7748 32.8291 23.7317L32.3812 23.6206C32.2481 23.5875 32.1328 23.5058 32.0596 23.3902C31.8977 23.135 31.6598 22.6167 31.7229 21.837C31.7282 21.772 31.7824 21.7217 31.848 21.7205Z" fill="#69B9DC"/>
<path d="M34.265 23.9735C34.2998 23.7988 34.3953 23.4611 34.6692 23.1774C34.846 22.9943 34.9358 22.7438 34.9358 22.4894V21.9309C34.9358 21.8831 34.9844 21.8509 35.0285 21.8697C35.317 21.9929 36.1986 22.445 36.5125 23.4715C36.5352 23.5461 36.4907 23.6245 36.4142 23.6404L34.3581 24.0657C34.3027 24.077 34.2533 24.0288 34.2642 23.9735H34.265Z" fill="#69B9DC"/>
<path d="M0 23.7875C0 23.7875 3.4568 21.5124 14.9301 23.5177C14.9301 23.5177 20.4155 24.4818 23.6607 25.1371C26.9059 25.7929 37.7869 27.5279 41.27 22.8234C41.27 22.8234 39.5768 30.6897 32.9788 31.7694C32.9788 31.7694 28.0647 32.5023 19.6427 28.6848C10.0241 24.067 0 23.7875 0 23.7875Z" fill="#0092CB"/>
<path d="M0.173218 24.2334C0.173218 24.2334 9.22021 25.0802 20.8104 30.7484C33.6177 36.9374 40.6005 28.8688 40.6005 28.8688C40.6005 28.8688 38.9202 35.1156 32.6038 39.4246C32.6038 39.4246 26.0559 39.4438 20.9953 35.1252C11.9941 26.7956 0.173218 24.2334 0.173218 24.2334Z" fill="#69B9DC"/>
<path d="M30.845 40.2669C27.8288 42.051 24.3518 43.0679 20.6502 43.0679C10.319 43.0679 1.7369 35.148 0.0218506 24.7305C0.505333 24.906 8.96608 27.9869 11.0667 29.148C13.2308 30.3429 16.0508 32.8498 16.0508 32.8498C16.0508 32.8498 23.0138 40.5137 30.845 40.2669Z" fill="#0092CB"/>
<path d="M59.252 19.581C59.0051 19.7586 58.7304 19.9024 58.4299 20.0112C58.1284 20.12 57.8398 20.196 57.5632 20.2402C57.2865 20.2843 57.0019 20.312 56.7083 20.3233C56.4158 20.3346 56.1341 20.3428 55.8654 20.348C55.5114 20.348 55.1107 20.3079 54.6654 20.2268C54.2202 20.1457 53.7184 19.9681 53.1591 19.6929C52.6008 19.4178 52.0771 19.0153 51.5892 18.4876L51.9522 18.196C52.6127 18.9578 53.3168 19.4835 54.0635 19.773C53.7521 19.5451 53.4239 19.235 53.0807 18.8428C52.7366 18.4506 52.5006 18.1098 52.3717 17.8213L52.8784 17.5123C53.0559 18.0348 53.2969 18.4568 53.6033 18.7761C53.9098 19.0964 54.2331 19.3326 54.5732 19.4855C54.9144 19.6385 55.2228 19.735 55.4995 19.773C55.7761 19.812 55.9408 19.8346 55.9943 19.8397C56.6111 19.8397 57.1407 19.7997 57.583 19.7186C58.0253 19.6385 58.4448 19.4558 58.8424 19.1724C59.5515 18.6827 59.9065 17.9989 59.9065 17.12C59.8956 16.6693 59.7895 16.2422 59.5882 15.8398C59.3869 15.4363 59.0775 15.0513 58.66 14.6847C58.2435 14.3172 57.7069 13.9671 57.0505 13.6334C56.9701 13.5893 56.6468 13.4291 56.0826 13.1539C55.5173 12.8788 55.0552 12.619 54.6942 12.3737C54.3342 12.1293 54.0377 11.848 53.8066 11.5308C53.5756 11.2135 53.4407 10.8552 53.403 10.4548C53.403 10.0318 53.4972 9.65704 53.6857 9.3285C53.8741 8.99996 54.128 8.74741 54.4483 8.56876C54.7686 8.39115 55.1305 8.30181 55.5342 8.30181C55.7603 8.30181 56.0072 8.33775 56.2769 8.41065C55.4132 8.49997 54.8152 8.71249 54.483 9.04925C54.1508 9.386 53.9842 9.83261 53.9842 10.3881C54 10.7443 54.0883 11.0503 54.2499 11.3059C54.4106 11.5616 54.6188 11.7792 54.8737 11.9568C55.1286 12.1345 55.5143 12.3459 56.032 12.5913C56.5497 12.8357 56.8938 13.003 57.0663 13.0923C58.0778 13.5934 58.9089 14.1899 59.5604 14.8819C60.211 15.5739 60.5372 16.2936 60.5372 17.0389C60.5372 17.3788 60.5154 17.6621 60.4728 17.8901C60.4301 18.118 60.3141 18.3757 60.1257 18.6621C59.9373 18.9486 59.6467 19.2556 59.254 19.5841L59.252 19.581ZM59.3502 16.9363C59.3502 17.3203 59.2936 17.6221 59.1796 17.8418C59.0656 18.0615 58.8008 18.3911 58.3833 18.8305C58.5816 18.5246 58.7086 18.274 58.7621 18.08C58.8157 17.8849 58.8424 17.6745 58.8424 17.4455V17.0697C58.8424 16.619 58.7175 16.2258 58.4686 15.889C58.2187 15.5523 57.8785 15.2484 57.4461 14.9753C57.0148 14.7032 56.3364 14.3192 55.4142 13.8244C55.1087 13.6632 54.7567 13.4722 54.36 13.2525C53.9633 13.0328 53.6262 12.8059 53.3495 12.5729C53.0728 12.3388 52.8358 12.0441 52.6374 11.6889C52.4391 11.3326 52.3052 10.9045 52.2348 10.4045C52.2348 9.88702 52.3677 9.39935 52.6335 8.94042C52.8993 8.48149 53.3108 8.11188 53.8691 7.83057C54.4274 7.54925 55.0988 7.40655 55.8822 7.40039C56.748 7.40039 57.5661 7.52153 58.3377 7.7628C59.1092 8.0051 59.6665 8.22071 60.0116 8.40962C60.087 8.1704 60.1455 8.01434 60.1891 7.94247L60.5352 8.08416C60.5134 8.1396 60.4946 8.18272 60.4787 8.21352C60.4628 8.24432 60.444 8.28744 60.4222 8.34288C60.4172 8.35418 60.4024 8.39012 60.3776 8.45172C60.3538 8.51332 60.331 8.57697 60.3091 8.64371C60.2715 8.73817 60.2308 8.86341 60.1882 9.01947C59.9779 8.88087 59.6854 8.72583 59.3105 8.55643C58.9356 8.38703 58.5995 8.2628 58.303 8.18477C58.654 8.42399 58.9694 8.67964 59.25 8.95274C59.2986 9.00819 59.3631 9.07799 59.4444 9.16115C59.5257 9.24431 59.6199 9.34186 59.728 9.45274C59.7716 9.49689 59.8202 9.54309 59.8738 9.59031C59.9273 9.63754 59.9739 9.68066 60.0116 9.71968C59.8877 10.2094 59.8153 10.6211 59.7945 10.9548L59.496 10.8131V10.3881C59.5009 10.3265 59.5049 10.2731 59.5079 10.2258C59.5108 10.1786 59.5118 10.1129 59.5118 10.0297C59.5118 9.9743 59.5227 9.92398 59.5445 9.87983C59.1737 9.36854 58.776 8.96198 58.3515 8.66218C57.9271 8.36136 57.5165 8.15911 57.1189 8.05336C56.7212 7.94761 56.3156 7.89525 55.9021 7.89525C55.3269 7.89525 54.8112 7.98149 54.355 8.15398C53.8979 8.32646 53.5329 8.59648 53.2592 8.96301C52.9855 9.33056 52.8487 9.78333 52.8487 10.3234C52.8913 10.7792 53.0014 11.1694 53.1789 11.4917C53.3564 11.8141 53.5667 12.079 53.8116 12.2843C54.0556 12.4897 54.3303 12.6776 54.6337 12.848C54.9372 13.0174 55.2555 13.1919 55.5887 13.3696C56.3087 13.7587 56.8739 14.0708 57.2855 14.3038C57.697 14.5369 58.06 14.7792 58.3773 15.0297C58.6947 15.2802 58.9356 15.5595 59.1023 15.8685C59.2689 16.1776 59.3522 16.5348 59.3522 16.9404L59.3502 16.9363Z" fill="#F3F3F3"/>
<path d="M68.554 19.8224C69.1936 19.8059 69.7777 19.6889 70.3063 19.4722C70.8358 19.2556 71.3019 18.9312 71.7045 18.5C72.1072 18.0688 72.4205 17.5298 72.6437 16.8809C72.8668 16.233 72.9779 15.4866 72.9779 14.6406C72.9779 14.3901 72.9729 14.1981 72.962 14.0647C72.9352 13.4969 72.841 12.8809 72.6804 12.2166C72.5187 11.5524 72.1944 10.8552 71.7055 10.1263C71.2166 9.39734 70.5185 8.81316 69.6101 8.37374C70.4213 8.5185 71.1294 8.87168 71.7333 9.43328C72.3372 9.99488 72.7974 10.6807 73.1118 11.4897C73.4261 12.2988 73.5967 13.1684 73.6235 14.0975C73.6235 15.1437 73.4896 16.0585 73.2208 16.8429C72.9521 17.6273 72.5772 18.2741 72.0963 18.7823C71.6153 19.2916 71.0669 19.6684 70.452 19.9127C69.8372 20.1571 69.1876 20.2854 68.5064 20.2967C67.3778 20.2967 66.3584 20.0061 65.448 19.425C64.5376 18.8439 63.8216 18.0369 63.3 17.0051C62.7784 15.9733 62.5186 14.8316 62.5186 13.5801C62.5513 12.8121 62.6623 12.1437 62.8528 11.5739C63.0432 11.0041 63.2593 10.5421 63.5013 10.1889C63.7433 9.83574 63.9763 9.5534 64.2024 9.3419C63.9664 9.81521 63.7681 10.2567 63.6104 10.6684C63.4517 11.0801 63.3347 11.5154 63.2603 11.9743C63.185 12.4333 63.1473 12.9466 63.1473 13.5133C63.1582 14.693 63.3902 15.7628 63.8444 16.7259C64.2986 17.6879 64.9333 18.4445 65.7505 18.9948C66.5666 19.5451 67.5018 19.8213 68.555 19.8213L68.554 19.8224ZM68.9645 7.39941C70.1248 7.43843 71.1433 7.75773 72.0189 8.35937C72.8946 8.95998 73.5699 9.76901 74.0459 10.7875C74.5209 11.8049 74.7589 12.9312 74.7589 14.1663C74.7322 15.0616 74.5953 15.8306 74.3484 16.4733C74.1015 17.116 73.8377 17.6006 73.559 17.9291C73.2793 18.2577 73.0136 18.5082 72.7617 18.6796C73.5134 17.7012 73.9547 16.4856 74.0836 15.0339C74.1054 14.7002 74.1163 14.4497 74.1163 14.2834C74.1163 13.4107 73.9864 12.5914 73.7256 11.8265C73.4648 11.0616 73.1008 10.3912 72.6338 9.81623C72.1667 9.24026 71.6103 8.78134 70.9657 8.43945C70.3211 8.09756 69.6498 7.91481 68.9506 7.89325C67.9461 7.89325 67.1239 8.08523 66.4843 8.46922C65.8447 8.8532 65.3657 9.33369 65.0454 9.91275C64.726 10.4908 64.5138 11.0667 64.4087 11.6396C64.3036 12.2125 64.252 12.7628 64.252 13.2916C64.3165 16 65.3825 17.9887 67.4512 19.2566C66.8274 19.1006 66.2761 18.8295 65.7951 18.4435C65.3141 18.0564 64.9135 17.5893 64.5942 17.0421C64.2748 16.4938 64.0299 15.8963 63.8603 15.2484C63.6907 14.6006 63.6064 13.9312 63.6064 13.2423C63.6283 12.347 63.7958 11.462 64.1102 10.5893C64.4246 9.71665 64.9809 8.96613 65.7782 8.34088C66.5755 7.71563 67.6386 7.40248 68.9655 7.40248L68.9645 7.39941Z" fill="#F3F3F3"/>
<path d="M87.0569 19.2562C87.1641 19.3948 87.3713 19.4769 87.6777 19.5026C87.9842 19.5272 88.1448 19.5426 88.1617 19.5488C88.2212 19.5652 88.3065 19.5909 88.4195 19.6237C88.5326 19.6576 88.6179 19.6771 88.6774 19.6823C88.6883 19.6823 88.7339 19.7028 88.8142 19.7449C88.8945 19.787 88.954 19.8075 88.9917 19.8075L88.8866 20.1833C88.8539 20.1833 88.8003 20.1648 88.726 20.1289C88.6506 20.0929 88.5891 20.0745 88.5405 20.0745C88.481 20.0693 88.3422 20.0549 88.121 20.0324C87.9009 20.0098 87.7561 19.9964 87.6857 19.9903C87.5726 19.9903 87.4814 19.9913 87.412 19.9944C87.3416 19.9974 87.2672 20.0016 87.1859 20.0067C86.9925 20.0067 86.8556 19.9512 86.7753 19.8404L79.0064 9.6361V15.7849C79.0064 16.2192 79.0332 16.6915 79.0868 17.2028C79.0977 17.3414 79.1195 17.5365 79.1512 17.787C79.1839 18.0375 79.2048 18.2264 79.2157 18.3547C79.2375 18.5221 79.2504 18.6422 79.2563 18.7182C79.2613 18.7931 79.2831 18.9287 79.3208 19.1227C79.3426 19.2788 79.3694 19.404 79.4011 19.4985C79.4815 19.5324 79.5757 19.5488 79.6828 19.5488C79.7472 19.5539 79.8077 19.5591 79.8642 19.5611C79.9208 19.5642 79.9862 19.5714 80.0616 19.5816C80.2123 19.5981 80.3383 19.6207 80.4404 19.6484L80.4245 20.0734C80.3224 20.0395 80.2173 20.0231 80.1102 20.0231C79.9059 20.0005 79.7502 19.9892 79.6431 19.9892C79.5677 19.9779 79.3506 19.9728 78.9906 19.9728L78.6603 17.2449L78.2577 19.94C78.1982 19.9564 78.1486 19.9687 78.109 19.978C78.0683 19.9862 78.0078 20.0016 77.9275 20.0241C77.8581 20.0293 77.7827 20.0447 77.7014 20.0703C77.621 20.095 77.5427 20.1165 77.4673 20.133C77.4297 20.1494 77.3791 20.171 77.3146 20.1956C77.2502 20.2202 77.1986 20.2397 77.1619 20.2541C77.1242 20.2675 77.0836 20.2829 77.0409 20.3003C77.0082 20.3116 76.9804 20.3198 76.9566 20.325C76.9328 20.3301 76.8991 20.3383 76.8555 20.3496L76.8396 19.9246C76.8723 19.9194 76.909 19.9102 76.9527 19.8999C76.9953 19.8886 77.031 19.8804 77.0578 19.8753C77.1381 19.8363 77.2234 19.8003 77.3116 19.7664C77.3999 19.7326 77.4683 19.7049 77.5169 19.6833C77.5705 19.6607 77.6201 19.6412 77.6657 19.6248C77.7113 19.6083 77.7718 19.5888 77.8472 19.5662C77.8581 19.5108 77.867 19.4687 77.8749 19.441C77.8829 19.4133 77.8948 19.3691 77.9116 19.3075C77.9711 19.0406 78.0167 18.7901 78.0485 18.557C78.0703 18.3845 78.0871 18.2552 78.101 18.1689C78.1139 18.0827 78.1347 17.9451 78.1615 17.7562C78.2309 17.3671 78.2984 16.9759 78.3628 16.5837C78.4273 16.1915 78.46 15.8373 78.46 15.5201V8.87019C78.3043 8.56424 78.0733 8.3589 77.7668 8.25315C77.6597 8.2203 77.4901 8.19156 77.2591 8.17C77.1996 8.1587 77.1272 8.15357 77.0419 8.15357L77.0578 7.72852C77.1331 7.72852 77.1916 7.72955 77.2353 7.73263C77.2779 7.73571 77.3235 7.73981 77.3721 7.74495C77.4901 7.75624 77.5853 7.76753 77.6577 7.77882C77.7301 7.79012 77.8095 7.80141 77.8957 7.8127C78.105 7.83529 78.3608 7.92153 78.6613 8.07143L87.0589 19.2603L87.0569 19.2562ZM81.1019 9.79524C81.1346 9.83939 81.1782 9.89996 81.2348 9.97491C81.2913 10.0499 81.3567 10.1371 81.4321 10.2378L81.6741 10.5293L86.7912 17.171L86.8556 11.7726C86.8556 11.5776 86.7912 11.1833 86.6623 10.5878C86.5333 9.99236 86.4659 9.65869 86.4609 9.58682C86.4391 9.44206 86.3965 9.19155 86.332 8.83632C86.3162 8.77472 86.3043 8.73056 86.2953 8.70284C86.2874 8.67512 86.2775 8.63303 86.2676 8.57759C86.2081 8.555 86.1585 8.53755 86.1188 8.52317C86.0782 8.50983 86.0177 8.48827 85.9373 8.46055C85.8511 8.42153 85.7707 8.38868 85.6954 8.35993C85.62 8.33221 85.5446 8.30141 85.4693 8.26856C85.4425 8.26342 85.4078 8.25521 85.3641 8.24392C85.3215 8.23262 85.2858 8.22441 85.259 8.21928L85.2749 7.79423C85.3175 7.80552 85.3512 7.81373 85.376 7.81886C85.3998 7.824 85.4256 7.83324 85.4524 7.8435C85.6031 7.89895 85.7479 7.95746 85.8877 8.01906C86.0008 8.04678 86.093 8.06937 86.1654 8.0858C86.2378 8.10223 86.2983 8.11353 86.3469 8.11866C86.4064 8.13509 86.457 8.14741 86.4996 8.15665C86.5423 8.16486 86.6018 8.18026 86.6771 8.20285L87.0718 10.9061L87.4021 8.17C87.767 8.17 87.9872 8.16486 88.0625 8.15357C88.1756 8.15357 88.3283 8.14228 88.5217 8.11969C88.6347 8.11969 88.7388 8.10325 88.836 8.06937L88.8519 8.49442C88.7498 8.52214 88.6238 8.54473 88.4731 8.56116C88.4463 8.56629 88.4086 8.57143 88.36 8.57348C88.3114 8.57656 88.2618 8.57862 88.2113 8.5817C88.1597 8.58478 88.121 8.58889 88.0943 8.59402C87.9871 8.59402 87.8929 8.61045 87.8126 8.64433C87.7799 8.73878 87.7531 8.86403 87.7323 9.02009C87.6569 9.41536 87.6143 9.65972 87.6034 9.75417C87.5816 10.0273 87.5617 10.2603 87.5429 10.4554C87.524 10.6505 87.5092 10.8117 87.4983 10.939C87.4447 11.4513 87.4179 11.9236 87.4179 12.3568L87.3376 18.748L80.6645 9.94616C80.4067 9.60735 80.1707 9.25932 79.9555 8.90305C79.8583 8.75316 79.7799 8.63097 79.7175 8.53549C79.656 8.44104 79.6143 8.35172 79.5925 8.26856C79.5499 8.14638 79.5172 8.00469 79.4953 7.8435C79.5548 7.83837 79.6094 7.83426 79.6609 7.83118C79.7115 7.8281 79.778 7.82707 79.8583 7.82707C80.127 7.80449 80.3313 7.79423 80.4712 7.79423C80.5247 7.78293 80.5842 7.77472 80.6487 7.76959C80.7131 7.76445 80.7697 7.76035 80.8182 7.75727C80.8668 7.75419 80.9204 7.75008 80.9799 7.74495H81.2139L81.1981 8.08683C81.1177 8.11968 81.0453 8.13714 80.9809 8.13714C80.9273 8.14843 80.8797 8.15973 80.8401 8.17102C80.7994 8.18232 80.7478 8.19361 80.6834 8.2049C80.5703 8.23775 80.4969 8.26856 80.4622 8.29628C80.4275 8.324 80.4097 8.39073 80.4097 8.49648C80.4097 8.55192 80.4295 8.62584 80.4702 8.71722C80.5108 8.80859 80.5574 8.90202 80.611 8.99647C80.6645 9.09093 80.7082 9.16896 80.7399 9.23056C80.7994 9.35274 80.9194 9.54268 81.1029 9.79832L81.1019 9.79524Z" fill="#F3F3F3"/>
<path d="M102.03 20.0238C102.035 19.9406 102.053 19.7517 102.083 19.456C102.113 19.1614 102.128 18.9304 102.128 18.763C101.112 19.7866 99.807 20.2979 98.2114 20.2979C97.185 20.2641 96.2409 19.9776 95.3792 19.4386C94.5164 18.8996 93.8242 18.1634 93.2996 17.2322C92.776 16.301 92.4953 15.2672 92.4576 14.1327C92.4576 13.2651 92.5598 12.4961 92.7641 11.8257C92.9684 11.1553 93.1994 10.6255 93.4573 10.2364C93.7151 9.84728 93.96 9.53824 94.1911 9.31032C93.4662 10.5228 93.1032 11.8637 93.1032 13.3318C93.1032 13.6101 93.1191 13.8883 93.1518 14.1665C93.2163 14.9119 93.3789 15.6255 93.6397 16.3062C93.9005 16.9879 94.2506 17.5957 94.6909 18.1296C95.1312 18.6635 95.6529 19.0823 96.2548 19.3852C96.8568 19.6881 97.5143 19.84 98.2293 19.84C99.1803 19.84 99.9469 19.6686 100.53 19.3267C101.113 18.9848 101.647 18.4879 102.13 17.837C102.135 17.6368 102.138 17.453 102.141 17.2867C102.144 17.1203 102.145 16.9058 102.145 16.6439V15.7518C102.097 15.7518 101.706 15.6891 100.973 15.5639C100.239 15.4386 99.7951 15.3544 99.6394 15.3093L99.7525 14.8C99.8388 14.8164 100.113 14.8616 100.579 14.9335C101.044 15.0054 101.462 15.0639 101.836 15.1091C102.21 15.1532 102.498 15.1758 102.703 15.1758C102.708 15.4201 102.714 15.6891 102.719 15.9807C102.724 16.2723 102.727 16.4992 102.727 16.6604C102.727 16.8554 102.72 17.0495 102.707 17.2446C102.693 17.4396 102.687 17.609 102.687 17.7538C102.687 17.9263 102.686 18.0454 102.683 18.1121C102.68 18.1789 102.676 18.2466 102.671 18.3164C102.666 18.3862 102.66 18.4622 102.655 18.5454C102.65 18.6285 102.644 18.7179 102.639 18.8123C102.639 18.9458 102.634 19.1686 102.623 19.4797C102.613 19.7907 102.608 19.9714 102.608 20.0218H102.035L102.03 20.0238ZM102.425 11.0547L102.03 10.8709C102.057 10.721 102.102 10.5444 102.163 10.3411C102.225 10.1378 102.257 10.0064 102.257 9.9448C102.117 9.683 101.927 9.43557 101.688 9.20251C101.449 8.96842 101.178 8.7559 100.874 8.56391C100.571 8.37192 100.25 8.21895 99.9151 8.10498C99.5789 7.99102 99.2507 7.92531 98.9274 7.90888C98.863 7.90375 98.8035 7.89964 98.7499 7.89656C98.6963 7.89348 98.6259 7.89245 98.5407 7.89245C97.7404 7.89245 97.0561 8.05056 96.4898 8.36781C95.9226 8.68506 95.4714 9.11422 95.1362 9.65734C94.8 10.1994 94.561 10.8021 94.4192 11.4633C94.2764 12.1255 94.206 12.8041 94.206 13.4992C94.2546 14.8288 94.5432 15.9674 95.0727 16.916C95.6023 17.8647 96.353 18.645 97.3248 19.2559C96.6693 19.0947 96.1011 18.8113 95.6201 18.4047C95.1392 17.9992 94.7494 17.5249 94.4519 16.9817C94.1544 16.4386 93.9333 15.8647 93.7915 15.2589C93.6487 14.6532 93.5783 14.0659 93.5783 13.4982C93.5783 12.992 93.6268 12.4243 93.723 11.7959C93.8202 11.1676 94.0384 10.5157 94.3795 9.83906C94.7207 9.1635 95.2661 8.5906 96.0158 8.12037C96.7655 7.65015 97.7364 7.41504 98.9294 7.41504C99.5254 7.41504 100.091 7.46843 100.626 7.57315C101.161 7.6789 101.847 7.87603 102.685 8.16555C102.685 8.13783 102.703 8.10292 102.737 8.06083C102.772 8.01874 102.79 7.98485 102.79 7.95611C102.79 7.93968 102.803 7.9058 102.831 7.85549C102.857 7.80518 102.871 7.76104 102.871 7.72203C102.887 7.69944 102.905 7.67172 102.924 7.63886C102.943 7.60601 102.953 7.56904 102.953 7.53003L103.347 7.72203C103.342 7.73846 103.332 7.76925 103.319 7.81339C103.306 7.85754 103.299 7.88322 103.299 7.88835C103.299 7.92737 103.28 7.98281 103.242 8.05468C103.205 8.12757 103.186 8.1748 103.186 8.19636C103.068 8.53003 102.989 8.73024 102.952 8.79697C102.592 8.61319 102.273 8.47048 101.997 8.36678C101.72 8.26411 101.433 8.18506 101.138 8.1286C101.6 8.47356 102.167 9.03208 102.839 9.80517C102.661 10.1943 102.524 10.6091 102.428 11.0485L102.425 11.0547ZM103.956 19.9735H103.376C103.29 19.3842 103.22 18.7363 103.167 18.03C103.162 17.9016 103.158 17.6932 103.155 17.4037C103.152 17.1142 103.151 16.8791 103.151 16.6984V16.1265C103.151 16.0433 103.156 15.8904 103.167 15.6676C103.178 15.4448 103.183 15.2867 103.183 15.1922C103.521 15.1532 103.806 15.1101 104.037 15.0629C104.268 15.0156 104.493 14.9448 104.714 14.8503V15.2425C104.654 15.2702 104.571 15.3082 104.464 15.3555C104.357 15.4027 104.244 15.4571 104.126 15.5177C104.099 15.5177 104.064 15.5341 104.021 15.568C103.977 15.6019 103.94 15.6183 103.908 15.6183L103.779 15.685C103.741 15.7682 103.711 15.9212 103.69 16.144C103.68 16.5669 103.675 17.0536 103.675 17.6039C103.728 18.5269 103.822 19.3175 103.956 19.9735Z" fill="#F3F3F3"/>
<path d="M115.633 19.9065C115.714 19.8675 115.902 19.7762 116.198 19.6314C116.235 19.615 116.276 19.5965 116.319 19.577C116.361 19.5575 116.394 19.5421 116.415 19.5308C116.437 19.5308 116.457 19.5195 116.479 19.4969C116.49 19.3798 116.495 19.2135 116.495 18.9959C116.517 18.6232 116.528 18.0503 116.528 17.2772V15.5C116.528 14.7269 116.506 13.7002 116.463 12.4209C116.448 11.7094 116.413 11.0308 116.358 10.385C116.31 9.40043 116.267 8.76388 116.229 8.47435C116.203 8.26902 116.181 8.13247 116.165 8.06573C115.956 7.999 115.808 7.9569 115.722 7.94047C115.668 7.92918 115.622 7.92302 115.585 7.91994C115.547 7.91686 115.509 7.91275 115.472 7.90762C115.445 7.90249 115.42 7.89838 115.399 7.8953C115.377 7.89222 115.346 7.89119 115.303 7.89119V7.499C115.556 7.52159 115.805 7.53185 116.053 7.53185H116.826C116.918 8.48872 116.987 9.77928 117.036 11.4035C117.084 13.0277 117.108 14.4322 117.108 15.617V19.9055C116.555 19.9722 116.063 20.1026 115.633 20.2977V19.9055V19.9065ZM119.155 7.41686V7.84191C119.004 7.88606 118.722 7.92507 118.309 7.95895C118.271 8.52055 118.247 9.07291 118.237 9.61501C118.226 10.1571 118.219 10.7762 118.217 11.4713C118.214 12.1663 118.213 12.9066 118.213 13.691L118.938 12.9312L121.194 16.269C121.22 16.2854 121.246 16.3111 121.27 16.3439C121.294 16.3778 121.325 16.4189 121.362 16.4692C121.384 16.4969 121.415 16.5441 121.455 16.6109C121.495 16.6776 121.531 16.733 121.564 16.7772C121.612 16.8326 121.662 16.8973 121.712 16.9692C121.763 17.041 121.829 17.1252 121.91 17.2197C122.13 17.5482 122.394 17.9066 122.699 18.2957C123.032 18.7187 123.289 19.0297 123.469 19.23C123.648 19.4302 123.821 19.5985 123.984 19.7351C124.148 19.8716 124.335 19.9928 124.545 20.0985C124.351 20.0821 124.112 20.0072 123.828 19.8737C123.543 19.7402 123.141 19.4189 122.623 18.9096C122.104 18.4004 121.479 17.6345 120.749 16.6109L118.824 13.8573L118.211 14.4415C118.211 14.6468 118.21 14.8172 118.207 14.9507C118.204 15.0842 118.2 15.232 118.195 15.3932V17.1704C118.184 17.4712 118.179 17.9158 118.179 18.5051C118.179 18.8942 118.184 19.192 118.195 19.3983C118.668 19.4702 119.025 19.5431 119.267 19.615L119.251 20.04C118.671 19.9394 118.267 19.8901 118.042 19.8901C117.871 19.8901 117.739 19.8952 117.647 19.9065C117.647 19.5893 117.646 19.3326 117.643 19.1345C117.641 18.9373 117.637 18.7217 117.632 18.4877V17.2197C117.627 16.9302 117.622 16.6632 117.62 16.4189C117.617 16.1745 117.61 15.8624 117.6 15.4846V11.9097C117.6 11.729 117.601 11.5 117.604 11.2218C117.607 10.9435 117.611 10.7351 117.616 10.5965C117.616 9.68483 117.627 9.00618 117.648 8.56059C117.664 8.14889 117.686 7.807 117.713 7.5339C118.331 7.51132 118.812 7.4723 119.156 7.41686H119.155ZM119.268 12.5226C119.477 12.2669 119.652 12.0503 119.791 11.8717C119.98 11.6602 120.234 11.3542 120.553 10.9538C120.872 10.5534 121.166 10.1222 121.432 9.66017C121.697 9.19816 121.948 8.63657 122.185 7.97436C122.143 7.96306 122.103 7.95587 122.068 7.95382C122.034 7.95074 121.997 7.94663 121.959 7.9415C121.889 7.9415 121.779 7.93021 121.629 7.90865C121.576 7.89735 121.528 7.88607 121.488 7.87477C121.448 7.86348 121.39 7.85218 121.315 7.84088C121.283 7.84088 121.25 7.83576 121.219 7.82446V7.39941C121.788 7.48874 122.347 7.53288 122.894 7.53288C122.61 8.35628 122.263 9.12116 121.855 9.82752L123.87 7.53288C124.262 7.51645 124.604 7.47128 124.894 7.39941V7.80803C124.695 7.89736 124.458 7.9415 124.185 7.9415L123.774 8.40865L119.946 12.5216L122.388 16.0421C122.597 16.348 122.854 16.7176 123.157 17.1519C123.461 17.5862 123.81 18.0164 124.204 18.4456C124.599 18.8737 125.019 19.2269 125.462 19.5051C125.905 19.7833 126.36 19.9219 126.827 19.9219V20.2803C126.403 20.2803 126.014 20.2186 125.663 20.0965C125.311 19.9743 124.988 19.8059 124.692 19.5913C124.397 19.3778 124.105 19.117 123.818 18.8111C123.53 18.5051 123.228 18.1519 122.911 17.7515C122.798 17.5852 122.669 17.4045 122.525 17.2094C122.38 17.0144 122.267 16.8645 122.186 16.7587C122.122 16.6755 122.056 16.5852 121.989 16.4877C121.922 16.3901 121.867 16.3162 121.823 16.2669L119.269 12.5205L119.268 12.5226Z" fill="#F3F3F3"/>
<path d="M133.79 19.8224C134.43 19.8059 135.014 19.6889 135.542 19.4722C136.072 19.2556 136.538 18.9312 136.941 18.5C137.343 18.0688 137.657 17.5298 137.88 16.8809C138.103 16.233 138.214 15.4866 138.214 14.6406C138.214 14.3901 138.209 14.1981 138.198 14.0647C138.171 13.4969 138.077 12.8809 137.917 12.2166C137.756 11.5524 137.431 10.8552 136.942 10.1263C136.453 9.39734 135.755 8.81316 134.846 8.37374C135.658 8.5185 136.366 8.87168 136.97 9.43328C137.573 9.99488 138.034 10.6807 138.348 11.4897C138.662 12.2988 138.833 13.1684 138.86 14.0975C138.86 15.1437 138.726 16.0585 138.457 16.8429C138.188 17.6273 137.813 18.2741 137.332 18.7823C136.852 19.2916 136.303 19.6684 135.688 19.9127C135.073 20.1571 134.424 20.2854 133.743 20.2967C132.614 20.2967 131.595 20.0061 130.684 19.425C129.774 18.8439 129.058 18.0369 128.536 17.0051C128.016 15.9733 127.755 14.8316 127.755 13.5801C127.786 12.8121 127.899 12.1437 128.089 11.5739C128.279 11.0041 128.496 10.5421 128.738 10.1889C128.979 9.83574 129.213 9.5534 129.439 9.3419C129.203 9.81521 129.004 10.2567 128.847 10.6684C128.688 11.0801 128.571 11.5154 128.496 11.9743C128.42 12.4333 128.383 12.9466 128.383 13.5133C128.393 14.693 128.625 15.7628 129.08 16.7259C129.534 17.6879 130.169 18.4445 130.986 18.9948C131.802 19.5451 132.737 19.8213 133.79 19.8213V19.8224ZM134.201 7.39941C135.361 7.43843 136.379 7.75773 137.255 8.35937C138.131 8.95998 138.806 9.76901 139.282 10.7875C139.757 11.8049 139.995 12.9312 139.995 14.1663C139.968 15.0616 139.832 15.8306 139.585 16.4733C139.338 17.116 139.074 17.6006 138.795 17.9291C138.516 18.2577 138.25 18.5082 137.998 18.6796C138.75 17.7012 139.191 16.4856 139.32 15.0339C139.342 14.7002 139.353 14.4497 139.353 14.2834C139.353 13.4107 139.223 12.5914 138.962 11.8265C138.701 11.0616 138.337 10.3912 137.87 9.81623C137.403 9.24026 136.847 8.78134 136.202 8.43945C135.557 8.09756 134.886 7.91481 134.187 7.89325C133.182 7.89325 132.36 8.08523 131.721 8.46922C131.081 8.8532 130.602 9.33369 130.282 9.91275C129.962 10.4908 129.75 11.0667 129.645 11.6396C129.54 12.2125 129.488 12.7628 129.488 13.2916C129.553 16 130.619 17.9887 132.687 19.2566C132.064 19.1006 131.512 18.8295 131.031 18.4435C130.55 18.0564 130.15 17.5893 129.83 17.0421C129.511 16.4938 129.266 15.8963 129.098 15.2484C128.928 14.6006 128.844 13.9312 128.844 13.2423C128.865 12.347 129.033 11.462 129.347 10.5893C129.662 9.71665 130.218 8.96613 131.015 8.34088C131.813 7.71563 132.876 7.40248 134.203 7.40248L134.201 7.39941Z" fill="#F3F3F3"/>
<path d="M142.719 8.10094C142.435 7.97877 142.235 7.88738 142.123 7.82578V7.43359C142.37 7.53934 142.615 7.6225 142.857 7.6841C143.099 7.7457 143.368 7.79293 143.663 7.82578C143.674 8.00956 143.679 8.28779 143.679 8.66048V12.0978C143.679 13.4941 143.653 14.9305 143.603 16.4069C143.551 17.8832 143.483 19.0506 143.398 19.9068H142.591C142.328 19.9068 142.062 19.9233 141.794 19.9571V19.565C141.827 19.5598 141.855 19.5557 141.878 19.5526C141.902 19.5496 141.931 19.5485 141.963 19.5485C142.027 19.5372 142.079 19.5301 142.115 19.528C142.153 19.5249 142.191 19.5208 142.228 19.5157C142.326 19.488 142.388 19.4725 142.418 19.4695C142.448 19.4664 142.486 19.4602 142.535 19.4489C142.583 19.4376 142.64 19.4263 142.704 19.4161C142.774 18.8822 142.837 18.1851 142.894 17.3257C142.95 16.4664 142.991 15.5999 143.015 14.7272C143.039 13.8545 143.052 13.0167 143.052 12.2159C143.056 12.0208 143.059 11.7252 143.059 11.3278C143.059 10.9305 143.062 10.6338 143.067 10.4397C143.067 9.67794 143.062 9.10505 143.052 8.72107C143.052 8.61018 143.051 8.51983 143.048 8.45002C143.045 8.3802 143.041 8.30423 143.036 8.22107C143.02 8.21594 143.005 8.21183 142.991 8.20875C142.977 8.20567 142.965 8.20464 142.954 8.20464C142.917 8.18205 142.878 8.16152 142.837 8.14201C142.797 8.1225 142.758 8.11018 142.72 8.10402L142.719 8.10094ZM145.225 8.23442H144.862V16.4695C144.867 16.6255 144.871 16.7703 144.874 16.9038C144.877 17.0372 144.878 17.2128 144.878 17.4294V18.7477C144.894 18.8699 144.902 19.068 144.902 19.3401C145.165 19.3514 145.55 19.3565 146.054 19.3565C146.699 19.3514 147.257 19.3052 147.73 19.219C148.203 19.1327 148.555 19.0393 148.786 18.9397C149.018 18.8391 149.2 18.7446 149.335 18.6563C149.335 18.5506 149.334 18.4674 149.331 18.4058C149.328 18.3442 149.324 18.2754 149.319 18.1974C149.324 18.0968 149.328 18.0075 149.331 17.9264C149.334 17.8463 149.335 17.7446 149.335 17.6214H149.681C149.681 18.2559 149.727 18.7149 149.818 18.9982C149.764 19.0259 149.724 19.0516 149.697 19.0732C149.53 19.1235 149.428 19.1512 149.39 19.1563C149.32 19.1789 149.216 19.2066 149.076 19.2395C148.936 19.2723 148.831 19.3011 148.762 19.3227C148.531 19.3617 148.359 19.3976 148.246 19.4315C148.117 19.4592 148.019 19.4818 147.951 19.4982C147.884 19.5146 147.808 19.5321 147.721 19.5485H149.817C149.839 19.6984 149.865 19.835 149.897 19.9571C149.908 20.0126 149.915 20.0629 149.917 20.107C149.92 20.1512 149.924 20.1984 149.929 20.2487C149.934 20.26 149.938 20.2723 149.941 20.2867C149.944 20.3001 149.945 20.3155 149.945 20.3329H149.678C149.629 20.2662 149.587 20.1522 149.549 19.991H149.372C149.301 19.9859 149.237 19.9808 149.178 19.9787C149.119 19.9756 149.043 19.9746 148.952 19.9746C148.753 19.9746 148.605 19.9695 148.509 19.9582C148.427 19.9582 148.309 19.953 148.154 19.9417C147.998 19.9305 147.879 19.9253 147.799 19.9253C147.702 19.914 147.53 19.9089 147.282 19.9089H144.232C144.221 19.6697 144.216 19.3165 144.216 18.8493C144.216 18.6101 144.215 18.4171 144.212 18.2693C144.209 18.1214 144.205 17.9623 144.2 17.7898C144.205 17.6122 144.209 17.4489 144.212 17.3021C144.215 17.1553 144.216 16.9644 144.216 16.7303C144.216 16.5352 144.215 16.3802 144.212 16.2631C144.209 16.1461 144.205 16.0188 144.2 15.8791L144.233 7.82784C144.675 7.82784 145.003 7.81655 145.219 7.79499C145.301 7.7837 145.381 7.77548 145.462 7.77035C145.544 7.76522 145.625 7.75802 145.709 7.74981C145.793 7.7416 145.875 7.73441 145.956 7.72928C146.102 7.69643 146.256 7.67897 146.417 7.67897V8.05475C146.337 8.08247 146.248 8.10504 146.152 8.12147C146.049 8.14919 145.869 8.17692 145.611 8.20464C145.514 8.20464 145.385 8.21593 145.224 8.23749L145.225 8.23442Z" fill="#F3F3F3"/>
<path d="M59.252 19.581C59.0051 19.7586 58.7304 19.9024 58.4299 20.0112C58.1284 20.12 57.8398 20.196 57.5632 20.2402C57.2865 20.2843 57.0019 20.312 56.7083 20.3233C56.4158 20.3346 56.1341 20.3428 55.8654 20.348C55.5114 20.348 55.1107 20.3079 54.6654 20.2268C54.2202 20.1457 53.7184 19.9681 53.1591 19.6929C52.6008 19.4178 52.0771 19.0153 51.5892 18.4876L51.9522 18.196C52.6127 18.9578 53.3168 19.4835 54.0635 19.773C53.7521 19.5451 53.4239 19.235 53.0807 18.8428C52.7366 18.4506 52.5006 18.1098 52.3717 17.8213L52.8784 17.5123C53.0559 18.0348 53.2969 18.4568 53.6033 18.7761C53.9098 19.0964 54.2331 19.3326 54.5732 19.4855C54.9144 19.6385 55.2228 19.735 55.4995 19.773C55.7761 19.812 55.9408 19.8346 55.9943 19.8397C56.6111 19.8397 57.1407 19.7997 57.583 19.7186C58.0253 19.6385 58.4448 19.4558 58.8424 19.1724C59.5515 18.6827 59.9065 17.9989 59.9065 17.12C59.8956 16.6693 59.7895 16.2422 59.5882 15.8398C59.3869 15.4363 59.0775 15.0513 58.66 14.6847C58.2435 14.3172 57.7069 13.9671 57.0505 13.6334C56.9701 13.5893 56.6468 13.4291 56.0826 13.1539C55.5173 12.8788 55.0552 12.619 54.6942 12.3737C54.3342 12.1293 54.0377 11.848 53.8066 11.5308C53.5756 11.2135 53.4407 10.8552 53.403 10.4548C53.403 10.0318 53.4972 9.65704 53.6857 9.3285C53.8741 8.99996 54.128 8.74741 54.4483 8.56876C54.7686 8.39115 55.1305 8.30181 55.5342 8.30181C55.7603 8.30181 56.0072 8.33775 56.2769 8.41065C55.4132 8.49997 54.8152 8.71249 54.483 9.04925C54.1508 9.386 53.9842 9.83261 53.9842 10.3881C54 10.7443 54.0883 11.0503 54.2499 11.3059C54.4106 11.5616 54.6188 11.7792 54.8737 11.9568C55.1286 12.1345 55.5143 12.3459 56.032 12.5913C56.5497 12.8357 56.8938 13.003 57.0663 13.0923C58.0778 13.5934 58.9089 14.1899 59.5604 14.8819C60.211 15.5739 60.5372 16.2936 60.5372 17.0389C60.5372 17.3788 60.5154 17.6621 60.4728 17.8901C60.4301 18.118 60.3141 18.3757 60.1257 18.6621C59.9373 18.9486 59.6467 19.2556 59.254 19.5841L59.252 19.581ZM59.3502 16.9363C59.3502 17.3203 59.2936 17.6221 59.1796 17.8418C59.0656 18.0615 58.8008 18.3911 58.3833 18.8305C58.5816 18.5246 58.7086 18.274 58.7621 18.08C58.8157 17.8849 58.8424 17.6745 58.8424 17.4455V17.0697C58.8424 16.619 58.7175 16.2258 58.4686 15.889C58.2187 15.5523 57.8785 15.2484 57.4461 14.9753C57.0148 14.7032 56.3364 14.3192 55.4142 13.8244C55.1087 13.6632 54.7567 13.4722 54.36 13.2525C53.9633 13.0328 53.6262 12.8059 53.3495 12.5729C53.0728 12.3388 52.8358 12.0441 52.6374 11.6889C52.4391 11.3326 52.3052 10.9045 52.2348 10.4045C52.2348 9.88702 52.3677 9.39935 52.6335 8.94042C52.8993 8.48149 53.3108 8.11188 53.8691 7.83057C54.4274 7.54925 55.0988 7.40655 55.8822 7.40039C56.748 7.40039 57.5661 7.52153 58.3377 7.7628C59.1092 8.0051 59.6665 8.22071 60.0116 8.40962C60.087 8.1704 60.1455 8.01434 60.1891 7.94247L60.5352 8.08416C60.5134 8.1396 60.4946 8.18272 60.4787 8.21352C60.4628 8.24432 60.444 8.28744 60.4222 8.34288C60.4172 8.35418 60.4024 8.39012 60.3776 8.45172C60.3538 8.51332 60.331 8.57697 60.3091 8.64371C60.2715 8.73817 60.2308 8.86341 60.1882 9.01947C59.9779 8.88087 59.6854 8.72583 59.3105 8.55643C58.9356 8.38703 58.5995 8.2628 58.303 8.18477C58.654 8.42399 58.9694 8.67964 59.25 8.95274C59.2986 9.00819 59.3631 9.07799 59.4444 9.16115C59.5257 9.24431 59.6199 9.34186 59.728 9.45274C59.7716 9.49689 59.8202 9.54309 59.8738 9.59031C59.9273 9.63754 59.9739 9.68066 60.0116 9.71968C59.8877 10.2094 59.8153 10.6211 59.7945 10.9548L59.496 10.8131V10.3881C59.5009 10.3265 59.5049 10.2731 59.5079 10.2258C59.5108 10.1786 59.5118 10.1129 59.5118 10.0297C59.5118 9.9743 59.5227 9.92398 59.5445 9.87983C59.1737 9.36854 58.776 8.96198 58.3515 8.66218C57.9271 8.36136 57.5165 8.15911 57.1189 8.05336C56.7212 7.94761 56.3156 7.89525 55.9021 7.89525C55.3269 7.89525 54.8112 7.98149 54.355 8.15398C53.8979 8.32646 53.5329 8.59648 53.2592 8.96301C52.9855 9.33056 52.8487 9.78333 52.8487 10.3234C52.8913 10.7792 53.0014 11.1694 53.1789 11.4917C53.3564 11.8141 53.5667 12.079 53.8116 12.2843C54.0556 12.4897 54.3303 12.6776 54.6337 12.848C54.9372 13.0174 55.2555 13.1919 55.5887 13.3696C56.3087 13.7587 56.8739 14.0708 57.2855 14.3038C57.697 14.5369 58.06 14.7792 58.3773 15.0297C58.6947 15.2802 58.9356 15.5595 59.1023 15.8685C59.2689 16.1776 59.3522 16.5348 59.3522 16.9404L59.3502 16.9363Z" fill="#F3F3F3"/>
<path d="M68.554 19.8224C69.1936 19.8059 69.7777 19.6889 70.3063 19.4722C70.8358 19.2556 71.3019 18.9312 71.7045 18.5C72.1072 18.0688 72.4205 17.5298 72.6437 16.8809C72.8668 16.233 72.9779 15.4866 72.9779 14.6406C72.9779 14.3901 72.9729 14.1981 72.962 14.0647C72.9352 13.4969 72.841 12.8809 72.6804 12.2166C72.5187 11.5524 72.1944 10.8552 71.7055 10.1263C71.2166 9.39734 70.5185 8.81316 69.6101 8.37374C70.4213 8.5185 71.1294 8.87168 71.7333 9.43328C72.3372 9.99488 72.7974 10.6807 73.1118 11.4897C73.4261 12.2988 73.5967 13.1684 73.6235 14.0975C73.6235 15.1437 73.4896 16.0585 73.2208 16.8429C72.9521 17.6273 72.5772 18.2741 72.0963 18.7823C71.6153 19.2916 71.0669 19.6684 70.452 19.9127C69.8372 20.1571 69.1876 20.2854 68.5064 20.2967C67.3778 20.2967 66.3584 20.0061 65.448 19.425C64.5376 18.8439 63.8216 18.0369 63.3 17.0051C62.7784 15.9733 62.5186 14.8316 62.5186 13.5801C62.5513 12.8121 62.6623 12.1437 62.8528 11.5739C63.0432 11.0041 63.2593 10.5421 63.5013 10.1889C63.7433 9.83574 63.9763 9.5534 64.2024 9.3419C63.9664 9.81521 63.7681 10.2567 63.6104 10.6684C63.4517 11.0801 63.3347 11.5154 63.2603 11.9743C63.185 12.4333 63.1473 12.9466 63.1473 13.5133C63.1582 14.693 63.3902 15.7628 63.8444 16.7259C64.2986 17.6879 64.9333 18.4445 65.7505 18.9948C66.5666 19.5451 67.5018 19.8213 68.555 19.8213L68.554 19.8224ZM68.9645 7.39941C70.1248 7.43843 71.1433 7.75773 72.0189 8.35937C72.8946 8.95998 73.5699 9.76901 74.0459 10.7875C74.5209 11.8049 74.7589 12.9312 74.7589 14.1663C74.7322 15.0616 74.5953 15.8306 74.3484 16.4733C74.1015 17.116 73.8377 17.6006 73.559 17.9291C73.2793 18.2577 73.0136 18.5082 72.7617 18.6796C73.5134 17.7012 73.9547 16.4856 74.0836 15.0339C74.1054 14.7002 74.1163 14.4497 74.1163 14.2834C74.1163 13.4107 73.9864 12.5914 73.7256 11.8265C73.4648 11.0616 73.1008 10.3912 72.6338 9.81623C72.1667 9.24026 71.6103 8.78134 70.9657 8.43945C70.3211 8.09756 69.6498 7.91481 68.9506 7.89325C67.9461 7.89325 67.1239 8.08523 66.4843 8.46922C65.8447 8.8532 65.3657 9.33369 65.0454 9.91275C64.726 10.4908 64.5138 11.0667 64.4087 11.6396C64.3036 12.2125 64.252 12.7628 64.252 13.2916C64.3165 16 65.3825 17.9887 67.4512 19.2566C66.8274 19.1006 66.2761 18.8295 65.7951 18.4435C65.3141 18.0564 64.9135 17.5893 64.5942 17.0421C64.2748 16.4938 64.0299 15.8963 63.8603 15.2484C63.6907 14.6006 63.6064 13.9312 63.6064 13.2423C63.6283 12.347 63.7958 11.462 64.1102 10.5893C64.4246 9.71665 64.9809 8.96613 65.7782 8.34088C66.5755 7.71563 67.6386 7.40248 68.9655 7.40248L68.9645 7.39941Z" fill="#F3F3F3"/>
<path d="M87.0569 19.2562C87.1641 19.3948 87.3713 19.4769 87.6777 19.5026C87.9842 19.5272 88.1448 19.5426 88.1617 19.5488C88.2212 19.5652 88.3065 19.5909 88.4195 19.6237C88.5326 19.6576 88.6179 19.6771 88.6774 19.6823C88.6883 19.6823 88.7339 19.7028 88.8142 19.7449C88.8945 19.787 88.954 19.8075 88.9917 19.8075L88.8866 20.1833C88.8539 20.1833 88.8003 20.1648 88.726 20.1289C88.6506 20.0929 88.5891 20.0745 88.5405 20.0745C88.481 20.0693 88.3422 20.0549 88.121 20.0324C87.9009 20.0098 87.7561 19.9964 87.6857 19.9903C87.5726 19.9903 87.4814 19.9913 87.412 19.9944C87.3416 19.9974 87.2672 20.0016 87.1859 20.0067C86.9925 20.0067 86.8556 19.9512 86.7753 19.8404L79.0064 9.6361V15.7849C79.0064 16.2192 79.0332 16.6915 79.0868 17.2028C79.0977 17.3414 79.1195 17.5365 79.1512 17.787C79.1839 18.0375 79.2048 18.2264 79.2157 18.3547C79.2375 18.5221 79.2504 18.6422 79.2563 18.7182C79.2613 18.7931 79.2831 18.9287 79.3208 19.1227C79.3426 19.2788 79.3694 19.404 79.4011 19.4985C79.4815 19.5324 79.5757 19.5488 79.6828 19.5488C79.7472 19.5539 79.8077 19.5591 79.8642 19.5611C79.9208 19.5642 79.9862 19.5714 80.0616 19.5816C80.2123 19.5981 80.3383 19.6207 80.4404 19.6484L80.4245 20.0734C80.3224 20.0395 80.2173 20.0231 80.1102 20.0231C79.9059 20.0005 79.7502 19.9892 79.6431 19.9892C79.5677 19.9779 79.3506 19.9728 78.9906 19.9728L78.6603 17.2449L78.2577 19.94C78.1982 19.9564 78.1486 19.9687 78.109 19.978C78.0683 19.9862 78.0078 20.0016 77.9275 20.0241C77.8581 20.0293 77.7827 20.0447 77.7014 20.0703C77.621 20.095 77.5427 20.1165 77.4673 20.133C77.4297 20.1494 77.3791 20.171 77.3146 20.1956C77.2502 20.2202 77.1986 20.2397 77.1619 20.2541C77.1242 20.2675 77.0836 20.2829 77.0409 20.3003C77.0082 20.3116 76.9804 20.3198 76.9566 20.325C76.9328 20.3301 76.8991 20.3383 76.8555 20.3496L76.8396 19.9246C76.8723 19.9194 76.909 19.9102 76.9527 19.8999C76.9953 19.8886 77.031 19.8804 77.0578 19.8753C77.1381 19.8363 77.2234 19.8003 77.3116 19.7664C77.3999 19.7326 77.4683 19.7049 77.5169 19.6833C77.5705 19.6607 77.6201 19.6412 77.6657 19.6248C77.7113 19.6083 77.7718 19.5888 77.8472 19.5662C77.8581 19.5108 77.867 19.4687 77.8749 19.441C77.8829 19.4133 77.8948 19.3691 77.9116 19.3075C77.9711 19.0406 78.0167 18.7901 78.0485 18.557C78.0703 18.3845 78.0871 18.2552 78.101 18.1689C78.1139 18.0827 78.1347 17.9451 78.1615 17.7562C78.2309 17.3671 78.2984 16.9759 78.3628 16.5837C78.4273 16.1915 78.46 15.8373 78.46 15.5201V8.87019C78.3043 8.56424 78.0733 8.3589 77.7668 8.25315C77.6597 8.2203 77.4901 8.19156 77.2591 8.17C77.1996 8.1587 77.1272 8.15357 77.0419 8.15357L77.0578 7.72852C77.1331 7.72852 77.1916 7.72955 77.2353 7.73263C77.2779 7.73571 77.3235 7.73981 77.3721 7.74495C77.4901 7.75624 77.5853 7.76753 77.6577 7.77882C77.7301 7.79012 77.8095 7.80141 77.8957 7.8127C78.105 7.83529 78.3608 7.92153 78.6613 8.07143L87.0589 19.2603L87.0569 19.2562ZM81.1019 9.79524C81.1346 9.83939 81.1782 9.89996 81.2348 9.97491C81.2913 10.0499 81.3567 10.1371 81.4321 10.2378L81.6741 10.5293L86.7912 17.171L86.8556 11.7726C86.8556 11.5776 86.7912 11.1833 86.6623 10.5878C86.5333 9.99236 86.4659 9.65869 86.4609 9.58682C86.4391 9.44206 86.3965 9.19155 86.332 8.83632C86.3162 8.77472 86.3043 8.73056 86.2953 8.70284C86.2874 8.67512 86.2775 8.63303 86.2676 8.57759C86.2081 8.555 86.1585 8.53755 86.1188 8.52317C86.0782 8.50983 86.0177 8.48827 85.9373 8.46055C85.8511 8.42153 85.7707 8.38868 85.6954 8.35993C85.62 8.33221 85.5446 8.30141 85.4693 8.26856C85.4425 8.26342 85.4078 8.25521 85.3641 8.24392C85.3215 8.23262 85.2858 8.22441 85.259 8.21928L85.2749 7.79423C85.3175 7.80552 85.3512 7.81373 85.376 7.81886C85.3998 7.824 85.4256 7.83324 85.4524 7.8435C85.6031 7.89895 85.7479 7.95746 85.8877 8.01906C86.0008 8.04678 86.093 8.06937 86.1654 8.0858C86.2378 8.10223 86.2983 8.11353 86.3469 8.11866C86.4064 8.13509 86.457 8.14741 86.4996 8.15665C86.5423 8.16486 86.6018 8.18026 86.6771 8.20285L87.0718 10.9061L87.4021 8.17C87.767 8.17 87.9872 8.16486 88.0625 8.15357C88.1756 8.15357 88.3283 8.14228 88.5217 8.11969C88.6347 8.11969 88.7388 8.10325 88.836 8.06937L88.8519 8.49442C88.7498 8.52214 88.6238 8.54473 88.4731 8.56116C88.4463 8.56629 88.4086 8.57143 88.36 8.57348C88.3114 8.57656 88.2618 8.57862 88.2113 8.5817C88.1597 8.58478 88.121 8.58889 88.0943 8.59402C87.9871 8.59402 87.8929 8.61045 87.8126 8.64433C87.7799 8.73878 87.7531 8.86403 87.7323 9.02009C87.6569 9.41536 87.6143 9.65972 87.6034 9.75417C87.5816 10.0273 87.5617 10.2603 87.5429 10.4554C87.524 10.6505 87.5092 10.8117 87.4983 10.939C87.4447 11.4513 87.4179 11.9236 87.4179 12.3568L87.3376 18.748L80.6645 9.94616C80.4067 9.60735 80.1707 9.25932 79.9555 8.90305C79.8583 8.75316 79.7799 8.63097 79.7175 8.53549C79.656 8.44104 79.6143 8.35172 79.5925 8.26856C79.5499 8.14638 79.5172 8.00469 79.4953 7.8435C79.5548 7.83837 79.6094 7.83426 79.6609 7.83118C79.7115 7.8281 79.778 7.82707 79.8583 7.82707C80.127 7.80449 80.3313 7.79423 80.4712 7.79423C80.5247 7.78293 80.5842 7.77472 80.6487 7.76959C80.7131 7.76445 80.7697 7.76035 80.8182 7.75727C80.8668 7.75419 80.9204 7.75008 80.9799 7.74495H81.2139L81.1981 8.08683C81.1177 8.11968 81.0453 8.13714 80.9809 8.13714C80.9273 8.14843 80.8797 8.15973 80.8401 8.17102C80.7994 8.18232 80.7478 8.19361 80.6834 8.2049C80.5703 8.23775 80.4969 8.26856 80.4622 8.29628C80.4275 8.324 80.4097 8.39073 80.4097 8.49648C80.4097 8.55192 80.4295 8.62584 80.4702 8.71722C80.5108 8.80859 80.5574 8.90202 80.611 8.99647C80.6645 9.09093 80.7082 9.16896 80.7399 9.23056C80.7994 9.35274 80.9194 9.54268 81.1029 9.79832L81.1019 9.79524Z" fill="#F3F3F3"/>
<path d="M102.03 20.0238C102.035 19.9406 102.053 19.7517 102.083 19.456C102.113 19.1614 102.128 18.9304 102.128 18.763C101.112 19.7866 99.807 20.2979 98.2114 20.2979C97.185 20.2641 96.2409 19.9776 95.3792 19.4386C94.5164 18.8996 93.8242 18.1634 93.2996 17.2322C92.776 16.301 92.4953 15.2672 92.4576 14.1327C92.4576 13.2651 92.5598 12.4961 92.7641 11.8257C92.9684 11.1553 93.1994 10.6255 93.4573 10.2364C93.7151 9.84728 93.96 9.53824 94.1911 9.31032C93.4662 10.5228 93.1032 11.8637 93.1032 13.3318C93.1032 13.6101 93.1191 13.8883 93.1518 14.1665C93.2163 14.9119 93.3789 15.6255 93.6397 16.3062C93.9005 16.9879 94.2506 17.5957 94.6909 18.1296C95.1312 18.6635 95.6529 19.0823 96.2548 19.3852C96.8568 19.6881 97.5143 19.84 98.2293 19.84C99.1803 19.84 99.9469 19.6686 100.53 19.3267C101.113 18.9848 101.647 18.4879 102.13 17.837C102.135 17.6368 102.138 17.453 102.141 17.2867C102.144 17.1203 102.145 16.9058 102.145 16.6439V15.7518C102.097 15.7518 101.706 15.6891 100.973 15.5639C100.239 15.4386 99.7951 15.3544 99.6394 15.3093L99.7525 14.8C99.8388 14.8164 100.113 14.8616 100.579 14.9335C101.044 15.0054 101.462 15.0639 101.836 15.1091C102.21 15.1532 102.498 15.1758 102.703 15.1758C102.708 15.4201 102.714 15.6891 102.719 15.9807C102.724 16.2723 102.727 16.4992 102.727 16.6604C102.727 16.8554 102.72 17.0495 102.707 17.2446C102.693 17.4396 102.687 17.609 102.687 17.7538C102.687 17.9263 102.686 18.0454 102.683 18.1121C102.68 18.1789 102.676 18.2466 102.671 18.3164C102.666 18.3862 102.66 18.4622 102.655 18.5454C102.65 18.6285 102.644 18.7179 102.639 18.8123C102.639 18.9458 102.634 19.1686 102.623 19.4797C102.613 19.7907 102.608 19.9714 102.608 20.0218H102.035L102.03 20.0238ZM102.425 11.0547L102.03 10.8709C102.057 10.721 102.102 10.5444 102.163 10.3411C102.225 10.1378 102.257 10.0064 102.257 9.9448C102.117 9.683 101.927 9.43557 101.688 9.20251C101.449 8.96842 101.178 8.7559 100.874 8.56391C100.571 8.37192 100.25 8.21895 99.9151 8.10498C99.5789 7.99102 99.2507 7.92531 98.9274 7.90888C98.863 7.90375 98.8035 7.89964 98.7499 7.89656C98.6963 7.89348 98.6259 7.89245 98.5407 7.89245C97.7404 7.89245 97.0561 8.05056 96.4898 8.36781C95.9226 8.68506 95.4714 9.11422 95.1362 9.65734C94.8 10.1994 94.561 10.8021 94.4192 11.4633C94.2764 12.1255 94.206 12.8041 94.206 13.4992C94.2546 14.8288 94.5432 15.9674 95.0727 16.916C95.6023 17.8647 96.353 18.645 97.3248 19.2559C96.6693 19.0947 96.1011 18.8113 95.6201 18.4047C95.1392 17.9992 94.7494 17.5249 94.4519 16.9817C94.1544 16.4386 93.9333 15.8647 93.7915 15.2589C93.6487 14.6532 93.5783 14.0659 93.5783 13.4982C93.5783 12.992 93.6268 12.4243 93.723 11.7959C93.8202 11.1676 94.0384 10.5157 94.3795 9.83906C94.7207 9.1635 95.2661 8.5906 96.0158 8.12037C96.7655 7.65015 97.7364 7.41504 98.9294 7.41504C99.5254 7.41504 100.091 7.46843 100.626 7.57315C101.161 7.6789 101.847 7.87603 102.685 8.16555C102.685 8.13783 102.703 8.10292 102.737 8.06083C102.772 8.01874 102.79 7.98485 102.79 7.95611C102.79 7.93968 102.803 7.9058 102.831 7.85549C102.857 7.80518 102.871 7.76104 102.871 7.72203C102.887 7.69944 102.905 7.67172 102.924 7.63886C102.943 7.60601 102.953 7.56904 102.953 7.53003L103.347 7.72203C103.342 7.73846 103.332 7.76925 103.319 7.81339C103.306 7.85754 103.299 7.88322 103.299 7.88835C103.299 7.92737 103.28 7.98281 103.242 8.05468C103.205 8.12757 103.186 8.1748 103.186 8.19636C103.068 8.53003 102.989 8.73024 102.952 8.79697C102.592 8.61319 102.273 8.47048 101.997 8.36678C101.72 8.26411 101.433 8.18506 101.138 8.1286C101.6 8.47356 102.167 9.03208 102.839 9.80517C102.661 10.1943 102.524 10.6091 102.428 11.0485L102.425 11.0547ZM103.956 19.9735H103.376C103.29 19.3842 103.22 18.7363 103.167 18.03C103.162 17.9016 103.158 17.6932 103.155 17.4037C103.152 17.1142 103.151 16.8791 103.151 16.6984V16.1265C103.151 16.0433 103.156 15.8904 103.167 15.6676C103.178 15.4448 103.183 15.2867 103.183 15.1922C103.521 15.1532 103.806 15.1101 104.037 15.0629C104.268 15.0156 104.493 14.9448 104.714 14.8503V15.2425C104.654 15.2702 104.571 15.3082 104.464 15.3555C104.357 15.4027 104.244 15.4571 104.126 15.5177C104.099 15.5177 104.064 15.5341 104.021 15.568C103.977 15.6019 103.94 15.6183 103.908 15.6183L103.779 15.685C103.741 15.7682 103.711 15.9212 103.69 16.144C103.68 16.5669 103.675 17.0536 103.675 17.6039C103.728 18.5269 103.822 19.3175 103.956 19.9735Z" fill="#F3F3F3"/>
<path d="M115.633 19.9065C115.714 19.8675 115.902 19.7762 116.198 19.6314C116.235 19.615 116.276 19.5965 116.319 19.577C116.361 19.5575 116.394 19.5421 116.415 19.5308C116.437 19.5308 116.457 19.5195 116.479 19.4969C116.49 19.3798 116.495 19.2135 116.495 18.9959C116.517 18.6232 116.528 18.0503 116.528 17.2772V15.5C116.528 14.7269 116.506 13.7002 116.463 12.4209C116.448 11.7094 116.413 11.0308 116.358 10.385C116.31 9.40043 116.267 8.76388 116.229 8.47435C116.203 8.26902 116.181 8.13247 116.165 8.06573C115.956 7.999 115.808 7.9569 115.722 7.94047C115.668 7.92918 115.622 7.92302 115.585 7.91994C115.547 7.91686 115.509 7.91275 115.472 7.90762C115.445 7.90249 115.42 7.89838 115.399 7.8953C115.377 7.89222 115.346 7.89119 115.303 7.89119V7.499C115.556 7.52159 115.805 7.53185 116.053 7.53185H116.826C116.918 8.48872 116.987 9.77928 117.036 11.4035C117.084 13.0277 117.108 14.4322 117.108 15.617V19.9055C116.555 19.9722 116.063 20.1026 115.633 20.2977V19.9055V19.9065ZM119.155 7.41686V7.84191C119.004 7.88606 118.722 7.92507 118.309 7.95895C118.271 8.52055 118.247 9.07291 118.237 9.61501C118.226 10.1571 118.219 10.7762 118.217 11.4713C118.214 12.1663 118.213 12.9066 118.213 13.691L118.938 12.9312L121.194 16.269C121.22 16.2854 121.246 16.3111 121.27 16.3439C121.294 16.3778 121.325 16.4189 121.362 16.4692C121.384 16.4969 121.415 16.5441 121.455 16.6109C121.495 16.6776 121.531 16.733 121.564 16.7772C121.612 16.8326 121.662 16.8973 121.712 16.9692C121.763 17.041 121.829 17.1252 121.91 17.2197C122.13 17.5482 122.394 17.9066 122.699 18.2957C123.032 18.7187 123.289 19.0297 123.469 19.23C123.648 19.4302 123.821 19.5985 123.984 19.7351C124.148 19.8716 124.335 19.9928 124.545 20.0985C124.351 20.0821 124.112 20.0072 123.828 19.8737C123.543 19.7402 123.141 19.4189 122.623 18.9096C122.104 18.4004 121.479 17.6345 120.749 16.6109L118.824 13.8573L118.211 14.4415C118.211 14.6468 118.21 14.8172 118.207 14.9507C118.204 15.0842 118.2 15.232 118.195 15.3932V17.1704C118.184 17.4712 118.179 17.9158 118.179 18.5051C118.179 18.8942 118.184 19.192 118.195 19.3983C118.668 19.4702 119.025 19.5431 119.267 19.615L119.251 20.04C118.671 19.9394 118.267 19.8901 118.042 19.8901C117.871 19.8901 117.739 19.8952 117.647 19.9065C117.647 19.5893 117.646 19.3326 117.643 19.1345C117.641 18.9373 117.637 18.7217 117.632 18.4877V17.2197C117.627 16.9302 117.622 16.6632 117.62 16.4189C117.617 16.1745 117.61 15.8624 117.6 15.4846V11.9097C117.6 11.729 117.601 11.5 117.604 11.2218C117.607 10.9435 117.611 10.7351 117.616 10.5965C117.616 9.68483 117.627 9.00618 117.648 8.56059C117.664 8.14889 117.686 7.807 117.713 7.5339C118.331 7.51132 118.812 7.4723 119.156 7.41686H119.155ZM119.268 12.5226C119.477 12.2669 119.652 12.0503 119.791 11.8717C119.98 11.6602 120.234 11.3542 120.553 10.9538C120.872 10.5534 121.166 10.1222 121.432 9.66017C121.697 9.19816 121.948 8.63657 122.185 7.97436C122.143 7.96306 122.103 7.95587 122.068 7.95382C122.034 7.95074 121.997 7.94663 121.959 7.9415C121.889 7.9415 121.779 7.93021 121.629 7.90865C121.576 7.89735 121.528 7.88607 121.488 7.87477C121.448 7.86348 121.39 7.85218 121.315 7.84088C121.283 7.84088 121.25 7.83576 121.219 7.82446V7.39941C121.788 7.48874 122.347 7.53288 122.894 7.53288C122.61 8.35628 122.263 9.12116 121.855 9.82752L123.87 7.53288C124.262 7.51645 124.604 7.47128 124.894 7.39941V7.80803C124.695 7.89736 124.458 7.9415 124.185 7.9415L123.774 8.40865L119.946 12.5216L122.388 16.0421C122.597 16.348 122.854 16.7176 123.157 17.1519C123.461 17.5862 123.81 18.0164 124.204 18.4456C124.599 18.8737 125.019 19.2269 125.462 19.5051C125.905 19.7833 126.36 19.9219 126.827 19.9219V20.2803C126.403 20.2803 126.014 20.2186 125.663 20.0965C125.311 19.9743 124.988 19.8059 124.692 19.5913C124.397 19.3778 124.105 19.117 123.818 18.8111C123.53 18.5051 123.228 18.1519 122.911 17.7515C122.798 17.5852 122.669 17.4045 122.525 17.2094C122.38 17.0144 122.267 16.8645 122.186 16.7587C122.122 16.6755 122.056 16.5852 121.989 16.4877C121.922 16.3901 121.867 16.3162 121.823 16.2669L119.269 12.5205L119.268 12.5226Z" fill="#F3F3F3"/>
<path d="M133.79 19.8224C134.43 19.8059 135.014 19.6889 135.542 19.4722C136.072 19.2556 136.538 18.9312 136.941 18.5C137.343 18.0688 137.657 17.5298 137.88 16.8809C138.103 16.233 138.214 15.4866 138.214 14.6406C138.214 14.3901 138.209 14.1981 138.198 14.0647C138.171 13.4969 138.077 12.8809 137.917 12.2166C137.756 11.5524 137.431 10.8552 136.942 10.1263C136.453 9.39734 135.755 8.81316 134.846 8.37374C135.658 8.5185 136.366 8.87168 136.97 9.43328C137.573 9.99488 138.034 10.6807 138.348 11.4897C138.662 12.2988 138.833 13.1684 138.86 14.0975C138.86 15.1437 138.726 16.0585 138.457 16.8429C138.188 17.6273 137.813 18.2741 137.332 18.7823C136.852 19.2916 136.303 19.6684 135.688 19.9127C135.073 20.1571 134.424 20.2854 133.743 20.2967C132.614 20.2967 131.595 20.0061 130.684 19.425C129.774 18.8439 129.058 18.0369 128.536 17.0051C128.016 15.9733 127.755 14.8316 127.755 13.5801C127.786 12.8121 127.899 12.1437 128.089 11.5739C128.279 11.0041 128.496 10.5421 128.738 10.1889C128.979 9.83574 129.213 9.5534 129.439 9.3419C129.203 9.81521 129.004 10.2567 128.847 10.6684C128.688 11.0801 128.571 11.5154 128.496 11.9743C128.42 12.4333 128.383 12.9466 128.383 13.5133C128.393 14.693 128.625 15.7628 129.08 16.7259C129.534 17.6879 130.169 18.4445 130.986 18.9948C131.802 19.5451 132.737 19.8213 133.79 19.8213V19.8224ZM134.201 7.39941C135.361 7.43843 136.379 7.75773 137.255 8.35937C138.131 8.95998 138.806 9.76901 139.282 10.7875C139.757 11.8049 139.995 12.9312 139.995 14.1663C139.968 15.0616 139.832 15.8306 139.585 16.4733C139.338 17.116 139.074 17.6006 138.795 17.9291C138.516 18.2577 138.25 18.5082 137.998 18.6796C138.75 17.7012 139.191 16.4856 139.32 15.0339C139.342 14.7002 139.353 14.4497 139.353 14.2834C139.353 13.4107 139.223 12.5914 138.962 11.8265C138.701 11.0616 138.337 10.3912 137.87 9.81623C137.403 9.24026 136.847 8.78134 136.202 8.43945C135.557 8.09756 134.886 7.91481 134.187 7.89325C133.182 7.89325 132.36 8.08523 131.721 8.46922C131.081 8.8532 130.602 9.33369 130.282 9.91275C129.962 10.4908 129.75 11.0667 129.645 11.6396C129.54 12.2125 129.488 12.7628 129.488 13.2916C129.553 16 130.619 17.9887 132.687 19.2566C132.064 19.1006 131.512 18.8295 131.031 18.4435C130.55 18.0564 130.15 17.5893 129.83 17.0421C129.511 16.4938 129.266 15.8963 129.098 15.2484C128.928 14.6006 128.844 13.9312 128.844 13.2423C128.865 12.347 129.033 11.462 129.347 10.5893C129.662 9.71665 130.218 8.96613 131.015 8.34088C131.813 7.71563 132.876 7.40248 134.203 7.40248L134.201 7.39941Z" fill="#F3F3F3"/>
<path d="M142.719 8.10094C142.435 7.97877 142.235 7.88738 142.123 7.82578V7.43359C142.37 7.53934 142.615 7.6225 142.857 7.6841C143.099 7.7457 143.368 7.79293 143.663 7.82578C143.674 8.00956 143.679 8.28779 143.679 8.66048V12.0978C143.679 13.4941 143.653 14.9305 143.603 16.4069C143.551 17.8832 143.483 19.0506 143.398 19.9068H142.591C142.328 19.9068 142.062 19.9233 141.794 19.9571V19.565C141.827 19.5598 141.855 19.5557 141.878 19.5526C141.902 19.5496 141.931 19.5485 141.963 19.5485C142.027 19.5372 142.079 19.5301 142.115 19.528C142.153 19.5249 142.191 19.5208 142.228 19.5157C142.326 19.488 142.388 19.4725 142.418 19.4695C142.448 19.4664 142.486 19.4602 142.535 19.4489C142.583 19.4376 142.64 19.4263 142.704 19.4161C142.774 18.8822 142.837 18.1851 142.894 17.3257C142.95 16.4664 142.991 15.5999 143.015 14.7272C143.039 13.8545 143.052 13.0167 143.052 12.2159C143.056 12.0208 143.059 11.7252 143.059 11.3278C143.059 10.9305 143.062 10.6338 143.067 10.4397C143.067 9.67794 143.062 9.10505 143.052 8.72107C143.052 8.61018 143.051 8.51983 143.048 8.45002C143.045 8.3802 143.041 8.30423 143.036 8.22107C143.02 8.21594 143.005 8.21183 142.991 8.20875C142.977 8.20567 142.965 8.20464 142.954 8.20464C142.917 8.18205 142.878 8.16152 142.837 8.14201C142.797 8.1225 142.758 8.11018 142.72 8.10402L142.719 8.10094ZM145.225 8.23442H144.862V16.4695C144.867 16.6255 144.871 16.7703 144.874 16.9038C144.877 17.0372 144.878 17.2128 144.878 17.4294V18.7477C144.894 18.8699 144.902 19.068 144.902 19.3401C145.165 19.3514 145.55 19.3565 146.054 19.3565C146.699 19.3514 147.257 19.3052 147.73 19.219C148.203 19.1327 148.555 19.0393 148.786 18.9397C149.018 18.8391 149.2 18.7446 149.335 18.6563C149.335 18.5506 149.334 18.4674 149.331 18.4058C149.328 18.3442 149.324 18.2754 149.319 18.1974C149.324 18.0968 149.328 18.0075 149.331 17.9264C149.334 17.8463 149.335 17.7446 149.335 17.6214H149.681C149.681 18.2559 149.727 18.7149 149.818 18.9982C149.764 19.0259 149.724 19.0516 149.697 19.0732C149.53 19.1235 149.428 19.1512 149.39 19.1563C149.32 19.1789 149.216 19.2066 149.076 19.2395C148.936 19.2723 148.831 19.3011 148.762 19.3227C148.531 19.3617 148.359 19.3976 148.246 19.4315C148.117 19.4592 148.019 19.4818 147.951 19.4982C147.884 19.5146 147.808 19.5321 147.721 19.5485H149.817C149.839 19.6984 149.865 19.835 149.897 19.9571C149.908 20.0126 149.915 20.0629 149.917 20.107C149.92 20.1512 149.924 20.1984 149.929 20.2487C149.934 20.26 149.938 20.2723 149.941 20.2867C149.944 20.3001 149.945 20.3155 149.945 20.3329H149.678C149.629 20.2662 149.587 20.1522 149.549 19.991H149.372C149.301 19.9859 149.237 19.9808 149.178 19.9787C149.119 19.9756 149.043 19.9746 148.952 19.9746C148.753 19.9746 148.605 19.9695 148.509 19.9582C148.427 19.9582 148.309 19.953 148.154 19.9417C147.998 19.9305 147.879 19.9253 147.799 19.9253C147.702 19.914 147.53 19.9089 147.282 19.9089H144.232C144.221 19.6697 144.216 19.3165 144.216 18.8493C144.216 18.6101 144.215 18.4171 144.212 18.2693C144.209 18.1214 144.205 17.9623 144.2 17.7898C144.205 17.6122 144.209 17.4489 144.212 17.3021C144.215 17.1553 144.216 16.9644 144.216 16.7303C144.216 16.5352 144.215 16.3802 144.212 16.2631C144.209 16.1461 144.205 16.0188 144.2 15.8791L144.233 7.82784C144.675 7.82784 145.003 7.81655 145.219 7.79499C145.301 7.7837 145.381 7.77548 145.462 7.77035C145.544 7.76522 145.625 7.75802 145.709 7.74981C145.793 7.7416 145.875 7.73441 145.956 7.72928C146.102 7.69643 146.256 7.67897 146.417 7.67897V8.05475C146.337 8.08247 146.248 8.10504 146.152 8.12147C146.049 8.14919 145.869 8.17692 145.611 8.20464C145.514 8.20464 145.385 8.21593 145.224 8.23749L145.225 8.23442Z" fill="#F3F3F3"/>
<path d="M104.878 13.3537C106.098 10.672 108.62 9.50468 110.971 11.595C111.736 12.3691 112.897 12.7706 113.858 12.1125C113.097 12.8958 111.813 12.7285 111.015 12.0848C108.616 9.99236 106.558 10.9236 104.878 13.3537Z" fill="#F3F3F3"/>
<path d="M115.817 11.0146C114.597 13.6964 112.075 14.8637 109.724 12.7734C108.959 11.9992 107.798 11.5978 106.837 12.2559C107.599 11.4725 108.882 11.6399 109.68 12.2836C112.079 14.376 114.137 13.4448 115.817 11.0146Z" fill="#F3F3F3"/>
<path d="M54.1944 27.2505C53.2949 27.2505 52.5601 27.4086 51.9889 27.7259C52.0127 27.9168 52.0236 28.232 52.0236 28.6704H51.7598C51.7598 28.4877 51.7519 28.2895 51.736 28.076C51.7201 27.8624 51.6914 27.6519 51.6477 27.4456C51.8669 27.4004 52.0385 27.3604 52.1634 27.3234C52.2021 27.3152 52.2745 27.2988 52.3806 27.2741C52.4867 27.2495 52.5621 27.2331 52.6097 27.2248C52.6722 27.2084 52.7178 27.1961 52.7475 27.1858C52.7773 27.1756 52.8229 27.1632 52.8854 27.1468H51.6477C51.6477 26.9856 51.6279 26.7977 51.5892 26.5801H51.8649C51.8649 26.6612 51.8768 26.7444 51.8996 26.8285C52.334 26.8614 52.7386 26.8768 53.1135 26.8768L54.6734 26.9004C54.7517 27.6376 54.7963 28.2423 54.8082 28.7156C54.8162 28.8778 54.8231 29.1006 54.8291 29.384C54.835 29.6673 54.84 29.9302 54.844 30.1735C54.8519 30.3963 54.8598 30.6365 54.8677 30.8932C54.8757 31.1499 54.8796 31.3573 54.8796 31.5154V35.6201C54.6684 35.6488 54.4701 35.6858 54.2846 35.732C54.0992 35.7782 53.9375 35.8357 53.8007 35.9055V35.6201C53.8711 35.58 53.9256 35.5503 53.9653 35.5318C54.004 35.5133 54.0466 35.4938 54.0913 35.4743C54.1359 35.4538 54.1746 35.4363 54.2053 35.4199C54.2251 35.4158 54.2489 35.4055 54.2787 35.3891C54.3084 35.3726 54.3362 35.3583 54.364 35.347C54.3759 35.3429 54.3858 35.3398 54.3937 35.3377C54.4017 35.3357 54.4116 35.3347 54.4235 35.3347C54.4274 35.2741 54.4304 35.2197 54.4324 35.1704C54.4344 35.1221 54.4354 35.0605 54.4354 34.9876C54.4433 34.6961 54.4473 34.2731 54.4473 33.7176V32.423C54.4473 32.1838 54.4473 31.9219 54.4443 31.6365C54.4423 31.3511 54.4314 30.9137 54.4116 30.3244C54.3917 29.7351 54.364 29.1632 54.3263 28.6078C54.2886 28.0524 54.245 27.5996 54.1944 27.2464V27.2505ZM55.3457 26.9035L56.9196 26.8799C56.9582 26.8758 57.1209 26.8696 57.4075 26.8614C57.6931 26.8532 57.9321 26.8388 58.1244 26.8193C58.1403 26.7146 58.1562 26.6355 58.1711 26.5821H58.4358C58.3972 26.7628 58.3773 26.9517 58.3773 27.1489H57.1278C57.1903 27.1612 57.2428 27.1735 57.2865 27.1879C57.3291 27.2023 57.3728 27.2146 57.4154 27.2269C57.4541 27.231 57.5265 27.2464 57.6326 27.2731C57.7377 27.2998 57.8141 27.3172 57.8617 27.3244C57.9866 27.3614 58.1552 27.4014 58.3664 27.4466C58.3039 27.8809 58.2722 28.2895 58.2722 28.6715H57.9965C57.9965 28.1879 58.0124 27.8727 58.0431 27.7259C57.4799 27.4168 56.7272 27.2628 55.7851 27.2628C55.7385 27.6355 55.7087 28.1376 55.6968 28.77V30.1006C55.6968 30.3604 55.6958 30.5708 55.6938 30.733C55.6918 30.8953 55.6889 31.0729 55.6849 31.2679V33.6437C55.6849 33.8624 55.6839 34.039 55.6819 34.1725C55.6799 34.3059 55.677 34.4538 55.673 34.616C55.6809 34.7577 55.6849 34.9702 55.6849 35.2536C55.9507 35.2823 56.2145 35.3347 56.4773 35.4117L56.4654 35.7217C56.0488 35.6488 55.7484 35.6129 55.5639 35.6129C55.4419 35.6129 55.3497 35.617 55.2872 35.6252C55.2833 35.4548 55.2803 35.2854 55.2783 35.1149C55.2763 34.9445 55.2753 34.7751 55.2753 34.6047C55.2674 34.4989 55.2634 34.346 55.2634 34.1427C55.2634 33.9394 55.2595 33.7926 55.2515 33.6991C55.2515 33.4117 55.2505 33.1796 55.2486 33.0041C55.2466 32.8285 55.2436 32.6365 55.2396 32.4302V29.8552C55.2396 29.7259 55.2396 29.5565 55.2426 29.348C55.2446 29.1396 55.2476 28.9846 55.2515 28.884C55.2515 28.3296 55.2634 27.9107 55.2872 27.6273C55.3031 27.2998 55.3229 27.0585 55.3467 26.9045L55.3457 26.9035Z" fill="#F3F3F3"/>
<path d="M59.4206 27.128V26.8179C59.4444 26.8179 59.8073 26.8467 60.5114 26.9031C60.5194 26.9801 60.5253 27.0592 60.5293 27.1403C60.5332 27.2214 60.5392 27.3046 60.5471 27.3887C60.5551 27.474 60.561 27.5571 60.565 27.6372C60.5729 27.8354 60.5808 28.052 60.5888 28.2871C60.5967 28.5222 60.6007 28.708 60.6007 28.8456C60.6086 29.1454 60.6126 29.6085 60.6126 30.2358V31.2676C60.6086 31.3928 60.6066 31.5828 60.6066 31.8353C60.6066 32.0879 60.6046 32.2778 60.6007 32.4031C60.6007 32.5407 60.5967 32.7512 60.5888 33.0345C60.5808 33.3179 60.5769 33.5283 60.5769 33.6659V34.5889C60.5769 34.8199 60.5759 35.0058 60.5739 35.1474C60.5719 35.2891 60.5689 35.4472 60.565 35.6207C60.4985 35.6125 60.4004 35.6084 60.2714 35.6084C60.0721 35.6084 59.7647 35.6443 59.3502 35.7172L59.3383 35.4072C59.5495 35.3466 59.8212 35.2943 60.1534 35.2491V33.6279C60.1455 33.3487 60.1415 32.9175 60.1415 32.3343V30.0633C60.1415 29.4647 60.1376 29.015 60.1296 28.7152C60.1296 28.5571 60.1247 28.3805 60.1147 28.1844C60.1048 27.9883 60.0959 27.8271 60.088 27.7019C60.08 27.5766 60.0731 27.4678 60.0671 27.3774C60.0612 27.2861 60.0582 27.2327 60.0582 27.2163C59.8153 27.1834 59.603 27.1536 59.4186 27.1249L59.4206 27.128ZM62.4918 32.2162C62.2538 32.208 61.9067 32.1741 61.4496 32.1125C61.4258 32.36 61.4148 32.6043 61.4148 32.8477C61.4188 32.9893 61.4218 33.1207 61.4238 33.2419C61.4258 33.363 61.4267 33.5191 61.4267 33.709V34.9596C61.4347 35.016 61.4406 35.0643 61.4446 35.1023C61.4486 35.1413 61.4515 35.1772 61.4535 35.2111C61.4555 35.246 61.4585 35.283 61.4625 35.323C61.4783 35.3394 61.4932 35.3476 61.5091 35.3476C61.5517 35.3641 61.6053 35.3887 61.6677 35.4205C61.7381 35.4565 61.8829 35.5242 62.1021 35.6207V35.9062C61.7778 35.7645 61.4079 35.669 60.9934 35.6207C60.9854 35.4791 60.9815 35.2727 60.9815 35.0016V32.4996C60.9815 32.2727 60.9815 32.0232 60.9845 31.7501C60.9864 31.477 60.9954 31.013 61.0112 30.36C61.0271 29.706 61.0499 29.0315 61.0816 28.3354C61.1124 27.6393 61.1362 27.1413 61.1521 26.8415L61.5101 26.8292C61.5606 26.821 61.6291 26.8169 61.7153 26.8169C62.231 26.7563 62.5464 26.7235 62.6634 26.7194C62.706 26.7152 62.7457 26.7122 62.7804 26.7101C62.8151 26.708 62.8607 26.707 62.9153 26.707C63.6194 26.707 64.2074 26.8508 64.6785 27.1382C65.1495 27.4257 65.4966 27.7963 65.7168 28.2491C65.9379 28.7029 66.048 29.1659 66.048 29.6392C66.0401 30.206 65.8655 30.7265 65.5244 31.1998C65.1833 31.6731 64.7201 31.9411 64.136 32.0017C64.4722 31.8682 64.8034 31.6269 65.1297 31.2789C65.456 30.9308 65.6216 30.3918 65.6256 29.6639C65.6256 28.6393 65.336 27.9483 64.7558 27.59C64.1757 27.2317 63.542 27.053 62.8548 27.053C62.6555 27.053 62.5305 27.0571 62.4799 27.0653C62.1913 27.0859 61.9276 27.1485 61.6895 27.2532C61.6152 27.7306 61.5567 28.4411 61.514 29.3846C61.4714 30.3282 61.4496 31.1136 61.4496 31.7409C61.8363 31.8343 62.2826 31.8928 62.7903 31.9175C62.8211 31.9616 62.8776 32.0458 62.9569 32.169C63.0373 32.2922 63.1096 32.4031 63.1761 32.4996C63.2267 32.5684 63.3278 32.7234 63.4805 32.9637C63.6323 33.2049 63.7671 33.4185 63.8842 33.6043C64.0448 33.8271 64.1946 34.0273 64.3334 34.2049C64.4722 34.3836 64.6249 34.5622 64.7915 34.7419C64.9581 34.9216 65.1337 35.0961 65.3171 35.2645C65.5016 35.4329 65.7168 35.6094 65.9637 35.7963C65.6434 35.707 65.3489 35.5766 65.0811 35.4051C64.8134 35.2327 64.5516 35.0099 64.2947 34.7337C64.0389 34.4585 63.7751 34.1269 63.5024 33.7378C63.2306 33.3487 62.8935 32.8415 62.4908 32.2142L62.4918 32.2162ZM64.5208 33.8189L63.189 31.8025C63.4974 31.7173 63.7751 31.5735 64.023 31.3713C64.2709 31.169 64.4653 30.9175 64.6051 30.6187C64.7459 30.3189 64.8213 29.9976 64.8332 29.6536C64.8332 29.0551 64.6666 28.5746 64.3324 28.2142C63.9982 27.8538 63.6015 27.6095 63.1414 27.4791C63.419 27.4791 63.6878 27.5253 63.9456 27.6187C64.2045 27.7122 64.4276 27.8456 64.615 28.0191C64.8034 28.1937 64.9562 28.4134 65.0732 28.6814C65.1912 28.9483 65.2517 29.244 65.2557 29.5674C65.2557 29.9483 65.1912 30.2943 65.0613 30.6054C64.9314 30.9175 64.7519 31.1824 64.5228 31.4011C64.2927 31.6197 64.0309 31.7922 63.7364 31.9175L65.1813 34.0304C65.3261 34.245 65.5185 34.478 65.7565 34.7286C65.9955 34.9801 66.2751 35.1977 66.5964 35.3846C66.9177 35.5704 67.2599 35.6659 67.6248 35.67V35.9072C67.1825 35.9072 66.7561 35.7901 66.3455 35.555C65.935 35.3199 65.577 35.0458 65.2715 34.7327C64.9661 34.4195 64.7162 34.1146 64.5208 33.8189Z" fill="#F3F3F3"/>
<path d="M73.9309 32.4537H70.3648C70.1457 33.0975 70.0049 33.6314 69.9424 34.0564C69.8799 34.4815 69.8482 34.8839 69.8482 35.2648C69.993 35.2936 70.2885 35.3295 70.7337 35.3736V35.6837C70.2141 35.6437 69.7936 35.6231 69.4723 35.6231L69.7946 33.4732L69.0261 35.5985C68.6462 35.6837 68.3358 35.7864 68.0939 35.9086V35.5985C68.203 35.5739 68.4221 35.4989 68.7504 35.3736C68.7742 35.3254 68.791 35.2864 68.8029 35.2587C68.8148 35.2299 68.8337 35.194 68.8614 35.1498C68.8961 35.0646 68.9804 34.8706 69.1133 34.5667C69.1639 34.4332 69.2204 34.2936 69.2839 34.1478C69.3464 34.002 69.393 33.8891 69.4247 33.8079C69.4634 33.7227 69.5715 33.462 69.747 33.0246C69.7708 32.9681 69.7887 32.9219 69.8025 32.888C69.8164 32.8542 69.8313 32.8162 69.8462 32.7761L71.8107 26.8922C71.7324 26.884 71.6134 26.8798 71.4527 26.8798C71.3476 26.8798 71.2673 26.8716 71.2127 26.8552C71.1344 26.8552 71.0392 26.8511 70.9251 26.8429C70.8121 26.8347 70.7476 26.8306 70.7318 26.8306V26.5205H71.9932C72.1538 26.8603 72.2837 27.156 72.3829 27.4065C72.4831 27.6571 72.5813 27.923 72.6794 28.2022C72.7766 28.4815 72.8649 28.7248 72.9432 28.9312L75.5236 35.6221C75.2261 35.6221 74.755 35.7176 74.1104 35.9075V35.5975C74.3455 35.5615 74.5974 35.4866 74.8671 35.3726C74.8473 35.312 74.8274 35.2463 74.8056 35.1755C74.7838 35.1047 74.7679 35.0513 74.756 35.0143C74.7213 34.8367 74.6559 34.5913 74.5626 34.2792C74.4922 34.0328 74.3941 33.732 74.2691 33.3778C74.1441 33.0236 74.0301 32.7145 73.929 32.4517L73.9309 32.4537ZM70.5057 32.0164H73.7842L71.9952 27.5657L70.5057 32.0164ZM72.9452 26.5215C73.0037 26.6838 73.1485 27.0759 73.3796 27.6991C73.688 28.5821 73.9488 29.2956 74.16 29.8429C74.2225 30.0174 74.3127 30.2536 74.4298 30.5533C74.5468 30.8531 74.6638 31.154 74.7788 31.4548C74.8939 31.7566 74.9831 31.9938 75.0456 32.1683C75.0654 32.2166 75.1696 32.4928 75.359 32.9969C75.5484 33.501 75.708 33.9291 75.837 34.2812C75.95 34.5318 76.0869 34.8603 76.2475 35.2648C76.3338 35.2813 76.3943 35.2977 76.429 35.3131C76.5232 35.3295 76.5906 35.3377 76.6343 35.3377C76.7285 35.3541 76.8009 35.3624 76.8515 35.3624C76.8713 35.3624 76.8872 35.3624 76.8981 35.3654C76.91 35.3675 76.9219 35.3706 76.9338 35.3747V35.6847C76.9219 35.6806 76.905 35.6776 76.8842 35.6755C76.8624 35.6734 76.8405 35.6714 76.8167 35.6693C76.7929 35.6673 76.7761 35.6642 76.7642 35.6601C76.6938 35.6519 76.6363 35.6447 76.5916 35.6385C76.546 35.6324 76.4964 35.6272 76.4419 35.6231H75.9371C75.835 35.3644 75.7497 35.1355 75.6793 34.9373C75.6089 34.7392 75.5464 34.5728 75.4919 34.4394C75.4373 34.2854 75.3719 34.116 75.2955 33.9291C75.2191 33.7433 75.1467 33.5626 75.0783 33.3891C75.0099 33.2156 74.9474 33.0554 74.8909 32.9096C74.8344 32.7638 74.759 32.5739 74.6648 32.3388C74.5081 31.9342 74.396 31.6416 74.3276 31.4609C74.2592 31.2813 74.1908 31.1016 74.1223 30.924C74.0539 30.7464 73.9418 30.4548 73.7852 30.0492C73.4291 29.1262 73.1614 28.4014 72.9819 27.8757C72.9115 27.6735 72.855 27.5092 72.8113 27.384C72.7687 27.2587 72.725 27.1345 72.6824 27.0102C72.6398 26.887 72.5822 26.7238 72.5118 26.5215H72.9462H72.9452Z" fill="#F3F3F3"/>
<path d="M81.2089 35.9087C81.1772 35.8152 81.0404 35.4395 80.7984 34.7793C80.4186 33.7228 80.1627 33.0308 80.0298 32.7023C79.9673 32.536 79.8781 32.3091 79.7631 32.0196C79.648 31.73 79.532 31.4395 79.417 31.1479C79.3019 30.8563 79.2127 30.6274 79.1502 30.4621C79.0639 30.2311 78.9727 29.9857 78.8745 29.7239C78.7763 29.4631 78.694 29.2383 78.6256 29.0504C78.5572 28.8625 78.4719 28.6448 78.3707 28.3974C78.2845 28.1993 78.2071 28.0196 78.1387 27.8605C78.0703 27.7003 78.0127 27.5699 77.9651 27.4693C77.9334 27.457 77.9046 27.4446 77.8769 27.4333C77.8491 27.421 77.8223 27.4149 77.7946 27.4149C77.7747 27.4108 77.7063 27.3984 77.5893 27.3789C77.5149 27.3789 77.4425 27.3666 77.3721 27.343H77.2898V27.0453C77.3285 27.0453 77.3612 27.0463 77.387 27.0483C77.4128 27.0504 77.4405 27.0535 77.4723 27.0576C77.5427 27.0658 77.6032 27.074 77.6537 27.0822C77.7043 27.0904 77.7509 27.0945 77.7946 27.0945C77.9314 27.1027 78.0921 27.1069 78.2755 27.1069C78.4164 27.4672 78.5651 27.8533 78.7218 28.267C78.812 28.5021 78.9072 28.7424 79.0094 28.9898C79.1115 29.2372 79.1948 29.4405 79.2613 29.5997C79.3277 29.7598 79.4199 29.9888 79.537 30.2886C79.6698 30.6048 79.8097 30.96 79.9564 31.3543C80.1032 31.7485 80.247 32.1325 80.3878 32.5052C80.8063 33.5822 81.0741 34.2865 81.1911 34.6181C81.3666 35.0873 81.5193 35.5185 81.6483 35.9117H81.208L81.2089 35.9087ZM82.1649 34.9128L83.8716 29.806C84.1374 29.0494 84.2703 28.2701 84.2703 27.4682C84.1761 27.4395 83.8835 27.3974 83.3907 27.3409V27.0432C83.9103 27.0832 84.3228 27.1038 84.6283 27.1038L84.3179 29.1931L85.0745 27.1284C85.4425 27.0432 85.7469 26.9405 85.9899 26.8184V27.1284C85.8689 27.1613 85.7499 27.1972 85.6319 27.2372C85.5148 27.2773 85.4206 27.3122 85.3502 27.3409C85.3264 27.3892 85.3086 27.4303 85.2947 27.4621C85.2808 27.4949 85.2639 27.5288 85.2451 27.5658C85.2173 27.6305 85.1797 27.7167 85.1311 27.8235C85.0825 27.9303 85.0359 28.0309 84.9932 28.1243C84.8058 28.5411 84.6917 28.7906 84.6531 28.8707C84.5906 29.0329 84.5232 29.2023 84.4508 29.381C84.3784 29.5596 84.3189 29.7167 84.2723 29.8543L82.2899 35.9087H82.1312C82.0806 35.767 82.041 35.6633 82.0142 35.5986C81.9676 35.4775 81.922 35.3594 81.8793 35.2464C81.8367 35.1335 81.7891 35.0134 81.7385 34.8881C81.6879 34.7711 81.6403 34.6623 81.5977 34.5637C81.555 34.4641 81.4995 34.3399 81.4331 34.19C81.3468 33.9395 81.2724 33.7362 81.2099 33.5832L78.6702 27.1048C78.9013 27.1007 79.168 27.0596 79.4705 26.9806C79.773 26.9015 79.9753 26.8481 80.0774 26.8194V27.1294C79.8464 27.1541 79.5984 27.2249 79.3327 27.342C79.3446 27.382 79.3575 27.4344 79.3704 27.497C79.3842 27.5596 79.4031 27.6274 79.4259 27.7003C79.4685 27.8861 79.533 28.1192 79.6193 28.3984C79.7363 28.7834 79.8325 29.0648 79.9069 29.2424L82.1649 34.9138V34.9128Z" fill="#F3F3F3"/>
<path d="M87.2969 35.6229C87.4218 35.5706 87.5666 35.5038 87.7312 35.4227C87.7699 35.4063 87.8016 35.3929 87.8254 35.3837C87.8492 35.3734 87.874 35.3621 87.9018 35.3498C87.9256 35.3498 87.9444 35.3416 87.9603 35.3252C87.9682 35.2359 87.9732 35.1681 87.9752 35.1219C87.9772 35.0757 87.9801 35.0213 87.9841 34.9607V32.4166C87.9841 32.1979 87.9782 31.779 87.9663 31.1599C87.9544 30.5408 87.9415 30.0634 87.9286 29.7266C87.9147 29.3909 87.8909 28.9741 87.8582 28.4761C87.8254 27.9782 87.7828 27.5552 87.7322 27.2072C87.6975 27.1907 87.5775 27.1568 87.3742 27.1035C87.3425 27.0952 87.3117 27.0901 87.28 27.0881C87.2483 27.086 87.2156 27.0829 87.1799 27.0788C87.164 27.0747 87.1471 27.0716 87.1303 27.0696C87.1124 27.0675 87.0886 27.0665 87.0569 27.0665V26.7811C87.0995 26.7811 87.1977 26.7872 87.3504 26.7996C87.5031 26.8119 87.5983 26.818 87.638 26.818H88.2241C88.232 26.8468 88.2539 27.1343 88.2915 27.6805C88.3282 28.2267 88.3629 28.9248 88.3937 29.7718C88.4254 30.6199 88.4403 31.5295 88.4403 32.5008V35.0028C88.4403 35.1363 88.4403 35.2472 88.4373 35.3334C88.4353 35.4207 88.4324 35.5161 88.4284 35.6219C88.0099 35.6702 87.6331 35.7656 87.2959 35.9073V35.6219L87.2969 35.6229ZM89.2436 30.4977H90.1113C90.4435 30.4977 90.8293 30.4823 91.2666 30.4525C91.7049 30.4217 92.051 30.3848 92.3049 30.3406C92.3049 30.3242 92.3089 30.2985 92.3168 30.2616C92.3247 30.2256 92.3287 30.201 92.3287 30.1887C92.3406 30.0952 92.3575 30.009 92.3813 29.9279C92.3892 29.9074 92.3951 29.8889 92.3991 29.8704C92.4031 29.8519 92.408 29.8303 92.414 29.8036C92.4199 29.777 92.4249 29.7523 92.4289 29.7277H92.7283C92.7006 29.8129 92.6778 29.9751 92.6579 30.2133C92.65 30.2821 92.646 30.3817 92.646 30.511C92.646 30.5357 92.6421 30.5696 92.6341 30.6147C92.6262 30.6589 92.6222 30.6958 92.6222 30.7236H90.974C91.6385 30.8406 92.1879 30.9782 92.6222 31.1363C92.6222 31.4679 92.6569 31.8006 92.7274 32.1322H92.3813C92.3307 31.9053 92.3049 31.6568 92.3049 31.3858C91.9727 31.2277 91.5899 31.1137 91.1585 31.0429C90.7261 30.972 90.3771 30.9361 90.1113 30.9361H89.2436V35.2656H90.264C90.5496 35.2656 90.8114 35.2533 91.0504 35.2297C91.2894 35.2051 91.5879 35.1476 91.9479 35.0562C92.3079 34.9648 92.6966 34.8344 93.1151 34.665C93.1151 34.5675 93.1191 34.4925 93.127 34.4402C93.127 34.3272 93.131 34.24 93.1389 34.1794C93.1468 34.0541 93.1706 33.9104 93.2093 33.7482H93.4503V34.9381C93.3958 34.9669 93.3432 34.9874 93.2946 35.0018C93.246 35.0161 93.1895 35.0336 93.127 35.0531C92.9237 35.1178 92.7551 35.1589 92.6222 35.1743C92.5439 35.1907 92.4566 35.2102 92.3614 35.2348C92.2652 35.2595 92.167 35.2769 92.0649 35.2893C91.9558 35.3139 91.7872 35.3334 91.5601 35.3498H93.4483C93.4483 35.4145 93.4443 35.4648 93.4364 35.5018V35.7995C93.4443 35.8242 93.4483 35.8601 93.4483 35.9083H93.1488C93.1409 35.8837 93.1369 35.8354 93.1369 35.7626V35.6229H88.8558V26.818H91.0167C91.1188 26.8139 91.2101 26.8109 91.2924 26.8088C91.3747 26.8067 91.4808 26.8057 91.6097 26.8057H92.2087C92.2672 26.8057 92.3594 26.8016 92.4844 26.7934C92.6093 26.7852 92.7016 26.7811 92.7601 26.7811H92.9892C92.9931 26.7647 93.0021 26.7421 93.0159 26.7113C93.0298 26.6805 93.0447 26.6456 93.0596 26.6045H93.2886C93.25 26.7256 93.2182 26.9125 93.1944 27.163L91.4639 27.0172C92.289 27.1835 92.8464 27.3447 93.1359 27.5028C93.132 27.5316 93.129 27.5562 93.127 27.5788C93.125 27.6014 93.1201 27.6281 93.1121 27.6609C93.0963 27.7133 93.0784 27.8047 93.0596 27.934C93.0477 28.0839 93.0318 28.2092 93.013 28.3108H92.7254C92.7095 28.2421 92.7016 28.1343 92.7016 27.9895C92.7016 27.8807 92.7095 27.7934 92.7254 27.7287C92.3188 27.4977 91.9003 27.3478 91.4699 27.279C91.0395 27.2102 90.5724 27.1722 90.0686 27.164H89.3883C89.3685 27.3991 89.3566 27.5367 89.3536 27.5768C89.3338 27.779 89.3159 28.0644 89.3011 28.433C89.2852 28.7646 89.2773 29.0141 89.2773 29.1794C89.2614 29.2564 89.2535 29.3817 89.2535 29.5562C89.2455 29.5891 89.2416 29.6455 89.2416 29.7266V30.4977H89.2436Z" fill="#F3F3F3"/>
<path d="M95.0916 27.0315C94.8843 26.9422 94.7395 26.8755 94.6572 26.8313V26.5459C94.8367 26.6229 95.0152 26.6835 95.1908 26.7276C95.3663 26.7718 95.5626 26.8067 95.7768 26.8313C95.7848 26.9648 95.7887 27.1671 95.7887 27.4381V29.9401C95.7887 30.9566 95.7699 32.0017 95.7332 33.0767C95.6955 34.1516 95.6459 35.0007 95.5835 35.6239H94.9974C94.806 35.6239 94.6126 35.6362 94.4172 35.6598V35.3744C94.441 35.3703 94.4609 35.3672 94.4787 35.3652C94.4966 35.3631 94.5164 35.3621 94.5402 35.3621C94.5868 35.3539 94.6245 35.3487 94.6513 35.3467C94.679 35.3446 94.7058 35.3415 94.7336 35.3374C94.804 35.3169 94.8496 35.3066 94.8714 35.3036C94.8932 35.3015 94.921 35.2964 94.9567 35.2882C94.9924 35.2799 95.0331 35.2717 95.0797 35.2635C95.1303 34.8744 95.1769 34.3682 95.2175 33.742C95.2582 33.1157 95.2879 32.4863 95.3058 31.8508C95.3236 31.2153 95.3326 30.6065 95.3326 30.0233C95.3365 29.8816 95.3385 29.666 95.3385 29.3765C95.3385 29.087 95.3405 28.8714 95.3445 28.7297C95.3445 28.1753 95.3405 27.7584 95.3326 27.4792C95.3326 27.398 95.3326 27.3323 95.3296 27.282C95.3276 27.2317 95.3246 27.1753 95.3207 27.1147C95.3088 27.1106 95.2979 27.1075 95.2879 27.1055C95.278 27.1034 95.2691 27.1024 95.2612 27.1024C95.2334 27.0859 95.2056 27.0716 95.1759 27.0572C95.1471 27.0428 95.1184 27.0336 95.0906 27.0295L95.0916 27.0315ZM96.9153 27.1291H96.6515V33.1218C96.6555 33.2348 96.6584 33.3405 96.6604 33.4381C96.6624 33.5356 96.6634 33.6629 96.6634 33.821V34.78C96.6753 34.8693 96.6813 35.013 96.6813 35.2112C96.8726 35.2194 97.1523 35.2235 97.5202 35.2235C97.9893 35.2194 98.3959 35.1865 98.74 35.1229C99.0841 35.0602 99.34 34.9925 99.5086 34.9196C99.6771 34.8467 99.81 34.7779 99.9072 34.7132C99.9072 34.6362 99.9072 34.5756 99.9042 34.5315C99.9023 34.4873 99.8993 34.436 99.8953 34.3795C99.8993 34.3066 99.9023 34.2409 99.9042 34.1824C99.9062 34.1239 99.9072 34.05 99.9072 33.9606H100.159C100.159 34.4227 100.192 34.7563 100.258 34.9627C100.22 34.9832 100.19 35.0017 100.17 35.0171C100.049 35.053 99.9746 35.0736 99.9469 35.0777C99.8963 35.0941 99.8199 35.1136 99.7178 35.1383C99.6157 35.1629 99.5403 35.1824 99.4887 35.1988C99.3201 35.2276 99.1952 35.2533 99.1129 35.2779C99.0187 35.2984 98.9473 35.3138 98.8987 35.3261C98.8501 35.3385 98.7936 35.3508 98.7311 35.3621H100.256C100.272 35.4709 100.292 35.5705 100.315 35.6598C100.323 35.6999 100.328 35.7368 100.33 35.7686C100.332 35.8005 100.335 35.8354 100.339 35.8723C100.343 35.8806 100.346 35.8898 100.348 35.9001C100.35 35.9103 100.35 35.9216 100.35 35.934H100.157C100.121 35.8857 100.091 35.8025 100.063 35.6855H99.934C99.8834 35.6814 99.8358 35.6783 99.7932 35.6763C99.7505 35.6742 99.695 35.6732 99.6285 35.6732C99.4838 35.6732 99.3757 35.6691 99.3053 35.6608C99.2467 35.6608 99.1605 35.6567 99.0464 35.6485C98.9324 35.6403 98.8471 35.6362 98.7876 35.6362C98.7172 35.628 98.5922 35.6239 98.4117 35.6239H96.1914C96.1834 35.4504 96.1795 35.1927 96.1795 34.8528C96.1795 34.6793 96.1785 34.5387 96.1765 34.4309C96.1745 34.3241 96.1715 34.2071 96.1676 34.0818C96.1715 33.9524 96.1745 33.8333 96.1765 33.7266C96.1785 33.6198 96.1795 33.4802 96.1795 33.3108C96.1795 33.1691 96.1785 33.0561 96.1765 32.9709C96.1745 32.8857 96.1715 32.7933 96.1676 32.6917L96.1914 26.8323C96.5127 26.8323 96.7527 26.8241 96.9093 26.8077C96.9678 26.7995 97.0274 26.7933 97.0859 26.7892C97.1444 26.7851 97.2049 26.78 97.2654 26.7738C97.3259 26.7677 97.3863 26.7625 97.4449 26.7584C97.551 26.7338 97.663 26.7225 97.78 26.7225V26.9956C97.7215 27.0161 97.6571 27.0315 97.5867 27.0438C97.5123 27.0644 97.3814 27.0839 97.194 27.1044C97.1235 27.1044 97.0293 27.1126 96.9123 27.1291H96.9153Z" fill="#F3F3F3"/>
</g>
<defs>
<linearGradient id="paint0_linear_2346_28843" x1="20.5316" y1="19.5848" x2="20.5316" y2="0.265625" gradientUnits="userSpaceOnUse">
<stop stop-color="#EFDC24"/>
<stop offset="1" stop-color="#F4B330"/>
</linearGradient>
<clipPath id="clip0_2346_28843">
<rect width="150" height="43.097" fill="white"/>
</clipPath>
</defs>
</svg>
