<svg width="42" height="44" viewBox="0 0 42 44" fill="none" xmlns="http://www.w3.org/2000/svg">
<path d="M40.89 16.3501C39.6949 13.3031 37.7715 10.9685 34.841 9.54977C34.4219 9.34697 33.9311 9.36331 33.5265 9.59292C32.2108 10.3404 31.0383 11.3112 30.062 12.4538C29.8055 12.1379 27.9185 9.84725 26.4806 9.05786C26.2913 8.95353 26.072 8.82784 25.8337 8.68873C24.4832 7.89808 22.5173 6.64863 21.766 6.16846C21.5734 6.04527 21.3294 6.04108 21.1308 6.15421C20.8682 6.30379 20.6096 6.46008 20.356 6.62181C18.2464 7.96847 16.4351 9.73999 15.0429 11.8153C13.6447 10.4175 11.8758 9.38845 9.89575 8.88859C9.47053 8.78133 9.01739 8.89445 8.69615 9.19278C5.46753 12.1882 2.77702 15.9458 0.173096 19.5848C0.173096 15.7673 1.6288 11.995 3.69423 9.09641C7.49897 3.7521 13.7507 0.265625 20.8192 0.265625C20.8747 0.265625 20.9305 0.265625 20.9859 0.266882C25.3595 0.300821 29.4139 1.66801 32.7614 3.98339C34.4579 5.15574 35.9719 6.57153 37.2552 8.18006C39.1697 10.5801 40.5809 13.2801 40.89 16.3501Z" fill="url(#paint0_linear_2361_28844)"/>
<path d="M11.8791 13.0412C12.0195 12.8309 11.9305 12.5627 10.7224 12.4718C10.7079 12.4705 10.6925 12.4705 10.6779 12.4718C9.08829 12.5828 9.24608 13.7678 9.42248 14.3497C9.5034 14.6166 9.71379 14.8274 9.98203 14.9053C10.5262 15.0637 11.6166 15.0403 13.4805 13.6978C13.5837 13.6236 13.7253 13.6316 13.82 13.7162C13.9502 13.8327 14.1193 13.8972 14.2941 13.8972H14.9467C15.0726 13.8972 15.1931 13.8486 15.2838 13.7619L21.1029 8.18295C21.3433 7.9525 21.7082 7.91269 21.9938 8.0849C22.4765 8.37568 23.2258 8.8768 23.8501 9.512C24.0172 9.68212 24.0548 9.93854 23.9411 10.148C23.6292 10.7225 23.3245 11.5534 22.9001 12.1039C22.5712 12.5309 21.9619 12.6256 21.5221 12.313C21.4298 12.2472 21.3364 12.1785 21.2377 12.1169C21.0475 11.9979 20.9043 11.8102 20.8614 11.5907C20.8242 11.3992 20.8557 11.1813 21.1078 11.0401C21.2648 10.9521 21.4525 10.9337 21.6289 10.9701C22.2362 11.095 22.604 11.0895 22.8176 11.0556C23.0077 11.0254 23.1469 10.862 23.1384 10.6701C23.1259 10.3885 22.9098 9.99846 21.845 9.92597C20.4115 9.82835 20.1182 10.8419 20.0615 11.1616C20.0494 11.2312 20.0324 11.2986 20.0138 11.3669C19.9709 11.5253 19.9062 11.8479 19.9329 12.2975C19.9713 12.9532 21.9805 13.3773 21.9805 13.3773C21.9805 13.3773 22.8305 13.6085 23.3326 12.934C23.7105 12.4261 24.5148 11.3728 24.8899 10.8821C24.9963 10.7426 25.201 10.7279 25.3268 10.8503L27.5808 13.0442C28.2718 13.7166 29.0418 14.3058 29.8833 14.7775C31.1379 15.4815 32.9343 16.2046 34.744 15.96C35.4213 15.8686 36.0306 15.4664 36.3369 14.8567C36.4959 14.5404 36.5529 14.224 36.5606 13.9483C36.576 13.3844 36.2297 12.8682 35.7033 12.6629C35.2198 12.4747 34.5114 12.3511 33.6282 12.6252C32.6017 12.944 32.5111 13.5654 32.6094 14.0208C32.7077 14.4771 33.1172 14.8157 33.5821 14.7671C33.8738 14.7365 34.2015 14.5634 34.4673 14.0581C34.5502 13.9002 34.6526 13.751 34.7788 13.6245C35.4027 12.9981 35.8304 13.5314 35.8304 13.5314C35.8304 13.5314 36.5016 14.1558 34.8865 15.1174C33.7928 15.7685 32.5172 15.2728 31.8067 14.8848C31.4677 14.6996 31.3131 14.2986 31.441 13.9345C31.6886 13.2293 32.2113 12.0469 33.1504 11.1591C33.3879 10.9345 33.7338 10.8679 34.0429 10.9747C35.7033 11.5471 40.9775 13.9098 41.2704 20.8978C41.2858 21.2682 41.1118 21.6219 40.8112 21.8389C40.2857 22.2185 39.2617 22.811 37.4536 23.3695C37.2877 23.4206 37.1056 23.3599 37.0101 23.2149C36.9365 23.1034 36.8511 22.9488 36.7714 22.7435C36.6881 22.5286 36.5877 22.3203 36.4611 22.1272C36.1706 21.6839 36.0262 21.2699 35.9635 21.0504C35.9538 21.0168 35.9991 20.9963 36.0189 21.0248L37.0041 22.4335C37.0502 22.4997 37.1469 22.5039 37.1987 22.4418L37.3476 22.2646C37.4718 22.1167 37.4993 21.9114 37.4184 21.7367C37.0291 20.8957 35.7523 18.5657 33.7491 19.0651C32.0503 19.4435 31.0938 18.895 30.8361 18.7144C30.7588 18.6604 30.6799 18.6089 30.5966 18.5644C30.0901 18.295 28.5712 17.6242 27.8531 18.8192L27.491 18.7614C27.491 18.7614 27.4805 18.8674 27.5594 19.0706C27.5861 19.1389 27.601 19.2126 27.5958 19.286C27.5602 19.7724 27.7823 20.0888 27.9733 20.2677C28.1755 20.4575 28.2945 20.721 28.3176 20.9971C28.32 21.0281 28.322 21.0592 28.3236 21.0906C28.3305 21.2406 28.4527 21.36 28.6032 21.3675C28.8196 21.378 29.079 21.3839 29.0705 21.3499C29.0559 21.2921 28.8965 20.3812 29.1862 19.976C29.3804 19.7045 29.4314 20.5522 29.4439 21.1396C29.4508 21.466 29.3675 21.7882 29.2012 22.0694L28.0829 23.9632C28.0356 24.0437 28.0072 24.1338 28.0012 24.2268C27.9923 24.3592 27.9858 24.536 28.0129 24.5452C28.0562 24.5599 28.4329 24.5599 28.6214 24.386C28.7905 24.2301 29.2287 22.6275 30.1455 22.1037C30.3632 21.9793 30.6358 21.9713 30.8519 22.0983C31.2435 22.3283 31.335 22.7875 31.3471 23.1089C31.356 23.3469 31.4742 23.5669 31.6655 23.7085L32.4844 24.3148C32.5338 24.3512 32.5139 24.4287 32.4533 24.4367C31.6417 24.5393 28.0194 24.9516 25.1298 24.5507L21.1313 23.6117C20.8254 23.54 20.6089 23.2681 20.6069 22.9547L20.5964 20.9762C20.5956 20.8497 20.5721 20.7248 20.5256 20.6071C20.4188 20.3372 20.1825 19.8952 19.7731 19.8545C19.6043 19.8378 19.4401 19.9383 19.3911 20.1005C19.3596 20.2057 19.3507 20.3502 19.4085 20.5404C19.4332 20.6226 19.5117 20.6766 19.5979 20.6766H19.6019C19.6861 20.6766 19.7577 20.615 19.7698 20.5321L19.7872 20.4147C19.7994 20.333 19.8993 20.297 19.9588 20.3548C20.123 20.5145 20.316 20.8061 19.8827 21.0457C19.8107 21.0855 19.7286 21.1036 19.6468 21.1036H19.5166C19.362 21.1036 19.2159 21.034 19.1209 20.9129C18.9101 20.6452 18.6143 20.1319 18.9016 19.6086C19.0023 19.4251 19.1654 19.2834 19.3531 19.1904C19.3592 19.1875 19.3652 19.1846 19.3713 19.1812C19.6173 19.0618 19.8896 19.0065 20.1627 19.0077L21.9461 19.0165C22.5056 19.0191 22.9681 19.4515 23.0081 20.0083C23.0688 20.8501 23.136 22.0417 23.0972 22.8072C23.0883 22.9849 23.2667 23.1122 23.4334 23.0481L24.5743 22.609C24.79 22.5261 24.953 22.3451 25.0129 22.1221L25.7703 19.301C25.8682 18.9369 25.7824 18.5489 25.5413 18.259C24.4974 17.0028 21.4731 13.7171 18.5625 13.9358C15.8316 14.1411 13.1115 16.7749 11.9641 18.0264C11.6032 18.4199 11.4487 18.9591 11.5462 19.4837L11.9281 21.5372C11.9601 21.7082 11.8108 21.8573 11.6396 21.8259C10.3563 21.5896 5.79818 20.9682 1.19802 22.9782C-0.112041 23.3553 -0.10233 22.4867 0.103605 21.7538C0.231859 21.2967 0.446291 20.8685 0.719388 20.4801C1.78669 18.9629 5.80506 13.4715 9.93348 10.6668C10.1422 10.5251 10.4012 10.4732 10.646 10.5356C11.1379 10.6613 12.0038 11.0091 12.8384 11.9698C13.0363 12.1974 13.0116 12.5426 12.7899 12.7467L11.6501 13.7958C11.4191 14.0083 11.1108 14.1281 10.7981 14.1C10.5978 14.082 10.3866 14.0041 10.2236 13.8009C9.95168 13.4615 10.281 13.244 10.5654 13.1288C10.8066 13.0312 11.0801 13.0358 11.3107 13.1556L11.3334 13.1673C11.5219 13.2662 11.7626 13.2185 11.8808 13.0416L11.8791 13.0412Z" fill="#69B9DC"/>
<path d="M31.848 21.7205C32.098 21.7163 32.7502 21.6442 33.6759 21.0987C33.739 21.0614 33.8207 21.0756 33.8644 21.1347C33.9923 21.3086 34.2184 21.7465 34.2455 22.69C34.2484 22.7843 34.214 22.8761 34.1492 22.9448C33.9591 23.1468 33.5488 23.6332 33.4068 24.2035C33.3987 24.2366 33.355 24.2437 33.338 24.2139L33.2426 24.0451C33.154 23.8884 33.0043 23.7748 32.8291 23.7317L32.3812 23.6206C32.2481 23.5875 32.1328 23.5058 32.0596 23.3902C31.8977 23.135 31.6598 22.6167 31.7229 21.837C31.7282 21.772 31.7824 21.7217 31.848 21.7205Z" fill="#69B9DC"/>
<path d="M34.265 23.9735C34.2998 23.7988 34.3953 23.4611 34.6692 23.1774C34.846 22.9943 34.9358 22.7438 34.9358 22.4894V21.9309C34.9358 21.8831 34.9844 21.8509 35.0285 21.8697C35.317 21.9929 36.1986 22.445 36.5125 23.4715C36.5352 23.5461 36.4907 23.6245 36.4142 23.6404L34.3581 24.0657C34.3027 24.077 34.2533 24.0288 34.2642 23.9735H34.265Z" fill="#69B9DC"/>
<path d="M0 23.7875C0 23.7875 3.4568 21.5124 14.9301 23.5177C14.9301 23.5177 20.4155 24.4818 23.6607 25.1371C26.9059 25.7929 37.7869 27.5279 41.27 22.8234C41.27 22.8234 39.5768 30.6897 32.9788 31.7694C32.9788 31.7694 28.0647 32.5023 19.6427 28.6848C10.0241 24.067 0 23.7875 0 23.7875Z" fill="#0092CB"/>
<path d="M0.173218 24.2334C0.173218 24.2334 9.22021 25.0802 20.8104 30.7484C33.6177 36.9374 40.6005 28.8688 40.6005 28.8688C40.6005 28.8688 38.9202 35.1156 32.6038 39.4246C32.6038 39.4246 26.0559 39.4438 20.9953 35.1252C11.9941 26.7956 0.173218 24.2334 0.173218 24.2334Z" fill="#69B9DC"/>
<path d="M30.845 40.2669C27.8288 42.051 24.3518 43.0679 20.6502 43.0679C10.319 43.0679 1.7369 35.148 0.0218506 24.7305C0.505333 24.906 8.96608 27.9869 11.0667 29.148C13.2308 30.3429 16.0508 32.8498 16.0508 32.8498C16.0508 32.8498 23.0138 40.5137 30.845 40.2669Z" fill="#0092CB"/>
<defs>
<linearGradient id="paint0_linear_2361_28844" x1="20.5316" y1="19.5848" x2="20.5316" y2="0.265625" gradientUnits="userSpaceOnUse">
<stop stop-color="#EFDC24"/>
<stop offset="1" stop-color="#F4B330"/>
</linearGradient>
</defs>
</svg>
