<svg width="41" height="41" viewBox="0 0 41 41" fill="none" xmlns="http://www.w3.org/2000/svg">
<rect x="-1" y="1" width="38" height="38" rx="19" transform="matrix(-1 0 0 1 38.5 0.0966797)" fill="#3C3C3C" fill-opacity="0.2"/>
<path d="M23.5 14.8074C23.5927 14.8999 23.6663 15.0098 23.7165 15.1308C23.7667 15.2518 23.7925 15.3815 23.7925 15.5124C23.7925 15.6434 23.7667 15.7731 23.7165 15.8941C23.6663 16.015 23.5927 16.1249 23.5 16.2174L19.62 20.0974L23.5 23.9774C23.687 24.1644 23.7921 24.418 23.7921 24.6824C23.7921 24.9469 23.687 25.2005 23.5 25.3874C23.3131 25.5744 23.0595 25.6795 22.795 25.6795C22.5306 25.6795 22.277 25.5744 22.09 25.3874L17.5 20.7974C17.4073 20.7049 17.3338 20.595 17.2836 20.4741C17.2334 20.3531 17.2076 20.2234 17.2076 20.0924C17.2076 19.9615 17.2334 19.8318 17.2836 19.7108C17.3338 19.5898 17.4073 19.4799 17.5 19.3874L22.09 14.7974C22.47 14.4174 23.11 14.4174 23.5 14.8074Z" fill="#F2FAFC"/>
<rect x="-1" y="1" width="38" height="38" rx="19" transform="matrix(-1 0 0 1 38.5 0.0966797)" stroke="#F2FAFC" stroke-width="2"/>
</svg>
