<svg width="12" height="20" viewBox="0 0 12 20" fill="none" xmlns="http://www.w3.org/2000/svg">
<path d="M2.5749 0.899609L10.9999 9.29961C11.0999 9.39961 11.1706 9.50794 11.2119 9.62461C11.2539 9.74128 11.2749 9.86628 11.2749 9.99961C11.2749 10.1329 11.2539 10.2579 11.2119 10.3746C11.1706 10.4913 11.0999 10.5996 10.9999 10.6996L2.5749 19.1246C2.34157 19.3579 2.0499 19.4746 1.6999 19.4746C1.3499 19.4746 1.0499 19.3496 0.799903 19.0996C0.549903 18.8496 0.424903 18.5579 0.424903 18.2246C0.424903 17.8913 0.549903 17.5996 0.799903 17.3496L8.1499 9.99961L0.799901 2.64961C0.566568 2.41628 0.449901 2.12894 0.449901 1.78761C0.449901 1.44561 0.574901 1.14961 0.824901 0.89961C1.0749 0.64961 1.36657 0.524609 1.6999 0.524609C2.03323 0.524609 2.3249 0.649609 2.5749 0.899609Z" fill="#A6BCC6"/>
</svg>
