<svg width="12" height="20" viewBox="0 0 12 20" fill="none" xmlns="http://www.w3.org/2000/svg">
<path d="M9.4251 0.899609L1.0001 9.29961C0.900098 9.39961 0.829432 9.50794 0.788098 9.62461C0.746098 9.74128 0.725098 9.86628 0.725098 9.99961C0.725098 10.1329 0.746098 10.2579 0.788098 10.3746C0.829431 10.4913 0.900098 10.5996 1.0001 10.6996L9.4251 19.1246C9.65843 19.3579 9.9501 19.4746 10.3001 19.4746C10.6501 19.4746 10.9501 19.3496 11.2001 19.0996C11.4501 18.8496 11.5751 18.5579 11.5751 18.2246C11.5751 17.8913 11.4501 17.5996 11.2001 17.3496L3.8501 9.99961L11.2001 2.64961C11.4334 2.41628 11.5501 2.12894 11.5501 1.78761C11.5501 1.44561 11.4251 1.14961 11.1751 0.89961C10.9251 0.64961 10.6334 0.524609 10.3001 0.524609C9.96677 0.524609 9.6751 0.649609 9.4251 0.899609Z" fill="#A6BCC6"/>
</svg>
