<svg width="30" height="30" viewBox="0 0 30 30" fill="none" xmlns="http://www.w3.org/2000/svg">
<path d="M17.2093 15L27.0422 5.16809C27.6526 4.55772 27.6526 3.56811 27.0422 2.95778C26.4318 2.34741 25.4422 2.34741 24.8319 2.95778L15 12.7907L5.16809 2.95778C4.55772 2.34741 3.56811 2.34741 2.95778 2.95778C2.34745 3.56816 2.34741 4.55777 2.95778 5.16809L12.7907 15L2.95778 24.8319C2.34741 25.4423 2.34741 26.4319 2.95778 27.0422C3.56816 27.6525 4.55777 27.6526 5.16809 27.0422L15 17.2093L24.8319 27.0422C25.4422 27.6526 26.4318 27.6526 27.0422 27.0422C27.6525 26.4318 27.6525 25.4422 27.0422 24.8319L17.2093 15Z" fill="#F3F3F3"/>
</svg>
