<svg width="40" height="40" viewBox="0 0 40 40" fill="none" xmlns="http://www.w3.org/2000/svg">
<path d="M17.0005 14.7117C16.9077 14.8042 16.8342 14.9141 16.784 15.0351C16.7338 15.1561 16.708 15.2858 16.708 15.4167C16.708 15.5477 16.7338 15.6774 16.784 15.7984C16.8342 15.9193 16.9077 16.0292 17.0005 16.1217L20.8805 20.0017L17.0005 23.8817C16.8135 24.0687 16.7084 24.3223 16.7084 24.5867C16.7084 24.8512 16.8135 25.1048 17.0005 25.2917C17.1874 25.4787 17.441 25.5838 17.7055 25.5838C17.9699 25.5838 18.2235 25.4787 18.4105 25.2917L23.0005 20.7017C23.0932 20.6092 23.1667 20.4993 23.2169 20.3784C23.2671 20.2574 23.2929 20.1277 23.2929 19.9967C23.2929 19.8658 23.2671 19.7361 23.2169 19.6151C23.1667 19.4941 23.0932 19.3842 23.0005 19.2917L18.4105 14.7017C18.0305 14.3217 17.3905 14.3217 17.0005 14.7117Z" fill="#F4F7F8"/>
<rect x="1" y="1" width="38" height="38" rx="19" stroke="#F4F7F8" stroke-width="2"/>
</svg>
