<svg width="10" height="19" viewBox="0 0 10 19" fill="none" xmlns="http://www.w3.org/2000/svg">
<path d="M0 12.0967H2C2 13.1767 3.37 14.0967 5 14.0967C6.63 14.0967 8 13.1767 8 12.0967C8 10.9967 6.96 10.5967 4.76 10.0667C2.64 9.53668 0 8.87668 0 6.09668C0 4.30668 1.47 2.78668 3.5 2.27668V0.0966797H6.5V2.27668C8.53 2.78668 10 4.30668 10 6.09668H8C8 5.01668 6.63 4.09668 5 4.09668C3.37 4.09668 2 5.01668 2 6.09668C2 7.19668 3.04 7.59668 5.24 8.12668C7.36 8.65668 10 9.31668 10 12.0967C10 13.8867 8.53 15.4067 6.5 15.9167V18.0967H3.5V15.9167C1.47 15.4067 0 13.8867 0 12.0967Z" fill="#F3F3F3"/>
</svg>
