<svg width="40" height="41" viewBox="0 0 40 41" fill="none" xmlns="http://www.w3.org/2000/svg">
<path d="M17 14.9608C16.9073 15.0533 16.8337 15.1632 16.7835 15.2841C16.7333 15.4051 16.7075 15.5348 16.7075 15.6658C16.7075 15.7967 16.7333 15.9264 16.7835 16.0474C16.8337 16.1684 16.9073 16.2782 17 16.3708L20.88 20.2508L17 24.1308C16.813 24.3177 16.7079 24.5713 16.7079 24.8358C16.7079 25.1002 16.813 25.3538 17 25.5408C17.1869 25.7277 17.4405 25.8328 17.705 25.8328C17.9694 25.8328 18.223 25.7277 18.41 25.5408L23 20.9508C23.0927 20.8582 23.1662 20.7484 23.2164 20.6274C23.2666 20.5064 23.2924 20.3767 23.2924 20.2458C23.2924 20.1148 23.2666 19.9851 23.2164 19.8641C23.1662 19.7432 23.0927 19.6333 23 19.5408L18.41 14.9508C18.03 14.5708 17.39 14.5708 17 14.9608Z" fill="#8FACB8"/>
<rect x="1" y="1.25" width="38" height="38" rx="19" stroke="#8FACB8" stroke-width="2"/>
</svg>
