<svg width="24" height="24" viewBox="0 0 24 24" fill="none" xmlns="http://www.w3.org/2000/svg">
<path d="M3.05024 15.275L11.4502 6.84995C11.5502 6.74995 11.6586 6.67929 11.7752 6.63795C11.8919 6.59595 12.0169 6.57495 12.1502 6.57495C12.2836 6.57495 12.4086 6.59595 12.5252 6.63795C12.6419 6.67929 12.7502 6.74995 12.8502 6.84995L21.2752 15.275C21.5086 15.5083 21.6252 15.8 21.6252 16.15C21.6252 16.5 21.5002 16.8 21.2502 17.05C21.0002 17.3 20.7086 17.425 20.3752 17.425C20.0419 17.425 19.7502 17.3 19.5002 17.05L12.1502 9.69995L4.80024 17.05C4.56691 17.2833 4.27958 17.4 3.93825 17.4C3.59625 17.4 3.30024 17.275 3.05024 17.025C2.80024 16.775 2.67524 16.4833 2.67524 16.15C2.67524 15.8166 2.80024 15.525 3.05024 15.275Z" fill="#F2FAFC"/>
</svg>
