<svg width="26" height="21" viewBox="0 0 26 21" fill="none" xmlns="http://www.w3.org/2000/svg">
<path d="M9.875 7.8125C9.875 8.32756 9.72227 8.83104 9.43612 9.2593C9.14997 9.68755 8.74325 10.0213 8.2674 10.2184C7.79156 10.4155 7.26794 10.4671 6.76279 10.3666C6.25763 10.2661 5.79361 10.0181 5.42941 9.65392C5.06521 9.28972 4.81719 8.82571 4.7167 8.32055C4.61622 7.81539 4.66779 7.29178 4.8649 6.81593C5.062 6.34008 5.39578 5.93336 5.82404 5.64721C6.25229 5.36107 6.75578 5.20833 7.27083 5.20833C7.9615 5.20833 8.62388 5.4827 9.11226 5.97108C9.60063 6.45945 9.875 7.12183 9.875 7.8125ZM25.5 10.4167V8.33333C25.5 7.22826 25.061 6.16846 24.2796 5.38705C23.4982 4.60565 22.4384 4.16667 21.3333 4.16667H16.125C15.0199 4.16667 13.9601 4.60565 13.1787 5.38705C12.3973 6.16846 11.9583 7.22826 11.9583 8.33333V10.4167H25.5ZM2.58333 12.5V1.04167C2.58333 0.765399 2.47359 0.500447 2.27824 0.305097C2.08289 0.109747 1.81793 0 1.54167 0C1.2654 0 1.00045 0.109747 0.805097 0.305097C0.609747 0.500447 0.5 0.765399 0.5 1.04167L0.5 19.7917C0.5 20.0679 0.609747 20.3329 0.805097 20.5282C1.00045 20.7236 1.2654 20.8333 1.54167 20.8333C1.81793 20.8333 2.08289 20.7236 2.27824 20.5282C2.47359 20.3329 2.58333 20.0679 2.58333 19.7917V17.7083H23.4167V19.7917C23.4167 20.0679 23.5264 20.3329 23.7218 20.5282C23.9171 20.7236 24.1821 20.8333 24.4583 20.8333C24.7346 20.8333 24.9996 20.7236 25.1949 20.5282C25.3903 20.3329 25.5 20.0679 25.5 19.7917V12.5H2.58333Z" fill="#1A9DD0"/>
</svg>
