<svg width="24" height="22" viewBox="0 0 24 22" fill="none" xmlns="http://www.w3.org/2000/svg">
<path d="M18.99 20.8414C19.1394 21.3033 18.6093 21.6857 18.2182 21.3982L12.2961 17.0457C12.1199 16.9162 11.8801 16.9162 11.7039 17.0457L5.78187 21.3982C5.39072 21.6857 4.86063 21.3033 5.01003 20.8414L7.28867 13.7973C7.35512 13.5919 7.28223 13.367 7.10793 13.2397L1.17384 8.90378C0.783305 8.61843 0.985147 8.00007 1.46882 8.00007H8.78635C9.00363 8.00007 9.19604 7.85974 9.26244 7.65285L11.5239 0.605641C11.6725 0.142679 12.3275 0.142681 12.4761 0.605643L14.7376 7.65285C14.804 7.85974 14.9964 8.00007 15.2137 8.00007H22.5304C23.014 8.00007 23.2159 8.6184 22.8254 8.90377L16.8921 13.2396C16.7178 13.367 16.6449 13.5918 16.7113 13.7972L18.99 20.8414Z" fill="#EFA400"/>
</svg>
