<svg width="40" height="38" viewBox="0 0 40 38" fill="none" xmlns="http://www.w3.org/2000/svg">
<path d="M31.968 36.4818C32.1174 36.9437 31.5873 37.3261 31.1962 37.0386L20.2961 29.0274C20.12 28.898 19.8801 28.898 19.7039 29.0274L8.80388 37.0386C8.41273 37.3261 7.88263 36.9437 8.03204 36.4818L12.222 23.529C12.2885 23.3236 12.2156 23.0987 12.0413 22.9714L1.13185 15.0002C0.741313 14.7148 0.943154 14.0965 1.42683 14.0965H14.887C15.1043 14.0965 15.2967 13.9561 15.3631 13.7493L19.5239 0.783378C19.6725 0.320417 20.3275 0.320416 20.4761 0.783377L24.6369 13.7493C24.7033 13.9561 24.8957 14.0965 25.113 14.0965H38.5717C39.0554 14.0965 39.2572 14.7148 38.8667 15.0002L27.9587 22.9714C27.7844 23.0987 27.7116 23.3236 27.778 23.529L31.968 36.4818Z" fill="#B6B6B6"/>
</svg>
