<svg width="40" height="41" viewBox="0 0 40 41" fill="none" xmlns="http://www.w3.org/2000/svg">
<path d="M13.85 17.6826C13.0252 17.6826 12.2189 17.9274 11.5334 18.386C10.8478 18.8446 10.3138 19.4963 9.99892 20.2586C9.68405 21.021 9.60251 21.8596 9.76464 22.6683C9.92677 23.477 10.3253 24.2194 10.9096 24.8015C11.494 25.3835 12.238 25.779 13.0474 25.9379C13.8567 26.0968 14.695 26.0119 15.4561 25.694C16.2171 25.3761 16.8667 24.8394 17.3226 24.152C17.7784 23.4646 18.02 22.6574 18.0167 21.8326C18.0122 20.7304 17.5713 19.6749 16.7904 18.8971C16.0095 18.1193 14.9522 17.6826 13.85 17.6826ZM13.85 24.016C13.5484 24.0424 13.2445 24.0058 12.9578 23.9085C12.6711 23.8112 12.4077 23.6553 12.1845 23.4508C11.9612 23.2462 11.783 22.9975 11.661 22.7203C11.5391 22.4432 11.4761 22.1437 11.4761 21.841C11.4761 21.5382 11.5391 21.2387 11.661 20.9616C11.783 20.6844 11.9612 20.4357 12.1845 20.2311C12.4077 20.0266 12.6711 19.8707 12.9578 19.7734C13.2445 19.6761 13.5484 19.6395 13.85 19.666C14.1516 19.6395 14.4554 19.6761 14.7422 19.7734C15.0289 19.8707 15.2922 20.0266 15.5155 20.2311C15.7387 20.4357 15.917 20.6844 16.039 20.9616C16.1609 21.2387 16.2239 21.5382 16.2239 21.841C16.2239 22.1437 16.1609 22.4432 16.039 22.7203C15.917 22.9975 15.7387 23.2462 15.5155 23.4508C15.2922 23.6553 15.0289 23.8112 14.7422 23.9085C14.4554 24.0058 14.1516 24.0424 13.85 24.016ZM26.15 17.6826C25.3252 17.6826 24.5189 17.9274 23.8334 18.386C23.1478 18.8446 22.6138 19.4963 22.2989 20.2586C21.984 21.021 21.9025 21.8596 22.0646 22.6683C22.2268 23.477 22.6253 24.2194 23.2096 24.8015C23.794 25.3835 24.538 25.779 25.3474 25.9379C26.1567 26.0968 26.995 26.0119 27.7561 25.694C28.5171 25.3761 29.1667 24.8394 29.6226 24.152C30.0784 23.4646 30.32 22.6574 30.3167 21.8326C30.3122 20.7304 29.8713 19.6749 29.0904 18.8971C28.3095 18.1193 27.2522 17.6826 26.15 17.6826ZM28.3333 21.8326C28.3366 22.2651 28.2114 22.6889 27.9735 23.0501C27.7356 23.4114 27.3958 23.6938 26.9971 23.8616C26.5985 24.0294 26.159 24.075 25.7343 23.9927C25.3097 23.9103 24.9191 23.7037 24.6121 23.399C24.3051 23.0944 24.0955 22.7054 24.0099 22.2814C23.9243 21.8574 23.9665 21.4176 24.1313 21.0177C24.2961 20.6177 24.5759 20.2758 24.9353 20.0351C25.2947 19.7944 25.7175 19.666 26.15 19.666C26.7262 19.6659 27.279 19.8937 27.688 20.2995C28.097 20.7054 28.3289 21.2565 28.3333 21.8326Z" fill="#A6BCC6"/>
<path d="M20 3.88184C16.7037 3.88184 13.4814 4.85932 10.7405 6.69068C7.99972 8.52203 5.86352 11.125 4.60206 14.1704C3.3406 17.2159 3.01054 20.567 3.65363 23.8C4.29671 27.033 5.88406 30.0027 8.21494 32.3336C10.5458 34.6645 13.5155 36.2518 16.7485 36.8949C19.9816 37.538 23.3327 37.208 26.3781 35.9465C29.4235 34.685 32.0265 32.5488 33.8579 29.808C35.6892 27.0672 36.6667 23.8449 36.6667 20.5485C36.6667 18.3598 36.2356 16.1925 35.398 14.1704C34.5605 12.1484 33.3328 10.311 31.7852 8.76339C30.2375 7.21575 28.4002 5.98809 26.3781 5.15051C24.356 4.31293 22.1887 3.88184 20 3.88184ZM32.3 21.8318C32.3017 23.0294 31.9538 24.2014 31.2988 25.2039C30.6439 26.2065 29.7105 26.9961 28.6132 27.4757C27.5159 27.9553 26.3024 28.1041 25.1217 27.9039C23.9411 27.7037 22.8445 27.1631 21.9667 26.3485L20 28.4985L18.0334 26.3485C17.4381 26.8957 16.7408 27.3202 15.9814 27.5979C15.222 27.8756 14.4153 28.001 13.6074 27.967C12.7996 27.933 12.0063 27.7401 11.273 27.3995C10.5396 27.0589 9.88056 26.5772 9.33338 25.9818C8.78621 25.3865 8.36165 24.6892 8.08395 23.9298C7.80624 23.1704 7.68084 22.3638 7.71489 21.5559C7.74893 20.748 7.94177 19.9548 8.28239 19.2214C8.623 18.4881 9.10472 17.829 9.70005 17.2818L7.70005 15.1152H12.1667C14.4763 13.5344 17.2096 12.6885 20.0084 12.6885C22.8071 12.6885 25.5405 13.5344 27.85 15.1152H32.3L30.3 17.2985C30.928 17.8754 31.4298 18.5759 31.774 19.3561C32.1182 20.1362 32.2973 20.9791 32.3 21.8318Z" fill="#A6BCC6"/>
<path d="M24.6166 15.632C23.1541 15.0214 21.5849 14.707 20 14.707C18.4151 14.707 16.8459 15.0214 15.3833 15.632C16.6759 16.0633 17.8081 16.8748 18.6318 17.9602C19.4556 19.0456 19.9324 20.3544 20 21.7154C20.072 20.3557 20.5506 19.049 21.3737 17.9644C22.1968 16.8798 23.3265 16.0673 24.6166 15.632Z" fill="#A6BCC6"/>
</svg>
