<svg width="54" height="53" viewBox="0 0 54 53" fill="none" xmlns="http://www.w3.org/2000/svg">
<path d="M26.9999 39.3333C26.0555 39.3333 25.2644 39.0133 24.6266 38.3733C23.9866 37.7356 23.6666 36.9444 23.6666 36V12.1667L17.4166 18.4167C16.7499 19.0833 15.9721 19.4167 15.0833 19.4167C14.1944 19.4167 13.3888 19.0556 12.6666 18.3333C11.9999 17.6667 11.681 16.8744 11.7099 15.9567C11.7366 15.0411 12.0555 14.2778 12.6666 13.6667L24.6666 1.66667C24.9999 1.33333 25.361 1.09667 25.7499 0.956666C26.1388 0.818888 26.5555 0.75 26.9999 0.75C27.4444 0.75 27.861 0.818888 28.2499 0.956666C28.6388 1.09667 28.9999 1.33333 29.3333 1.66667L41.3332 13.6667C41.9999 14.3333 42.3188 15.1244 42.2899 16.04C42.2633 16.9578 41.9444 17.7222 41.3332 18.3333C40.6666 19 39.8755 19.3467 38.9599 19.3733C38.0421 19.4022 37.2499 19.0833 36.5833 18.4167L30.3333 12.1667V36C30.3333 36.9444 30.0144 37.7356 29.3766 38.3733C28.7366 39.0133 27.9444 39.3333 26.9999 39.3333ZM6.99992 52.6667C5.16658 52.6667 3.5977 52.0144 2.29325 50.71C0.986585 49.4033 0.333252 47.8333 0.333252 46V39.3333C0.333252 38.3889 0.652141 37.5967 1.28992 36.9567C1.92992 36.3189 2.72214 36 3.66659 36C4.61103 36 5.40325 36.3189 6.04325 36.9567C6.68103 37.5967 6.99992 38.3889 6.99992 39.3333V46H46.9999V39.3333C46.9999 38.3889 47.3199 37.5967 47.9599 36.9567C48.5977 36.3189 49.3888 36 50.3333 36C51.2777 36 52.0688 36.3189 52.7066 36.9567C53.3466 37.5967 53.6666 38.3889 53.6666 39.3333V46C53.6666 47.8333 53.0144 49.4033 51.7099 50.71C50.4033 52.0144 48.8333 52.6667 46.9999 52.6667H6.99992Z" fill="#4C7A8D"/>
</svg>
