<svg width="42" height="42" viewBox="0 0 42 42" fill="none" xmlns="http://www.w3.org/2000/svg">
<path fill-rule="evenodd" clip-rule="evenodd" d="M21 41.8337C32.5059 41.8337 41.8333 32.5063 41.8333 21.0003C41.8333 9.49439 32.5059 0.166992 21 0.166992C9.49403 0.166992 0.166626 9.49439 0.166626 21.0003C0.166626 32.5063 9.49403 41.8337 21 41.8337ZM21 6.41699C19.8494 6.41699 18.9166 7.34973 18.9166 8.50033V25.167C18.9166 26.3176 19.8494 27.2503 21 27.2503C22.1506 27.2503 23.0833 26.3176 23.0833 25.167V8.50032C23.0833 7.34973 22.1506 6.41699 21 6.41699ZM21 33.5003C22.1506 33.5003 23.0833 32.5676 23.0833 31.417C23.0833 30.2664 22.1506 29.3337 21 29.3337C19.8494 29.3337 18.9166 30.2664 18.9166 31.417C18.9166 32.5676 19.8494 33.5003 21 33.5003Z" fill="#D79300"/>
</svg>
