<svg width="40" height="41" viewBox="0 0 40 41" fill="none" xmlns="http://www.w3.org/2000/svg">
<g clip-path="url(#clip0_2236_22638)">
<path fill-rule="evenodd" clip-rule="evenodd" d="M20 3.88184C10.795 3.88184 3.33337 11.3435 3.33337 20.5485C3.33337 23.6985 4.20837 26.6485 5.73004 29.1618L4.24337 34.2152C4.15802 34.5053 4.1524 34.8131 4.22711 35.1061C4.30183 35.3992 4.45412 35.6667 4.66797 35.8806C4.88183 36.0944 5.14934 36.2467 5.4424 36.3214C5.73546 36.3961 6.04324 36.3905 6.33337 36.3052L11.3867 34.8185C13.9845 36.3903 16.9637 37.2193 20 37.2152C29.205 37.2152 36.6667 29.7535 36.6667 20.5485C36.6667 11.3435 29.205 3.88184 20 3.88184ZM16.23 24.3202C19.6017 27.6902 22.82 28.1352 23.9567 28.1768C25.685 28.2402 27.3684 26.9202 28.0234 25.3885C28.1061 25.198 28.1361 24.9887 28.1103 24.7826C28.0845 24.5765 28.0038 24.3811 27.8767 24.2168C26.9634 23.0502 25.7284 22.2118 24.5217 21.3785C24.2698 21.2043 23.9602 21.1344 23.6578 21.1835C23.3555 21.2326 23.0839 21.3969 22.9 21.6418L21.9 23.1668C21.8475 23.2488 21.7655 23.3076 21.671 23.3312C21.5765 23.3547 21.4766 23.3412 21.3917 23.2935C20.7134 22.9052 19.725 22.2452 19.015 21.5352C18.305 20.8252 17.685 19.8818 17.3367 19.2468C17.2935 19.1662 17.281 19.0726 17.3016 18.9834C17.3221 18.8942 17.3743 18.8155 17.4484 18.7618L18.9884 17.6185C19.2082 17.4274 19.35 17.1622 19.3869 16.8733C19.4237 16.5844 19.3531 16.292 19.1884 16.0518C18.4417 14.9585 17.5717 13.5685 16.31 12.6468C16.1472 12.5288 15.9565 12.4553 15.7566 12.4334C15.5567 12.4114 15.3546 12.4419 15.17 12.5218C13.6367 13.1785 12.31 14.8618 12.3734 16.5935C12.415 17.7302 12.86 20.9485 16.23 24.3202Z" fill="#A6BCC6"/>
</g>
<defs>
<clipPath id="clip0_2236_22638">
<rect width="40" height="40" fill="white" transform="translate(0 0.548828)"/>
</clipPath>
</defs>
</svg>
