<svg width="9" height="16" viewBox="0 0 9 16" fill="none" xmlns="http://www.w3.org/2000/svg">
<path d="M1.78877 0.296744L8.45856 6.94675C8.53773 7.02591 8.59367 7.11167 8.62639 7.20404C8.65964 7.2964 8.67627 7.39536 8.67627 7.50091C8.67627 7.60647 8.65964 7.70542 8.62639 7.79779C8.59367 7.89015 8.53773 7.97591 8.45856 8.05508L1.78877 14.7249C1.60405 14.9096 1.37314 15.002 1.09606 15.002C0.818978 15.002 0.581478 14.903 0.383561 14.7051C0.185645 14.5072 0.0866864 14.2763 0.0866863 14.0124C0.0866863 13.7485 0.185645 13.5176 0.383561 13.3197L6.20231 7.50091L0.38356 1.68216C0.198838 1.49744 0.106477 1.26997 0.106477 0.999745C0.106477 0.728995 0.205435 0.494661 0.403352 0.296745C0.601268 0.0988279 0.832171 -0.000130503 1.09606 -0.000130526C1.35995 -0.000130549 1.59085 0.0988278 1.78877 0.296744Z" fill="#4C7A8D"/>
</svg>
