<svg width="20" height="21" viewBox="0 0 20 21" fill="none" xmlns="http://www.w3.org/2000/svg">
<path d="M10.7692 20.1042L19.7082 11.2388C19.8143 11.1332 19.8893 11.0189 19.9332 10.8958C19.9777 10.7726 20 10.6407 20 10.5C20 10.3593 19.9777 10.2274 19.9332 10.1042C19.8893 9.98109 19.8143 9.86675 19.7082 9.76121L10.7692 0.869393C10.5217 0.623131 10.2122 0.5 9.84085 0.5C9.4695 0.5 9.15119 0.631926 8.88594 0.895778C8.62069 1.15963 8.48806 1.46746 8.48806 1.81926C8.48806 2.17106 8.62069 2.47889 8.88594 2.74274L16.6844 10.5L8.88594 18.2573C8.63837 18.5035 8.51459 18.8068 8.51459 19.167C8.51459 19.528 8.64721 19.8404 8.91247 20.1042C9.17772 20.3681 9.48718 20.5 9.84085 20.5C10.1945 20.5 10.504 20.3681 10.7692 20.1042Z" fill="#F3F3F3"/>
<path d="M2.28095 20.1042L11.2199 11.2388C11.326 11.1332 11.401 11.0189 11.4449 10.8958C11.4894 10.7726 11.5117 10.6407 11.5117 10.5C11.5117 10.3593 11.4894 10.2274 11.4449 10.1042C11.401 9.98109 11.326 9.86675 11.2199 9.76121L2.28095 0.869393C2.03338 0.623131 1.72392 0.5 1.35257 0.5C0.981215 0.5 0.662912 0.631926 0.397661 0.895778C0.132409 1.15963 -0.000217438 1.46746 -0.000217438 1.81926C-0.000217438 2.17106 0.132409 2.47889 0.397661 2.74274L8.19607 10.5L0.397661 18.2573C0.150092 18.5035 0.0263081 18.8068 0.0263081 19.167C0.0263081 19.528 0.158934 19.8404 0.424186 20.1042C0.689438 20.3681 0.998899 20.5 1.35257 20.5C1.70624 20.5 2.0157 20.3681 2.28095 20.1042Z" fill="#F3F3F3"/>
</svg>
